G04 Layer_Physical_Order=1*
G04 Layer_Color=255*
%FSLAX43Y43*%
%MOMM*%
G71*
G01*
G75*
%ADD10R,1.000X1.250*%
%ADD11R,0.600X0.600*%
%ADD12R,0.600X0.600*%
%ADD13R,0.850X0.850*%
%ADD14R,2.300X2.000*%
%ADD15R,1.000X0.600*%
%ADD16R,0.300X0.300*%
%ADD17R,1.400X0.300*%
%ADD18R,1.600X2.800*%
%ADD19R,1.250X1.000*%
%ADD20R,1.600X1.000*%
%ADD21R,0.600X1.000*%
%ADD22R,0.250X1.400*%
%ADD23R,1.400X0.250*%
%ADD24R,0.850X0.850*%
%ADD25R,0.300X0.300*%
%ADD26R,1.200X1.800*%
%ADD27R,3.100X5.180*%
%ADD28R,1.400X0.400*%
%ADD29C,0.300*%
%ADD30C,0.600*%
%ADD31C,0.700*%
%ADD32C,0.400*%
%ADD33C,0.250*%
%ADD34C,0.500*%
%ADD35C,2.000*%
%ADD36P,2.165X8X22.5*%
%ADD37P,2.165X8X292.5*%
%ADD38P,6.494X8X202.5*%
%ADD39O,5.000X2.000*%
%ADD40O,2.000X5.000*%
%ADD41C,1.500*%
%ADD42C,0.700*%
%ADD43C,0.500*%
D10*
X30325Y2025D02*
D03*
X32325D02*
D03*
X40050Y13850D02*
D03*
X38050D02*
D03*
X24650Y38900D02*
D03*
X26650D02*
D03*
X28825Y40725D02*
D03*
X30825D02*
D03*
X36400Y39700D02*
D03*
X38400D02*
D03*
X5550Y21750D02*
D03*
X3550D02*
D03*
X5500Y25675D02*
D03*
X3500D02*
D03*
X10600Y13150D02*
D03*
X8600D02*
D03*
X49875Y5575D02*
D03*
X47875D02*
D03*
X51100Y-3375D02*
D03*
X49100D02*
D03*
D11*
X43150Y-3525D02*
D03*
X42050D02*
D03*
X36350Y41825D02*
D03*
X37450D02*
D03*
X33825Y31575D02*
D03*
X32725D02*
D03*
X40350Y19725D02*
D03*
X41450D02*
D03*
X40850Y35575D02*
D03*
X39750D02*
D03*
X39750Y36700D02*
D03*
X40850D02*
D03*
D12*
X47225Y-1250D02*
D03*
Y-150D02*
D03*
X13775Y31475D02*
D03*
Y32475D02*
D03*
X1350Y24225D02*
D03*
Y23125D02*
D03*
X42175Y28175D02*
D03*
Y29275D02*
D03*
X29800Y24025D02*
D03*
Y22925D02*
D03*
X38550Y9625D02*
D03*
Y8525D02*
D03*
D13*
X51275Y700D02*
D03*
X49875D02*
D03*
X49225Y3325D02*
D03*
X47825D02*
D03*
X4350Y30425D02*
D03*
X2950D02*
D03*
X18625Y18225D02*
D03*
X17225D02*
D03*
D14*
X4650Y39125D02*
D03*
Y34525D02*
D03*
X19225Y32350D02*
D03*
Y27750D02*
D03*
D15*
X12050Y31500D02*
D03*
Y33400D02*
D03*
X9650Y32450D02*
D03*
X20450Y21900D02*
D03*
Y23800D02*
D03*
X18050Y22850D02*
D03*
D16*
X12025Y36575D02*
D03*
X11425D02*
D03*
X7150Y23950D02*
D03*
X7750D02*
D03*
X16225Y26000D02*
D03*
X15625D02*
D03*
X11225Y6025D02*
D03*
X11825D02*
D03*
X26875Y24450D02*
D03*
X27475D02*
D03*
X24675Y31550D02*
D03*
X25275D02*
D03*
X43900Y8700D02*
D03*
X43300D02*
D03*
D17*
X9575Y26950D02*
D03*
Y26450D02*
D03*
Y25950D02*
D03*
Y25450D02*
D03*
Y24950D02*
D03*
Y24450D02*
D03*
Y23950D02*
D03*
Y23450D02*
D03*
X13975Y26950D02*
D03*
Y26450D02*
D03*
Y25950D02*
D03*
Y25450D02*
D03*
Y24950D02*
D03*
Y24450D02*
D03*
Y23950D02*
D03*
Y23450D02*
D03*
D18*
X11775Y25200D02*
D03*
D19*
X22775Y27950D02*
D03*
Y25950D02*
D03*
X8525Y15250D02*
D03*
Y17250D02*
D03*
X54275Y-5425D02*
D03*
Y-3425D02*
D03*
D20*
X13500Y19625D02*
D03*
Y16625D02*
D03*
D21*
X11850Y9775D02*
D03*
X10900D02*
D03*
X9950D02*
D03*
Y7375D02*
D03*
X11850D02*
D03*
D22*
X33625Y29875D02*
D03*
X34125D02*
D03*
X34625D02*
D03*
X35125D02*
D03*
X35625D02*
D03*
X36125D02*
D03*
X36625D02*
D03*
X37125D02*
D03*
X37625D02*
D03*
X38125D02*
D03*
X38625D02*
D03*
X39125D02*
D03*
Y21475D02*
D03*
X38625D02*
D03*
X38125D02*
D03*
X37625D02*
D03*
X37125D02*
D03*
X36625D02*
D03*
X36125D02*
D03*
X35625D02*
D03*
X35125D02*
D03*
X34625D02*
D03*
X34125D02*
D03*
X33625D02*
D03*
D23*
X40575Y28425D02*
D03*
Y27925D02*
D03*
Y27425D02*
D03*
Y26925D02*
D03*
Y26425D02*
D03*
Y25925D02*
D03*
Y25425D02*
D03*
Y24925D02*
D03*
Y24425D02*
D03*
Y23925D02*
D03*
Y23425D02*
D03*
Y22925D02*
D03*
X32175D02*
D03*
Y23425D02*
D03*
Y23925D02*
D03*
Y24425D02*
D03*
Y24925D02*
D03*
Y25425D02*
D03*
Y25925D02*
D03*
Y26425D02*
D03*
Y26925D02*
D03*
Y27425D02*
D03*
Y27925D02*
D03*
Y28425D02*
D03*
D24*
X29950Y29375D02*
D03*
Y30775D02*
D03*
X42050Y8825D02*
D03*
Y10225D02*
D03*
D25*
X28525Y23025D02*
D03*
Y23625D02*
D03*
D26*
X25325Y26025D02*
D03*
Y30025D02*
D03*
X27725D02*
D03*
Y26025D02*
D03*
D27*
X42000Y2700D02*
D03*
D28*
X39050Y6925D02*
D03*
Y6275D02*
D03*
Y5625D02*
D03*
Y4975D02*
D03*
Y4325D02*
D03*
Y3675D02*
D03*
Y3025D02*
D03*
Y2375D02*
D03*
Y1725D02*
D03*
Y1075D02*
D03*
Y425D02*
D03*
Y-225D02*
D03*
Y-875D02*
D03*
Y-1525D02*
D03*
X44950Y6925D02*
D03*
Y6275D02*
D03*
Y5625D02*
D03*
Y4975D02*
D03*
Y4325D02*
D03*
Y3675D02*
D03*
Y3025D02*
D03*
Y2375D02*
D03*
Y1725D02*
D03*
Y1075D02*
D03*
Y425D02*
D03*
Y-225D02*
D03*
Y-875D02*
D03*
Y-1525D02*
D03*
D29*
X39154Y29875D02*
Y31696D01*
X37400Y10725D02*
X38050Y11375D01*
X37400Y10716D02*
Y10725D01*
X36396Y9712D02*
X37400Y10716D01*
X36396Y6163D02*
Y9712D01*
X38175Y17625D02*
Y19375D01*
X35750Y15200D02*
X38175Y17625D01*
X37625Y19925D02*
X38175Y19375D01*
X32250Y1875D02*
Y21525D01*
Y1875D02*
X34979Y-854D01*
X35787D01*
X35812Y-829D02*
X39004D01*
X35787Y-854D02*
X35812Y-829D01*
X36704Y1296D02*
X36879Y1121D01*
X36704Y1296D02*
Y1312D01*
X36262Y1754D02*
X36704Y1312D01*
X36246Y1754D02*
X36262D01*
X32850Y5150D02*
X36246Y1754D01*
X35125Y4250D02*
Y21475D01*
X32850Y5150D02*
Y20700D01*
X36625Y18225D02*
X37075Y17775D01*
X36625Y18225D02*
Y21475D01*
X34375Y18725D02*
X34625Y18975D01*
X35750Y4409D02*
Y15200D01*
X36396Y6163D02*
X37463Y5096D01*
X35750Y4409D02*
X37113Y3046D01*
X36575Y13875D02*
X36600Y13850D01*
X38050D01*
X43050Y-3425D02*
X44950Y-1525D01*
X52925Y10625D02*
Y12700D01*
X38050Y11375D02*
Y13850D01*
X37463Y5096D02*
X38108D01*
X38183Y5021D01*
X39004D01*
X39050Y4975D01*
X34625Y18975D02*
Y21475D01*
X33575Y19450D02*
X34125Y20000D01*
Y21475D01*
X32850Y20700D02*
X33575Y21425D01*
X37625Y19925D02*
Y21475D01*
X44950Y2375D02*
X46395D01*
X57421Y-1929D02*
X59407D01*
X60325Y-1011D01*
Y5475D01*
X56475Y4325D02*
X58825Y1975D01*
Y6975D02*
X60325Y5475D01*
X44950Y3675D02*
X44996Y3629D01*
X46708D01*
X47012Y3325D01*
X47825D01*
X44950Y3025D02*
X46529D01*
X44950Y4325D02*
X56475D01*
X33050Y23425D02*
X33325Y23150D01*
X32175Y23425D02*
X33050D01*
X30950Y22475D02*
Y23550D01*
X31325Y23925D01*
X32175D01*
X29800Y22925D02*
X30425Y23550D01*
Y23975D01*
X30875Y24425D01*
X32175D01*
X29600Y25200D02*
X29825Y25425D01*
X32175D01*
X44279Y31274D02*
X49660Y36655D01*
X43816Y26525D02*
X44279Y26988D01*
X43200Y26525D02*
X43816D01*
X40575Y26925D02*
X42800D01*
X44279Y26988D02*
Y31274D01*
X42800Y26925D02*
X43200Y26525D01*
X35625Y31525D02*
X35650Y31550D01*
X35625Y29875D02*
Y31525D01*
X33425Y42300D02*
Y45725D01*
X33650Y45950D01*
X38900Y31950D02*
X39154Y31696D01*
X39400Y27550D02*
X39525Y27425D01*
X40575D01*
X39400Y27550D02*
Y28650D01*
X40200Y29450D01*
Y32150D01*
X8300Y24450D02*
X9575D01*
X7075Y25675D02*
X8300Y24450D01*
X5500Y25675D02*
X7075D01*
X9575Y24950D02*
X11525D01*
X11775Y25200D01*
X8425Y24950D02*
X9575D01*
X2950Y30425D02*
X8425Y24950D01*
X12025Y36575D02*
Y41100D01*
X11850Y41275D02*
X12025Y41100D01*
Y33425D02*
Y36575D01*
Y33425D02*
X12050Y33400D01*
Y31500D02*
X13750D01*
X13775Y31475D01*
X13975Y25950D02*
X15575D01*
X15625Y26000D01*
Y25729D02*
Y26000D01*
Y25729D02*
X17554Y23800D01*
X20450D01*
X13975Y25450D02*
X14875D01*
X15250Y25075D01*
Y23950D02*
Y25075D01*
X13125Y24950D02*
X13975D01*
X12950Y24775D02*
X13125Y24950D01*
X12950Y23650D02*
Y24775D01*
X12512Y23212D02*
X12950Y23650D01*
X47875Y5575D02*
X52925Y10625D01*
X44950Y5625D02*
Y6275D01*
Y6321D01*
X43846D02*
Y7646D01*
X43346Y8146D02*
X43846Y7646D01*
X43346Y8146D02*
Y8654D01*
X43300Y8700D02*
X43346Y8654D01*
X43175Y8825D02*
X43300Y8700D01*
X42050Y8825D02*
X43175D01*
X46371Y5575D02*
X47875D01*
X45817Y5021D02*
X46371Y5575D01*
X44996Y5021D02*
X45817D01*
X44950Y4975D02*
X44996Y5021D01*
X44950Y1725D02*
X46262D01*
X44950Y1075D02*
X46128D01*
X44950Y425D02*
X45995D01*
X46315Y105D01*
X46970D01*
X47225Y-150D01*
X46886Y-1250D02*
X47225D01*
X46529Y3025D02*
X47233Y2321D01*
X46395Y2375D02*
X47003Y1767D01*
X48341Y659D02*
X48525Y475D01*
X46262Y1725D02*
X46774Y1213D01*
X46544Y659D02*
X48341D01*
X46128Y1075D02*
X46544Y659D01*
X45861Y-225D02*
X46886Y-1250D01*
X44950Y-225D02*
X45861D01*
X48197Y1213D02*
X48213Y1229D01*
X47967Y1767D02*
X47983Y1783D01*
X47003Y1767D02*
X47967D01*
X47738Y2321D02*
X47754Y2337D01*
X47233Y2321D02*
X47738D01*
X46774Y1213D02*
X48197D01*
X47754Y2337D02*
X55963D01*
X47983Y1783D02*
X53709D01*
X48213Y1229D02*
X49346D01*
X49875Y700D01*
X53709Y1783D02*
X57421Y-1929D01*
X55963Y2337D02*
X58825Y-525D01*
X47225Y-1500D02*
Y-1250D01*
Y-1500D02*
X49100Y-3375D01*
X43846Y6321D02*
X44950D01*
X32250Y21525D02*
X33325Y22600D01*
Y23150D01*
X39004Y1121D02*
X39050Y1075D01*
X36879Y1121D02*
X39004D01*
Y2421D02*
X39050Y2375D01*
X39004Y3071D02*
X39050Y3025D01*
X39004Y-829D02*
X39050Y-875D01*
X37113Y3046D02*
X37737D01*
X37762Y3071D01*
X39004D01*
X35125Y4250D02*
X36954Y2421D01*
X39004D01*
X30725Y22250D02*
X30950Y22475D01*
D30*
X38400Y39650D02*
X38575Y39825D01*
X38475Y9700D02*
X39225Y10450D01*
X38575Y39825D02*
X42775D01*
X39379Y21475D02*
X39700D01*
X40596Y20579D01*
X41204D01*
Y19971D02*
Y20579D01*
Y19971D02*
X41450Y19725D01*
X42200Y20475D01*
Y21300D01*
X39225Y10450D02*
X40625D01*
X38475Y9700D02*
X38550Y9625D01*
X54200Y-1850D02*
X54275Y-1925D01*
Y-3425D02*
Y-1925D01*
X53625Y-3375D02*
X53625Y-3375D01*
X51100Y-3375D02*
X53625D01*
X38400Y39650D02*
Y39700D01*
X6100Y30425D02*
X9575Y26950D01*
X4350Y30425D02*
X6100D01*
X4350D02*
Y34225D01*
X4650Y34525D01*
X6725Y32450D02*
X9650D01*
X4650Y34525D02*
X6725Y32450D01*
X4650Y34525D02*
X5125Y35000D01*
X7500D01*
X47225Y-150D02*
X47872D01*
X51097Y-3375D01*
X51100D01*
X39100Y-3025D02*
Y-1679D01*
X39050Y-1629D02*
X39100Y-1679D01*
D31*
X2896Y26475D02*
Y30479D01*
X10896Y9775D02*
Y10483D01*
X40850Y14650D02*
X42050D01*
X40050Y13850D02*
X40850Y14650D01*
X37425Y8550D02*
X38525D01*
X30325Y2025D02*
Y3625D01*
X42050Y10225D02*
Y14650D01*
X34900Y39950D02*
X35150Y39700D01*
X36400D01*
X31950Y38900D02*
X38900Y31950D01*
X26650Y38900D02*
X31950D01*
X31625Y40725D02*
X40200Y32150D01*
X30825Y40725D02*
X31625D01*
X28775Y42300D02*
X28825Y42250D01*
Y40725D02*
Y42250D01*
X24650Y38900D02*
Y40475D01*
X30825Y41025D02*
Y45625D01*
X31150Y45950D01*
X26650Y38900D02*
Y43950D01*
X28650Y45950D01*
X4650Y39125D02*
X6950Y41425D01*
Y44225D02*
X10000Y47275D01*
X11850D01*
X2896Y30479D02*
X2950Y30425D01*
X2896Y30479D02*
Y37371D01*
X4650Y39125D01*
X1350Y24225D02*
X2896Y25771D01*
Y26475D01*
X13775Y32475D02*
Y33700D01*
X13800Y33725D01*
X19225Y27750D02*
X19425Y27950D01*
X22775D01*
X20450Y21900D02*
X22775Y24225D01*
Y25950D01*
X17850Y33725D02*
X19225Y32350D01*
X13800Y33725D02*
X17850D01*
X18625Y20075D02*
X20450Y21900D01*
X18625Y18225D02*
Y20075D01*
X18254Y17854D02*
X18625Y18225D01*
X18254Y17196D02*
Y17854D01*
X17596Y17196D02*
X18254D01*
X17025Y16625D02*
X17596Y17196D01*
X13500Y16625D02*
X17025D01*
X13500D02*
X15475Y18600D01*
Y23675D01*
X14950Y24200D02*
X15475Y23675D01*
X10650Y21333D02*
X12512Y23196D01*
X13500Y16050D02*
Y16625D01*
X10600Y13150D02*
X13500Y16050D01*
X8600Y13150D02*
Y15175D01*
X8525Y15250D02*
X8600Y15175D01*
X10650Y17225D02*
Y21333D01*
X8600Y15175D02*
X10650Y17225D01*
X17225Y18225D02*
Y19600D01*
X17150Y19675D02*
X17225Y19600D01*
X13500Y19625D02*
Y21300D01*
X13475Y21325D02*
X13500Y21300D01*
X8525Y17250D02*
Y18700D01*
X11850Y9775D02*
Y11900D01*
X10600Y13150D02*
X11850Y11900D01*
X10200Y11179D02*
Y11300D01*
Y11179D02*
X10896Y10483D01*
X10600Y13150D02*
X13000D01*
X13900Y24200D02*
X14950D01*
X38525Y8550D02*
X38550Y8525D01*
X39050Y8025D01*
Y7079D02*
Y8025D01*
D32*
X2896Y26475D02*
X5421Y23950D01*
X28525Y22971D02*
X29754D01*
X38600Y35950D02*
X38850D01*
X38050D02*
X38600D01*
X39350Y36700D01*
X38850Y35950D02*
X39225Y35575D01*
X33825Y31575D02*
Y32725D01*
X33950Y32850D01*
X52375Y-600D02*
Y-400D01*
X40925Y35500D02*
X41925D01*
X40850Y35575D02*
X40925Y35500D01*
X41875Y36700D02*
X41900Y36675D01*
X38625Y20475D02*
X38625Y20475D01*
Y21475D01*
X49225Y3325D02*
X49250Y3350D01*
X50600D01*
X30700Y24925D02*
X32175D01*
X40575Y28425D02*
X41425Y29275D01*
X35250Y41850D02*
X35275Y41825D01*
X36350D01*
X24650Y40475D02*
X24675Y40500D01*
X39225Y35575D02*
X39750D01*
X39350Y36700D02*
X39750D01*
X40850D02*
X41875D01*
X40850Y36700D02*
X40850Y36700D01*
X40850Y35575D02*
Y36700D01*
X42650Y28175D02*
X43525Y27300D01*
X42175Y28175D02*
X42650D01*
X42175Y30375D02*
X42200Y30400D01*
X42175Y29275D02*
Y30375D01*
X41425Y29275D02*
X42175D01*
X41925Y27925D02*
X42175Y28175D01*
X40575Y27925D02*
X41925D01*
X27700Y22625D02*
X28125D01*
X28525Y23025D01*
X29754Y22971D02*
X29800Y22925D01*
X26875Y24450D02*
X27700Y23625D01*
X28525D01*
X28925Y24025D02*
X29800D01*
X28525Y23625D02*
X28925Y24025D01*
X29800D02*
X30700Y24925D01*
X26000Y24450D02*
X26875D01*
X23675Y31550D02*
X24675D01*
X31304Y29375D02*
X32175Y28504D01*
X29950Y29375D02*
X31304D01*
X29950Y30775D02*
X30900Y31725D01*
X31500D01*
X31650Y31575D01*
X32725D01*
X33825D02*
X34125Y31275D01*
Y29875D02*
Y31275D01*
X32725Y30775D02*
Y31575D01*
Y30775D02*
X33625Y29875D01*
X5421Y23950D02*
X7150D01*
X2175Y23125D02*
X3550Y21750D01*
X1350Y23125D02*
X2175D01*
X9575Y26450D02*
Y26950D01*
X6950Y41050D02*
X11412Y36588D01*
X6950Y41050D02*
Y41425D01*
Y44225D01*
X15275Y27750D02*
X19225D01*
X17475Y26000D02*
X19225Y27750D01*
X16229Y26000D02*
X17475D01*
X13975Y26450D02*
X15275Y27750D01*
X10000Y6025D02*
X11225D01*
X9950Y5975D02*
X10000Y6025D01*
X11825D02*
Y7350D01*
X11850Y7375D01*
X11825Y6025D02*
X13425D01*
X13450Y6050D01*
X44950Y6925D02*
Y8325D01*
X45100Y8475D01*
X44129D02*
X45100D01*
X43950Y8654D02*
X44129Y8475D01*
X51275Y700D02*
X52375Y-400D01*
D33*
X27825Y25925D02*
X32175D01*
X35625Y16425D02*
X35825Y16225D01*
X36125Y17350D02*
X36475Y17000D01*
X37125Y19100D02*
X37475Y18750D01*
X35625Y16425D02*
Y21475D01*
X37475Y7550D02*
X37971Y7054D01*
Y6568D02*
Y7054D01*
X37150Y6475D02*
X38000Y5625D01*
X38193Y6346D02*
X38979D01*
X37971Y6568D02*
X38193Y6346D01*
X41984Y-3458D02*
X43871Y-1571D01*
X38000Y5625D02*
X39050D01*
X37125Y19100D02*
Y21475D01*
X36125Y17350D02*
Y21475D01*
X43871Y-1571D02*
Y-946D01*
X44879D01*
X44950Y-875D01*
X50250Y32500D02*
X52760Y35010D01*
X48800Y32500D02*
X50250D01*
X44825Y28525D02*
X48800Y32500D01*
X44825Y26700D02*
Y28525D01*
X44050Y25925D02*
X44825Y26700D01*
X42950Y25925D02*
X44050D01*
X42450Y26425D02*
X42950Y25925D01*
X40575Y26425D02*
X42450D01*
X27725Y26025D02*
X27825Y25925D01*
X27475Y25775D02*
X27725Y26025D01*
X27475Y24450D02*
Y25775D01*
X25275Y30075D02*
X26746D01*
Y28968D02*
Y30075D01*
Y28968D02*
X26968Y28746D01*
X28554D01*
X30875Y26425D01*
X32175D01*
X25275Y30075D02*
Y31550D01*
X7875Y21750D02*
X9575Y23450D01*
X5550Y21750D02*
X7875D01*
X7750Y23950D02*
X9575D01*
X38979Y6346D02*
X39050Y6275D01*
X37931Y4325D02*
X39050D01*
X37727Y4529D02*
X37931Y4325D01*
X36921Y4529D02*
X37727D01*
X36675Y4775D02*
X36921Y4529D01*
X37550Y3675D02*
X39050D01*
X37425Y3800D02*
X37550Y3675D01*
X36525Y425D02*
X39050D01*
X35950Y1000D02*
X36525Y425D01*
X35600Y-225D02*
X39050D01*
X35475Y-100D02*
X35600Y-225D01*
D34*
X52700Y-4900D02*
X53225Y-5425D01*
X54275D01*
X40350Y18650D02*
X40400Y18600D01*
X40350Y18650D02*
Y19725D01*
X39375D02*
X40350D01*
X38625Y20475D02*
X39375Y19725D01*
X38400Y39700D02*
Y40875D01*
X37450Y41825D02*
X38400Y40875D01*
X37450Y41825D02*
Y44650D01*
X36150Y45950D02*
X37450Y44650D01*
D35*
X33650Y45950D02*
D03*
X31150D02*
D03*
X36150D02*
D03*
X58825Y1975D02*
D03*
Y4475D02*
D03*
Y-525D02*
D03*
X49660Y39425D02*
D03*
Y36655D02*
D03*
Y33885D02*
D03*
Y31115D02*
D03*
Y28345D02*
D03*
X52500Y38040D02*
D03*
Y35270D02*
D03*
Y32500D02*
D03*
Y29730D02*
D03*
D36*
X28650Y45950D02*
D03*
D37*
X58825Y6975D02*
D03*
D38*
X51080Y21385D02*
D03*
Y46385D02*
D03*
D39*
X11850Y47275D02*
D03*
Y41275D02*
D03*
D40*
X6950Y44225D02*
D03*
D41*
X47925Y12700D02*
D03*
X52925D02*
D03*
D42*
X38050Y35950D02*
D03*
X33950Y32850D02*
D03*
X42775Y39825D02*
D03*
X42050Y14650D02*
D03*
X52375Y-600D02*
D03*
X40625Y10450D02*
D03*
X41925Y35500D02*
D03*
X41900Y36675D02*
D03*
X35825Y16225D02*
D03*
X36475Y17000D02*
D03*
X37075Y17775D02*
D03*
X37475Y18750D02*
D03*
X34375Y18725D02*
D03*
X37475Y7550D02*
D03*
X37425Y8550D02*
D03*
X37150Y6475D02*
D03*
X36575Y13875D02*
D03*
X30325Y3625D02*
D03*
X52700Y-4900D02*
D03*
X54200Y-1850D02*
D03*
X33575Y19450D02*
D03*
X50600Y3350D02*
D03*
X29600Y25200D02*
D03*
X35650Y31550D02*
D03*
X33425Y42300D02*
D03*
X34900Y39950D02*
D03*
X35250Y41850D02*
D03*
X24675Y40500D02*
D03*
X28775Y42300D02*
D03*
X42200Y21300D02*
D03*
X43525Y27300D02*
D03*
X42200Y30400D02*
D03*
X27700Y22625D02*
D03*
X25900Y24350D02*
D03*
X31500Y31725D02*
D03*
X7500Y35000D02*
D03*
X13800Y33725D02*
D03*
X8525Y18700D02*
D03*
X17150Y19675D02*
D03*
X13475Y21325D02*
D03*
X10200Y11300D02*
D03*
X9950Y5975D02*
D03*
X13450Y6050D02*
D03*
X13000Y13150D02*
D03*
X45100Y8475D02*
D03*
X48525Y475D02*
D03*
X39100Y-3025D02*
D03*
X35475Y-100D02*
D03*
X35950Y1000D02*
D03*
X36675Y4775D02*
D03*
X37425Y3800D02*
D03*
X30725Y22250D02*
D03*
X40400Y18600D02*
D03*
D43*
X40900Y4900D02*
D03*
X42000D02*
D03*
X43100D02*
D03*
X40900Y3800D02*
D03*
X42000D02*
D03*
X43100D02*
D03*
X40900Y2700D02*
D03*
X42000D02*
D03*
X43100D02*
D03*
X40900Y1600D02*
D03*
X42000D02*
D03*
X43100D02*
D03*
X40900Y500D02*
D03*
X42000D02*
D03*
X43100D02*
D03*
M02*
