G04 Layer_Color=8421504*
%FSLAX43Y43*%
%MOMM*%
G71*
G01*
G75*
%ADD10R,1.000X1.250*%
%ADD11R,0.600X0.600*%
%ADD12R,0.600X0.600*%
%ADD13R,0.850X0.850*%
%ADD14R,2.300X2.000*%
%ADD15R,1.000X0.600*%
%ADD16R,0.300X0.300*%
%ADD17R,1.400X0.300*%
%ADD18R,1.600X2.800*%
%ADD19R,1.250X1.000*%
%ADD20R,1.600X1.000*%
%ADD21R,0.600X1.000*%
%ADD22R,0.250X1.400*%
%ADD23R,1.400X0.250*%
%ADD24R,0.850X0.850*%
%ADD25R,0.300X0.300*%
%ADD26R,1.200X1.800*%
%ADD27R,3.100X5.180*%
%ADD28R,1.400X0.400*%
D10*
X30325Y2025D02*
D03*
X32325D02*
D03*
X40050Y13850D02*
D03*
X38050D02*
D03*
X24650Y38900D02*
D03*
X26650D02*
D03*
X28825Y40725D02*
D03*
X30825D02*
D03*
X36400Y39700D02*
D03*
X38400D02*
D03*
X5550Y21750D02*
D03*
X3550D02*
D03*
X5500Y25675D02*
D03*
X3500D02*
D03*
X10600Y13150D02*
D03*
X8600D02*
D03*
X49875Y5575D02*
D03*
X47875D02*
D03*
X51100Y-3375D02*
D03*
X49100D02*
D03*
D11*
X43150Y-3525D02*
D03*
X42050D02*
D03*
X36350Y41825D02*
D03*
X37450D02*
D03*
X33825Y31575D02*
D03*
X32725D02*
D03*
X40350Y19725D02*
D03*
X41450D02*
D03*
X40850Y35575D02*
D03*
X39750D02*
D03*
X39750Y36700D02*
D03*
X40850D02*
D03*
D12*
X47225Y-1250D02*
D03*
Y-150D02*
D03*
X13775Y31475D02*
D03*
Y32475D02*
D03*
X1350Y24225D02*
D03*
Y23125D02*
D03*
X42175Y28175D02*
D03*
Y29275D02*
D03*
X29800Y24025D02*
D03*
Y22925D02*
D03*
X38550Y9625D02*
D03*
Y8525D02*
D03*
D13*
X51275Y700D02*
D03*
X49875D02*
D03*
X49225Y3325D02*
D03*
X47825D02*
D03*
X4350Y30425D02*
D03*
X2950D02*
D03*
X18625Y18225D02*
D03*
X17225D02*
D03*
D14*
X4650Y39125D02*
D03*
Y34525D02*
D03*
X19225Y32350D02*
D03*
Y27750D02*
D03*
D15*
X12050Y31500D02*
D03*
Y33400D02*
D03*
X9650Y32450D02*
D03*
X20450Y21900D02*
D03*
Y23800D02*
D03*
X18050Y22850D02*
D03*
D16*
X12025Y36575D02*
D03*
X11425D02*
D03*
X7150Y23950D02*
D03*
X7750D02*
D03*
X16225Y26000D02*
D03*
X15625D02*
D03*
X11225Y6025D02*
D03*
X11825D02*
D03*
X26875Y24450D02*
D03*
X27475D02*
D03*
X24675Y31550D02*
D03*
X25275D02*
D03*
X43900Y8700D02*
D03*
X43300D02*
D03*
D17*
X9575Y26950D02*
D03*
Y26450D02*
D03*
Y25950D02*
D03*
Y25450D02*
D03*
Y24950D02*
D03*
Y24450D02*
D03*
Y23950D02*
D03*
Y23450D02*
D03*
X13975Y26950D02*
D03*
Y26450D02*
D03*
Y25950D02*
D03*
Y25450D02*
D03*
Y24950D02*
D03*
Y24450D02*
D03*
Y23950D02*
D03*
Y23450D02*
D03*
D18*
X11775Y25200D02*
D03*
D19*
X22775Y27950D02*
D03*
Y25950D02*
D03*
X8525Y15250D02*
D03*
Y17250D02*
D03*
X54275Y-5425D02*
D03*
Y-3425D02*
D03*
D20*
X13500Y19625D02*
D03*
Y16625D02*
D03*
D21*
X11850Y9775D02*
D03*
X10900D02*
D03*
X9950D02*
D03*
Y7375D02*
D03*
X11850D02*
D03*
D22*
X33625Y29875D02*
D03*
X34125D02*
D03*
X34625D02*
D03*
X35125D02*
D03*
X35625D02*
D03*
X36125D02*
D03*
X36625D02*
D03*
X37125D02*
D03*
X37625D02*
D03*
X38125D02*
D03*
X38625D02*
D03*
X39125D02*
D03*
Y21475D02*
D03*
X38625D02*
D03*
X38125D02*
D03*
X37625D02*
D03*
X37125D02*
D03*
X36625D02*
D03*
X36125D02*
D03*
X35625D02*
D03*
X35125D02*
D03*
X34625D02*
D03*
X34125D02*
D03*
X33625D02*
D03*
D23*
X40575Y28425D02*
D03*
Y27925D02*
D03*
Y27425D02*
D03*
Y26925D02*
D03*
Y26425D02*
D03*
Y25925D02*
D03*
Y25425D02*
D03*
Y24925D02*
D03*
Y24425D02*
D03*
Y23925D02*
D03*
Y23425D02*
D03*
Y22925D02*
D03*
X32175D02*
D03*
Y23425D02*
D03*
Y23925D02*
D03*
Y24425D02*
D03*
Y24925D02*
D03*
Y25425D02*
D03*
Y25925D02*
D03*
Y26425D02*
D03*
Y26925D02*
D03*
Y27425D02*
D03*
Y27925D02*
D03*
Y28425D02*
D03*
D24*
X29950Y29375D02*
D03*
Y30775D02*
D03*
X42050Y8825D02*
D03*
Y10225D02*
D03*
D25*
X28525Y23025D02*
D03*
Y23625D02*
D03*
D26*
X25325Y26025D02*
D03*
Y30025D02*
D03*
X27725D02*
D03*
Y26025D02*
D03*
D27*
X42000Y2700D02*
D03*
D28*
X39050Y6925D02*
D03*
Y6275D02*
D03*
Y5625D02*
D03*
Y4975D02*
D03*
Y4325D02*
D03*
Y3675D02*
D03*
Y3025D02*
D03*
Y2375D02*
D03*
Y1725D02*
D03*
Y1075D02*
D03*
Y425D02*
D03*
Y-225D02*
D03*
Y-875D02*
D03*
Y-1525D02*
D03*
X44950Y6925D02*
D03*
Y6275D02*
D03*
Y5625D02*
D03*
Y4975D02*
D03*
Y4325D02*
D03*
Y3675D02*
D03*
Y3025D02*
D03*
Y2375D02*
D03*
Y1725D02*
D03*
Y1075D02*
D03*
Y425D02*
D03*
Y-225D02*
D03*
Y-875D02*
D03*
Y-1525D02*
D03*
M02*
