G04 Layer_Physical_Order=1*
G04 Layer_Color=255*
%FSLAX43Y43*%
%MOMM*%
G71*
G01*
G75*
%ADD10R,0.600X0.600*%
%ADD11R,0.600X0.600*%
%ADD12R,0.600X1.000*%
%ADD13R,1.000X1.250*%
%ADD14R,0.850X0.850*%
%ADD15R,0.300X0.300*%
%ADD16R,1.200X1.800*%
%ADD17R,0.300X0.300*%
%ADD18R,0.250X1.400*%
%ADD19R,1.400X0.250*%
%ADD20R,2.300X2.000*%
%ADD21R,1.000X0.600*%
%ADD22R,0.850X0.850*%
%ADD23R,1.400X0.300*%
%ADD24R,1.600X2.800*%
%ADD25R,1.600X1.000*%
%ADD26R,1.250X1.000*%
%ADD27O,0.200X0.400*%
%ADD28O,0.400X0.200*%
%ADD29R,2.800X2.800*%
%ADD30C,0.700*%
%ADD31C,0.250*%
%ADD32C,0.500*%
%ADD33C,0.600*%
%ADD34C,0.300*%
%ADD35C,0.400*%
%ADD36P,2.706X8X202.5*%
%ADD37C,2.500*%
%ADD38C,1.600*%
%ADD39R,1.600X1.600*%
%ADD40C,2.000*%
%ADD41P,2.165X8X292.5*%
%ADD42O,5.000X2.000*%
%ADD43O,2.000X5.000*%
%ADD44P,2.165X8X202.5*%
%ADD45P,6.494X8X112.5*%
%ADD46C,0.700*%
%ADD47C,0.500*%
G36*
X107500Y54632D02*
Y54632D01*
X107505Y54636D01*
X107917Y54595D01*
X108317Y54473D01*
X108687Y54276D01*
X109010Y54010D01*
X109276Y53687D01*
X109473Y53317D01*
X109595Y52917D01*
X109636Y52505D01*
X109632Y52500D01*
X109632D01*
X109639Y52462D01*
Y2539D01*
X109631Y2500D01*
X109631D01*
X109635Y2496D01*
X109595Y2083D01*
X109473Y1683D01*
X109276Y1313D01*
X109010Y990D01*
X108687Y724D01*
X108317Y527D01*
X107917Y405D01*
X107505Y365D01*
X107500Y369D01*
Y369D01*
X107461Y361D01*
X2623D01*
X2500Y361D01*
X2499Y361D01*
X2375Y369D01*
X2083Y397D01*
X1682Y519D01*
X1313Y716D01*
X989Y982D01*
X723Y1306D01*
X526Y1675D01*
X404Y2076D01*
X364Y2488D01*
X368Y2492D01*
X368D01*
X361Y2526D01*
Y52377D01*
X361Y52500D01*
X361Y52501D01*
X369Y52625D01*
X397Y52917D01*
X519Y53318D01*
X716Y53687D01*
X982Y54011D01*
X1306Y54277D01*
X1675Y54474D01*
X2076Y54596D01*
X2488Y54636D01*
X2492Y54632D01*
Y54632D01*
X2526Y54639D01*
X107462D01*
X107500Y54632D01*
D02*
G37*
%LPC*%
G36*
X30232Y18388D02*
Y17267D01*
X31353D01*
X31327Y17467D01*
X31200Y17772D01*
X30999Y18034D01*
X30737Y18235D01*
X30432Y18362D01*
X30232Y18388D01*
D02*
G37*
G36*
X6223Y17909D02*
X6200D01*
X6101Y17889D01*
X6017Y17833D01*
X5961Y17749D01*
X5941Y17650D01*
Y17627D01*
X6223D01*
Y17909D01*
D02*
G37*
G36*
X16177Y16641D02*
Y16177D01*
X16641D01*
X16619Y16286D01*
X16485Y16485D01*
X16286Y16619D01*
X16177Y16641D01*
D02*
G37*
G36*
X29978Y18388D02*
X29778Y18362D01*
X29473Y18235D01*
X29211Y18034D01*
X29010Y17772D01*
X28883Y17467D01*
X28857Y17267D01*
X29978D01*
Y18388D01*
D02*
G37*
G36*
X6500Y17909D02*
X6477D01*
Y17627D01*
X6759D01*
Y17650D01*
X6739Y17749D01*
X6683Y17833D01*
X6599Y17889D01*
X6500Y17909D01*
D02*
G37*
G36*
X32298Y20873D02*
X31866D01*
Y20700D01*
X31886Y20601D01*
X31942Y20517D01*
X32026Y20461D01*
X32125Y20441D01*
X32298D01*
Y20873D01*
D02*
G37*
G36*
X4098Y23048D02*
X3466D01*
Y22550D01*
X3486Y22451D01*
X3542Y22367D01*
X3626Y22311D01*
X3725Y22291D01*
X4098D01*
Y23048D01*
D02*
G37*
G36*
X5350Y19459D02*
X4750D01*
X4651Y19439D01*
X4575Y19389D01*
X4499Y19439D01*
X4400Y19459D01*
X4227D01*
Y18700D01*
Y17941D01*
X4400D01*
X4499Y17961D01*
X4575Y18011D01*
X4651Y17961D01*
X4750Y17941D01*
X5350D01*
X5449Y17961D01*
X5533Y18017D01*
X5589Y18101D01*
X5609Y18200D01*
Y19200D01*
X5589Y19299D01*
X5533Y19383D01*
X5449Y19439D01*
X5350Y19459D01*
D02*
G37*
G36*
X3973D02*
X3800D01*
X3701Y19439D01*
X3625Y19389D01*
X3549Y19439D01*
X3450Y19459D01*
X2850D01*
X2751Y19439D01*
X2667Y19383D01*
X2611Y19299D01*
X2591Y19200D01*
Y18200D01*
X2611Y18101D01*
X2667Y18017D01*
X2751Y17961D01*
X2850Y17941D01*
X3450D01*
X3549Y17961D01*
X3625Y18011D01*
X3701Y17961D01*
X3800Y17941D01*
X3973D01*
Y18700D01*
Y19459D01*
D02*
G37*
G36*
X16641Y15923D02*
X16177D01*
Y15459D01*
X16286Y15481D01*
X16485Y15615D01*
X16619Y15814D01*
X16641Y15923D01*
D02*
G37*
G36*
X3450Y17059D02*
X2850D01*
X2751Y17039D01*
X2667Y16983D01*
X2611Y16899D01*
X2591Y16800D01*
Y15800D01*
X2611Y15701D01*
X2667Y15617D01*
X2751Y15561D01*
X2850Y15541D01*
X3450D01*
X3549Y15561D01*
X3633Y15617D01*
X3689Y15701D01*
X3709Y15800D01*
Y16800D01*
X3689Y16899D01*
X3633Y16983D01*
X3549Y17039D01*
X3450Y17059D01*
D02*
G37*
G36*
X6759Y17373D02*
X6350D01*
X5941D01*
Y17350D01*
X5910Y17312D01*
X5650D01*
X5492Y17281D01*
X5359Y17191D01*
X5226Y17059D01*
X4750D01*
X4651Y17039D01*
X4567Y16983D01*
X4511Y16899D01*
X4491Y16800D01*
Y16330D01*
X4485Y16300D01*
X4491Y16270D01*
Y15800D01*
X4511Y15701D01*
X4567Y15617D01*
X4651Y15561D01*
X4750Y15541D01*
X5010D01*
X6401Y14151D01*
X6401Y14151D01*
X6584Y14028D01*
X6622Y14021D01*
X6636Y13951D01*
X6692Y13867D01*
X6776Y13811D01*
X6875Y13791D01*
X8125D01*
X8224Y13811D01*
X8308Y13867D01*
X8364Y13951D01*
X8371Y13985D01*
X10879D01*
X10886Y13951D01*
X10942Y13867D01*
X11026Y13811D01*
X11125Y13791D01*
X12375D01*
X12474Y13811D01*
X12558Y13867D01*
X12614Y13951D01*
X12634Y14050D01*
Y15050D01*
X12614Y15149D01*
X12558Y15233D01*
X12474Y15289D01*
X12375Y15309D01*
X11125D01*
X11026Y15289D01*
X10942Y15233D01*
X10886Y15149D01*
X10879Y15115D01*
X8371D01*
X8364Y15149D01*
X8308Y15233D01*
X8224Y15289D01*
X8125Y15309D01*
X6875D01*
X6846Y15303D01*
X6756Y15393D01*
X6805Y15510D01*
X7158D01*
X7164Y15506D01*
X7400Y15459D01*
X7636Y15506D01*
X7835Y15640D01*
X7969Y15839D01*
X8016Y16075D01*
X7969Y16311D01*
X7835Y16510D01*
X7636Y16644D01*
X7400Y16691D01*
X7164Y16644D01*
X7158Y16640D01*
X6867D01*
X6759Y16750D01*
Y16885D01*
X6762Y16900D01*
X6759Y16915D01*
Y17050D01*
X6739Y17149D01*
X6705Y17200D01*
X6739Y17251D01*
X6759Y17350D01*
Y17373D01*
D02*
G37*
G36*
X15923Y15923D02*
X15459D01*
X15481Y15814D01*
X15615Y15615D01*
X15814Y15481D01*
X15923Y15459D01*
Y15923D01*
D02*
G37*
G36*
X32875Y18405D02*
X32548Y18362D01*
X32243Y18235D01*
X31981Y18034D01*
X31780Y17772D01*
X31653Y17467D01*
X31610Y17140D01*
X31653Y16813D01*
X31780Y16508D01*
X31981Y16246D01*
X32243Y16045D01*
X32548Y15918D01*
X32875Y15875D01*
X33202Y15918D01*
X33507Y16045D01*
X33769Y16246D01*
X33970Y16508D01*
X34097Y16813D01*
X34140Y17140D01*
X34097Y17467D01*
X33970Y17772D01*
X33769Y18034D01*
X33507Y18235D01*
X33202Y18362D01*
X32875Y18405D01*
D02*
G37*
G36*
X31353Y17013D02*
X30232D01*
Y15892D01*
X30432Y15918D01*
X30737Y16045D01*
X30999Y16246D01*
X31200Y16508D01*
X31327Y16813D01*
X31353Y17013D01*
D02*
G37*
G36*
X15923Y16641D02*
X15814Y16619D01*
X15615Y16485D01*
X15481Y16286D01*
X15459Y16177D01*
X15923D01*
Y16641D01*
D02*
G37*
G36*
X41185Y18405D02*
X40858Y18362D01*
X40553Y18235D01*
X40291Y18034D01*
X40090Y17772D01*
X39963Y17467D01*
X39920Y17140D01*
X39963Y16813D01*
X40090Y16508D01*
X40291Y16246D01*
X40553Y16045D01*
X40858Y15918D01*
X41185Y15875D01*
X41512Y15918D01*
X41817Y16045D01*
X42079Y16246D01*
X42280Y16508D01*
X42407Y16813D01*
X42450Y17140D01*
X42407Y17467D01*
X42280Y17772D01*
X42079Y18034D01*
X41817Y18235D01*
X41512Y18362D01*
X41185Y18405D01*
D02*
G37*
G36*
X29978Y17013D02*
X28857D01*
X28883Y16813D01*
X29010Y16508D01*
X29211Y16246D01*
X29473Y16045D01*
X29778Y15918D01*
X29978Y15892D01*
Y17013D01*
D02*
G37*
G36*
X4984Y23048D02*
X4352D01*
Y22291D01*
X4725D01*
X4824Y22311D01*
X4908Y22367D01*
X4964Y22451D01*
X4984Y22550D01*
Y23048D01*
D02*
G37*
G36*
X29698Y27834D02*
X29525D01*
X29426Y27814D01*
X29342Y27758D01*
X29286Y27674D01*
X29266Y27575D01*
Y27402D01*
X29698D01*
Y27834D01*
D02*
G37*
G36*
X30125D02*
X29952D01*
Y27402D01*
X30384D01*
Y27575D01*
X30364Y27674D01*
X30308Y27758D01*
X30224Y27814D01*
X30125Y27834D01*
D02*
G37*
G36*
X2598Y27509D02*
X2425D01*
X2326Y27489D01*
X2242Y27433D01*
X2186Y27349D01*
X2166Y27250D01*
Y27077D01*
X2598D01*
Y27509D01*
D02*
G37*
G36*
X3025D02*
X2852D01*
Y27077D01*
X3284D01*
Y27250D01*
X3264Y27349D01*
X3208Y27433D01*
X3124Y27489D01*
X3025Y27509D01*
D02*
G37*
G36*
X94475Y31084D02*
X93875D01*
X93776Y31064D01*
X93692Y31008D01*
X93636Y30924D01*
X93616Y30825D01*
Y30576D01*
X93606Y30561D01*
X93559Y30325D01*
Y28901D01*
X93534Y28775D01*
X93581Y28539D01*
X93715Y28340D01*
X93914Y28206D01*
X94150Y28159D01*
X94386Y28206D01*
X94585Y28340D01*
X94610Y28365D01*
X94744Y28564D01*
X94791Y28800D01*
Y30325D01*
X94744Y30561D01*
X94734Y30576D01*
Y30825D01*
X94714Y30924D01*
X94658Y31008D01*
X94574Y31064D01*
X94475Y31084D01*
D02*
G37*
G36*
X3048Y29248D02*
X2416D01*
Y28750D01*
X2436Y28651D01*
X2492Y28567D01*
X2576Y28511D01*
X2675Y28491D01*
X3048D01*
Y29248D01*
D02*
G37*
G36*
X3934D02*
X3302D01*
Y28491D01*
X3675D01*
X3774Y28511D01*
X3858Y28567D01*
X3914Y28651D01*
X3934Y28750D01*
Y29248D01*
D02*
G37*
G36*
X43698Y28748D02*
X43234D01*
X43256Y28639D01*
X43390Y28440D01*
X43589Y28306D01*
X43698Y28284D01*
Y28748D01*
D02*
G37*
G36*
X11573Y29873D02*
X10641D01*
Y28600D01*
X10661Y28501D01*
X10717Y28417D01*
X10801Y28361D01*
X10900Y28341D01*
X11573D01*
Y29873D01*
D02*
G37*
G36*
X101700Y28284D02*
X100700D01*
X100601Y28264D01*
X100517Y28208D01*
X100017Y27708D01*
X99961Y27624D01*
X99941Y27525D01*
Y26637D01*
X97015Y23710D01*
X96881Y23511D01*
X96834Y23275D01*
Y18076D01*
X93801Y15043D01*
X93684Y15092D01*
Y15120D01*
X93690Y15150D01*
Y17467D01*
X93702Y17485D01*
X93749Y17721D01*
Y18221D01*
X93702Y18457D01*
X93568Y18657D01*
X91215Y21010D01*
X91015Y21144D01*
X90779Y21191D01*
X86784D01*
Y21200D01*
X86764Y21299D01*
X86708Y21383D01*
X86641Y21428D01*
Y21870D01*
X89205Y24434D01*
X90341D01*
Y24425D01*
X90361Y24326D01*
X90417Y24242D01*
X91042Y23617D01*
X91126Y23561D01*
X91225Y23541D01*
X92475D01*
X92574Y23561D01*
X92658Y23617D01*
X93283Y24242D01*
X93339Y24326D01*
X93359Y24425D01*
Y25675D01*
X93339Y25774D01*
X93283Y25858D01*
X92658Y26483D01*
X92574Y26539D01*
X92475Y26559D01*
X91225D01*
X91126Y26539D01*
X91042Y26483D01*
X90417Y25858D01*
X90361Y25774D01*
X90341Y25675D01*
Y25666D01*
X88950D01*
X88714Y25619D01*
X88515Y25485D01*
X85590Y22560D01*
X85456Y22361D01*
X85409Y22125D01*
Y21428D01*
X85342Y21383D01*
X85286Y21299D01*
X85266Y21200D01*
Y19950D01*
X85286Y19851D01*
X85342Y19767D01*
X85426Y19711D01*
X85525Y19691D01*
X86525D01*
X86624Y19711D01*
X86708Y19767D01*
X86764Y19851D01*
X86784Y19950D01*
Y19959D01*
X90524D01*
X91975Y18508D01*
X91926Y18391D01*
X90975D01*
X90739Y18344D01*
X90540Y18210D01*
X89440Y17110D01*
X89306Y16911D01*
X89259Y16675D01*
Y14154D01*
X89132Y14135D01*
X89096Y14253D01*
X88957Y14515D01*
X88769Y14744D01*
X88540Y14932D01*
X88278Y15071D01*
X87995Y15157D01*
X87700Y15186D01*
X87405Y15157D01*
X87162Y15084D01*
X79910Y22335D01*
X79711Y22469D01*
X79475Y22516D01*
X67505D01*
X67269Y22469D01*
X67070Y22335D01*
X67030Y22296D01*
X66860Y22318D01*
X66585Y22282D01*
X66328Y22176D01*
X66108Y22007D01*
X65939Y21787D01*
X65833Y21530D01*
X65797Y21255D01*
X65833Y20980D01*
X65939Y20723D01*
X66108Y20503D01*
X66328Y20334D01*
X66585Y20228D01*
X66860Y20192D01*
X67030Y20214D01*
X67055Y20190D01*
X67254Y20056D01*
X67490Y20009D01*
X67915D01*
X67940Y19987D01*
X68002Y19882D01*
X67994Y19840D01*
X67620Y19466D01*
X67612Y19467D01*
X67392Y19636D01*
X67135Y19742D01*
X66860Y19778D01*
X66585Y19742D01*
X66328Y19636D01*
X66108Y19467D01*
X65939Y19247D01*
X65833Y18990D01*
X65797Y18715D01*
X65833Y18440D01*
X65939Y18183D01*
X66108Y17963D01*
X66328Y17794D01*
X66585Y17688D01*
X66860Y17652D01*
X67135Y17688D01*
X67392Y17794D01*
X67612Y17963D01*
X67716Y18099D01*
X67740D01*
X67976Y18146D01*
X68175Y18280D01*
X68805Y18909D01*
X70745D01*
X71491Y18163D01*
Y17650D01*
X71511Y17551D01*
X71567Y17467D01*
X71634Y17422D01*
Y15275D01*
X71681Y15039D01*
X71815Y14840D01*
X75765Y10890D01*
X75964Y10756D01*
X76200Y10709D01*
X88525D01*
X88761Y10756D01*
X88960Y10890D01*
X90310Y12240D01*
X90444Y12439D01*
X90491Y12675D01*
Y15094D01*
X90618Y15106D01*
X90656Y14914D01*
X90666Y14899D01*
Y14650D01*
X90686Y14551D01*
X90742Y14467D01*
X90826Y14411D01*
X90925Y14391D01*
X91525D01*
X91563Y14360D01*
Y12770D01*
X91559Y12750D01*
X91606Y12514D01*
X91616Y12499D01*
Y12250D01*
X91636Y12151D01*
X91692Y12067D01*
X91776Y12011D01*
X91875Y11991D01*
X92475D01*
X92574Y12011D01*
X92658Y12067D01*
X92714Y12151D01*
X92734Y12250D01*
Y12261D01*
X92815Y12315D01*
X97885Y17385D01*
X98019Y17585D01*
X98066Y17821D01*
Y23020D01*
X99843Y24797D01*
X99963Y24738D01*
X99935Y24525D01*
X99978Y24198D01*
X99985Y24181D01*
X98490Y22685D01*
X98356Y22486D01*
X98309Y22250D01*
Y9005D01*
X93238Y3934D01*
X93050D01*
X92951Y3914D01*
X92867Y3858D01*
X92811Y3774D01*
X92791Y3675D01*
Y3426D01*
X92781Y3411D01*
X92734Y3175D01*
X92781Y2939D01*
X92791Y2924D01*
Y2675D01*
X92811Y2576D01*
X92867Y2492D01*
X92951Y2436D01*
X93050Y2416D01*
X93650D01*
X93749Y2436D01*
X93833Y2492D01*
X93889Y2576D01*
X93909Y2675D01*
Y2863D01*
X99360Y8315D01*
X99494Y8514D01*
X99541Y8750D01*
Y21995D01*
X99843Y22297D01*
X99963Y22238D01*
X99935Y22025D01*
X99978Y21698D01*
X100105Y21393D01*
X100306Y21131D01*
X100568Y20930D01*
X100775Y20844D01*
Y20706D01*
X100568Y20620D01*
X100306Y20419D01*
X100105Y20157D01*
X99978Y19852D01*
X99935Y19525D01*
X99978Y19198D01*
X100105Y18893D01*
X100306Y18631D01*
X100568Y18430D01*
X100873Y18303D01*
X101200Y18260D01*
X101527Y18303D01*
X101832Y18430D01*
X102094Y18631D01*
X102295Y18893D01*
X102422Y19198D01*
X102465Y19525D01*
X102422Y19852D01*
X102295Y20157D01*
X102094Y20419D01*
X101832Y20620D01*
X101625Y20706D01*
Y20844D01*
X101832Y20930D01*
X102094Y21131D01*
X102295Y21393D01*
X102422Y21698D01*
X102465Y22025D01*
X102422Y22352D01*
X102295Y22657D01*
X102094Y22919D01*
X101832Y23120D01*
X101625Y23206D01*
Y23344D01*
X101832Y23430D01*
X102094Y23631D01*
X102295Y23893D01*
X102422Y24198D01*
X102465Y24525D01*
X102422Y24852D01*
X102295Y25157D01*
X102094Y25419D01*
X101832Y25620D01*
X101763Y25649D01*
X101776Y25781D01*
X101799Y25786D01*
X101883Y25842D01*
X102383Y26342D01*
X102439Y26426D01*
X102459Y26525D01*
Y27525D01*
X102439Y27624D01*
X102383Y27708D01*
X101883Y28208D01*
X101883Y28208D01*
X101799Y28264D01*
X101700Y28284D01*
D02*
G37*
G36*
X3284Y26823D02*
X2725D01*
X2166D01*
Y26650D01*
X2186Y26551D01*
X2242Y26467D01*
Y26333D01*
X2186Y26249D01*
X2166Y26150D01*
Y25550D01*
X2186Y25451D01*
X2242Y25367D01*
X2326Y25311D01*
X2425Y25291D01*
X2557D01*
X2862Y24987D01*
X3028Y24875D01*
X3225Y24836D01*
X3491D01*
Y24725D01*
X3511Y24626D01*
X3567Y24542D01*
X3651Y24486D01*
X3750Y24466D01*
X4750D01*
X4849Y24486D01*
X4933Y24542D01*
X4989Y24626D01*
X5009Y24725D01*
Y25975D01*
X4989Y26074D01*
X4933Y26158D01*
X4849Y26214D01*
X4750Y26234D01*
X3750D01*
X3651Y26214D01*
X3567Y26158D01*
X3511Y26074D01*
X3494Y25988D01*
X3456Y25965D01*
X3380Y25942D01*
X3284Y26024D01*
Y26150D01*
X3264Y26249D01*
X3208Y26333D01*
Y26467D01*
X3264Y26551D01*
X3284Y26650D01*
Y26823D01*
D02*
G37*
G36*
X4098Y24059D02*
X3725D01*
X3626Y24039D01*
X3542Y23983D01*
X3486Y23899D01*
X3466Y23800D01*
Y23302D01*
X4098D01*
Y24059D01*
D02*
G37*
G36*
X4725D02*
X4352D01*
Y23302D01*
X4984D01*
Y23800D01*
X4964Y23899D01*
X4908Y23983D01*
X4824Y24039D01*
X4725Y24059D01*
D02*
G37*
G36*
X73850Y26561D02*
X73555Y26532D01*
X73272Y26446D01*
X73010Y26307D01*
X72781Y26119D01*
X72593Y25890D01*
X72474Y25666D01*
X68115D01*
X67879Y25619D01*
X67680Y25485D01*
X67030Y24836D01*
X66860Y24858D01*
X66585Y24822D01*
X66328Y24716D01*
X66108Y24547D01*
X65939Y24327D01*
X65833Y24070D01*
X65797Y23795D01*
X65833Y23520D01*
X65939Y23263D01*
X66108Y23043D01*
X66328Y22874D01*
X66585Y22768D01*
X66860Y22732D01*
X67135Y22768D01*
X67392Y22874D01*
X67612Y23043D01*
X67781Y23263D01*
X67887Y23520D01*
X67923Y23795D01*
X67901Y23965D01*
X68370Y24434D01*
X72474D01*
X72593Y24210D01*
X72781Y23981D01*
X73010Y23793D01*
X73272Y23654D01*
X73555Y23568D01*
X73850Y23539D01*
X74145Y23568D01*
X74428Y23654D01*
X74690Y23793D01*
X74919Y23981D01*
X75107Y24210D01*
X75226Y24434D01*
X79295D01*
X83266Y20463D01*
Y19950D01*
X83286Y19851D01*
X83342Y19767D01*
X83426Y19711D01*
X83525Y19691D01*
X84525D01*
X84624Y19711D01*
X84708Y19767D01*
X84764Y19851D01*
X84784Y19950D01*
Y21200D01*
X84764Y21299D01*
X84708Y21383D01*
X84624Y21439D01*
X84525Y21459D01*
X84012D01*
X79985Y25485D01*
X79786Y25619D01*
X79550Y25666D01*
X75226D01*
X75107Y25890D01*
X74919Y26119D01*
X74690Y26307D01*
X74428Y26446D01*
X74145Y26532D01*
X73850Y26561D01*
D02*
G37*
G36*
X12925Y26384D02*
X12252D01*
Y25752D01*
X13184D01*
Y26125D01*
X13164Y26224D01*
X13108Y26308D01*
X13024Y26364D01*
X12925Y26384D01*
D02*
G37*
G36*
X13023Y26998D02*
X12559D01*
X12581Y26889D01*
X12715Y26690D01*
X12914Y26556D01*
X13023Y26534D01*
Y26998D01*
D02*
G37*
G36*
X11998Y25498D02*
X11066D01*
Y25125D01*
X11086Y25026D01*
X11142Y24942D01*
X11226Y24886D01*
X11325Y24866D01*
X11998D01*
Y25498D01*
D02*
G37*
G36*
X13184D02*
X12252D01*
Y24866D01*
X12925D01*
X13024Y24886D01*
X13108Y24942D01*
X13164Y25026D01*
X13184Y25125D01*
Y25498D01*
D02*
G37*
G36*
X89748Y8773D02*
X89284D01*
X89306Y8664D01*
X89440Y8465D01*
X89639Y8331D01*
X89748Y8309D01*
Y8773D01*
D02*
G37*
G36*
X90466D02*
X90002D01*
Y8309D01*
X90111Y8331D01*
X90310Y8465D01*
X90444Y8664D01*
X90466Y8773D01*
D02*
G37*
G36*
X90175Y6409D02*
X90002D01*
Y5977D01*
X90434D01*
Y6150D01*
X90414Y6249D01*
X90358Y6333D01*
X90274Y6389D01*
X90175Y6409D01*
D02*
G37*
G36*
X59240Y9618D02*
X58965Y9582D01*
X58708Y9476D01*
X58488Y9307D01*
X58319Y9087D01*
X58213Y8830D01*
X58177Y8555D01*
X58213Y8280D01*
X58319Y8023D01*
X58488Y7803D01*
X58708Y7634D01*
X58965Y7528D01*
X59240Y7492D01*
X59515Y7528D01*
X59772Y7634D01*
X59992Y7803D01*
X60161Y8023D01*
X60267Y8280D01*
X60303Y8555D01*
X60267Y8830D01*
X60161Y9087D01*
X59992Y9307D01*
X59772Y9476D01*
X59515Y9582D01*
X59240Y9618D01*
D02*
G37*
G36*
X89748Y9491D02*
X89639Y9469D01*
X89440Y9335D01*
X89306Y9136D01*
X89284Y9027D01*
X89748D01*
Y9491D01*
D02*
G37*
G36*
X59113Y10968D02*
X58194D01*
X58213Y10820D01*
X58319Y10563D01*
X58488Y10343D01*
X58708Y10174D01*
X58965Y10068D01*
X59113Y10049D01*
Y10968D01*
D02*
G37*
G36*
X66733D02*
X65814D01*
X65833Y10820D01*
X65939Y10563D01*
X66108Y10343D01*
X66328Y10174D01*
X66585Y10068D01*
X66733Y10049D01*
Y10968D01*
D02*
G37*
G36*
X90002Y9491D02*
Y9027D01*
X90466D01*
X90444Y9136D01*
X90310Y9335D01*
X90111Y9469D01*
X90002Y9491D01*
D02*
G37*
G36*
X12375Y13309D02*
X11125D01*
X11026Y13289D01*
X10942Y13233D01*
X10886Y13149D01*
X10866Y13050D01*
Y12050D01*
X10886Y11951D01*
X10942Y11867D01*
X11026Y11811D01*
X11125Y11791D01*
X11638D01*
X11884Y11545D01*
Y9802D01*
X11868Y9795D01*
X11606Y9594D01*
X11405Y9332D01*
X11319Y9125D01*
X11181D01*
X11095Y9332D01*
X10894Y9594D01*
X10632Y9795D01*
X10327Y9922D01*
X10000Y9965D01*
X9673Y9922D01*
X9368Y9795D01*
X9106Y9594D01*
X8905Y9332D01*
X8819Y9125D01*
X8681D01*
X8595Y9332D01*
X8394Y9594D01*
X8132Y9795D01*
X8065Y9823D01*
Y11791D01*
X8125D01*
X8224Y11811D01*
X8308Y11867D01*
X8364Y11951D01*
X8384Y12050D01*
Y13050D01*
X8364Y13149D01*
X8308Y13233D01*
X8224Y13289D01*
X8125Y13309D01*
X6875D01*
X6776Y13289D01*
X6692Y13233D01*
X6636Y13149D01*
X6624Y13090D01*
X5700D01*
X5670Y13084D01*
X5400D01*
X5301Y13064D01*
X5217Y13008D01*
X5083D01*
X4999Y13064D01*
X4900Y13084D01*
X4727D01*
Y12525D01*
Y11966D01*
X4900D01*
X4999Y11986D01*
X5083Y12042D01*
X5217D01*
X5301Y11986D01*
X5400Y11966D01*
X5670D01*
X5700Y11960D01*
X6634D01*
X6636Y11951D01*
X6692Y11867D01*
X6776Y11811D01*
X6875Y11791D01*
X6935D01*
Y9823D01*
X6868Y9795D01*
X6606Y9594D01*
X6405Y9332D01*
X6278Y9027D01*
X6235Y8700D01*
X6278Y8373D01*
X6405Y8068D01*
X6606Y7806D01*
X6868Y7605D01*
X7173Y7478D01*
X7500Y7435D01*
X7827Y7478D01*
X8132Y7605D01*
X8394Y7806D01*
X8595Y8068D01*
X8681Y8275D01*
X8819D01*
X8905Y8068D01*
X9106Y7806D01*
X9368Y7605D01*
X9673Y7478D01*
X10000Y7435D01*
X10327Y7478D01*
X10632Y7605D01*
X10894Y7806D01*
X11095Y8068D01*
X11181Y8275D01*
X11319D01*
X11405Y8068D01*
X11606Y7806D01*
X11868Y7605D01*
X12173Y7478D01*
X12500Y7435D01*
X12827Y7478D01*
X13132Y7605D01*
X13394Y7806D01*
X13595Y8068D01*
X13624Y8137D01*
X13756Y8124D01*
X13761Y8101D01*
X13817Y8017D01*
X14317Y7517D01*
X14401Y7461D01*
X14500Y7441D01*
X15500D01*
X15599Y7461D01*
X15683Y7517D01*
X16183Y8017D01*
X16183Y8017D01*
X16239Y8101D01*
X16259Y8200D01*
Y9200D01*
X16239Y9299D01*
X16183Y9383D01*
X15683Y9883D01*
X15616Y9928D01*
Y11245D01*
X16162Y11791D01*
X16675D01*
X16774Y11811D01*
X16858Y11867D01*
X16914Y11951D01*
X16934Y12050D01*
Y13050D01*
X16914Y13149D01*
X16858Y13233D01*
X16774Y13289D01*
X16675Y13309D01*
X15425D01*
X15326Y13289D01*
X15242Y13233D01*
X15186Y13149D01*
X15166Y13050D01*
Y12537D01*
X14565Y11935D01*
X14431Y11736D01*
X14384Y11500D01*
Y9928D01*
X14317Y9883D01*
X13817Y9383D01*
X13817Y9383D01*
X13761Y9299D01*
X13756Y9276D01*
X13624Y9263D01*
X13595Y9332D01*
X13394Y9594D01*
X13132Y9795D01*
X13116Y9802D01*
Y11800D01*
X13069Y12036D01*
X12935Y12235D01*
X12634Y12537D01*
Y13050D01*
X12614Y13149D01*
X12558Y13233D01*
X12474Y13289D01*
X12375Y13309D01*
D02*
G37*
G36*
X107500Y3768D02*
X107483Y3764D01*
X107466Y3765D01*
X107205Y3731D01*
X107173Y3720D01*
X107140Y3714D01*
X106897Y3613D01*
X106868Y3594D01*
X106838Y3579D01*
X106629Y3419D01*
X106607Y3393D01*
X106581Y3371D01*
X106421Y3162D01*
X106406Y3132D01*
X106387Y3103D01*
X106286Y2860D01*
X106280Y2827D01*
X106269Y2795D01*
X106235Y2534D01*
X106237Y2500D01*
X106235Y2466D01*
X106269Y2205D01*
X106280Y2173D01*
X106286Y2140D01*
X106387Y1897D01*
X106406Y1868D01*
X106421Y1838D01*
X106581Y1629D01*
X106607Y1607D01*
X106629Y1581D01*
X106838Y1421D01*
X106868Y1406D01*
X106897Y1387D01*
X107140Y1286D01*
X107173Y1280D01*
X107205Y1269D01*
X107466Y1235D01*
X107483Y1236D01*
X107500Y1232D01*
X107517Y1236D01*
X107534Y1235D01*
X107795Y1269D01*
X107827Y1280D01*
X107860Y1286D01*
X108103Y1387D01*
X108132Y1406D01*
X108162Y1421D01*
X108371Y1581D01*
X108393Y1607D01*
X108419Y1629D01*
X108579Y1838D01*
X108594Y1868D01*
X108613Y1897D01*
X108714Y2140D01*
X108720Y2173D01*
X108731Y2205D01*
X108765Y2466D01*
X108763Y2500D01*
X108765Y2534D01*
X108731Y2795D01*
X108720Y2827D01*
X108714Y2860D01*
X108613Y3103D01*
X108594Y3132D01*
X108579Y3162D01*
X108419Y3371D01*
X108393Y3393D01*
X108371Y3419D01*
X108162Y3579D01*
X108132Y3594D01*
X108103Y3613D01*
X107860Y3714D01*
X107827Y3720D01*
X107795Y3731D01*
X107534Y3765D01*
X107517Y3764D01*
X107500Y3768D01*
D02*
G37*
G36*
X92273Y5448D02*
X91841D01*
Y5075D01*
X91861Y4976D01*
X91917Y4892D01*
X92001Y4836D01*
X92100Y4816D01*
X92273D01*
Y5448D01*
D02*
G37*
G36*
X67660Y9614D02*
X66060D01*
X65961Y9594D01*
X65877Y9538D01*
X65821Y9454D01*
X65801Y9355D01*
Y7755D01*
X65821Y7656D01*
X65877Y7572D01*
X65961Y7516D01*
X66060Y7496D01*
X67660D01*
X67759Y7516D01*
X67822Y7557D01*
X68266Y7113D01*
X68193Y6870D01*
X68164Y6575D01*
X68193Y6280D01*
X68279Y5997D01*
X68418Y5735D01*
X68606Y5506D01*
X68835Y5318D01*
X69097Y5179D01*
X69380Y5093D01*
X69675Y5064D01*
X69970Y5093D01*
X70253Y5179D01*
X70515Y5318D01*
X70744Y5506D01*
X70932Y5735D01*
X71051Y5959D01*
X74895D01*
X78866Y1988D01*
Y1475D01*
X78886Y1376D01*
X78942Y1292D01*
X79026Y1236D01*
X79125Y1216D01*
X80125D01*
X80224Y1236D01*
X80308Y1292D01*
X80364Y1376D01*
X80384Y1475D01*
Y2725D01*
X80364Y2824D01*
X80308Y2908D01*
X80224Y2964D01*
X80125Y2984D01*
X79612D01*
X75585Y7010D01*
X75386Y7144D01*
X75150Y7191D01*
X71051D01*
X70932Y7415D01*
X70744Y7644D01*
X70515Y7832D01*
X70253Y7971D01*
X69970Y8057D01*
X69675Y8086D01*
X69380Y8057D01*
X69137Y7984D01*
X68130Y8990D01*
X67931Y9124D01*
X67919Y9126D01*
Y9355D01*
X67899Y9454D01*
X67843Y9538D01*
X67759Y9594D01*
X67660Y9614D01*
D02*
G37*
G36*
X2500Y3768D02*
X2483Y3764D01*
X2466Y3765D01*
X2205Y3731D01*
X2173Y3720D01*
X2140Y3714D01*
X1897Y3613D01*
X1868Y3594D01*
X1838Y3579D01*
X1629Y3419D01*
X1607Y3393D01*
X1581Y3371D01*
X1421Y3162D01*
X1406Y3132D01*
X1387Y3103D01*
X1286Y2860D01*
X1280Y2827D01*
X1269Y2795D01*
X1235Y2534D01*
X1237Y2500D01*
X1235Y2466D01*
X1269Y2205D01*
X1280Y2173D01*
X1286Y2140D01*
X1387Y1897D01*
X1406Y1868D01*
X1421Y1838D01*
X1581Y1629D01*
X1607Y1607D01*
X1629Y1581D01*
X1838Y1421D01*
X1868Y1406D01*
X1897Y1387D01*
X2140Y1286D01*
X2173Y1280D01*
X2205Y1269D01*
X2466Y1235D01*
X2483Y1236D01*
X2500Y1232D01*
X2517Y1236D01*
X2534Y1235D01*
X2795Y1269D01*
X2827Y1280D01*
X2860Y1286D01*
X3103Y1387D01*
X3132Y1406D01*
X3162Y1421D01*
X3371Y1581D01*
X3393Y1607D01*
X3419Y1629D01*
X3579Y1838D01*
X3594Y1868D01*
X3613Y1897D01*
X3714Y2140D01*
X3720Y2173D01*
X3731Y2205D01*
X3765Y2466D01*
X3763Y2500D01*
X3765Y2534D01*
X3731Y2795D01*
X3720Y2827D01*
X3714Y2860D01*
X3613Y3103D01*
X3594Y3132D01*
X3579Y3162D01*
X3419Y3371D01*
X3393Y3393D01*
X3371Y3419D01*
X3162Y3579D01*
X3132Y3594D01*
X3103Y3613D01*
X2860Y3714D01*
X2827Y3720D01*
X2795Y3731D01*
X2534Y3765D01*
X2517Y3764D01*
X2500Y3768D01*
D02*
G37*
G36*
X92959Y5448D02*
X92527D01*
Y4816D01*
X92700D01*
X92799Y4836D01*
X92883Y4892D01*
X92939Y4976D01*
X92959Y5075D01*
Y5448D01*
D02*
G37*
G36*
X92700Y6334D02*
X92527D01*
Y5702D01*
X92959D01*
Y6075D01*
X92939Y6174D01*
X92883Y6258D01*
X92799Y6314D01*
X92700Y6334D01*
D02*
G37*
G36*
X89748Y6409D02*
X89575D01*
X89476Y6389D01*
X89392Y6333D01*
X89336Y6249D01*
X89316Y6150D01*
Y5977D01*
X89748D01*
Y6409D01*
D02*
G37*
G36*
X88300Y8084D02*
X87050D01*
X86951Y8064D01*
X86867Y8008D01*
X86242Y7383D01*
X86186Y7299D01*
X86166Y7200D01*
Y7191D01*
X84375D01*
X84139Y7144D01*
X83940Y7010D01*
X81190Y4260D01*
X81056Y4061D01*
X81009Y3825D01*
Y2953D01*
X80942Y2908D01*
X80886Y2824D01*
X80866Y2725D01*
Y1475D01*
X80886Y1376D01*
X80942Y1292D01*
X81026Y1236D01*
X81125Y1216D01*
X82125D01*
X82224Y1236D01*
X82308Y1292D01*
X82364Y1376D01*
X82384Y1475D01*
Y1484D01*
X87125D01*
X87361Y1531D01*
X87560Y1665D01*
X89875Y3979D01*
X90873Y2981D01*
X90881Y2939D01*
X90891Y2924D01*
Y2675D01*
X90911Y2576D01*
X90967Y2492D01*
X91051Y2436D01*
X91150Y2416D01*
X91750D01*
X91849Y2436D01*
X91933Y2492D01*
X91989Y2576D01*
X92009Y2675D01*
Y2924D01*
X92019Y2939D01*
X92066Y3175D01*
Y3275D01*
X92066Y3275D01*
X92019Y3511D01*
X92009Y3526D01*
Y3675D01*
X91989Y3774D01*
X91933Y3858D01*
X91849Y3914D01*
X91750Y3934D01*
X91662D01*
X90431Y5165D01*
X90414Y5249D01*
X90413Y5251D01*
X90366Y5350D01*
X90413Y5449D01*
X90414Y5451D01*
X90434Y5550D01*
Y5723D01*
X89875D01*
X89316D01*
Y5550D01*
X89336Y5451D01*
X89337Y5449D01*
X89384Y5350D01*
X89337Y5251D01*
X89336Y5249D01*
X89319Y5165D01*
X86870Y2716D01*
X82384D01*
Y2725D01*
X82364Y2824D01*
X82308Y2908D01*
X82241Y2953D01*
Y3570D01*
X84630Y5959D01*
X86166D01*
Y5950D01*
X86186Y5851D01*
X86242Y5767D01*
X86867Y5142D01*
X86951Y5086D01*
X87050Y5066D01*
X88300D01*
X88399Y5086D01*
X88483Y5142D01*
X89108Y5767D01*
X89164Y5851D01*
X89184Y5950D01*
Y7200D01*
X89164Y7299D01*
X89108Y7383D01*
X88483Y8008D01*
X88399Y8064D01*
X88300Y8084D01*
D02*
G37*
G36*
X92273Y6334D02*
X92100D01*
X92001Y6314D01*
X91917Y6258D01*
X91861Y6174D01*
X91841Y6075D01*
Y5702D01*
X92273D01*
Y6334D01*
D02*
G37*
G36*
X60286Y10968D02*
X59367D01*
Y10049D01*
X59515Y10068D01*
X59772Y10174D01*
X59992Y10343D01*
X60161Y10563D01*
X60267Y10820D01*
X60286Y10968D01*
D02*
G37*
G36*
X15923Y14423D02*
X15166D01*
Y14050D01*
X15186Y13951D01*
X15242Y13867D01*
X15326Y13811D01*
X15425Y13791D01*
X15923D01*
Y14423D01*
D02*
G37*
G36*
X16934D02*
X16177D01*
Y13791D01*
X16675D01*
X16774Y13811D01*
X16858Y13867D01*
X16914Y13951D01*
X16934Y14050D01*
Y14423D01*
D02*
G37*
G36*
X31490Y15565D02*
X31163Y15522D01*
X30858Y15395D01*
X30596Y15194D01*
X30395Y14932D01*
X30268Y14627D01*
X30225Y14300D01*
X30268Y13973D01*
X30395Y13668D01*
X30596Y13406D01*
X30858Y13205D01*
X31163Y13078D01*
X31490Y13035D01*
X31817Y13078D01*
X32122Y13205D01*
X32384Y13406D01*
X32585Y13668D01*
X32712Y13973D01*
X32755Y14300D01*
X32712Y14627D01*
X32585Y14932D01*
X32384Y15194D01*
X32122Y15395D01*
X31817Y15522D01*
X31490Y15565D01*
D02*
G37*
G36*
X39800D02*
X39473Y15522D01*
X39168Y15395D01*
X38906Y15194D01*
X38705Y14932D01*
X38578Y14627D01*
X38535Y14300D01*
X38578Y13973D01*
X38705Y13668D01*
X38906Y13406D01*
X39168Y13205D01*
X39473Y13078D01*
X39800Y13035D01*
X40127Y13078D01*
X40432Y13205D01*
X40694Y13406D01*
X40895Y13668D01*
X41022Y13973D01*
X41065Y14300D01*
X41022Y14627D01*
X40895Y14932D01*
X40694Y15194D01*
X40432Y15395D01*
X40127Y15522D01*
X39800Y15565D01*
D02*
G37*
G36*
X70325Y15184D02*
X69075D01*
X68976Y15164D01*
X68892Y15108D01*
X68267Y14483D01*
X68211Y14399D01*
X68191Y14300D01*
Y14251D01*
X67716D01*
X67612Y14387D01*
X67392Y14556D01*
X67135Y14662D01*
X66860Y14698D01*
X66585Y14662D01*
X66328Y14556D01*
X66108Y14387D01*
X65939Y14167D01*
X65833Y13910D01*
X65797Y13635D01*
X65833Y13360D01*
X65939Y13103D01*
X66108Y12883D01*
X66328Y12714D01*
X66585Y12608D01*
X66860Y12572D01*
X67135Y12608D01*
X67392Y12714D01*
X67612Y12883D01*
X67716Y13019D01*
X68197D01*
X68211Y12951D01*
X68267Y12867D01*
X68892Y12242D01*
X68976Y12186D01*
X69075Y12166D01*
X70325D01*
X70424Y12186D01*
X70508Y12242D01*
X71133Y12867D01*
X71189Y12951D01*
X71209Y13050D01*
Y14300D01*
X71189Y14399D01*
X71133Y14483D01*
X70508Y15108D01*
X70424Y15164D01*
X70325Y15184D01*
D02*
G37*
G36*
X59240Y17238D02*
X58965Y17202D01*
X58708Y17096D01*
X58488Y16927D01*
X58319Y16707D01*
X58213Y16450D01*
X58177Y16175D01*
X58213Y15900D01*
X58319Y15643D01*
X58488Y15423D01*
X58708Y15254D01*
X58965Y15148D01*
X59240Y15112D01*
X59515Y15148D01*
X59772Y15254D01*
X59992Y15423D01*
X60161Y15643D01*
X60267Y15900D01*
X60303Y16175D01*
X60267Y16450D01*
X60161Y16707D01*
X59992Y16927D01*
X59772Y17096D01*
X59515Y17202D01*
X59240Y17238D01*
D02*
G37*
G36*
X66860D02*
X66585Y17202D01*
X66328Y17096D01*
X66108Y16927D01*
X65939Y16707D01*
X65833Y16450D01*
X65797Y16175D01*
X65833Y15900D01*
X65939Y15643D01*
X66108Y15423D01*
X66328Y15254D01*
X66585Y15148D01*
X66860Y15112D01*
X67135Y15148D01*
X67392Y15254D01*
X67612Y15423D01*
X67781Y15643D01*
X67887Y15900D01*
X67923Y16175D01*
X67887Y16450D01*
X67781Y16707D01*
X67612Y16927D01*
X67392Y17096D01*
X67135Y17202D01*
X66860Y17238D01*
D02*
G37*
G36*
X15923Y15309D02*
X15425D01*
X15326Y15289D01*
X15242Y15233D01*
X15186Y15149D01*
X15166Y15050D01*
Y14677D01*
X15923D01*
Y15309D01*
D02*
G37*
G36*
X16675D02*
X16177D01*
Y14677D01*
X16934D01*
Y15050D01*
X16914Y15149D01*
X16858Y15233D01*
X16774Y15289D01*
X16675Y15309D01*
D02*
G37*
G36*
X66733Y12141D02*
X66585Y12122D01*
X66328Y12016D01*
X66108Y11847D01*
X65939Y11627D01*
X65833Y11370D01*
X65814Y11222D01*
X66733D01*
Y12141D01*
D02*
G37*
G36*
X59367Y12141D02*
Y11222D01*
X60286D01*
X60267Y11370D01*
X60161Y11627D01*
X59992Y11847D01*
X59772Y12016D01*
X59515Y12122D01*
X59367Y12141D01*
D02*
G37*
G36*
X67906Y10968D02*
X66987D01*
Y10049D01*
X67135Y10068D01*
X67392Y10174D01*
X67612Y10343D01*
X67781Y10563D01*
X67887Y10820D01*
X67906Y10968D01*
D02*
G37*
G36*
X59113Y12141D02*
X58965Y12122D01*
X58708Y12016D01*
X58488Y11847D01*
X58319Y11627D01*
X58213Y11370D01*
X58194Y11222D01*
X59113D01*
Y12141D01*
D02*
G37*
G36*
X66987Y12141D02*
Y11222D01*
X67906D01*
X67887Y11370D01*
X67781Y11627D01*
X67612Y11847D01*
X67392Y12016D01*
X67135Y12122D01*
X66987Y12141D01*
D02*
G37*
G36*
X49645Y18979D02*
X46645D01*
X46546Y18959D01*
X46462Y18903D01*
X44962Y17403D01*
X44906Y17319D01*
X44886Y17220D01*
Y14220D01*
X44906Y14121D01*
X44962Y14037D01*
X46462Y12537D01*
X46546Y12481D01*
X46645Y12461D01*
X49645D01*
X49744Y12481D01*
X49828Y12537D01*
X51328Y14037D01*
X51384Y14121D01*
X51404Y14220D01*
Y17220D01*
X51384Y17319D01*
X51328Y17403D01*
X49828Y18903D01*
X49744Y18959D01*
X49645Y18979D01*
D02*
G37*
G36*
X4473Y13084D02*
X4300D01*
X4201Y13064D01*
X4117Y13008D01*
X4061Y12924D01*
X4041Y12825D01*
Y12652D01*
X4473D01*
Y13084D01*
D02*
G37*
G36*
Y12398D02*
X4041D01*
Y12225D01*
X4061Y12126D01*
X4117Y12042D01*
X4201Y11986D01*
X4300Y11966D01*
X4473D01*
Y12398D01*
D02*
G37*
G36*
X24645Y18979D02*
X21645D01*
X21546Y18959D01*
X21462Y18903D01*
X19962Y17403D01*
X19906Y17319D01*
X19886Y17220D01*
Y14220D01*
X19906Y14121D01*
X19962Y14037D01*
X21462Y12537D01*
X21546Y12481D01*
X21645Y12461D01*
X24645D01*
X24744Y12481D01*
X24828Y12537D01*
X26328Y14037D01*
X26384Y14121D01*
X26404Y14220D01*
Y17220D01*
X26384Y17319D01*
X26328Y17403D01*
X24828Y18903D01*
X24744Y18959D01*
X24645Y18979D01*
D02*
G37*
G36*
X67895Y36264D02*
X66295D01*
X66196Y36244D01*
X66112Y36188D01*
X66056Y36104D01*
X66036Y36005D01*
Y34405D01*
X66056Y34306D01*
X66112Y34222D01*
X66196Y34166D01*
X66295Y34146D01*
X67895D01*
X67994Y34166D01*
X68078Y34222D01*
X68134Y34306D01*
X68154Y34405D01*
Y34589D01*
X69035D01*
X69115Y34462D01*
X69089Y34200D01*
X69118Y33905D01*
X69204Y33622D01*
X69343Y33360D01*
X69531Y33131D01*
X69760Y32943D01*
X70022Y32804D01*
X70305Y32718D01*
X70600Y32689D01*
X70895Y32718D01*
X71178Y32804D01*
X71440Y32943D01*
X71669Y33131D01*
X71857Y33360D01*
X71976Y33584D01*
X76245D01*
X80391Y29438D01*
Y28925D01*
X80411Y28826D01*
X80467Y28742D01*
X80551Y28686D01*
X80650Y28666D01*
X81650D01*
X81749Y28686D01*
X81833Y28742D01*
X81889Y28826D01*
X81909Y28925D01*
Y30175D01*
X81889Y30274D01*
X81833Y30358D01*
X81749Y30414D01*
X81650Y30434D01*
X81137D01*
X76935Y34635D01*
X76736Y34769D01*
X76500Y34816D01*
X71976D01*
X71857Y35040D01*
X71669Y35269D01*
X71440Y35457D01*
X71178Y35596D01*
X70895Y35682D01*
X70600Y35711D01*
X70305Y35682D01*
X70062Y35609D01*
X70030Y35640D01*
X69831Y35774D01*
X69595Y35821D01*
X68154D01*
Y36005D01*
X68134Y36104D01*
X68078Y36188D01*
X67994Y36244D01*
X67895Y36264D01*
D02*
G37*
G36*
X5859Y38923D02*
X4577D01*
Y37791D01*
X5600D01*
X5699Y37811D01*
X5783Y37867D01*
X5839Y37951D01*
X5859Y38050D01*
Y38923D01*
D02*
G37*
G36*
X13550Y38259D02*
X13377D01*
Y37827D01*
X13809D01*
Y38000D01*
X13789Y38099D01*
X13733Y38183D01*
X13649Y38239D01*
X13550Y38259D01*
D02*
G37*
G36*
X78050Y52861D02*
X77755Y52832D01*
X77472Y52746D01*
X77210Y52607D01*
X76981Y52419D01*
X76793Y52190D01*
X76654Y51928D01*
X76568Y51645D01*
X76539Y51350D01*
X76568Y51055D01*
X76654Y50772D01*
X76793Y50510D01*
X76981Y50281D01*
X77210Y50093D01*
X77472Y49954D01*
X77755Y49868D01*
X78050Y49839D01*
X78345Y49868D01*
X78628Y49954D01*
X78890Y50093D01*
X79119Y50281D01*
X79307Y50510D01*
X79426Y50734D01*
X82120D01*
X86191Y46663D01*
Y46150D01*
X86211Y46051D01*
X86267Y45967D01*
X86351Y45911D01*
X86450Y45891D01*
X87450D01*
X87549Y45911D01*
X87633Y45967D01*
X87689Y46051D01*
X87709Y46150D01*
Y47400D01*
X87689Y47499D01*
X87633Y47583D01*
X87549Y47639D01*
X87450Y47659D01*
X86937D01*
X82810Y51785D01*
X82611Y51919D01*
X82375Y51966D01*
X79426D01*
X79307Y52190D01*
X79119Y52419D01*
X78890Y52607D01*
X78628Y52746D01*
X78345Y52832D01*
X78050Y52861D01*
D02*
G37*
G36*
X4323Y38923D02*
X3041D01*
Y38050D01*
X3061Y37951D01*
X3117Y37867D01*
X3201Y37811D01*
X3300Y37791D01*
X4323D01*
Y38923D01*
D02*
G37*
G36*
X59602Y38791D02*
Y37872D01*
X60521D01*
X60502Y38020D01*
X60396Y38277D01*
X60227Y38497D01*
X60007Y38666D01*
X59750Y38772D01*
X59602Y38791D01*
D02*
G37*
G36*
X67222D02*
Y37872D01*
X68141D01*
X68122Y38020D01*
X68016Y38277D01*
X67847Y38497D01*
X67627Y38666D01*
X67370Y38772D01*
X67222Y38791D01*
D02*
G37*
G36*
X59348Y38791D02*
X59200Y38772D01*
X58943Y38666D01*
X58723Y38497D01*
X58554Y38277D01*
X58448Y38020D01*
X58429Y37872D01*
X59348D01*
Y38791D01*
D02*
G37*
G36*
X66968D02*
X66820Y38772D01*
X66563Y38666D01*
X66343Y38497D01*
X66174Y38277D01*
X66068Y38020D01*
X66049Y37872D01*
X66968D01*
Y38791D01*
D02*
G37*
G36*
X9873Y47373D02*
X7252D01*
X7278Y47173D01*
X7405Y46868D01*
X7606Y46606D01*
X7868Y46405D01*
X8173Y46278D01*
X8500Y46235D01*
X9873D01*
Y47373D01*
D02*
G37*
G36*
Y48765D02*
X8500D01*
X8173Y48722D01*
X7868Y48595D01*
X7606Y48394D01*
X7405Y48132D01*
X7278Y47827D01*
X7252Y47627D01*
X9873D01*
Y48765D01*
D02*
G37*
G36*
X59348Y37618D02*
X58429D01*
X58448Y37470D01*
X58554Y37213D01*
X58723Y36993D01*
X58943Y36824D01*
X59200Y36718D01*
X59348Y36699D01*
Y37618D01*
D02*
G37*
G36*
X90927Y36591D02*
Y36127D01*
X91391D01*
X91369Y36236D01*
X91235Y36435D01*
X91036Y36569D01*
X90927Y36591D01*
D02*
G37*
G36*
X11500Y48765D02*
X10127D01*
Y47627D01*
X12748D01*
X12722Y47827D01*
X12595Y48132D01*
X12394Y48394D01*
X12132Y48595D01*
X11827Y48722D01*
X11500Y48765D01*
D02*
G37*
G36*
X68141Y37618D02*
X67222D01*
Y36699D01*
X67370Y36718D01*
X67627Y36824D01*
X67847Y36993D01*
X68016Y37213D01*
X68122Y37470D01*
X68141Y37618D01*
D02*
G37*
G36*
X12748Y47373D02*
X10127D01*
Y46235D01*
X11500D01*
X11827Y46278D01*
X12132Y46405D01*
X12394Y46606D01*
X12595Y46868D01*
X12722Y47173D01*
X12748Y47373D01*
D02*
G37*
G36*
X66968Y37618D02*
X66049D01*
X66068Y37470D01*
X66174Y37213D01*
X66343Y36993D01*
X66563Y36824D01*
X66820Y36718D01*
X66968Y36699D01*
Y37618D01*
D02*
G37*
G36*
X60521D02*
X59602D01*
Y36699D01*
X59750Y36718D01*
X60007Y36824D01*
X60227Y36993D01*
X60396Y37213D01*
X60502Y37470D01*
X60521Y37618D01*
D02*
G37*
G36*
X11500Y42765D02*
X8500D01*
X8173Y42722D01*
X7868Y42595D01*
X7606Y42394D01*
X7405Y42132D01*
X7278Y41827D01*
X7235Y41500D01*
X7278Y41173D01*
X7405Y40868D01*
X7606Y40606D01*
X7868Y40405D01*
X8173Y40278D01*
X8500Y40235D01*
X10394D01*
X11259Y39370D01*
Y37953D01*
X11192Y37908D01*
X11178Y37888D01*
X9892D01*
X8057Y39723D01*
X8033Y39758D01*
X7949Y39814D01*
X7911Y39822D01*
X7902Y39828D01*
X7725Y39863D01*
X7580Y39834D01*
X7550D01*
X7451Y39814D01*
X7400Y39780D01*
X7349Y39814D01*
X7250Y39834D01*
X7227D01*
Y39425D01*
Y39016D01*
X7250D01*
X7349Y39036D01*
X7400Y39070D01*
X7402Y39069D01*
X9253Y37218D01*
X9200Y37091D01*
X6475D01*
X6239Y37044D01*
X6040Y36910D01*
X4838Y35709D01*
X3300D01*
X3201Y35689D01*
X3117Y35633D01*
X3061Y35549D01*
X3041Y35450D01*
Y33450D01*
X3061Y33351D01*
X3117Y33267D01*
X3201Y33211D01*
X3300Y33191D01*
X3934D01*
Y32847D01*
X3923Y32830D01*
X3777D01*
X3758Y32858D01*
X3674Y32914D01*
X3575Y32934D01*
X3277D01*
Y32250D01*
Y31566D01*
X3575D01*
X3674Y31586D01*
X3758Y31642D01*
X3777Y31670D01*
X3923D01*
X3942Y31642D01*
X4026Y31586D01*
X4125Y31566D01*
X4975D01*
X5074Y31586D01*
X5147Y31634D01*
X5936D01*
X6148Y31423D01*
X6148Y31423D01*
X6298Y31322D01*
X6475Y31287D01*
X8541D01*
Y31100D01*
X8561Y31001D01*
X8561Y31000D01*
X8561Y30999D01*
X8541Y30900D01*
Y30600D01*
X8561Y30501D01*
X8561Y30500D01*
X8561Y30499D01*
X8541Y30400D01*
Y30100D01*
X8561Y30001D01*
X8561Y30000D01*
X8561Y29999D01*
X8541Y29900D01*
Y29662D01*
X5934D01*
Y30000D01*
X5914Y30099D01*
X5858Y30183D01*
X5774Y30239D01*
X5675Y30259D01*
X4675D01*
X4576Y30239D01*
X4492Y30183D01*
X4436Y30099D01*
X4416Y30000D01*
Y28750D01*
X4436Y28651D01*
X4492Y28567D01*
X4576Y28511D01*
X4675Y28491D01*
X5675D01*
X5774Y28511D01*
X5858Y28567D01*
X5914Y28651D01*
X5934Y28750D01*
Y28838D01*
X6716D01*
Y28575D01*
X6736Y28476D01*
X6792Y28392D01*
X6876Y28336D01*
X6975Y28316D01*
X6998D01*
Y28725D01*
X7252D01*
Y28316D01*
X7275D01*
X7374Y28336D01*
X7425Y28370D01*
X7476Y28336D01*
X7575Y28316D01*
X7710D01*
X7725Y28313D01*
X7740Y28316D01*
X7875D01*
X7974Y28336D01*
X7978Y28338D01*
X8541D01*
Y28188D01*
X6587Y26234D01*
X5750D01*
X5651Y26214D01*
X5567Y26158D01*
X5511Y26074D01*
X5491Y25975D01*
Y24725D01*
X5511Y24626D01*
X5567Y24542D01*
X5651Y24486D01*
X5750Y24466D01*
X6750D01*
X6755Y24467D01*
X6817Y24350D01*
X6526Y24059D01*
X5725D01*
X5626Y24039D01*
X5542Y23983D01*
X5486Y23899D01*
X5466Y23800D01*
Y23287D01*
X5465Y23285D01*
X5331Y23086D01*
X5284Y22850D01*
Y21853D01*
X5217Y21808D01*
X5161Y21724D01*
X5141Y21625D01*
Y20375D01*
X5161Y20276D01*
X5217Y20192D01*
X5301Y20136D01*
X5400Y20116D01*
X6400D01*
X6499Y20136D01*
X6583Y20192D01*
X6639Y20276D01*
X6659Y20375D01*
Y21625D01*
X6639Y21724D01*
X6583Y21808D01*
X6516Y21853D01*
Y22291D01*
X6725D01*
X6824Y22311D01*
X6908Y22367D01*
X6964Y22451D01*
X6984Y22550D01*
Y23351D01*
X10121Y26488D01*
X11195D01*
X11223Y26371D01*
X11221Y26361D01*
X11142Y26308D01*
X11086Y26224D01*
X11066Y26125D01*
Y25752D01*
X11998D01*
Y26384D01*
X11528D01*
X11515Y26511D01*
X11558Y26519D01*
X11691Y26609D01*
X12454Y27371D01*
X12571Y27309D01*
X12559Y27252D01*
X13150D01*
Y27125D01*
X13277D01*
Y26534D01*
X13386Y26556D01*
X13585Y26690D01*
X13696Y26854D01*
X13823Y26816D01*
Y25121D01*
X12085Y23384D01*
X11325D01*
X11226Y23364D01*
X11142Y23308D01*
X11086Y23224D01*
X11079Y23190D01*
X9525D01*
X9525Y23190D01*
X9309Y23147D01*
X9126Y23024D01*
X9126Y23024D01*
X7985Y21884D01*
X7400D01*
X7301Y21864D01*
X7217Y21808D01*
X7161Y21724D01*
X7141Y21625D01*
Y20375D01*
X7161Y20276D01*
X7217Y20192D01*
X7301Y20136D01*
X7400Y20116D01*
X8400D01*
X8499Y20136D01*
X8583Y20192D01*
X8639Y20276D01*
X8659Y20375D01*
Y20960D01*
X9759Y22060D01*
X11079D01*
X11086Y22026D01*
X11142Y21942D01*
X11226Y21886D01*
X11325Y21866D01*
X12925D01*
X13024Y21886D01*
X13108Y21942D01*
X13164Y22026D01*
X13171Y22060D01*
X16750D01*
X16750Y22060D01*
X16966Y22103D01*
X17149Y22226D01*
X18824Y23901D01*
X18824Y23901D01*
X18947Y24084D01*
X18957Y24135D01*
X19533D01*
X19539Y24131D01*
X19775Y24084D01*
X20011Y24131D01*
X20210Y24265D01*
X20344Y24464D01*
X20391Y24700D01*
X20344Y24936D01*
X20210Y25135D01*
X20011Y25269D01*
X19775Y25316D01*
X19643Y25290D01*
X19580Y25407D01*
X19924Y25751D01*
X19924Y25751D01*
X20047Y25934D01*
X20090Y26150D01*
X20090Y26150D01*
Y29400D01*
Y30591D01*
X20425D01*
X20524Y30611D01*
X20608Y30667D01*
X20664Y30751D01*
X20684Y30850D01*
Y32100D01*
X20664Y32199D01*
X20608Y32283D01*
X20524Y32339D01*
X20425Y32359D01*
X19425D01*
X19366Y32408D01*
Y34266D01*
X19900D01*
X19999Y34286D01*
X20083Y34342D01*
X20139Y34426D01*
X20159Y34525D01*
Y36525D01*
X20139Y36624D01*
X20083Y36708D01*
X19999Y36764D01*
X19900Y36784D01*
X17600D01*
X17501Y36764D01*
X17417Y36708D01*
X17361Y36624D01*
X17341Y36525D01*
Y34699D01*
X15959Y33316D01*
X15869Y33183D01*
X15838Y33025D01*
Y31190D01*
X15800Y31159D01*
X15615D01*
X15600Y31162D01*
X14859D01*
Y31400D01*
X14839Y31499D01*
X14839Y31500D01*
X14839Y31501D01*
X14859Y31600D01*
Y31900D01*
X14839Y31999D01*
X14783Y32083D01*
X14699Y32139D01*
X14600Y32159D01*
X13200D01*
X13101Y32139D01*
X13017Y32083D01*
X12961Y31999D01*
X12941Y31900D01*
Y31600D01*
X12961Y31501D01*
X12961Y31500D01*
X12961Y31499D01*
X12941Y31400D01*
Y31100D01*
X12961Y31001D01*
X12961Y31000D01*
X12961Y30999D01*
X12941Y30900D01*
Y30600D01*
X12961Y30501D01*
X12961Y30500D01*
X12961Y30499D01*
X12941Y30400D01*
Y30191D01*
X12886Y30157D01*
X12759Y30228D01*
Y31400D01*
X12739Y31499D01*
X12683Y31583D01*
X12599Y31639D01*
X12500Y31659D01*
X11827D01*
Y30000D01*
Y28341D01*
X12093D01*
X12141Y28224D01*
X11229Y27312D01*
X9950D01*
X9792Y27281D01*
X9659Y27191D01*
X7125Y24658D01*
X7008Y24720D01*
X7009Y24725D01*
Y25562D01*
X9288Y27841D01*
X10200D01*
X10299Y27861D01*
X10383Y27917D01*
X10439Y28001D01*
X10459Y28100D01*
Y28400D01*
X10439Y28499D01*
X10439Y28500D01*
X10439Y28501D01*
X10459Y28600D01*
Y28900D01*
X10439Y28999D01*
X10439Y29000D01*
X10439Y29001D01*
X10459Y29100D01*
Y29400D01*
X10439Y29499D01*
X10439Y29500D01*
X10439Y29501D01*
X10459Y29600D01*
Y29623D01*
X10324D01*
X10299Y29639D01*
X10200Y29659D01*
X9515D01*
X9500Y29662D01*
Y29841D01*
X10200D01*
X10299Y29861D01*
X10324Y29877D01*
X10459D01*
Y29900D01*
X10439Y29999D01*
X10439Y30000D01*
X10439Y30001D01*
X10459Y30100D01*
Y30400D01*
X10439Y30499D01*
X10439Y30500D01*
X10439Y30501D01*
X10459Y30600D01*
Y30900D01*
X10439Y30999D01*
X10439Y31000D01*
X10439Y31001D01*
X10459Y31100D01*
Y31400D01*
X10439Y31499D01*
X10439Y31500D01*
X10439Y31501D01*
X10459Y31600D01*
Y31900D01*
X10439Y31999D01*
X10383Y32083D01*
X10299Y32139D01*
X10200Y32159D01*
X9705D01*
X9677Y32178D01*
X9500Y32213D01*
X6975D01*
X6926Y32330D01*
X6960Y32365D01*
X7094Y32564D01*
X7141Y32800D01*
X7094Y33036D01*
X6960Y33235D01*
X6761Y33369D01*
X6525Y33416D01*
X6289Y33369D01*
X6090Y33235D01*
X5720Y32866D01*
X5166D01*
Y33191D01*
X5600D01*
X5699Y33211D01*
X5783Y33267D01*
X5839Y33351D01*
X5859Y33450D01*
Y34988D01*
X6730Y35859D01*
X9475D01*
X9711Y35906D01*
X9726Y35916D01*
X9975D01*
X10074Y35936D01*
X10158Y35992D01*
X10214Y36076D01*
X10234Y36175D01*
Y36775D01*
X10222Y36835D01*
X10282Y36938D01*
X10308Y36962D01*
X11178D01*
X11192Y36942D01*
X11276Y36886D01*
X11375Y36866D01*
X11624D01*
X11639Y36856D01*
X11875Y36809D01*
X12111Y36856D01*
X12126Y36866D01*
X12375D01*
X12453Y36882D01*
X12503Y36828D01*
X12528Y36777D01*
X11835Y36084D01*
X11375D01*
X11276Y36064D01*
X11192Y36008D01*
X11136Y35924D01*
X11116Y35825D01*
Y35225D01*
X11136Y35126D01*
X11192Y35042D01*
X11276Y34986D01*
X11375Y34966D01*
X11845D01*
X11875Y34960D01*
X12075D01*
X12075Y34960D01*
X12105Y34966D01*
X12375D01*
X12474Y34986D01*
X12558Y35042D01*
X12614Y35126D01*
X12634Y35225D01*
Y35285D01*
X13490Y36141D01*
X13550D01*
X13649Y36161D01*
X13733Y36217D01*
X13789Y36301D01*
X13809Y36400D01*
Y36670D01*
X13815Y36700D01*
X13809Y36730D01*
Y37000D01*
X13789Y37099D01*
X13788Y37101D01*
X13741Y37200D01*
X13788Y37299D01*
X13789Y37301D01*
X13809Y37400D01*
Y37573D01*
X13250D01*
Y37700D01*
X13123D01*
Y38259D01*
X12950D01*
X12851Y38239D01*
X12767Y38183D01*
X12711Y38099D01*
X12691Y38000D01*
Y37987D01*
X12565Y37936D01*
X12491Y37991D01*
Y39625D01*
X12444Y39861D01*
X12310Y40060D01*
X12096Y40275D01*
X12117Y40382D01*
X12140Y40410D01*
X12394Y40606D01*
X12595Y40868D01*
X12722Y41173D01*
X12765Y41500D01*
X12722Y41827D01*
X12595Y42132D01*
X12394Y42394D01*
X12132Y42595D01*
X11827Y42722D01*
X11500Y42765D01*
D02*
G37*
G36*
X59475Y43888D02*
X59200Y43852D01*
X58943Y43746D01*
X58723Y43577D01*
X58554Y43357D01*
X58448Y43100D01*
X58412Y42825D01*
X58448Y42550D01*
X58554Y42293D01*
X58723Y42073D01*
X58943Y41904D01*
X59200Y41798D01*
X59475Y41762D01*
X59750Y41798D01*
X60007Y41904D01*
X60227Y42073D01*
X60396Y42293D01*
X60502Y42550D01*
X60538Y42825D01*
X60502Y43100D01*
X60396Y43357D01*
X60227Y43577D01*
X60007Y43746D01*
X59750Y43852D01*
X59475Y43888D01*
D02*
G37*
G36*
X67095D02*
X66820Y43852D01*
X66563Y43746D01*
X66343Y43577D01*
X66174Y43357D01*
X66068Y43100D01*
X66032Y42825D01*
X66068Y42550D01*
X66174Y42293D01*
X66343Y42073D01*
X66563Y41904D01*
X66820Y41798D01*
X67095Y41762D01*
X67370Y41798D01*
X67627Y41904D01*
X67847Y42073D01*
X68016Y42293D01*
X68122Y42550D01*
X68158Y42825D01*
X68122Y43100D01*
X68016Y43357D01*
X67847Y43577D01*
X67627Y43746D01*
X67370Y43852D01*
X67095Y43888D01*
D02*
G37*
G36*
X4973Y44323D02*
X3835D01*
Y42950D01*
X3878Y42623D01*
X4005Y42318D01*
X4206Y42056D01*
X4468Y41855D01*
X4773Y41728D01*
X4973Y41702D01*
Y44323D01*
D02*
G37*
G36*
X6365D02*
X5227D01*
Y41702D01*
X5427Y41728D01*
X5732Y41855D01*
X5994Y42056D01*
X6195Y42318D01*
X6322Y42623D01*
X6365Y42950D01*
Y44323D01*
D02*
G37*
G36*
X4973Y47198D02*
X4773Y47172D01*
X4468Y47045D01*
X4206Y46844D01*
X4005Y46582D01*
X3878Y46277D01*
X3835Y45950D01*
Y44577D01*
X4973D01*
Y47198D01*
D02*
G37*
G36*
X5227D02*
Y44577D01*
X6365D01*
Y45950D01*
X6322Y46277D01*
X6195Y46582D01*
X5994Y46844D01*
X5732Y47045D01*
X5427Y47172D01*
X5227Y47198D01*
D02*
G37*
G36*
X39002Y43266D02*
Y42802D01*
X39466D01*
X39444Y42911D01*
X39310Y43110D01*
X39111Y43244D01*
X39002Y43266D01*
D02*
G37*
G36*
X59475Y46428D02*
X59200Y46392D01*
X58943Y46286D01*
X58723Y46117D01*
X58554Y45897D01*
X58505Y45777D01*
X49565D01*
X49407Y45746D01*
X49274Y45656D01*
X45278Y41660D01*
X45226Y41686D01*
X45173Y41735D01*
X45216Y41950D01*
X45169Y42186D01*
X45035Y42385D01*
X44836Y42519D01*
X44661Y42554D01*
X44600Y42566D01*
X44569Y42689D01*
X44591Y42800D01*
X44544Y43036D01*
X44410Y43235D01*
X44211Y43369D01*
X43975Y43416D01*
X43739Y43369D01*
X43540Y43235D01*
X43406Y43036D01*
X43359Y42800D01*
X43365Y42772D01*
X42834Y42241D01*
X42744Y42108D01*
X42713Y41950D01*
Y40884D01*
X42500D01*
X42401Y40864D01*
X42375Y40847D01*
X42349Y40864D01*
X42250Y40884D01*
X42000D01*
X41901Y40864D01*
X41875Y40847D01*
X41849Y40864D01*
X41750Y40884D01*
X41500D01*
X41401Y40864D01*
X41375Y40847D01*
X41349Y40864D01*
X41250Y40884D01*
X41000D01*
X40901Y40864D01*
X40875Y40847D01*
X40849Y40864D01*
X40750Y40884D01*
X40500D01*
X40401Y40864D01*
X40375Y40847D01*
X40349Y40864D01*
X40250Y40884D01*
X40000D01*
X39901Y40864D01*
X39875Y40847D01*
X39849Y40864D01*
X39750Y40884D01*
X39500D01*
X39421Y40868D01*
X39372Y40898D01*
X39353Y41009D01*
X39358Y41042D01*
X39414Y41126D01*
X39434Y41225D01*
Y41398D01*
X38875D01*
Y41652D01*
X39434D01*
Y41825D01*
X39414Y41924D01*
X39358Y42008D01*
X39274Y42064D01*
X39249Y42199D01*
X39310Y42240D01*
X39444Y42439D01*
X39466Y42548D01*
X38875D01*
Y42675D01*
X38748D01*
Y43266D01*
X38639Y43244D01*
X38440Y43110D01*
X38364Y42997D01*
X38211D01*
X38185Y43035D01*
X37986Y43169D01*
X37750Y43216D01*
X37514Y43169D01*
X37315Y43035D01*
X37181Y42836D01*
X37134Y42600D01*
X37181Y42364D01*
X37315Y42165D01*
X37313Y42022D01*
X37292Y42008D01*
X37236Y41924D01*
X37216Y41825D01*
Y41225D01*
X37236Y41126D01*
X37292Y41042D01*
X37363Y40994D01*
Y40775D01*
X37394Y40617D01*
X37484Y40484D01*
X38193Y39775D01*
X38186Y39727D01*
X38051Y39682D01*
X38041Y39691D01*
X37908Y39781D01*
X37750Y39812D01*
X36151D01*
X36135Y39835D01*
X35936Y39969D01*
X35700Y40016D01*
X35464Y39969D01*
X35265Y39835D01*
X35131Y39636D01*
X35084Y39400D01*
X35131Y39164D01*
X35265Y38965D01*
X35464Y38831D01*
X35700Y38784D01*
X35936Y38831D01*
X36135Y38965D01*
X36151Y38988D01*
X37459D01*
X37460Y38986D01*
X37392Y38859D01*
X36475D01*
X36376Y38839D01*
X36292Y38783D01*
X36236Y38699D01*
X36216Y38600D01*
Y38350D01*
X36236Y38251D01*
X36253Y38225D01*
X36236Y38199D01*
X36216Y38100D01*
Y37850D01*
X36236Y37751D01*
X36253Y37725D01*
X36236Y37699D01*
X36216Y37600D01*
Y37350D01*
X36236Y37251D01*
X36253Y37225D01*
X36236Y37199D01*
X36216Y37100D01*
Y36850D01*
X36236Y36751D01*
X36253Y36725D01*
X36236Y36699D01*
X36216Y36600D01*
Y36361D01*
X35452D01*
X35335Y36535D01*
X35136Y36669D01*
X34900Y36716D01*
X34664Y36669D01*
X34465Y36535D01*
X34331Y36336D01*
X34284Y36100D01*
X34306Y35988D01*
X34202Y35861D01*
X34186D01*
X34166Y35865D01*
X34018Y35836D01*
X33893Y35752D01*
X31727Y33586D01*
X31643Y33461D01*
X31614Y33313D01*
Y27772D01*
X31600Y27761D01*
X31462Y27733D01*
X31345Y27655D01*
X31267Y27538D01*
X31239Y27400D01*
Y27261D01*
X31100D01*
X30962Y27233D01*
X30845Y27155D01*
X30767Y27038D01*
X30739Y26900D01*
X30767Y26762D01*
X30808Y26700D01*
X30767Y26638D01*
X30739Y26500D01*
X30728Y26486D01*
X30382D01*
X30364Y26574D01*
X30308Y26658D01*
Y26792D01*
X30364Y26876D01*
X30384Y26975D01*
Y27148D01*
X29266D01*
Y26975D01*
X29286Y26876D01*
X29342Y26792D01*
Y26658D01*
X29286Y26574D01*
X29266Y26475D01*
Y25886D01*
X27209D01*
Y26175D01*
X27189Y26274D01*
X27133Y26358D01*
X27049Y26414D01*
X26950Y26434D01*
X26350D01*
X26251Y26414D01*
X26167Y26358D01*
X26111Y26274D01*
X26091Y26175D01*
Y25575D01*
X26111Y25476D01*
X26167Y25392D01*
Y25258D01*
X26111Y25174D01*
X26091Y25075D01*
Y24475D01*
X26111Y24376D01*
X26167Y24292D01*
X26251Y24236D01*
X26350Y24216D01*
X26662D01*
X27252Y23627D01*
X27377Y23543D01*
X27525Y23514D01*
X30325D01*
X30473Y23543D01*
X30598Y23627D01*
X30819Y23847D01*
X30845Y23845D01*
X30949Y23775D01*
X30972Y23735D01*
X30999Y23645D01*
X29952Y22598D01*
X29887Y22501D01*
X29826Y22489D01*
X29742Y22433D01*
X29686Y22349D01*
X29666Y22250D01*
Y21650D01*
X29686Y21551D01*
X29742Y21467D01*
X29826Y21411D01*
X29925Y21391D01*
X30525D01*
X30624Y21411D01*
X30708Y21467D01*
X30842D01*
X30926Y21411D01*
X31025Y21391D01*
X31625D01*
X31724Y21411D01*
X31775Y21445D01*
X31878Y21361D01*
X31866Y21300D01*
Y21127D01*
X32425D01*
Y21000D01*
X32552D01*
Y20441D01*
X32725D01*
X32814Y20368D01*
Y19585D01*
X32843Y19437D01*
X32927Y19312D01*
X34525Y17713D01*
X34423Y17467D01*
X34380Y17140D01*
X34423Y16813D01*
X34550Y16508D01*
X34751Y16246D01*
X35013Y16045D01*
X35201Y15967D01*
X35230Y15817D01*
X34833Y15420D01*
X34587Y15522D01*
X34260Y15565D01*
X33933Y15522D01*
X33628Y15395D01*
X33366Y15194D01*
X33165Y14932D01*
X33038Y14627D01*
X32995Y14300D01*
X33038Y13973D01*
X33165Y13668D01*
X33366Y13406D01*
X33628Y13205D01*
X33933Y13078D01*
X34260Y13035D01*
X34587Y13078D01*
X34892Y13205D01*
X35154Y13406D01*
X35355Y13668D01*
X35482Y13973D01*
X35525Y14300D01*
X35482Y14627D01*
X35380Y14873D01*
X35881Y15375D01*
X36162D01*
X36205Y15248D01*
X36136Y15194D01*
X35935Y14932D01*
X35808Y14627D01*
X35765Y14300D01*
X35808Y13973D01*
X35935Y13668D01*
X36136Y13406D01*
X36398Y13205D01*
X36703Y13078D01*
X37030Y13035D01*
X37357Y13078D01*
X37662Y13205D01*
X37924Y13406D01*
X38125Y13668D01*
X38252Y13973D01*
X38295Y14300D01*
X38252Y14627D01*
X38125Y14932D01*
X37924Y15194D01*
X37662Y15395D01*
X37357Y15522D01*
X37030Y15565D01*
X36703Y15522D01*
X36631Y15630D01*
X37263Y16262D01*
X37303Y16321D01*
X37456Y16331D01*
X37521Y16246D01*
X37783Y16045D01*
X38088Y15918D01*
X38415Y15875D01*
X38742Y15918D01*
X39047Y16045D01*
X39309Y16246D01*
X39510Y16508D01*
X39637Y16813D01*
X39680Y17140D01*
X39637Y17467D01*
X39510Y17772D01*
X39309Y18034D01*
X39047Y18235D01*
X38801Y18337D01*
Y22860D01*
X38801Y22860D01*
X38772Y23008D01*
X38688Y23133D01*
X38688Y23133D01*
X35565Y26257D01*
X35816Y26509D01*
X35928Y26520D01*
X36987Y25462D01*
X37153Y25350D01*
X37350Y25311D01*
X38963D01*
X39001Y25286D01*
X39100Y25266D01*
X39700D01*
X39799Y25286D01*
X39837Y25311D01*
X40088D01*
X40126Y25286D01*
X40225Y25266D01*
X40825D01*
X40924Y25286D01*
X40962Y25311D01*
X41244D01*
X41364Y25231D01*
X41600Y25184D01*
X41836Y25231D01*
X42035Y25365D01*
X42169Y25564D01*
X42216Y25800D01*
X42169Y26036D01*
X42114Y26118D01*
Y27775D01*
X42075Y27972D01*
X41963Y28138D01*
X40963Y29138D01*
X40797Y29250D01*
X40600Y29289D01*
X36738D01*
X36676Y29364D01*
X36707Y29495D01*
X36885Y29615D01*
X36911Y29654D01*
X37039D01*
X37065Y29615D01*
X37264Y29481D01*
X37500Y29434D01*
X37736Y29481D01*
X37935Y29615D01*
X38069Y29814D01*
X38116Y30050D01*
X38110Y30078D01*
X38599Y30566D01*
X38750D01*
X38849Y30586D01*
X38875Y30603D01*
X38901Y30586D01*
X39000Y30566D01*
X39250D01*
X39349Y30586D01*
X39375Y30603D01*
X39401Y30586D01*
X39500Y30566D01*
X39750D01*
X39849Y30586D01*
X39875Y30603D01*
X39901Y30586D01*
X40000Y30566D01*
X40250D01*
X40349Y30586D01*
X40375Y30603D01*
X40401Y30586D01*
X40500Y30566D01*
X40750D01*
X40849Y30586D01*
X40875Y30603D01*
X40901Y30586D01*
X41000Y30566D01*
X41250D01*
X41349Y30586D01*
X41375Y30603D01*
X41401Y30586D01*
X41500Y30566D01*
X41740D01*
X41744Y30542D01*
X41834Y30409D01*
X42265Y29978D01*
X42259Y29950D01*
X42306Y29714D01*
X42440Y29515D01*
X42639Y29381D01*
X42875Y29334D01*
X43111Y29381D01*
X43253Y29476D01*
X43288Y29492D01*
X43382Y29431D01*
X43385Y29304D01*
X43256Y29111D01*
X43234Y29002D01*
X43825D01*
Y28875D01*
X43952D01*
Y28284D01*
X44061Y28306D01*
X44260Y28440D01*
X44324Y28534D01*
X44476D01*
X44540Y28440D01*
X44739Y28306D01*
X44975Y28259D01*
X45211Y28306D01*
X45410Y28440D01*
X45426Y28463D01*
X45775D01*
X45933Y28494D01*
X46066Y28584D01*
X47399Y29916D01*
X47925D01*
X48024Y29936D01*
X48108Y29992D01*
X48164Y30076D01*
X48184Y30175D01*
Y31025D01*
X48164Y31124D01*
X48108Y31208D01*
X48080Y31227D01*
Y31373D01*
X48108Y31392D01*
X48164Y31476D01*
X48184Y31575D01*
Y32154D01*
X48301Y32202D01*
X49202Y31302D01*
X49327Y31218D01*
X49475Y31189D01*
X49475Y31189D01*
X50015D01*
X50468Y30736D01*
X50415Y30609D01*
X49300D01*
X49201Y30589D01*
X49117Y30533D01*
X49061Y30449D01*
X49041Y30350D01*
Y28550D01*
X49061Y28451D01*
X49117Y28367D01*
X49201Y28311D01*
X49300Y28291D01*
X50500D01*
X50599Y28311D01*
X50683Y28367D01*
X50739Y28451D01*
X50759Y28550D01*
Y30265D01*
X50886Y30318D01*
X51441Y29762D01*
Y28550D01*
X51461Y28451D01*
X51517Y28367D01*
X51601Y28311D01*
X51700Y28291D01*
X52900D01*
X52942Y28299D01*
X52952Y28293D01*
X53100Y28264D01*
X53297D01*
X53301Y28261D01*
X53400Y28241D01*
X53700D01*
X53799Y28261D01*
X53883Y28317D01*
X53939Y28401D01*
X53940Y28405D01*
X54067Y28393D01*
Y24416D01*
X52980Y23329D01*
X52890Y23195D01*
X52859Y23037D01*
Y19604D01*
X52890Y19446D01*
X52980Y19313D01*
X58263Y14030D01*
X58213Y13910D01*
X58177Y13635D01*
X58213Y13360D01*
X58319Y13103D01*
X58488Y12883D01*
X58708Y12714D01*
X58965Y12608D01*
X59240Y12572D01*
X59515Y12608D01*
X59772Y12714D01*
X59992Y12883D01*
X60161Y13103D01*
X60267Y13360D01*
X60303Y13635D01*
X60267Y13910D01*
X60161Y14167D01*
X59992Y14387D01*
X59772Y14556D01*
X59515Y14662D01*
X59240Y14698D01*
X58965Y14662D01*
X58845Y14612D01*
X53683Y19775D01*
Y20665D01*
X53810Y20727D01*
X54025Y20684D01*
X54261Y20731D01*
X54419Y20837D01*
X54834D01*
X54836Y20826D01*
X54892Y20742D01*
X54976Y20686D01*
X55075Y20666D01*
X55925D01*
X56024Y20686D01*
X56108Y20742D01*
X56155Y20812D01*
X56728D01*
X56742Y20792D01*
X56826Y20736D01*
X56925Y20716D01*
X57525D01*
X57624Y20736D01*
X57708Y20792D01*
X57708Y20792D01*
X58291D01*
X58319Y20723D01*
X58488Y20503D01*
X58708Y20334D01*
X58965Y20228D01*
X59240Y20192D01*
X59515Y20228D01*
X59772Y20334D01*
X59905Y20437D01*
X60032Y20374D01*
Y20090D01*
X59635Y19692D01*
X59515Y19742D01*
X59240Y19778D01*
X58965Y19742D01*
X58708Y19636D01*
X58488Y19467D01*
X58319Y19247D01*
X58213Y18990D01*
X58177Y18715D01*
X58213Y18440D01*
X58319Y18183D01*
X58488Y17963D01*
X58708Y17794D01*
X58965Y17688D01*
X59240Y17652D01*
X59515Y17688D01*
X59772Y17794D01*
X59992Y17963D01*
X60161Y18183D01*
X60267Y18440D01*
X60303Y18715D01*
X60267Y18990D01*
X60217Y19110D01*
X60735Y19628D01*
X60825Y19761D01*
X60856Y19919D01*
Y21754D01*
X60825Y21911D01*
X60735Y22045D01*
X60030Y22750D01*
X59917Y22826D01*
X59896Y22916D01*
X59895Y22969D01*
X59992Y23043D01*
X60161Y23263D01*
X60267Y23520D01*
X60303Y23795D01*
X60267Y24070D01*
X60161Y24327D01*
X59992Y24547D01*
X59772Y24716D01*
X59515Y24822D01*
X59240Y24858D01*
X58965Y24822D01*
X58708Y24716D01*
X58488Y24547D01*
X58319Y24327D01*
X58213Y24070D01*
X58191Y23903D01*
X58057Y23858D01*
X55712Y26203D01*
Y36275D01*
X55681Y36433D01*
X55591Y36566D01*
X52212Y39946D01*
X52260Y40063D01*
X58441D01*
X58448Y40010D01*
X58554Y39753D01*
X58723Y39533D01*
X58943Y39364D01*
X59200Y39258D01*
X59475Y39222D01*
X59750Y39258D01*
X60007Y39364D01*
X60227Y39533D01*
X60396Y39753D01*
X60502Y40010D01*
X60538Y40285D01*
X60502Y40560D01*
X60396Y40817D01*
X60227Y41037D01*
X60007Y41206D01*
X59750Y41312D01*
X59475Y41348D01*
X59200Y41312D01*
X58943Y41206D01*
X58723Y41037D01*
X58608Y40887D01*
X46800D01*
X46642Y40856D01*
X46509Y40766D01*
X45284Y39541D01*
X45194Y39408D01*
X45163Y39250D01*
Y38859D01*
X44875D01*
X44776Y38839D01*
X44692Y38783D01*
X44636Y38699D01*
X44616Y38600D01*
Y38350D01*
X44636Y38251D01*
X44653Y38225D01*
X44636Y38199D01*
X44616Y38100D01*
Y37850D01*
X44636Y37751D01*
X44653Y37725D01*
X44636Y37699D01*
X44616Y37600D01*
Y37350D01*
X44636Y37251D01*
X44653Y37225D01*
X44636Y37199D01*
X44616Y37100D01*
Y36850D01*
X44636Y36751D01*
X44653Y36725D01*
X44636Y36699D01*
X44616Y36600D01*
Y36387D01*
X41346D01*
X38864Y38869D01*
X38864Y38874D01*
X38933Y38979D01*
X38998Y38966D01*
Y39170D01*
X39009Y39225D01*
Y39785D01*
X39037Y39925D01*
X39241D01*
Y39225D01*
X39252Y39170D01*
Y38966D01*
X39349Y38986D01*
X39375Y39003D01*
X39401Y38986D01*
X39500Y38966D01*
X39750D01*
X39849Y38986D01*
X39875Y39003D01*
X39901Y38986D01*
X40000Y38966D01*
X40250D01*
X40349Y38986D01*
X40375Y39003D01*
X40401Y38986D01*
X40500Y38966D01*
X40750D01*
X40849Y38986D01*
X40875Y39003D01*
X40901Y38986D01*
X41000Y38966D01*
X41250D01*
X41349Y38986D01*
X41375Y39003D01*
X41401Y38986D01*
X41500Y38966D01*
X41750D01*
X41849Y38986D01*
X41875Y39003D01*
X41901Y38986D01*
X42000Y38966D01*
X42250D01*
X42349Y38986D01*
X42375Y39003D01*
X42401Y38986D01*
X42500Y38966D01*
X42750D01*
X42849Y38986D01*
X42875Y39003D01*
X42901Y38986D01*
X43000Y38966D01*
X43250D01*
X43349Y38986D01*
X43375Y39003D01*
X43401Y38986D01*
X43500Y38966D01*
X43750D01*
X43849Y38986D01*
X43875Y39003D01*
X43901Y38986D01*
X44000Y38966D01*
X44250D01*
X44349Y38986D01*
X44433Y39042D01*
X44489Y39126D01*
X44509Y39225D01*
Y39726D01*
X49736Y44953D01*
X58505D01*
X58554Y44833D01*
X58723Y44613D01*
X58943Y44444D01*
X59200Y44338D01*
X59475Y44302D01*
X59750Y44338D01*
X60007Y44444D01*
X60227Y44613D01*
X60396Y44833D01*
X60502Y45090D01*
X60538Y45365D01*
X60502Y45640D01*
X60396Y45897D01*
X60227Y46117D01*
X60007Y46286D01*
X59750Y46392D01*
X59475Y46428D01*
D02*
G37*
G36*
X71200Y42584D02*
X69950D01*
X69851Y42564D01*
X69767Y42508D01*
X69142Y41883D01*
X69086Y41799D01*
X69066Y41700D01*
Y40901D01*
X67951D01*
X67847Y41037D01*
X67627Y41206D01*
X67370Y41312D01*
X67095Y41348D01*
X66820Y41312D01*
X66563Y41206D01*
X66343Y41037D01*
X66174Y40817D01*
X66068Y40560D01*
X66032Y40285D01*
X66068Y40010D01*
X66174Y39753D01*
X66343Y39533D01*
X66563Y39364D01*
X66820Y39258D01*
X67095Y39222D01*
X67370Y39258D01*
X67627Y39364D01*
X67847Y39533D01*
X67951Y39669D01*
X69740D01*
X69767Y39642D01*
X69851Y39586D01*
X69950Y39566D01*
X71200D01*
X71299Y39586D01*
X71383Y39642D01*
X72008Y40267D01*
X72064Y40351D01*
X72084Y40450D01*
Y41700D01*
X72064Y41799D01*
X72008Y41883D01*
X71383Y42508D01*
X71299Y42564D01*
X71200Y42584D01*
D02*
G37*
G36*
X6973Y39298D02*
X6691D01*
Y39275D01*
X6711Y39176D01*
X6767Y39092D01*
X6851Y39036D01*
X6950Y39016D01*
X6973D01*
Y39298D01*
D02*
G37*
G36*
X4323Y40309D02*
X3300D01*
X3201Y40289D01*
X3117Y40233D01*
X3061Y40149D01*
X3041Y40050D01*
Y39177D01*
X4323D01*
Y40309D01*
D02*
G37*
G36*
X18623Y39998D02*
X17341D01*
Y39125D01*
X17361Y39026D01*
X17417Y38942D01*
X17501Y38886D01*
X17600Y38866D01*
X18623D01*
Y39998D01*
D02*
G37*
G36*
X20159D02*
X18877D01*
Y38866D01*
X19900D01*
X19999Y38886D01*
X20083Y38942D01*
X20139Y39026D01*
X20159Y39125D01*
Y39998D01*
D02*
G37*
G36*
X18623Y41384D02*
X17600D01*
X17501Y41364D01*
X17417Y41308D01*
X17361Y41224D01*
X17341Y41125D01*
Y40252D01*
X18623D01*
Y41384D01*
D02*
G37*
G36*
X19900D02*
X18877D01*
Y40252D01*
X20159D01*
Y41125D01*
X20139Y41224D01*
X20083Y41308D01*
X19999Y41364D01*
X19900Y41384D01*
D02*
G37*
G36*
X5600Y40309D02*
X4577D01*
Y39177D01*
X5859D01*
Y40050D01*
X5839Y40149D01*
X5783Y40233D01*
X5699Y40289D01*
X5600Y40309D01*
D02*
G37*
G36*
X6973Y39834D02*
X6950D01*
X6851Y39814D01*
X6767Y39758D01*
X6711Y39674D01*
X6691Y39575D01*
Y39552D01*
X6973D01*
Y39834D01*
D02*
G37*
G36*
X2500Y53768D02*
X2483Y53764D01*
X2466Y53765D01*
X2205Y53731D01*
X2173Y53720D01*
X2140Y53714D01*
X1897Y53613D01*
X1868Y53594D01*
X1838Y53579D01*
X1629Y53419D01*
X1607Y53393D01*
X1581Y53371D01*
X1421Y53162D01*
X1406Y53132D01*
X1387Y53103D01*
X1286Y52860D01*
X1280Y52827D01*
X1269Y52795D01*
X1235Y52534D01*
X1237Y52500D01*
X1235Y52466D01*
X1269Y52205D01*
X1280Y52173D01*
X1286Y52140D01*
X1387Y51897D01*
X1406Y51868D01*
X1421Y51838D01*
X1581Y51629D01*
X1607Y51607D01*
X1629Y51581D01*
X1838Y51421D01*
X1868Y51406D01*
X1897Y51387D01*
X2140Y51286D01*
X2173Y51280D01*
X2205Y51269D01*
X2466Y51235D01*
X2483Y51236D01*
X2500Y51232D01*
X2517Y51236D01*
X2534Y51235D01*
X2795Y51269D01*
X2827Y51280D01*
X2860Y51286D01*
X3103Y51387D01*
X3132Y51406D01*
X3162Y51421D01*
X3371Y51581D01*
X3393Y51607D01*
X3419Y51629D01*
X3579Y51838D01*
X3594Y51868D01*
X3613Y51897D01*
X3714Y52140D01*
X3720Y52173D01*
X3731Y52205D01*
X3765Y52466D01*
X3763Y52500D01*
X3765Y52534D01*
X3731Y52795D01*
X3720Y52827D01*
X3714Y52860D01*
X3613Y53103D01*
X3594Y53132D01*
X3579Y53162D01*
X3419Y53371D01*
X3393Y53393D01*
X3371Y53419D01*
X3162Y53579D01*
X3132Y53594D01*
X3103Y53613D01*
X2860Y53714D01*
X2827Y53720D01*
X2795Y53731D01*
X2534Y53765D01*
X2517Y53764D01*
X2500Y53768D01*
D02*
G37*
G36*
X96675Y52859D02*
X95425D01*
X95326Y52839D01*
X95242Y52783D01*
X94617Y52158D01*
X94561Y52074D01*
X94541Y51975D01*
Y51915D01*
X93525D01*
X93525Y51915D01*
X93309Y51872D01*
X93126Y51749D01*
X93126Y51749D01*
X89035Y47659D01*
X88450D01*
X88351Y47639D01*
X88267Y47583D01*
X88211Y47499D01*
X88191Y47400D01*
Y46150D01*
X88211Y46051D01*
X88267Y45967D01*
X88351Y45911D01*
X88450Y45891D01*
X89450D01*
X89549Y45911D01*
X89633Y45967D01*
X89689Y46051D01*
X89709Y46150D01*
Y46210D01*
X90899D01*
X93026Y44083D01*
X92978Y43966D01*
X91875D01*
X91639Y43919D01*
X91440Y43785D01*
X90265Y42610D01*
X90131Y42411D01*
X90084Y42175D01*
Y41704D01*
X89957Y41680D01*
X89832Y41915D01*
X89644Y42144D01*
X89415Y42332D01*
X89153Y42471D01*
X88870Y42557D01*
X88575Y42586D01*
X88280Y42557D01*
X87997Y42471D01*
X87735Y42332D01*
X87506Y42144D01*
X87318Y41915D01*
X87199Y41691D01*
X82805D01*
X77585Y46910D01*
X77585Y46910D01*
X74635Y49860D01*
X74436Y49994D01*
X74200Y50041D01*
X68615D01*
X68615Y50041D01*
X68379Y49994D01*
X68180Y49860D01*
X67988Y49669D01*
X67893Y49753D01*
X68016Y49913D01*
X68122Y50170D01*
X68158Y50445D01*
X68122Y50720D01*
X68016Y50977D01*
X67847Y51197D01*
X67627Y51366D01*
X67370Y51472D01*
X67095Y51508D01*
X66820Y51472D01*
X66563Y51366D01*
X66343Y51197D01*
X66174Y50977D01*
X66068Y50720D01*
X66032Y50445D01*
X66068Y50170D01*
X66174Y49913D01*
X66343Y49693D01*
X66563Y49524D01*
X66820Y49418D01*
X67095Y49382D01*
X67370Y49418D01*
X67627Y49524D01*
X67787Y49647D01*
X67871Y49552D01*
X67265Y48946D01*
X67095Y48968D01*
X66820Y48932D01*
X66563Y48826D01*
X66343Y48657D01*
X66174Y48437D01*
X66068Y48180D01*
X66032Y47905D01*
X66068Y47630D01*
X66174Y47373D01*
X66343Y47153D01*
X66563Y46984D01*
X66820Y46878D01*
X67095Y46842D01*
X67370Y46878D01*
X67627Y46984D01*
X67847Y47153D01*
X67986Y47334D01*
X68340D01*
X68365Y47312D01*
X68427Y47207D01*
X68419Y47165D01*
X67565Y46311D01*
X67370Y46392D01*
X67095Y46428D01*
X66820Y46392D01*
X66563Y46286D01*
X66343Y46117D01*
X66174Y45897D01*
X66068Y45640D01*
X66032Y45365D01*
X66068Y45090D01*
X66174Y44833D01*
X66343Y44613D01*
X66563Y44444D01*
X66820Y44338D01*
X67095Y44302D01*
X67370Y44338D01*
X67627Y44444D01*
X67847Y44613D01*
X68016Y44833D01*
X68122Y45090D01*
X68127Y45131D01*
X69230Y46234D01*
X71620D01*
X72341Y45513D01*
Y45000D01*
X72361Y44901D01*
X72417Y44817D01*
X72501Y44761D01*
X72600Y44741D01*
X73113D01*
X80015Y37840D01*
X80214Y37706D01*
X80450Y37659D01*
X88425D01*
X88661Y37706D01*
X88860Y37840D01*
X91135Y40115D01*
X91269Y40314D01*
X91316Y40550D01*
Y40566D01*
X91443Y40612D01*
X91466Y40585D01*
Y40375D01*
X91486Y40276D01*
X91542Y40192D01*
X91626Y40136D01*
X91725Y40116D01*
X92325D01*
X92363Y40085D01*
Y38495D01*
X92359Y38475D01*
Y37050D01*
X92406Y36814D01*
X92540Y36615D01*
X92540Y36615D01*
X92739Y36481D01*
X92975Y36434D01*
X93211Y36481D01*
X93410Y36615D01*
X93544Y36814D01*
X93591Y37050D01*
X93591Y37050D01*
Y38459D01*
X93595Y38479D01*
Y40091D01*
X93625Y40116D01*
X94225D01*
X94324Y40136D01*
X94408Y40192D01*
X94464Y40276D01*
X94484Y40375D01*
Y40635D01*
X94574Y40726D01*
X94574Y40726D01*
X94697Y40909D01*
X94740Y41125D01*
X94740Y41125D01*
Y43350D01*
Y43733D01*
X94740Y43733D01*
X94697Y43950D01*
X94574Y44133D01*
X94574Y44133D01*
X91533Y47174D01*
X91350Y47297D01*
X91133Y47340D01*
X91133Y47340D01*
X90480D01*
X90431Y47457D01*
X93759Y50785D01*
X94541D01*
Y50725D01*
X94561Y50626D01*
X94617Y50542D01*
X95242Y49917D01*
X95326Y49861D01*
X95425Y49841D01*
X96675D01*
X96774Y49861D01*
X96858Y49917D01*
X97483Y50542D01*
X97539Y50626D01*
X97559Y50725D01*
Y51975D01*
X97539Y52074D01*
X97483Y52158D01*
X96858Y52783D01*
X96774Y52839D01*
X96675Y52859D01*
D02*
G37*
G36*
X3023Y32934D02*
X2725D01*
X2626Y32914D01*
X2542Y32858D01*
X2486Y32774D01*
X2466Y32675D01*
Y32377D01*
X3023D01*
Y32934D01*
D02*
G37*
G36*
X8898Y33298D02*
X8434D01*
X8456Y33189D01*
X8590Y32990D01*
X8789Y32856D01*
X8898Y32834D01*
Y33298D01*
D02*
G37*
G36*
X93525Y33484D02*
X93352D01*
Y32852D01*
X93784D01*
Y33225D01*
X93764Y33324D01*
X93708Y33408D01*
X93624Y33464D01*
X93525Y33484D01*
D02*
G37*
G36*
X55398Y50034D02*
X55100D01*
X55001Y50014D01*
X54917Y49958D01*
X54861Y49874D01*
X54841Y49775D01*
Y49669D01*
X54714Y49630D01*
X54610Y49785D01*
X54411Y49919D01*
X54302Y49941D01*
Y49350D01*
Y48759D01*
X54411Y48781D01*
X54610Y48915D01*
X54714Y49070D01*
X54841Y49031D01*
Y48925D01*
X54861Y48826D01*
X54917Y48742D01*
X54945Y48723D01*
Y48586D01*
X54922Y48562D01*
X54917Y48558D01*
X54912Y48551D01*
X54855Y48490D01*
X54367D01*
X54361Y48494D01*
X54125Y48541D01*
X53889Y48494D01*
X53690Y48360D01*
X53556Y48161D01*
X53509Y47925D01*
X53556Y47689D01*
X53690Y47490D01*
X53889Y47356D01*
X54125Y47309D01*
X54361Y47356D01*
X54367Y47360D01*
X54905D01*
X54917Y47342D01*
X55001Y47286D01*
X55100Y47266D01*
X55950D01*
X56049Y47286D01*
X56133Y47342D01*
X56189Y47426D01*
X56201Y47487D01*
X56687D01*
X56717Y47442D01*
X56801Y47386D01*
X56900Y47366D01*
X57500D01*
X57599Y47386D01*
X57683Y47442D01*
X57683Y47442D01*
X58526D01*
X58554Y47373D01*
X58723Y47153D01*
X58943Y46984D01*
X59200Y46878D01*
X59475Y46842D01*
X59750Y46878D01*
X60007Y46984D01*
X60227Y47153D01*
X60396Y47373D01*
X60502Y47630D01*
X60538Y47905D01*
X60502Y48180D01*
X60396Y48437D01*
X60227Y48657D01*
X60007Y48826D01*
X59750Y48932D01*
X59475Y48968D01*
X59200Y48932D01*
X58943Y48826D01*
X58723Y48657D01*
X58554Y48437D01*
X58526Y48368D01*
X57710D01*
X57683Y48408D01*
Y48542D01*
X57739Y48626D01*
X57759Y48725D01*
Y48898D01*
X56641D01*
Y48725D01*
X56661Y48626D01*
X56708Y48555D01*
X56716Y48528D01*
X56681Y48413D01*
X56201D01*
X56189Y48474D01*
X56133Y48558D01*
X56105Y48577D01*
Y48723D01*
X56133Y48742D01*
X56189Y48826D01*
X56209Y48925D01*
Y49223D01*
X55525D01*
Y49350D01*
X55398D01*
Y50034D01*
D02*
G37*
G36*
X9616Y33298D02*
X9152D01*
Y32834D01*
X9261Y32856D01*
X9460Y32990D01*
X9594Y33189D01*
X9616Y33298D01*
D02*
G37*
G36*
X93098Y33484D02*
X92925D01*
X92826Y33464D01*
X92742Y33408D01*
X92686Y33324D01*
X92666Y33225D01*
Y32852D01*
X93098D01*
Y33484D01*
D02*
G37*
G36*
X89225Y35709D02*
X87975D01*
X87876Y35689D01*
X87792Y35633D01*
X87167Y35008D01*
X87111Y34924D01*
X87091Y34825D01*
Y34816D01*
X86400D01*
X86164Y34769D01*
X85965Y34635D01*
X82765Y31435D01*
X82631Y31236D01*
X82584Y31000D01*
Y30421D01*
X82551Y30414D01*
X82467Y30358D01*
X82411Y30274D01*
X82391Y30175D01*
Y28925D01*
X82411Y28826D01*
X82467Y28742D01*
X82551Y28686D01*
X82650Y28666D01*
X83650D01*
X83749Y28686D01*
X83833Y28742D01*
X83889Y28826D01*
X83909Y28925D01*
Y29438D01*
X85855Y31384D01*
X90351D01*
X90365Y31365D01*
X91716Y30013D01*
Y29825D01*
X91736Y29726D01*
X91792Y29642D01*
X91876Y29586D01*
X91975Y29566D01*
X92575D01*
X92674Y29586D01*
X92758Y29642D01*
X92814Y29726D01*
X92834Y29825D01*
Y30074D01*
X92844Y30089D01*
X92891Y30325D01*
X92844Y30561D01*
X92834Y30576D01*
Y30825D01*
X92814Y30924D01*
X92758Y31008D01*
X92674Y31064D01*
X92575Y31084D01*
X92387D01*
X91402Y32069D01*
X91369Y32236D01*
X91359Y32251D01*
Y32300D01*
X91339Y32399D01*
X91338Y32401D01*
X91291Y32500D01*
X91338Y32599D01*
X91339Y32601D01*
X91359Y32700D01*
Y32873D01*
X90800D01*
X90241D01*
Y32700D01*
X90172Y32616D01*
X89411D01*
X89372Y32743D01*
X89408Y32767D01*
X90033Y33392D01*
X90089Y33476D01*
X90109Y33575D01*
Y34825D01*
X90089Y34924D01*
X90033Y35008D01*
X89408Y35633D01*
X89324Y35689D01*
X89225Y35709D01*
D02*
G37*
G36*
X11573Y31659D02*
X10900D01*
X10801Y31639D01*
X10717Y31583D01*
X10661Y31499D01*
X10641Y31400D01*
Y30127D01*
X11573D01*
Y31659D01*
D02*
G37*
G36*
X3048Y30259D02*
X2675D01*
X2576Y30239D01*
X2492Y30183D01*
X2436Y30099D01*
X2416Y30000D01*
Y29502D01*
X3048D01*
Y30259D01*
D02*
G37*
G36*
X3675D02*
X3302D01*
Y29502D01*
X3934D01*
Y30000D01*
X3914Y30099D01*
X3858Y30183D01*
X3774Y30239D01*
X3675Y30259D01*
D02*
G37*
G36*
X93784Y32598D02*
X93352D01*
Y31966D01*
X93525D01*
X93624Y31986D01*
X93708Y32042D01*
X93764Y32126D01*
X93784Y32225D01*
Y32598D01*
D02*
G37*
G36*
X107500Y53768D02*
X107483Y53764D01*
X107466Y53765D01*
X107205Y53731D01*
X107173Y53720D01*
X107140Y53714D01*
X106897Y53613D01*
X106868Y53594D01*
X106838Y53579D01*
X106629Y53419D01*
X106607Y53393D01*
X106581Y53371D01*
X106421Y53162D01*
X106406Y53132D01*
X106387Y53103D01*
X106286Y52860D01*
X106280Y52827D01*
X106269Y52795D01*
X106235Y52534D01*
X106237Y52500D01*
X106235Y52466D01*
X106269Y52205D01*
X106280Y52173D01*
X106286Y52140D01*
X106387Y51897D01*
X106406Y51868D01*
X106421Y51838D01*
X106581Y51629D01*
X106607Y51607D01*
X106629Y51581D01*
X106838Y51421D01*
X106868Y51406D01*
X106897Y51387D01*
X107140Y51286D01*
X107173Y51280D01*
X107205Y51269D01*
X107466Y51235D01*
X107483Y51236D01*
X107500Y51232D01*
X107517Y51236D01*
X107534Y51235D01*
X107795Y51269D01*
X107827Y51280D01*
X107860Y51286D01*
X108103Y51387D01*
X108132Y51406D01*
X108162Y51421D01*
X108371Y51581D01*
X108393Y51607D01*
X108419Y51629D01*
X108579Y51838D01*
X108594Y51868D01*
X108613Y51897D01*
X108714Y52140D01*
X108720Y52173D01*
X108731Y52205D01*
X108765Y52466D01*
X108763Y52500D01*
X108765Y52534D01*
X108731Y52795D01*
X108720Y52827D01*
X108714Y52860D01*
X108613Y53103D01*
X108594Y53132D01*
X108579Y53162D01*
X108419Y53371D01*
X108393Y53393D01*
X108371Y53419D01*
X108162Y53579D01*
X108132Y53594D01*
X108103Y53613D01*
X107860Y53714D01*
X107827Y53720D01*
X107795Y53731D01*
X107534Y53765D01*
X107517Y53764D01*
X107500Y53768D01*
D02*
G37*
G36*
X3023Y32123D02*
X2466D01*
Y31825D01*
X2486Y31726D01*
X2542Y31642D01*
X2626Y31586D01*
X2725Y31566D01*
X3023D01*
Y32123D01*
D02*
G37*
G36*
X93098Y32598D02*
X92666D01*
Y32225D01*
X92686Y32126D01*
X92742Y32042D01*
X92826Y31986D01*
X92925Y31966D01*
X93098D01*
Y32598D01*
D02*
G37*
G36*
X90673Y33559D02*
X90500D01*
X90401Y33539D01*
X90317Y33483D01*
X90261Y33399D01*
X90241Y33300D01*
Y33127D01*
X90673D01*
Y33559D01*
D02*
G37*
G36*
X59475Y36268D02*
X59200Y36232D01*
X58943Y36126D01*
X58723Y35957D01*
X58554Y35737D01*
X58448Y35480D01*
X58412Y35205D01*
X58448Y34930D01*
X58554Y34673D01*
X58723Y34453D01*
X58943Y34284D01*
X59200Y34178D01*
X59475Y34142D01*
X59750Y34178D01*
X60007Y34284D01*
X60227Y34453D01*
X60396Y34673D01*
X60502Y34930D01*
X60538Y35205D01*
X60502Y35480D01*
X60396Y35737D01*
X60227Y35957D01*
X60007Y36126D01*
X59750Y36232D01*
X59475Y36268D01*
D02*
G37*
G36*
X9152Y34016D02*
Y33552D01*
X9616D01*
X9594Y33661D01*
X9460Y33860D01*
X9261Y33994D01*
X9152Y34016D01*
D02*
G37*
G36*
X57073Y49584D02*
X56900D01*
X56801Y49564D01*
X56717Y49508D01*
X56661Y49424D01*
X56641Y49325D01*
Y49152D01*
X57073D01*
Y49584D01*
D02*
G37*
G36*
X54048Y49223D02*
X53584D01*
X53606Y49114D01*
X53740Y48915D01*
X53939Y48781D01*
X54048Y48759D01*
Y49223D01*
D02*
G37*
G36*
X90673Y36591D02*
X90564Y36569D01*
X90365Y36435D01*
X90231Y36236D01*
X90209Y36127D01*
X90673D01*
Y36591D01*
D02*
G37*
G36*
X91391Y35873D02*
X90927D01*
Y35409D01*
X91036Y35431D01*
X91235Y35565D01*
X91369Y35764D01*
X91391Y35873D01*
D02*
G37*
G36*
X90673D02*
X90209D01*
X90231Y35764D01*
X90365Y35565D01*
X90564Y35431D01*
X90673Y35409D01*
Y35873D01*
D02*
G37*
G36*
X8898Y34016D02*
X8789Y33994D01*
X8590Y33860D01*
X8456Y33661D01*
X8434Y33552D01*
X8898D01*
Y34016D01*
D02*
G37*
G36*
X91100Y33559D02*
X90927D01*
Y33127D01*
X91359D01*
Y33300D01*
X91339Y33399D01*
X91283Y33483D01*
X91199Y33539D01*
X91100Y33559D01*
D02*
G37*
G36*
X55950Y50034D02*
X55652D01*
Y49477D01*
X56209D01*
Y49775D01*
X56189Y49874D01*
X56133Y49958D01*
X56049Y50014D01*
X55950Y50034D01*
D02*
G37*
G36*
X59475Y51508D02*
X59200Y51472D01*
X58943Y51366D01*
X58723Y51197D01*
X58554Y50977D01*
X58448Y50720D01*
X58412Y50445D01*
X58448Y50170D01*
X58554Y49913D01*
X58723Y49693D01*
X58943Y49524D01*
X59200Y49418D01*
X59475Y49382D01*
X59750Y49418D01*
X60007Y49524D01*
X60227Y49693D01*
X60396Y49913D01*
X60502Y50170D01*
X60538Y50445D01*
X60502Y50720D01*
X60396Y50977D01*
X60227Y51197D01*
X60007Y51366D01*
X59750Y51472D01*
X59475Y51508D01*
D02*
G37*
G36*
X57500Y49584D02*
X57327D01*
Y49152D01*
X57759D01*
Y49325D01*
X57739Y49424D01*
X57683Y49508D01*
X57599Y49564D01*
X57500Y49584D01*
D02*
G37*
G36*
X54048Y49941D02*
X53939Y49919D01*
X53740Y49785D01*
X53606Y49586D01*
X53584Y49477D01*
X54048D01*
Y49941D01*
D02*
G37*
%LPD*%
G36*
X18134Y34147D02*
Y32555D01*
X17938Y32359D01*
X17425D01*
X17326Y32339D01*
X17242Y32283D01*
X17186Y32199D01*
X17166Y32100D01*
Y30850D01*
X17186Y30751D01*
X17242Y30667D01*
X17326Y30611D01*
X17425Y30591D01*
X18425D01*
X18524Y30611D01*
X18608Y30667D01*
X18664Y30751D01*
X18684Y30850D01*
Y31363D01*
X19049Y31728D01*
X19166Y31679D01*
Y31515D01*
X19126Y31474D01*
X19003Y31291D01*
X18960Y31075D01*
X18960Y31075D01*
Y29400D01*
Y27829D01*
X18875Y27759D01*
X18275D01*
X18176Y27739D01*
X18092Y27683D01*
X18036Y27599D01*
X18016Y27500D01*
Y26500D01*
X18036Y26401D01*
X18092Y26317D01*
X18176Y26261D01*
X18275Y26241D01*
X18651D01*
X18700Y26124D01*
X18310Y25734D01*
X18000D01*
X17901Y25714D01*
X17817Y25658D01*
X17798Y25630D01*
X17652D01*
X17633Y25658D01*
X17549Y25714D01*
X17450Y25734D01*
X17152D01*
Y25050D01*
Y24366D01*
X17450D01*
X17528Y24382D01*
X17578Y24328D01*
X17603Y24277D01*
X16516Y23190D01*
X13655D01*
X13606Y23307D01*
X14787Y24488D01*
X14787Y24488D01*
X14909Y24671D01*
X14947Y24859D01*
X15020Y24906D01*
X15079Y24923D01*
X15215Y24832D01*
X15324Y24811D01*
Y25401D01*
Y25992D01*
X15215Y25970D01*
X15079Y25879D01*
X14952Y25947D01*
Y26629D01*
X15403Y27080D01*
X15526Y27263D01*
X15569Y27479D01*
X15526Y27695D01*
X15416Y27860D01*
Y28696D01*
X15409Y28733D01*
X15412Y28750D01*
Y29905D01*
X15539Y29957D01*
X16387Y29109D01*
X16521Y29019D01*
X16679Y28988D01*
X17066D01*
Y28900D01*
X17086Y28801D01*
X17142Y28717D01*
X17226Y28661D01*
X17325Y28641D01*
X17925D01*
X18024Y28661D01*
X18108Y28717D01*
X18164Y28801D01*
X18184Y28900D01*
Y29900D01*
X18164Y29999D01*
X18108Y30083D01*
X18024Y30139D01*
X17925Y30159D01*
X17325D01*
X17226Y30139D01*
X17142Y30083D01*
X17086Y29999D01*
X17066Y29900D01*
Y29812D01*
X16849D01*
X16441Y30220D01*
X16483Y30358D01*
X16499Y30361D01*
X16583Y30417D01*
X16639Y30501D01*
X16659Y30600D01*
Y30735D01*
X16662Y30750D01*
Y32854D01*
X18007Y34200D01*
X18134Y34147D01*
D02*
G37*
%LPC*%
G36*
X16898Y24923D02*
X16341D01*
Y24625D01*
X16361Y24526D01*
X16417Y24442D01*
X16501Y24386D01*
X16600Y24366D01*
X16898D01*
Y24923D01*
D02*
G37*
G36*
X16041Y25274D02*
X15578D01*
Y24811D01*
X15686Y24832D01*
X15886Y24966D01*
X16020Y25166D01*
X16041Y25274D01*
D02*
G37*
G36*
X15578Y25992D02*
Y25528D01*
X16041D01*
X16020Y25637D01*
X15886Y25837D01*
X15686Y25970D01*
X15578Y25992D01*
D02*
G37*
G36*
X16898Y25734D02*
X16600D01*
X16501Y25714D01*
X16417Y25658D01*
X16361Y25574D01*
X16341Y25475D01*
Y25177D01*
X16898D01*
Y25734D01*
D02*
G37*
%LPD*%
G36*
X40884Y35684D02*
X41017Y35594D01*
X41175Y35563D01*
X44616D01*
Y35350D01*
X44636Y35251D01*
X44653Y35225D01*
X44636Y35199D01*
X44616Y35100D01*
Y34850D01*
X44636Y34751D01*
X44653Y34725D01*
X44636Y34699D01*
X44616Y34600D01*
Y34350D01*
X44636Y34251D01*
X44653Y34225D01*
X44636Y34199D01*
X44616Y34100D01*
Y33850D01*
X44636Y33751D01*
X44653Y33725D01*
X44636Y33699D01*
X44616Y33600D01*
Y33350D01*
X44636Y33251D01*
X44653Y33225D01*
X44636Y33199D01*
X44616Y33100D01*
Y32850D01*
X44636Y32751D01*
X44692Y32667D01*
X44776Y32611D01*
X44875Y32591D01*
X45435D01*
X45575Y32563D01*
X46354D01*
X46816Y32101D01*
Y31575D01*
X46836Y31476D01*
X46892Y31392D01*
X46920Y31373D01*
Y31227D01*
X46892Y31208D01*
X46836Y31124D01*
X46816Y31025D01*
Y30498D01*
X45605Y29287D01*
X45473D01*
X45441Y29414D01*
X45483Y29442D01*
X45539Y29526D01*
X45559Y29625D01*
Y30225D01*
X45539Y30324D01*
X45483Y30408D01*
X45412Y30456D01*
Y30650D01*
X45381Y30808D01*
X45291Y30941D01*
X44509Y31724D01*
Y32225D01*
X44489Y32324D01*
X44433Y32408D01*
X44349Y32464D01*
X44250Y32484D01*
X44000D01*
X43901Y32464D01*
X43875Y32447D01*
X43849Y32464D01*
X43752Y32484D01*
Y32280D01*
X43741Y32225D01*
Y31665D01*
X43713Y31525D01*
X43509D01*
Y32225D01*
X43498Y32280D01*
Y32484D01*
X43401Y32464D01*
X43375Y32447D01*
X43349Y32464D01*
X43250Y32484D01*
X43000D01*
X42901Y32464D01*
X42875Y32447D01*
X42849Y32464D01*
X42750Y32484D01*
X42500D01*
X42401Y32464D01*
X42375Y32447D01*
X42349Y32464D01*
X42250Y32484D01*
X42000D01*
X41901Y32464D01*
X41875Y32447D01*
X41849Y32464D01*
X41750Y32484D01*
X41500D01*
X41401Y32464D01*
X41375Y32447D01*
X41349Y32464D01*
X41250Y32484D01*
X41000D01*
X40901Y32464D01*
X40875Y32447D01*
X40849Y32464D01*
X40750Y32484D01*
X40500D01*
X40401Y32464D01*
X40375Y32447D01*
X40349Y32464D01*
X40250Y32484D01*
X40000D01*
X39901Y32464D01*
X39875Y32447D01*
X39849Y32464D01*
X39750Y32484D01*
X39500D01*
X39401Y32464D01*
X39375Y32447D01*
X39349Y32464D01*
X39250Y32484D01*
X39000D01*
X38901Y32464D01*
X38800Y32546D01*
X38775Y32609D01*
X38781Y32617D01*
X38812Y32775D01*
Y33600D01*
X38781Y33758D01*
X38691Y33891D01*
X38316Y34266D01*
X38183Y34356D01*
X38134Y34365D01*
Y34600D01*
X38114Y34699D01*
X38097Y34725D01*
X38114Y34751D01*
X38134Y34850D01*
Y35100D01*
X38114Y35199D01*
X38097Y35225D01*
X38114Y35251D01*
X38134Y35350D01*
Y35600D01*
X38114Y35699D01*
X38097Y35725D01*
X38114Y35751D01*
X38134Y35850D01*
Y36100D01*
X38114Y36199D01*
X38097Y36225D01*
X38114Y36251D01*
X38134Y36350D01*
Y36600D01*
X38114Y36699D01*
X38097Y36725D01*
X38114Y36751D01*
X38134Y36850D01*
Y37100D01*
X38114Y37199D01*
X38097Y37225D01*
X38114Y37251D01*
X38134Y37350D01*
Y37600D01*
X38114Y37699D01*
X38097Y37725D01*
X38114Y37751D01*
X38134Y37850D01*
Y38100D01*
X38114Y38199D01*
X38156Y38245D01*
X38313Y38255D01*
X40884Y35684D01*
D02*
G37*
G36*
X58542Y22208D02*
X58550Y22054D01*
X58488Y22007D01*
X58319Y21787D01*
X58291Y21718D01*
X57735D01*
X57708Y21758D01*
Y21892D01*
X57764Y21976D01*
X57784Y22075D01*
Y22248D01*
X56666D01*
Y22075D01*
X56686Y21976D01*
X56742Y21892D01*
Y21859D01*
X56623Y21738D01*
X56184D01*
Y21775D01*
X56164Y21874D01*
X56108Y21958D01*
X56080Y21977D01*
Y22123D01*
X56108Y22142D01*
X56164Y22226D01*
X56184Y22325D01*
Y22623D01*
X54816D01*
Y22325D01*
X54836Y22226D01*
X54892Y22142D01*
X54920Y22123D01*
Y21977D01*
X54892Y21958D01*
X54836Y21874D01*
X54816Y21775D01*
Y21763D01*
X54419D01*
X54261Y21869D01*
X54025Y21916D01*
X53810Y21873D01*
X53683Y21935D01*
Y22176D01*
X53795Y22236D01*
X53839Y22206D01*
X53948Y22184D01*
Y22775D01*
X54075D01*
Y22902D01*
X54666D01*
X54644Y23011D01*
X54510Y23210D01*
X54328Y23332D01*
X54282Y23466D01*
X54770Y23954D01*
X54860Y24088D01*
X54891Y24245D01*
Y25689D01*
X54979Y25728D01*
X55018Y25732D01*
X58542Y22208D01*
D02*
G37*
G36*
X34802Y33534D02*
X34864Y33547D01*
X34972Y33480D01*
X34991Y33457D01*
Y33377D01*
X35550D01*
Y33123D01*
X34991D01*
Y32950D01*
X35011Y32851D01*
X35067Y32767D01*
Y32633D01*
X35011Y32549D01*
X34991Y32450D01*
Y31850D01*
X35011Y31751D01*
X35036Y31713D01*
Y29725D01*
X35075Y29528D01*
X35187Y29362D01*
X36137Y28412D01*
X36303Y28300D01*
X36500Y28261D01*
X39315D01*
X39396Y28134D01*
X39384Y28077D01*
X39975D01*
Y27823D01*
X39384D01*
X39406Y27714D01*
X39475Y27611D01*
X39407Y27484D01*
X39100D01*
X39001Y27464D01*
X38917Y27408D01*
X38861Y27324D01*
X38841Y27225D01*
Y27052D01*
X39400D01*
Y26798D01*
X38841D01*
Y26625D01*
X38861Y26526D01*
X38901Y26466D01*
X38873Y26379D01*
X38845Y26339D01*
X37563D01*
X35888Y28013D01*
X35363Y28538D01*
X35344Y28636D01*
X35210Y28835D01*
X35011Y28969D01*
X34775Y29016D01*
X34539Y28969D01*
X34457Y28914D01*
X34330Y28982D01*
Y33498D01*
X34369Y33518D01*
X34457Y33552D01*
X34548Y33534D01*
Y34125D01*
X34802D01*
Y33534D01*
D02*
G37*
G36*
X54067Y35800D02*
Y31067D01*
X53940Y30999D01*
X53836Y31069D01*
X53727Y31091D01*
Y30500D01*
X53473D01*
Y31091D01*
X53364Y31069D01*
X53165Y30935D01*
X53031Y30736D01*
X53002Y30591D01*
X52999Y30589D01*
X52900Y30609D01*
X51700D01*
X51690Y30607D01*
X50448Y31848D01*
X50323Y31932D01*
X50175Y31961D01*
X49635D01*
X49423Y32174D01*
X49471Y32291D01*
X50500D01*
X50599Y32311D01*
X50683Y32367D01*
X50739Y32451D01*
X50759Y32550D01*
Y34350D01*
X50739Y34449D01*
X50683Y34533D01*
X50599Y34589D01*
X50500Y34609D01*
X50337D01*
Y35000D01*
X50334Y35015D01*
Y35150D01*
X50314Y35249D01*
X50280Y35300D01*
X50314Y35351D01*
X50334Y35450D01*
Y35473D01*
X49925D01*
X49516D01*
Y35450D01*
X49536Y35351D01*
X49570Y35300D01*
X49536Y35249D01*
X49516Y35150D01*
Y35015D01*
X49513Y35000D01*
Y34609D01*
X49300D01*
X49201Y34589D01*
X49117Y34533D01*
X49061Y34449D01*
X49041Y34350D01*
Y33887D01*
X48696D01*
X46816Y35766D01*
X46683Y35856D01*
X46534Y35885D01*
Y36030D01*
X46661Y36087D01*
X46701Y36061D01*
X46800Y36041D01*
X46823D01*
Y36450D01*
X47077D01*
Y36041D01*
X47100D01*
X47199Y36061D01*
X47250Y36095D01*
X47301Y36061D01*
X47400Y36041D01*
X47700D01*
X47799Y36061D01*
X47803Y36064D01*
X48072D01*
X48076Y36061D01*
X48175Y36041D01*
X48445D01*
X48475Y36035D01*
X48505Y36041D01*
X48775D01*
X48874Y36061D01*
X48958Y36117D01*
X49092D01*
X49176Y36061D01*
X49275Y36041D01*
X49525D01*
X49557Y35988D01*
X49579Y35914D01*
X49536Y35849D01*
X49516Y35750D01*
Y35727D01*
X49925D01*
X50334D01*
Y35750D01*
X50314Y35849D01*
X50258Y35933D01*
X50174Y35989D01*
X50114Y36001D01*
X50082Y36068D01*
X50072Y36101D01*
X50071Y36136D01*
X50114Y36201D01*
X50134Y36300D01*
Y36473D01*
X49575D01*
Y36600D01*
X49448D01*
Y37159D01*
X49275D01*
X49176Y37139D01*
X49167Y37133D01*
X49040Y37201D01*
Y37391D01*
X49249Y37601D01*
X49249Y37601D01*
X49372Y37784D01*
X49415Y38000D01*
X49415Y38000D01*
Y38058D01*
X49419Y38064D01*
X49466Y38300D01*
X49419Y38536D01*
X49409Y38551D01*
X49469Y38663D01*
X51204D01*
X54067Y35800D01*
D02*
G37*
%LPC*%
G36*
X55925Y23434D02*
X55627D01*
Y22877D01*
X56184D01*
Y23175D01*
X56164Y23274D01*
X56108Y23358D01*
X56024Y23414D01*
X55925Y23434D01*
D02*
G37*
G36*
X55373D02*
X55075D01*
X54976Y23414D01*
X54892Y23358D01*
X54836Y23274D01*
X54816Y23175D01*
Y22877D01*
X55373D01*
Y23434D01*
D02*
G37*
G36*
X57525Y22934D02*
X57352D01*
Y22502D01*
X57784D01*
Y22675D01*
X57764Y22774D01*
X57708Y22858D01*
X57624Y22914D01*
X57525Y22934D01*
D02*
G37*
G36*
X57098D02*
X56925D01*
X56826Y22914D01*
X56742Y22858D01*
X56686Y22774D01*
X56666Y22675D01*
Y22502D01*
X57098D01*
Y22934D01*
D02*
G37*
G36*
X54666Y22648D02*
X54202D01*
Y22184D01*
X54311Y22206D01*
X54510Y22340D01*
X54644Y22539D01*
X54666Y22648D01*
D02*
G37*
G36*
X52900Y34609D02*
X51700D01*
X51601Y34589D01*
X51517Y34533D01*
X51461Y34449D01*
X51441Y34350D01*
Y32550D01*
X51461Y32451D01*
X51517Y32367D01*
X51601Y32311D01*
X51700Y32291D01*
X52900D01*
X52999Y32311D01*
X53083Y32367D01*
X53139Y32451D01*
X53159Y32550D01*
Y34350D01*
X53139Y34449D01*
X53083Y34533D01*
X52999Y34589D01*
X52900Y34609D01*
D02*
G37*
G36*
X49875Y37159D02*
X49702D01*
Y36727D01*
X50134D01*
Y36900D01*
X50114Y36999D01*
X50058Y37083D01*
X49974Y37139D01*
X49875Y37159D01*
D02*
G37*
G36*
X51248Y37591D02*
X51139Y37569D01*
X50940Y37435D01*
X50806Y37236D01*
X50784Y37127D01*
X51248D01*
Y37591D01*
D02*
G37*
G36*
X51502D02*
Y37127D01*
X51966D01*
X51944Y37236D01*
X51810Y37435D01*
X51611Y37569D01*
X51502Y37591D01*
D02*
G37*
G36*
X51966Y36873D02*
X51502D01*
Y36409D01*
X51611Y36431D01*
X51810Y36565D01*
X51944Y36764D01*
X51966Y36873D01*
D02*
G37*
G36*
X51248D02*
X50784D01*
X50806Y36764D01*
X50940Y36565D01*
X51139Y36431D01*
X51248Y36409D01*
Y36873D01*
D02*
G37*
%LPD*%
D10*
X92125Y17775D02*
D03*
X93125D02*
D03*
X93175Y43350D02*
D03*
X94175D02*
D03*
X49575Y36600D02*
D03*
X48475D02*
D03*
X38875Y41525D02*
D03*
X37775D02*
D03*
X43900Y29925D02*
D03*
X45000D02*
D03*
X4600Y12525D02*
D03*
X5700D02*
D03*
X31325Y21950D02*
D03*
X30225D02*
D03*
X28725Y24800D02*
D03*
X29825D02*
D03*
D11*
X89875Y5850D02*
D03*
Y4850D02*
D03*
X68550Y20625D02*
D03*
Y19525D02*
D03*
X90800Y33000D02*
D03*
Y32000D02*
D03*
X68975Y47950D02*
D03*
Y46850D02*
D03*
X57225Y21275D02*
D03*
Y22375D02*
D03*
X57200Y47925D02*
D03*
Y49025D02*
D03*
X40525Y26925D02*
D03*
Y25825D02*
D03*
X39400D02*
D03*
Y26925D02*
D03*
X35550Y33250D02*
D03*
Y32150D02*
D03*
X13250Y36700D02*
D03*
Y37700D02*
D03*
X2725Y26950D02*
D03*
Y25850D02*
D03*
X32425Y21000D02*
D03*
Y22100D02*
D03*
X29825Y26175D02*
D03*
Y27275D02*
D03*
X26650Y24775D02*
D03*
Y25875D02*
D03*
D12*
X91450Y3175D02*
D03*
X93350D02*
D03*
X92400Y5575D02*
D03*
X93125Y15150D02*
D03*
X91225D02*
D03*
X92175Y12750D02*
D03*
X92275Y30325D02*
D03*
X94175D02*
D03*
X93225Y32725D02*
D03*
X93925Y40875D02*
D03*
X92025D02*
D03*
X92975Y38475D02*
D03*
X19525Y29400D02*
D03*
X17625D02*
D03*
X18575Y27000D02*
D03*
X5050Y18700D02*
D03*
X4100D02*
D03*
X3150D02*
D03*
Y16300D02*
D03*
X5050D02*
D03*
D13*
X84025Y20575D02*
D03*
X86025D02*
D03*
X72250Y18275D02*
D03*
X74250D02*
D03*
X79625Y2100D02*
D03*
X81625D02*
D03*
X81150Y29550D02*
D03*
X83150D02*
D03*
X86950Y46775D02*
D03*
X88950D02*
D03*
X73100Y45625D02*
D03*
X75100D02*
D03*
X5175Y29375D02*
D03*
X3175D02*
D03*
X6250Y25350D02*
D03*
X4250D02*
D03*
X17925Y31475D02*
D03*
X19925D02*
D03*
X7900Y21000D02*
D03*
X5900D02*
D03*
X6225Y23175D02*
D03*
X4225D02*
D03*
D14*
X55500Y22750D02*
D03*
Y21350D02*
D03*
X55525Y49350D02*
D03*
Y47950D02*
D03*
X47500Y32000D02*
D03*
Y30600D02*
D03*
D15*
X49925Y35600D02*
D03*
Y35000D02*
D03*
X53550Y29250D02*
D03*
Y28650D02*
D03*
X6350Y17500D02*
D03*
Y16900D02*
D03*
D16*
X52300Y33450D02*
D03*
Y29450D02*
D03*
X49900D02*
D03*
Y33450D02*
D03*
D17*
X47550Y36450D02*
D03*
X46950D02*
D03*
X7700Y39425D02*
D03*
X7100D02*
D03*
X7125Y28725D02*
D03*
X7725D02*
D03*
X16250Y30750D02*
D03*
X15650D02*
D03*
D18*
X44125Y31525D02*
D03*
X43625D02*
D03*
X43125D02*
D03*
X42625D02*
D03*
X42125D02*
D03*
X41625D02*
D03*
X41125D02*
D03*
X40625D02*
D03*
X40125D02*
D03*
X39625D02*
D03*
X39125D02*
D03*
X38625D02*
D03*
Y39925D02*
D03*
X39125D02*
D03*
X39625D02*
D03*
X40125D02*
D03*
X40625D02*
D03*
X41125D02*
D03*
X41625D02*
D03*
X42125D02*
D03*
X42625D02*
D03*
X43125D02*
D03*
X43625D02*
D03*
X44125D02*
D03*
D19*
X37175Y32975D02*
D03*
Y33475D02*
D03*
Y33975D02*
D03*
Y34475D02*
D03*
Y34975D02*
D03*
Y35475D02*
D03*
Y35975D02*
D03*
Y36475D02*
D03*
Y36975D02*
D03*
Y37475D02*
D03*
Y37975D02*
D03*
Y38475D02*
D03*
X45575D02*
D03*
Y37975D02*
D03*
Y37475D02*
D03*
Y36975D02*
D03*
Y36475D02*
D03*
Y35975D02*
D03*
Y35475D02*
D03*
Y34975D02*
D03*
Y34475D02*
D03*
Y33975D02*
D03*
Y33475D02*
D03*
Y32975D02*
D03*
D20*
X4450Y39050D02*
D03*
Y34450D02*
D03*
X18750Y40125D02*
D03*
Y35525D02*
D03*
D21*
X11875D02*
D03*
Y37425D02*
D03*
X9475Y36475D02*
D03*
D22*
X4550Y32250D02*
D03*
X3150D02*
D03*
X18425Y25050D02*
D03*
X17025D02*
D03*
D23*
X9500Y31750D02*
D03*
Y31250D02*
D03*
Y30750D02*
D03*
Y30250D02*
D03*
Y29750D02*
D03*
Y29250D02*
D03*
Y28750D02*
D03*
Y28250D02*
D03*
X13900Y31750D02*
D03*
Y31250D02*
D03*
Y30750D02*
D03*
Y30250D02*
D03*
Y29750D02*
D03*
Y29250D02*
D03*
Y28750D02*
D03*
Y28250D02*
D03*
D24*
X11700Y30000D02*
D03*
D25*
X12125Y25625D02*
D03*
Y22625D02*
D03*
D26*
X7500Y14550D02*
D03*
Y12550D02*
D03*
X16050Y14550D02*
D03*
Y12550D02*
D03*
X11750Y12550D02*
D03*
Y14550D02*
D03*
D27*
X31600Y23700D02*
D03*
X32000D02*
D03*
X32400D02*
D03*
X32800D02*
D03*
X33200D02*
D03*
X33600D02*
D03*
X34000D02*
D03*
X34400D02*
D03*
Y27300D02*
D03*
X34000D02*
D03*
X33600D02*
D03*
X33200D02*
D03*
X32800D02*
D03*
X32400D02*
D03*
X32000D02*
D03*
X31600D02*
D03*
D28*
X34800Y24100D02*
D03*
Y24500D02*
D03*
Y24900D02*
D03*
Y25300D02*
D03*
Y25700D02*
D03*
Y26100D02*
D03*
Y26500D02*
D03*
Y26900D02*
D03*
X31200D02*
D03*
Y26500D02*
D03*
Y26100D02*
D03*
Y25700D02*
D03*
Y25300D02*
D03*
Y24900D02*
D03*
Y24500D02*
D03*
Y24100D02*
D03*
D29*
X33000Y25500D02*
D03*
D30*
X15451Y25401D02*
X16674D01*
X17025Y25050D01*
X94150Y28775D02*
X94175Y28800D01*
Y30325D01*
X92975Y37050D02*
X92975Y37050D01*
X92975Y37050D02*
Y38475D01*
X98925Y22250D02*
X101200Y24525D01*
X98925Y8750D02*
Y22250D01*
X93350Y3175D02*
X98925Y8750D01*
X97450Y23275D02*
X101200Y27025D01*
X97450Y17821D02*
Y23275D01*
X92379Y12750D02*
X97450Y17821D01*
X92175Y12750D02*
X92379D01*
X93133Y17721D02*
Y18221D01*
X90800Y33000D02*
Y36000D01*
X89875Y5850D02*
Y8900D01*
X92125Y5850D02*
X92400Y5575D01*
X89875Y5850D02*
X92125D01*
X91450Y3175D02*
Y3275D01*
X89875Y4850D02*
X91450Y3275D01*
X87125Y2100D02*
X89875Y4850D01*
X81625Y2100D02*
X87125D01*
X82550Y41075D02*
X88575D01*
X77150Y46475D02*
X82550Y41075D01*
X77150Y46475D02*
Y46475D01*
X68615Y49425D02*
X74200D01*
X77150Y46475D01*
X90779Y20575D02*
X93133Y18221D01*
X86025Y20575D02*
X90779D01*
X90975Y17775D02*
X92125D01*
X89875Y16675D02*
X90975Y17775D01*
X89875Y12675D02*
Y16675D01*
X88525Y11325D02*
X89875Y12675D01*
X92125Y17775D02*
X92179Y17721D01*
Y12754D02*
Y17721D01*
X92175Y12750D02*
X92179Y12754D01*
X91200Y16550D02*
X91225Y16525D01*
Y15150D02*
Y16525D01*
X76200Y11325D02*
X88525D01*
X88950Y25050D02*
X91850D01*
X86025Y22125D02*
X88950Y25050D01*
X86025Y20575D02*
Y22125D01*
X84375Y6575D02*
X87675D01*
X81625Y3825D02*
X84375Y6575D01*
X81625Y2100D02*
Y3825D01*
X79550Y25050D02*
X84025Y20575D01*
X73850Y25050D02*
X79550D01*
X68115D02*
X73850D01*
X66860Y23795D02*
X68115Y25050D01*
X71900Y20625D02*
X74250Y18275D01*
X68550Y20625D02*
X71900D01*
X67490D02*
X68550D01*
X66860Y21255D02*
X67490Y20625D01*
X66860Y21255D02*
X67505Y21900D01*
X79475D01*
X87700Y13675D01*
X69660Y13635D02*
X69700Y13675D01*
X66860Y13635D02*
X69660D01*
X72250Y15275D02*
X76200Y11325D01*
X72250Y15275D02*
Y18275D01*
X71000Y19525D02*
X72250Y18275D01*
X68550Y19525D02*
X71000D01*
X67740Y18715D02*
X68550Y19525D01*
X66860Y18715D02*
X67740D01*
X75150Y6575D02*
X79625Y2100D01*
X69675Y6575D02*
X75150D01*
X67695Y8555D02*
X69675Y6575D01*
X66860Y8555D02*
X67695D01*
X92950Y33000D02*
X93225Y32725D01*
X90800Y33000D02*
X92950D01*
X90800Y31800D02*
X92275Y30325D01*
X90800Y31800D02*
Y32000D01*
X83200Y29600D02*
X85600Y32000D01*
X83150Y29550D02*
X83200Y29600D01*
X85600Y32000D02*
X90800D01*
X83200Y29600D02*
Y31000D01*
X86400Y34200D01*
X88600D01*
X76500D02*
X81150Y29550D01*
X70600Y34200D02*
X76500D01*
X69595Y35205D02*
X70600Y34200D01*
X67095Y35205D02*
X69595D01*
X80450Y38275D02*
X88425D01*
X90700Y40550D01*
Y42175D01*
X91875Y43350D01*
X93175D01*
Y42250D02*
Y43350D01*
X92979Y42054D02*
X93175Y42250D01*
X92979Y38479D02*
Y42054D01*
X92975Y38475D02*
X92979Y38479D01*
X92025Y40875D02*
Y42150D01*
X73100Y45625D02*
X80450Y38275D01*
X82375Y51350D02*
X86950Y46775D01*
X78050Y51350D02*
X82375D01*
X67095Y50445D02*
X67300Y50650D01*
X67140Y47950D02*
X68615Y49425D01*
X67095Y47905D02*
X67140Y47950D01*
X68975D01*
X72775D02*
X75100Y45625D01*
X68975Y47950D02*
X72775D01*
X71875Y46850D02*
X73100Y45625D01*
X68975Y46850D02*
X71875D01*
X67490Y45365D02*
X68975Y46850D01*
X67095Y45365D02*
X67490D01*
X69785Y40285D02*
X70575Y41075D01*
X67095Y40285D02*
X69785D01*
X5975Y32250D02*
X6525Y32800D01*
X4550Y32250D02*
X5975D01*
X8150Y47500D02*
X10000D01*
X4450Y34450D02*
X6475Y36475D01*
X9825Y33425D02*
X11700Y31550D01*
X9025Y33425D02*
X9825D01*
X11700Y30000D02*
Y31550D01*
X5900Y21000D02*
Y22850D01*
X6225Y23175D01*
X2875D02*
X4225D01*
X1700Y24350D02*
X2875Y23175D01*
X4100Y18700D02*
Y19758D01*
X6475Y36475D02*
X9475D01*
X4450Y39050D02*
X5100Y39700D01*
Y41425D01*
Y44450D01*
X4450Y34450D02*
X4550Y34350D01*
Y32250D02*
Y34350D01*
X1550Y36150D02*
X4450Y39050D01*
X1550Y33850D02*
X3150Y32250D01*
X1550Y33850D02*
Y36150D01*
Y31000D02*
Y33850D01*
Y31000D02*
X3175Y29375D01*
X1550Y28125D02*
X2725Y26950D01*
X1550Y28125D02*
Y31000D01*
Y22308D02*
Y28125D01*
Y22308D02*
X4100Y19758D01*
X10000Y41500D02*
X11875Y39625D01*
Y37425D02*
Y39625D01*
X18750Y32300D02*
Y35525D01*
X17925Y31475D02*
X18750Y32300D01*
X17375Y40125D02*
X18750D01*
X10000Y47500D02*
X13250Y44250D01*
X17375Y40125D01*
X12125Y25625D02*
X13150Y26650D01*
Y27125D01*
X13250Y37700D02*
Y44250D01*
X5100Y44450D02*
X8150Y47500D01*
X4100Y13025D02*
X4600Y12525D01*
X4100Y13025D02*
Y18000D01*
Y18700D01*
X12500Y8700D02*
Y11800D01*
X11750Y12550D02*
X12500Y11800D01*
X15000Y8700D02*
Y11500D01*
X16050Y12550D01*
Y14550D02*
Y16050D01*
D31*
X27025Y25500D02*
X30575D01*
X32800Y28625D02*
X33250Y29075D01*
X32400Y27300D02*
Y30500D01*
X27725Y24800D02*
X28725D01*
X29825Y27275D02*
X30600Y26500D01*
X29900Y26100D02*
X31200D01*
X30575Y25500D02*
X30775Y25300D01*
X29925Y24900D02*
X31200D01*
X33944Y28644D02*
Y34544D01*
X34375Y34975D02*
X37175D01*
X32400Y30500D02*
X32850Y30950D01*
X53550Y29250D02*
Y30450D01*
X53600Y30500D01*
X34170Y35475D02*
X37175D01*
X35675Y34275D02*
X35875Y34475D01*
X34900Y35975D02*
X37175D01*
X33200Y27900D02*
X33944Y28644D01*
X34166Y35479D02*
X34170Y35475D01*
X32000Y33313D02*
X34166Y35479D01*
X32000Y27300D02*
Y33313D01*
X33200Y27300D02*
Y27900D01*
X35875Y34475D02*
X37175D01*
X33944Y34544D02*
X34375Y34975D01*
X50175Y31575D02*
X52300Y29450D01*
X49475Y31575D02*
X50175D01*
X46075Y34975D02*
X49475Y31575D01*
X45575Y34975D02*
X46075D01*
X52300Y29450D02*
X53100Y28650D01*
X53550D01*
X49975Y35600D02*
X51375Y37000D01*
X49925Y35600D02*
X49975D01*
X49975Y37000D02*
X51375D01*
X49575Y36600D02*
X49975Y37000D01*
X32800Y27300D02*
Y28625D01*
X49575Y36564D02*
Y36600D01*
X48886Y35875D02*
X49575Y36564D01*
X47289Y35875D02*
X48886D01*
X46950Y36214D02*
X47289Y35875D01*
X46950Y36214D02*
Y36450D01*
X45575Y36975D02*
X47325D01*
X46925Y36475D02*
X46950Y36450D01*
X45575Y36475D02*
X46925D01*
X47550Y36450D02*
X48325D01*
X48475Y36600D01*
X47550Y36450D02*
Y36750D01*
X47325Y36975D02*
X47550Y36750D01*
X6275Y24900D02*
Y25025D01*
X9150Y28250D02*
X9500D01*
X6250Y25350D02*
X9150Y28250D01*
X29825Y26175D02*
X29900Y26100D01*
X30600Y26500D02*
X31200D01*
X30925Y24500D02*
X31200D01*
X29825Y24800D02*
X29925Y24900D01*
X30775Y25300D02*
X31200D01*
X30225Y22325D02*
X31600Y23700D01*
X32400Y22125D02*
Y23700D01*
Y22125D02*
X32425Y22100D01*
X32000Y23175D02*
Y23700D01*
X31325Y22500D02*
X32000Y23175D01*
X34000Y23425D02*
Y23700D01*
X34800Y25700D02*
X36990Y23510D01*
X36216Y15761D02*
X36990Y16535D01*
X35721Y15761D02*
X36216D01*
X34260Y14300D02*
X35721Y15761D01*
X34800Y26100D02*
X35175D01*
X34000Y23425D02*
X34825Y22600D01*
X35425D01*
X33200Y19585D02*
X35645Y17140D01*
X35175Y26100D02*
X38415Y22860D01*
X30325Y23900D02*
X30925Y24500D01*
X27525Y23900D02*
X30325D01*
X26650Y24775D02*
X27525Y23900D01*
X26650Y25875D02*
X27025Y25500D01*
X30225Y21950D02*
Y22325D01*
X31325Y21950D02*
Y22500D01*
X33200Y19585D02*
Y23700D01*
X36990Y16535D02*
Y23510D01*
X38415Y17140D02*
Y22860D01*
D32*
X34775Y28400D02*
X35525Y27650D01*
X55525Y49350D02*
X56875D01*
X57200Y49025D01*
X54175Y49350D02*
X55525D01*
X55500Y22750D02*
X56850D01*
X57225Y22375D01*
X54075Y22775D02*
X54100Y22750D01*
X55500D01*
X35525Y27650D02*
X37350Y25825D01*
X36500Y28775D02*
X40600D01*
X41600Y27775D01*
Y25800D02*
Y27775D01*
X35550Y29725D02*
X36500Y28775D01*
X35550Y29725D02*
Y32150D01*
X40525Y25825D02*
X41575D01*
X39400D02*
X40525D01*
Y26925D02*
Y27400D01*
X39975Y27950D02*
X40525Y27400D01*
X39400Y27375D02*
X39975Y27950D01*
X39400Y26925D02*
Y27375D01*
X37350Y25825D02*
X39400D01*
X41575D02*
X41600Y25800D01*
X3225Y25350D02*
X4250D01*
X2725Y25850D02*
X3225Y25350D01*
D33*
X94175Y43350D02*
Y43733D01*
X91133Y46775D02*
X94175Y43733D01*
X88950Y46775D02*
X91133D01*
X93125Y15150D02*
Y17775D01*
X94175Y41125D02*
Y43350D01*
X93925Y40875D02*
X94175Y41125D01*
X88950Y46775D02*
X93525Y51350D01*
X96050D01*
X55500Y47925D02*
X55525Y47950D01*
X54125Y47925D02*
X55500D01*
X18775Y24700D02*
X19775D01*
X18425Y25050D02*
X18775Y24700D01*
X48850Y38000D02*
Y38300D01*
X48475Y37625D02*
X48850Y38000D01*
X48475Y36600D02*
Y37625D01*
X12125Y22625D02*
X16750D01*
X9525D02*
X12125D01*
X7900Y21000D02*
X9525Y22625D01*
X11875Y35525D02*
X12075D01*
X13250Y36700D01*
X19525Y26150D02*
Y29400D01*
Y31075D01*
X19925Y31475D01*
X18425Y25050D02*
X19525Y26150D01*
X16750Y22625D02*
X18425Y24300D01*
Y25050D01*
X14387Y26862D02*
X15004Y27479D01*
X14387Y24888D02*
Y26862D01*
X12125Y22625D02*
X14387Y24888D01*
X7500Y8700D02*
Y12550D01*
X7475Y12525D02*
X7500Y12550D01*
X5700Y12525D02*
X7475D01*
X5275Y16075D02*
X7400D01*
X5275D02*
X6800Y14550D01*
X7500D01*
X5050Y16300D02*
X5275Y16075D01*
X7500Y14550D02*
X11750D01*
D34*
X59240Y18715D02*
X60444Y19919D01*
Y21754D01*
X59739Y22459D02*
X60444Y21754D01*
X58873Y22459D02*
X59739D01*
X55300Y26032D02*
X58873Y22459D01*
X55300Y26032D02*
Y36275D01*
X53271Y19604D02*
X59240Y13635D01*
X53271Y19604D02*
Y23037D01*
X54479Y24245D01*
Y35971D01*
X35775Y33475D02*
X37175D01*
X35550Y33250D02*
X35775Y33475D01*
X59140Y13635D02*
X59240D01*
X59285Y40475D02*
X59475Y40285D01*
X46800Y40475D02*
X59285D01*
X44125Y39925D02*
X49565Y45365D01*
X59475D01*
X43125Y39925D02*
Y41950D01*
X51775Y39800D02*
X55300Y36275D01*
X51375Y39075D02*
X54479Y35971D01*
X43125Y41950D02*
X43975Y42800D01*
X43625Y40975D02*
X44600Y41950D01*
X48325Y39800D02*
X51775D01*
X46500Y37975D02*
X48325Y39800D01*
X45575Y37975D02*
X46500D01*
X45575Y39250D02*
X46800Y40475D01*
X45575Y38475D02*
Y39250D01*
X43625Y39925D02*
Y40975D01*
X48550Y39075D02*
X51375D01*
X46950Y37475D02*
X48550Y39075D01*
X45575Y37475D02*
X46950D01*
X35525Y26800D02*
Y27650D01*
X35225Y26500D02*
X35525Y26800D01*
X34800Y26500D02*
X35225D01*
X43625Y30200D02*
Y31525D01*
Y30200D02*
X43900Y29925D01*
X48525Y33475D02*
X49925D01*
X34675Y34125D02*
X35550Y33250D01*
X44975Y28875D02*
X45775D01*
X47500Y30600D01*
X46525Y32975D02*
X47500Y32000D01*
X45575Y32975D02*
X46525D01*
X46525Y35475D02*
X48525Y33475D01*
X45575Y35475D02*
X46525D01*
X49925Y33475D02*
Y35000D01*
X38875Y41525D02*
Y42675D01*
X37750Y42600D02*
X37775Y42575D01*
Y41525D02*
Y42575D01*
X35700Y39400D02*
X37750D01*
X36450Y30050D02*
Y30825D01*
X38400Y32775D01*
Y33600D01*
X38025Y33975D02*
X38400Y33600D01*
X37175Y33975D02*
X38025D01*
X37500Y30050D02*
X38625Y31175D01*
Y31525D01*
X42125Y30700D02*
X42875Y29950D01*
X42125Y30700D02*
Y31525D01*
X43825Y28875D02*
X43900Y28950D01*
Y29925D01*
X44975Y28875D02*
X45000Y28900D01*
Y29925D01*
X37750Y39400D02*
X41175Y35975D01*
X45575D01*
X35550Y32150D02*
X36350D01*
X37175Y32975D01*
X38875Y41525D02*
X39125Y41275D01*
Y39925D02*
Y41275D01*
X37775Y40775D02*
Y41525D01*
Y40775D02*
X38625Y39925D01*
X45000Y29925D02*
Y30650D01*
X44125Y31525D02*
X45000Y30650D01*
X7725Y28725D02*
X7750Y28750D01*
X9950Y26900D02*
X11400D01*
X5650Y16900D02*
X6350D01*
X5050Y16300D02*
X5650Y16900D01*
X4600Y17500D02*
X6350D01*
X4100Y18000D02*
X4600Y17500D01*
X5175Y29375D02*
X5300Y29250D01*
X13900Y28750D02*
Y29250D01*
X13125Y29750D02*
X13900D01*
X7750Y28750D02*
X9500D01*
Y31250D02*
Y31750D01*
X5300Y29250D02*
X9500D01*
X11450Y29750D02*
X11700Y30000D01*
X9500Y29750D02*
X11450D01*
X6225Y23175D02*
X9950Y26900D01*
X5100Y41425D02*
X7100Y39425D01*
X13900Y30250D02*
X14800D01*
X13900Y30750D02*
X15600D01*
X14800Y30250D02*
X15000Y30050D01*
X12875Y29500D02*
X13125Y29750D01*
X11400Y26900D02*
X12875Y28375D01*
Y29500D01*
X13900Y28750D02*
X14950D01*
X15004Y28696D01*
X15000Y28750D02*
Y30050D01*
X16679Y29400D02*
X17625D01*
X15646Y30433D02*
X16679Y29400D01*
X15646Y30433D02*
Y30704D01*
X15600Y30750D02*
X15646Y30704D01*
X16250Y30750D02*
Y33025D01*
X18750Y35525D01*
X15004Y27479D02*
Y28696D01*
D35*
X57245Y21255D02*
X59240D01*
X5975Y32250D02*
X6475Y31750D01*
X54025Y21300D02*
X55450D01*
X55500Y21350D01*
X55575Y21275D01*
X57225D01*
X57245Y21255D01*
X57200Y47925D02*
X57220Y47905D01*
X57175Y47950D02*
X57200Y47925D01*
X57220Y47905D02*
X59475D01*
X55525Y47950D02*
X57175D01*
X10000Y41125D02*
Y41500D01*
X6475Y31750D02*
X9500D01*
X7725Y39400D02*
X9700Y37425D01*
X11875D01*
D36*
X91850Y25050D02*
D03*
X87675Y6575D02*
D03*
X69700Y13675D02*
D03*
X88600Y34200D02*
D03*
X96050Y51350D02*
D03*
X70575Y41075D02*
D03*
D37*
X73850Y25050D02*
D03*
X69675Y6575D02*
D03*
X87700Y13675D02*
D03*
X70600Y34200D02*
D03*
X78050Y51350D02*
D03*
X88575Y41075D02*
D03*
D38*
X59240Y23795D02*
D03*
Y21255D02*
D03*
Y18715D02*
D03*
Y16175D02*
D03*
Y13635D02*
D03*
Y11095D02*
D03*
Y8555D02*
D03*
X66860Y23795D02*
D03*
Y21255D02*
D03*
Y18715D02*
D03*
Y16175D02*
D03*
Y13635D02*
D03*
Y11095D02*
D03*
X59475Y50445D02*
D03*
Y47905D02*
D03*
Y45365D02*
D03*
Y42825D02*
D03*
Y40285D02*
D03*
Y37745D02*
D03*
Y35205D02*
D03*
X67095Y50445D02*
D03*
Y47905D02*
D03*
Y45365D02*
D03*
Y42825D02*
D03*
Y40285D02*
D03*
Y37745D02*
D03*
D39*
X66860Y8555D02*
D03*
X67095Y35205D02*
D03*
D40*
X101200Y22025D02*
D03*
Y24525D02*
D03*
Y19525D02*
D03*
X10000Y8700D02*
D03*
X12500D02*
D03*
X7500D02*
D03*
X41185Y17140D02*
D03*
X38415D02*
D03*
X35645D02*
D03*
X32875D02*
D03*
X30105D02*
D03*
X39800Y14300D02*
D03*
X37030D02*
D03*
X34260D02*
D03*
X31490D02*
D03*
D41*
X101200Y27025D02*
D03*
D42*
X10000Y47500D02*
D03*
Y41500D02*
D03*
D43*
X5100Y44450D02*
D03*
D44*
X15000Y8700D02*
D03*
D45*
X23145Y15720D02*
D03*
X48145D02*
D03*
D46*
X15451Y25401D02*
D03*
X33250Y29075D02*
D03*
X27725Y24800D02*
D03*
X34900Y36100D02*
D03*
X34775Y28400D02*
D03*
X92975Y37050D02*
D03*
X94150Y28775D02*
D03*
X90800Y36000D02*
D03*
X89875Y8900D02*
D03*
X91200Y16550D02*
D03*
X53600Y30500D02*
D03*
X92025Y42150D02*
D03*
X35675Y34275D02*
D03*
X6525Y32800D02*
D03*
X54175Y49350D02*
D03*
X54075Y22775D02*
D03*
X44600Y41950D02*
D03*
X43975Y42800D02*
D03*
X54025Y21300D02*
D03*
X54125Y47925D02*
D03*
X19775Y24700D02*
D03*
X39975Y27950D02*
D03*
X41600Y25800D02*
D03*
X32850Y30950D02*
D03*
X34675Y34125D02*
D03*
X48850Y38300D02*
D03*
X37750Y42600D02*
D03*
X35700Y39400D02*
D03*
X36450Y30050D02*
D03*
X42875Y29950D02*
D03*
X37500Y30050D02*
D03*
X44975Y28875D02*
D03*
X43825D02*
D03*
X38875Y42675D02*
D03*
X51375Y37000D02*
D03*
X9025Y33425D02*
D03*
X13150Y27125D02*
D03*
X7400Y16075D02*
D03*
X16050Y16050D02*
D03*
X35425Y22600D02*
D03*
D47*
X32450Y24950D02*
D03*
Y26050D02*
D03*
X33550Y24950D02*
D03*
Y26050D02*
D03*
M02*
