G04 Layer_Color=16711935*
%FSLAX43Y43*%
%MOMM*%
G71*
G01*
G75*
%ADD51P,2.926X8X202.5*%
%ADD52C,2.703*%
%ADD53C,1.803*%
%ADD54R,1.803X1.803*%
%ADD55C,0.203*%
%ADD56C,2.203*%
%ADD57P,2.385X8X292.5*%
%ADD58O,5.203X2.203*%
%ADD59O,2.203X5.203*%
%ADD60P,2.385X8X202.5*%
%ADD61P,6.714X8X112.5*%
%ADD62C,0.903*%
%ADD63C,0.703*%
D51*
X91850Y25050D02*
D03*
X87675Y6575D02*
D03*
X69700Y13675D02*
D03*
X88600Y34200D02*
D03*
X96050Y51350D02*
D03*
X70575Y41075D02*
D03*
D52*
X73850Y25050D02*
D03*
X69675Y6575D02*
D03*
X87700Y13675D02*
D03*
X70600Y34200D02*
D03*
X78050Y51350D02*
D03*
X88575Y41075D02*
D03*
D53*
X59240Y23795D02*
D03*
Y21255D02*
D03*
Y18715D02*
D03*
Y16175D02*
D03*
Y13635D02*
D03*
Y11095D02*
D03*
Y8555D02*
D03*
X66860Y23795D02*
D03*
Y21255D02*
D03*
Y18715D02*
D03*
Y16175D02*
D03*
Y13635D02*
D03*
Y11095D02*
D03*
X59475Y50445D02*
D03*
Y47905D02*
D03*
Y45365D02*
D03*
Y42825D02*
D03*
Y40285D02*
D03*
Y37745D02*
D03*
Y35205D02*
D03*
X67095Y50445D02*
D03*
Y47905D02*
D03*
Y45365D02*
D03*
Y42825D02*
D03*
Y40285D02*
D03*
Y37745D02*
D03*
D54*
X66860Y8555D02*
D03*
X67095Y35205D02*
D03*
D55*
X107500Y2500D02*
D03*
X102025Y70249D02*
D03*
X2500Y52500D02*
D03*
Y2500D02*
D03*
X107500Y52500D02*
D03*
D56*
X101200Y22025D02*
D03*
Y24525D02*
D03*
Y19525D02*
D03*
X10000Y8700D02*
D03*
X12500D02*
D03*
X7500D02*
D03*
X41185Y17140D02*
D03*
X38415D02*
D03*
X35645D02*
D03*
X32875D02*
D03*
X30105D02*
D03*
X39800Y14300D02*
D03*
X37030D02*
D03*
X34260D02*
D03*
X31490D02*
D03*
D57*
X101200Y27025D02*
D03*
D58*
X10000Y47500D02*
D03*
Y41500D02*
D03*
D59*
X5100Y44450D02*
D03*
D60*
X15000Y8700D02*
D03*
D61*
X23145Y15720D02*
D03*
X48145D02*
D03*
D62*
X15451Y25401D02*
D03*
X33250Y29075D02*
D03*
X27725Y24800D02*
D03*
X34900Y36100D02*
D03*
X34775Y28400D02*
D03*
X92975Y37050D02*
D03*
X94150Y28775D02*
D03*
X90800Y36000D02*
D03*
X89875Y8900D02*
D03*
X91200Y16550D02*
D03*
X53600Y30500D02*
D03*
X92025Y42150D02*
D03*
X35675Y34275D02*
D03*
X6525Y32800D02*
D03*
X54175Y49350D02*
D03*
X54075Y22775D02*
D03*
X44600Y41950D02*
D03*
X43975Y42800D02*
D03*
X54025Y21300D02*
D03*
X54125Y47925D02*
D03*
X19775Y24700D02*
D03*
X39975Y27950D02*
D03*
X41600Y25800D02*
D03*
X32850Y30950D02*
D03*
X34675Y34125D02*
D03*
X48850Y38300D02*
D03*
X37750Y42600D02*
D03*
X35700Y39400D02*
D03*
X36450Y30050D02*
D03*
X42875Y29950D02*
D03*
X37500Y30050D02*
D03*
X44975Y28875D02*
D03*
X43825D02*
D03*
X38875Y42675D02*
D03*
X51375Y37000D02*
D03*
X9025Y33425D02*
D03*
X13150Y27125D02*
D03*
X7400Y16075D02*
D03*
X16050Y16050D02*
D03*
X35425Y22600D02*
D03*
D63*
X32450Y24950D02*
D03*
Y26050D02*
D03*
X33550Y24950D02*
D03*
Y26050D02*
D03*
M02*
