G04 Layer_Physical_Order=2*
G04 Layer_Color=16711680*
%FSLAX43Y43*%
%MOMM*%
G71*
G01*
G75*
%ADD30C,0.700*%
%ADD31C,0.250*%
%ADD32C,0.500*%
%ADD33C,0.600*%
%ADD34C,0.300*%
%ADD36P,2.706X8X202.5*%
%ADD37C,2.500*%
%ADD38C,1.600*%
%ADD39R,1.600X1.600*%
%ADD40C,2.000*%
%ADD41P,2.165X8X292.5*%
%ADD42O,5.000X2.000*%
%ADD43O,2.000X5.000*%
%ADD44P,2.165X8X202.5*%
%ADD45P,6.494X8X112.5*%
%ADD46C,0.700*%
%ADD47C,0.500*%
G36*
X107500Y54632D02*
Y54632D01*
X107505Y54636D01*
X107917Y54595D01*
X108317Y54473D01*
X108687Y54276D01*
X109010Y54010D01*
X109276Y53687D01*
X109473Y53317D01*
X109595Y52917D01*
X109636Y52505D01*
X109632Y52500D01*
X109632D01*
X109639Y52462D01*
Y2539D01*
X109631Y2500D01*
X109631D01*
X109635Y2496D01*
X109595Y2083D01*
X109473Y1683D01*
X109276Y1313D01*
X109010Y990D01*
X108687Y724D01*
X108317Y527D01*
X107917Y405D01*
X107505Y365D01*
X107500Y369D01*
Y369D01*
X107461Y361D01*
X2623D01*
X2500Y361D01*
X2499Y361D01*
X2375Y369D01*
X2083Y397D01*
X1682Y519D01*
X1313Y716D01*
X989Y982D01*
X723Y1306D01*
X526Y1675D01*
X404Y2076D01*
X364Y2488D01*
X368Y2492D01*
X368D01*
X361Y2526D01*
Y52377D01*
X361Y52500D01*
X361Y52501D01*
X369Y52625D01*
X397Y52917D01*
X519Y53318D01*
X716Y53687D01*
X982Y54011D01*
X1306Y54277D01*
X1675Y54474D01*
X2076Y54596D01*
X2488Y54636D01*
X2492Y54632D01*
Y54632D01*
X2526Y54639D01*
X107462D01*
X107500Y54632D01*
D02*
G37*
%LPC*%
G36*
X54202Y23366D02*
Y22902D01*
X54666D01*
X54644Y23011D01*
X54510Y23210D01*
X54311Y23344D01*
X54202Y23366D01*
D02*
G37*
G36*
X53948D02*
X53839Y23344D01*
X53640Y23210D01*
X53506Y23011D01*
X53484Y22902D01*
X53948D01*
Y23366D01*
D02*
G37*
G36*
X66860Y24858D02*
X66585Y24822D01*
X66328Y24716D01*
X66108Y24547D01*
X65939Y24327D01*
X65833Y24070D01*
X65797Y23795D01*
X65833Y23520D01*
X65939Y23263D01*
X66108Y23043D01*
X66328Y22874D01*
X66585Y22768D01*
X66860Y22732D01*
X67135Y22768D01*
X67392Y22874D01*
X67612Y23043D01*
X67781Y23263D01*
X67887Y23520D01*
X67923Y23795D01*
X67887Y24070D01*
X67781Y24327D01*
X67612Y24547D01*
X67392Y24716D01*
X67135Y24822D01*
X66860Y24858D01*
D02*
G37*
G36*
X15324Y25992D02*
X15215Y25970D01*
X15015Y25837D01*
X14882Y25637D01*
X14860Y25528D01*
X15324D01*
Y25992D01*
D02*
G37*
G36*
X92475Y26559D02*
X91225D01*
X91126Y26539D01*
X91042Y26483D01*
X90417Y25858D01*
X90361Y25774D01*
X90341Y25675D01*
Y24425D01*
X90361Y24326D01*
X90417Y24242D01*
X91042Y23617D01*
X91126Y23561D01*
X91225Y23541D01*
X92475D01*
X92574Y23561D01*
X92658Y23617D01*
X93283Y24242D01*
X93339Y24326D01*
X93359Y24425D01*
Y25675D01*
X93339Y25774D01*
X93283Y25858D01*
X92658Y26483D01*
X92574Y26539D01*
X92475Y26559D01*
D02*
G37*
G36*
X73850Y26561D02*
X73555Y26532D01*
X73272Y26446D01*
X73010Y26307D01*
X72781Y26119D01*
X72593Y25890D01*
X72454Y25628D01*
X72368Y25345D01*
X72339Y25050D01*
X72368Y24755D01*
X72454Y24472D01*
X72593Y24210D01*
X72781Y23981D01*
X73010Y23793D01*
X73272Y23654D01*
X73555Y23568D01*
X73850Y23539D01*
X74145Y23568D01*
X74428Y23654D01*
X74690Y23793D01*
X74919Y23981D01*
X75107Y24210D01*
X75246Y24472D01*
X75332Y24755D01*
X75361Y25050D01*
X75332Y25345D01*
X75246Y25628D01*
X75107Y25890D01*
X74919Y26119D01*
X74690Y26307D01*
X74428Y26446D01*
X74145Y26532D01*
X73850Y26561D01*
D02*
G37*
G36*
X92975Y37666D02*
X92739Y37619D01*
X92540Y37485D01*
X92406Y37286D01*
X92359Y37050D01*
Y31299D01*
X92406Y31063D01*
X92540Y30864D01*
X93935Y29468D01*
X93894Y29330D01*
X93715Y29210D01*
X93581Y29011D01*
X93534Y28775D01*
Y26575D01*
X93581Y26339D01*
X93715Y26140D01*
X99985Y19869D01*
X99978Y19852D01*
X99935Y19525D01*
X99978Y19198D01*
X100105Y18893D01*
X100306Y18631D01*
X100568Y18430D01*
X100873Y18303D01*
X101200Y18260D01*
X101527Y18303D01*
X101832Y18430D01*
X102094Y18631D01*
X102295Y18893D01*
X102422Y19198D01*
X102465Y19525D01*
X102422Y19852D01*
X102295Y20157D01*
X102094Y20419D01*
X101832Y20620D01*
X101625Y20706D01*
Y20844D01*
X101832Y20930D01*
X102094Y21131D01*
X102295Y21393D01*
X102422Y21698D01*
X102465Y22025D01*
X102422Y22352D01*
X102295Y22657D01*
X102094Y22919D01*
X101832Y23120D01*
X101625Y23206D01*
Y23344D01*
X101832Y23430D01*
X102094Y23631D01*
X102295Y23893D01*
X102422Y24198D01*
X102465Y24525D01*
X102422Y24852D01*
X102295Y25157D01*
X102094Y25419D01*
X101832Y25620D01*
X101763Y25649D01*
X101776Y25781D01*
X101799Y25786D01*
X101883Y25842D01*
X102383Y26342D01*
X102439Y26426D01*
X102459Y26525D01*
Y27525D01*
X102439Y27624D01*
X102383Y27708D01*
X101883Y28208D01*
X101883Y28208D01*
X101799Y28264D01*
X101700Y28284D01*
X100700D01*
X100601Y28264D01*
X100517Y28208D01*
X100017Y27708D01*
X99961Y27624D01*
X99941Y27525D01*
Y26525D01*
X99961Y26426D01*
X100017Y26342D01*
X100517Y25842D01*
X100517Y25842D01*
X100601Y25786D01*
X100624Y25781D01*
X100637Y25649D01*
X100568Y25620D01*
X100306Y25419D01*
X100105Y25157D01*
X99978Y24852D01*
X99935Y24525D01*
X99963Y24312D01*
X99843Y24253D01*
X95720Y28376D01*
Y29170D01*
X95673Y29406D01*
X95539Y29606D01*
X93591Y31554D01*
Y37050D01*
X93544Y37286D01*
X93410Y37485D01*
X93211Y37619D01*
X92975Y37666D01*
D02*
G37*
G36*
X66860Y19778D02*
X66585Y19742D01*
X66328Y19636D01*
X66108Y19467D01*
X65939Y19247D01*
X65833Y18990D01*
X65797Y18715D01*
X65833Y18440D01*
X65939Y18183D01*
X66108Y17963D01*
X66328Y17794D01*
X66585Y17688D01*
X66860Y17652D01*
X67135Y17688D01*
X67392Y17794D01*
X67612Y17963D01*
X67781Y18183D01*
X67887Y18440D01*
X67923Y18715D01*
X67887Y18990D01*
X67781Y19247D01*
X67612Y19467D01*
X67392Y19636D01*
X67135Y19742D01*
X66860Y19778D01*
D02*
G37*
G36*
X16177Y16641D02*
Y16177D01*
X16641D01*
X16619Y16286D01*
X16485Y16485D01*
X16286Y16619D01*
X16177Y16641D01*
D02*
G37*
G36*
X54666Y22648D02*
X54202D01*
Y22184D01*
X54311Y22206D01*
X54510Y22340D01*
X54644Y22539D01*
X54666Y22648D01*
D02*
G37*
G36*
X53948D02*
X53484D01*
X53506Y22539D01*
X53640Y22340D01*
X53839Y22206D01*
X53948Y22184D01*
Y22648D01*
D02*
G37*
G36*
X66860Y22318D02*
X66585Y22282D01*
X66328Y22176D01*
X66108Y22007D01*
X65939Y21787D01*
X65833Y21530D01*
X65797Y21255D01*
X65833Y20980D01*
X65939Y20723D01*
X66108Y20503D01*
X66328Y20334D01*
X66585Y20228D01*
X66860Y20192D01*
X67135Y20228D01*
X67392Y20334D01*
X67612Y20503D01*
X67781Y20723D01*
X67887Y20980D01*
X67923Y21255D01*
X67887Y21530D01*
X67781Y21787D01*
X67612Y22007D01*
X67392Y22176D01*
X67135Y22282D01*
X66860Y22318D01*
D02*
G37*
G36*
X15578Y25992D02*
Y25528D01*
X16041D01*
X16020Y25637D01*
X15886Y25837D01*
X15686Y25970D01*
X15578Y25992D01*
D02*
G37*
G36*
X70600Y35711D02*
X70305Y35682D01*
X70022Y35596D01*
X69760Y35457D01*
X69531Y35269D01*
X69343Y35040D01*
X69204Y34778D01*
X69118Y34495D01*
X69089Y34200D01*
X69118Y33905D01*
X69204Y33622D01*
X69343Y33360D01*
X69531Y33131D01*
X69760Y32943D01*
X70022Y32804D01*
X70305Y32718D01*
X70600Y32689D01*
X70895Y32718D01*
X71178Y32804D01*
X71440Y32943D01*
X71669Y33131D01*
X71857Y33360D01*
X71996Y33622D01*
X72082Y33905D01*
X72111Y34200D01*
X72082Y34495D01*
X71996Y34778D01*
X71857Y35040D01*
X71669Y35269D01*
X71440Y35457D01*
X71178Y35596D01*
X70895Y35682D01*
X70600Y35711D01*
D02*
G37*
G36*
X53727Y31091D02*
Y30627D01*
X54191D01*
X54169Y30736D01*
X54035Y30935D01*
X53836Y31069D01*
X53727Y31091D01*
D02*
G37*
G36*
X53473D02*
X53364Y31069D01*
X53165Y30935D01*
X53031Y30736D01*
X53009Y30627D01*
X53473D01*
Y31091D01*
D02*
G37*
G36*
X9616Y33298D02*
X9152D01*
Y32834D01*
X9261Y32856D01*
X9460Y32990D01*
X9594Y33189D01*
X9616Y33298D01*
D02*
G37*
G36*
X8898D02*
X8434D01*
X8456Y33189D01*
X8590Y32990D01*
X8789Y32856D01*
X8898Y32834D01*
Y33298D01*
D02*
G37*
G36*
X89225Y35709D02*
X87975D01*
X87876Y35689D01*
X87792Y35633D01*
X87167Y35008D01*
X87111Y34924D01*
X87091Y34825D01*
Y33575D01*
X87111Y33476D01*
X87167Y33392D01*
X87792Y32767D01*
X87876Y32711D01*
X87975Y32691D01*
X89225D01*
X89324Y32711D01*
X89408Y32767D01*
X90033Y33392D01*
X90089Y33476D01*
X90109Y33575D01*
Y34825D01*
X90089Y34924D01*
X90033Y35008D01*
X89408Y35633D01*
X89324Y35689D01*
X89225Y35709D01*
D02*
G37*
G36*
X13023Y27716D02*
X12914Y27694D01*
X12715Y27560D01*
X12581Y27361D01*
X12559Y27252D01*
X13023D01*
Y27716D01*
D02*
G37*
G36*
X13741Y26998D02*
X13277D01*
Y26534D01*
X13386Y26556D01*
X13585Y26690D01*
X13719Y26889D01*
X13741Y26998D01*
D02*
G37*
G36*
X13023D02*
X12559D01*
X12581Y26889D01*
X12715Y26690D01*
X12914Y26556D01*
X13023Y26534D01*
Y26998D01*
D02*
G37*
G36*
X54191Y30373D02*
X53727D01*
Y29909D01*
X53836Y29931D01*
X54035Y30065D01*
X54169Y30264D01*
X54191Y30373D01*
D02*
G37*
G36*
X53473D02*
X53009D01*
X53031Y30264D01*
X53165Y30065D01*
X53364Y29931D01*
X53473Y29909D01*
Y30373D01*
D02*
G37*
G36*
X13277Y27716D02*
Y27252D01*
X13741D01*
X13719Y27361D01*
X13585Y27560D01*
X13386Y27694D01*
X13277Y27716D01*
D02*
G37*
G36*
X15923Y16641D02*
X15814Y16619D01*
X15615Y16485D01*
X15481Y16286D01*
X15459Y16177D01*
X15923D01*
Y16641D01*
D02*
G37*
G36*
X89748Y9491D02*
X89639Y9469D01*
X89440Y9335D01*
X89306Y9136D01*
X89284Y9027D01*
X89748D01*
Y9491D01*
D02*
G37*
G36*
X90466Y8773D02*
X90002D01*
Y8309D01*
X90111Y8331D01*
X90310Y8465D01*
X90444Y8664D01*
X90466Y8773D01*
D02*
G37*
G36*
X89748D02*
X89284D01*
X89306Y8664D01*
X89440Y8465D01*
X89639Y8331D01*
X89748Y8309D01*
Y8773D01*
D02*
G37*
G36*
X66733Y10968D02*
X65814D01*
X65833Y10820D01*
X65939Y10563D01*
X66108Y10343D01*
X66328Y10174D01*
X66585Y10068D01*
X66733Y10049D01*
Y10968D01*
D02*
G37*
G36*
X59113D02*
X58194D01*
X58213Y10820D01*
X58319Y10563D01*
X58488Y10343D01*
X58708Y10174D01*
X58965Y10068D01*
X59113Y10049D01*
Y10968D01*
D02*
G37*
G36*
X90002Y9491D02*
Y9027D01*
X90466D01*
X90444Y9136D01*
X90310Y9335D01*
X90111Y9469D01*
X90002Y9491D01*
D02*
G37*
G36*
X69675Y8086D02*
X69380Y8057D01*
X69097Y7971D01*
X68835Y7832D01*
X68606Y7644D01*
X68418Y7415D01*
X68279Y7153D01*
X68193Y6870D01*
X68164Y6575D01*
X68193Y6280D01*
X68279Y5997D01*
X68418Y5735D01*
X68606Y5506D01*
X68835Y5318D01*
X69097Y5179D01*
X69380Y5093D01*
X69675Y5064D01*
X69970Y5093D01*
X70253Y5179D01*
X70515Y5318D01*
X70744Y5506D01*
X70932Y5735D01*
X71071Y5997D01*
X71157Y6280D01*
X71186Y6575D01*
X71157Y6870D01*
X71071Y7153D01*
X70932Y7415D01*
X70744Y7644D01*
X70515Y7832D01*
X70253Y7971D01*
X69970Y8057D01*
X69675Y8086D01*
D02*
G37*
G36*
X107500Y3768D02*
X107483Y3764D01*
X107466Y3765D01*
X107205Y3731D01*
X107173Y3720D01*
X107140Y3714D01*
X106897Y3613D01*
X106868Y3594D01*
X106838Y3579D01*
X106629Y3419D01*
X106607Y3393D01*
X106581Y3371D01*
X106421Y3162D01*
X106406Y3132D01*
X106387Y3103D01*
X106286Y2860D01*
X106280Y2827D01*
X106269Y2795D01*
X106235Y2534D01*
X106237Y2500D01*
X106235Y2466D01*
X106269Y2205D01*
X106280Y2173D01*
X106286Y2140D01*
X106387Y1897D01*
X106406Y1868D01*
X106421Y1838D01*
X106581Y1629D01*
X106607Y1607D01*
X106629Y1581D01*
X106838Y1421D01*
X106868Y1406D01*
X106897Y1387D01*
X107140Y1286D01*
X107173Y1280D01*
X107205Y1269D01*
X107466Y1235D01*
X107483Y1236D01*
X107500Y1232D01*
X107517Y1236D01*
X107534Y1235D01*
X107795Y1269D01*
X107827Y1280D01*
X107860Y1286D01*
X108103Y1387D01*
X108132Y1406D01*
X108162Y1421D01*
X108371Y1581D01*
X108393Y1607D01*
X108419Y1629D01*
X108579Y1838D01*
X108594Y1868D01*
X108613Y1897D01*
X108714Y2140D01*
X108720Y2173D01*
X108731Y2205D01*
X108765Y2466D01*
X108763Y2500D01*
X108765Y2534D01*
X108731Y2795D01*
X108720Y2827D01*
X108714Y2860D01*
X108613Y3103D01*
X108594Y3132D01*
X108579Y3162D01*
X108419Y3371D01*
X108393Y3393D01*
X108371Y3419D01*
X108162Y3579D01*
X108132Y3594D01*
X108103Y3613D01*
X107860Y3714D01*
X107827Y3720D01*
X107795Y3731D01*
X107534Y3765D01*
X107517Y3764D01*
X107500Y3768D01*
D02*
G37*
G36*
X2500D02*
X2483Y3764D01*
X2466Y3765D01*
X2205Y3731D01*
X2173Y3720D01*
X2140Y3714D01*
X1897Y3613D01*
X1868Y3594D01*
X1838Y3579D01*
X1629Y3419D01*
X1607Y3393D01*
X1581Y3371D01*
X1421Y3162D01*
X1406Y3132D01*
X1387Y3103D01*
X1286Y2860D01*
X1280Y2827D01*
X1269Y2795D01*
X1235Y2534D01*
X1237Y2500D01*
X1235Y2466D01*
X1269Y2205D01*
X1280Y2173D01*
X1286Y2140D01*
X1387Y1897D01*
X1406Y1868D01*
X1421Y1838D01*
X1581Y1629D01*
X1607Y1607D01*
X1629Y1581D01*
X1838Y1421D01*
X1868Y1406D01*
X1897Y1387D01*
X2140Y1286D01*
X2173Y1280D01*
X2205Y1269D01*
X2466Y1235D01*
X2483Y1236D01*
X2500Y1232D01*
X2517Y1236D01*
X2534Y1235D01*
X2795Y1269D01*
X2827Y1280D01*
X2860Y1286D01*
X3103Y1387D01*
X3132Y1406D01*
X3162Y1421D01*
X3371Y1581D01*
X3393Y1607D01*
X3419Y1629D01*
X3579Y1838D01*
X3594Y1868D01*
X3613Y1897D01*
X3714Y2140D01*
X3720Y2173D01*
X3731Y2205D01*
X3765Y2466D01*
X3763Y2500D01*
X3765Y2534D01*
X3731Y2795D01*
X3720Y2827D01*
X3714Y2860D01*
X3613Y3103D01*
X3594Y3132D01*
X3579Y3162D01*
X3419Y3371D01*
X3393Y3393D01*
X3371Y3419D01*
X3162Y3579D01*
X3132Y3594D01*
X3103Y3613D01*
X2860Y3714D01*
X2827Y3720D01*
X2795Y3731D01*
X2534Y3765D01*
X2517Y3764D01*
X2500Y3768D01*
D02*
G37*
G36*
X67660Y9614D02*
X66060D01*
X65961Y9594D01*
X65877Y9538D01*
X65821Y9454D01*
X65801Y9355D01*
Y7755D01*
X65821Y7656D01*
X65877Y7572D01*
X65961Y7516D01*
X66060Y7496D01*
X67660D01*
X67759Y7516D01*
X67843Y7572D01*
X67899Y7656D01*
X67919Y7755D01*
Y9355D01*
X67899Y9454D01*
X67843Y9538D01*
X67759Y9594D01*
X67660Y9614D01*
D02*
G37*
G36*
X59240Y9618D02*
X58965Y9582D01*
X58708Y9476D01*
X58488Y9307D01*
X58319Y9087D01*
X58213Y8830D01*
X58177Y8555D01*
X58213Y8280D01*
X58319Y8023D01*
X58488Y7803D01*
X58708Y7634D01*
X58965Y7528D01*
X59240Y7492D01*
X59515Y7528D01*
X59772Y7634D01*
X59992Y7803D01*
X60161Y8023D01*
X60267Y8280D01*
X60303Y8555D01*
X60267Y8830D01*
X60161Y9087D01*
X59992Y9307D01*
X59772Y9476D01*
X59515Y9582D01*
X59240Y9618D01*
D02*
G37*
G36*
X88300Y8084D02*
X87050D01*
X86951Y8064D01*
X86867Y8008D01*
X86242Y7383D01*
X86186Y7299D01*
X86166Y7200D01*
Y5950D01*
X86186Y5851D01*
X86242Y5767D01*
X86867Y5142D01*
X86951Y5086D01*
X87050Y5066D01*
X88300D01*
X88399Y5086D01*
X88483Y5142D01*
X89108Y5767D01*
X89164Y5851D01*
X89184Y5950D01*
Y7200D01*
X89164Y7299D01*
X89108Y7383D01*
X88483Y8008D01*
X88399Y8064D01*
X88300Y8084D01*
D02*
G37*
G36*
X60286Y10968D02*
X59367D01*
Y10049D01*
X59515Y10068D01*
X59772Y10174D01*
X59992Y10343D01*
X60161Y10563D01*
X60267Y10820D01*
X60286Y10968D01*
D02*
G37*
G36*
X66860Y14698D02*
X66585Y14662D01*
X66328Y14556D01*
X66108Y14387D01*
X65939Y14167D01*
X65833Y13910D01*
X65797Y13635D01*
X65833Y13360D01*
X65939Y13103D01*
X66108Y12883D01*
X66328Y12714D01*
X66585Y12608D01*
X66860Y12572D01*
X67135Y12608D01*
X67392Y12714D01*
X67612Y12883D01*
X67781Y13103D01*
X67887Y13360D01*
X67923Y13635D01*
X67887Y13910D01*
X67781Y14167D01*
X67612Y14387D01*
X67392Y14556D01*
X67135Y14662D01*
X66860Y14698D01*
D02*
G37*
G36*
X59240D02*
X58965Y14662D01*
X58708Y14556D01*
X58488Y14387D01*
X58319Y14167D01*
X58213Y13910D01*
X58177Y13635D01*
X58213Y13360D01*
X58319Y13103D01*
X58488Y12883D01*
X58708Y12714D01*
X58965Y12608D01*
X59240Y12572D01*
X59515Y12608D01*
X59772Y12714D01*
X59992Y12883D01*
X60161Y13103D01*
X60267Y13360D01*
X60303Y13635D01*
X60267Y13910D01*
X60161Y14167D01*
X59992Y14387D01*
X59772Y14556D01*
X59515Y14662D01*
X59240Y14698D01*
D02*
G37*
G36*
X70325Y15184D02*
X69075D01*
X68976Y15164D01*
X68892Y15108D01*
X68267Y14483D01*
X68211Y14399D01*
X68191Y14300D01*
Y13050D01*
X68211Y12951D01*
X68267Y12867D01*
X68892Y12242D01*
X68976Y12186D01*
X69075Y12166D01*
X70325D01*
X70424Y12186D01*
X70508Y12242D01*
X71133Y12867D01*
X71189Y12951D01*
X71209Y13050D01*
Y14300D01*
X71189Y14399D01*
X71133Y14483D01*
X70508Y15108D01*
X70424Y15164D01*
X70325Y15184D01*
D02*
G37*
G36*
X16641Y15923D02*
X16177D01*
Y15459D01*
X16286Y15481D01*
X16485Y15615D01*
X16619Y15814D01*
X16641Y15923D01*
D02*
G37*
G36*
X15923D02*
X15459D01*
X15481Y15814D01*
X15615Y15615D01*
X15814Y15481D01*
X15923Y15459D01*
Y15923D01*
D02*
G37*
G36*
X66860Y17238D02*
X66585Y17202D01*
X66328Y17096D01*
X66108Y16927D01*
X65939Y16707D01*
X65833Y16450D01*
X65797Y16175D01*
X65833Y15900D01*
X65939Y15643D01*
X66108Y15423D01*
X66328Y15254D01*
X66585Y15148D01*
X66860Y15112D01*
X67135Y15148D01*
X67392Y15254D01*
X67612Y15423D01*
X67781Y15643D01*
X67887Y15900D01*
X67923Y16175D01*
X67887Y16450D01*
X67781Y16707D01*
X67612Y16927D01*
X67392Y17096D01*
X67135Y17202D01*
X66860Y17238D01*
D02*
G37*
G36*
X66733Y12141D02*
X66585Y12122D01*
X66328Y12016D01*
X66108Y11847D01*
X65939Y11627D01*
X65833Y11370D01*
X65814Y11222D01*
X66733D01*
Y12141D01*
D02*
G37*
G36*
X59113D02*
X58965Y12122D01*
X58708Y12016D01*
X58488Y11847D01*
X58319Y11627D01*
X58213Y11370D01*
X58194Y11222D01*
X59113D01*
Y12141D01*
D02*
G37*
G36*
X67906Y10968D02*
X66987D01*
Y10049D01*
X67135Y10068D01*
X67392Y10174D01*
X67612Y10343D01*
X67781Y10563D01*
X67887Y10820D01*
X67906Y10968D01*
D02*
G37*
G36*
X87700Y15186D02*
X87405Y15157D01*
X87122Y15071D01*
X86860Y14932D01*
X86631Y14744D01*
X86443Y14515D01*
X86304Y14253D01*
X86218Y13970D01*
X86189Y13675D01*
X86218Y13380D01*
X86304Y13097D01*
X86443Y12835D01*
X86631Y12606D01*
X86860Y12418D01*
X87122Y12279D01*
X87405Y12193D01*
X87700Y12164D01*
X87995Y12193D01*
X88278Y12279D01*
X88540Y12418D01*
X88769Y12606D01*
X88957Y12835D01*
X89096Y13097D01*
X89182Y13380D01*
X89211Y13675D01*
X89182Y13970D01*
X89096Y14253D01*
X88957Y14515D01*
X88769Y14744D01*
X88540Y14932D01*
X88278Y15071D01*
X87995Y15157D01*
X87700Y15186D01*
D02*
G37*
G36*
X66987Y12141D02*
Y11222D01*
X67906D01*
X67887Y11370D01*
X67781Y11627D01*
X67612Y11847D01*
X67392Y12016D01*
X67135Y12122D01*
X66987Y12141D01*
D02*
G37*
G36*
X59367D02*
Y11222D01*
X60286D01*
X60267Y11370D01*
X60161Y11627D01*
X59992Y11847D01*
X59772Y12016D01*
X59515Y12122D01*
X59367Y12141D01*
D02*
G37*
G36*
X4973Y47198D02*
X4773Y47172D01*
X4468Y47045D01*
X4206Y46844D01*
X4005Y46582D01*
X3878Y46277D01*
X3835Y45950D01*
Y44577D01*
X4973D01*
Y47198D01*
D02*
G37*
G36*
X67095Y46428D02*
X66820Y46392D01*
X66563Y46286D01*
X66343Y46117D01*
X66174Y45897D01*
X66068Y45640D01*
X66032Y45365D01*
X66068Y45090D01*
X66174Y44833D01*
X66343Y44613D01*
X66563Y44444D01*
X66820Y44338D01*
X67095Y44302D01*
X67370Y44338D01*
X67627Y44444D01*
X67847Y44613D01*
X68016Y44833D01*
X68122Y45090D01*
X68158Y45365D01*
X68122Y45640D01*
X68016Y45897D01*
X67847Y46117D01*
X67627Y46286D01*
X67370Y46392D01*
X67095Y46428D01*
D02*
G37*
G36*
X59475D02*
X59200Y46392D01*
X58943Y46286D01*
X58723Y46117D01*
X58554Y45897D01*
X58448Y45640D01*
X58412Y45365D01*
X58448Y45090D01*
X58554Y44833D01*
X58723Y44613D01*
X58943Y44444D01*
X59200Y44338D01*
X59475Y44302D01*
X59750Y44338D01*
X60007Y44444D01*
X60227Y44613D01*
X60396Y44833D01*
X60502Y45090D01*
X60538Y45365D01*
X60502Y45640D01*
X60396Y45897D01*
X60227Y46117D01*
X60007Y46286D01*
X59750Y46392D01*
X59475Y46428D01*
D02*
G37*
G36*
X5227Y47198D02*
Y44577D01*
X6365D01*
Y45950D01*
X6322Y46277D01*
X6195Y46582D01*
X5994Y46844D01*
X5732Y47045D01*
X5427Y47172D01*
X5227Y47198D01*
D02*
G37*
G36*
X59475Y48968D02*
X59200Y48932D01*
X58943Y48826D01*
X58723Y48657D01*
X58554Y48437D01*
X58448Y48180D01*
X58412Y47905D01*
X58448Y47630D01*
X58554Y47373D01*
X58723Y47153D01*
X58943Y46984D01*
X59200Y46878D01*
X59475Y46842D01*
X59750Y46878D01*
X60007Y46984D01*
X60227Y47153D01*
X60396Y47373D01*
X60502Y47630D01*
X60538Y47905D01*
X60502Y48180D01*
X60396Y48437D01*
X60227Y48657D01*
X60007Y48826D01*
X59750Y48932D01*
X59475Y48968D01*
D02*
G37*
G36*
X12748Y47373D02*
X10127D01*
Y46235D01*
X11500D01*
X11827Y46278D01*
X12132Y46405D01*
X12394Y46606D01*
X12595Y46868D01*
X12722Y47173D01*
X12748Y47373D01*
D02*
G37*
G36*
X9873D02*
X7252D01*
X7278Y47173D01*
X7405Y46868D01*
X7606Y46606D01*
X7868Y46405D01*
X8173Y46278D01*
X8500Y46235D01*
X9873D01*
Y47373D01*
D02*
G37*
G36*
X6365Y44323D02*
X5227D01*
Y41702D01*
X5427Y41728D01*
X5732Y41855D01*
X5994Y42056D01*
X6195Y42318D01*
X6322Y42623D01*
X6365Y42950D01*
Y44323D01*
D02*
G37*
G36*
X4973D02*
X3835D01*
Y42950D01*
X3878Y42623D01*
X4005Y42318D01*
X4206Y42056D01*
X4468Y41855D01*
X4773Y41728D01*
X4973Y41702D01*
Y44323D01*
D02*
G37*
G36*
X80550Y54241D02*
X27350D01*
X27114Y54194D01*
X26915Y54060D01*
X6090Y33235D01*
X5956Y33036D01*
X5909Y32800D01*
X5956Y32564D01*
X6090Y32365D01*
X6289Y32231D01*
X6525Y32184D01*
X6761Y32231D01*
X6960Y32365D01*
X8397Y33801D01*
X8496Y33720D01*
X8456Y33661D01*
X8434Y33552D01*
X8898D01*
Y34016D01*
X8789Y33994D01*
X8730Y33954D01*
X8649Y34053D01*
X27605Y53009D01*
X73234D01*
Y33900D01*
X73281Y33664D01*
X73415Y33465D01*
X90765Y16115D01*
X90964Y15981D01*
X91200Y15934D01*
X91436Y15981D01*
X91635Y16115D01*
X91769Y16314D01*
X91816Y16550D01*
X91769Y16786D01*
X91635Y16985D01*
X74466Y34155D01*
Y53009D01*
X80295D01*
X91590Y41715D01*
X91789Y41581D01*
X92025Y41534D01*
X92261Y41581D01*
X92460Y41715D01*
X92594Y41914D01*
X92641Y42150D01*
X92594Y42386D01*
X92460Y42585D01*
X80985Y54060D01*
X80786Y54194D01*
X80550Y54241D01*
D02*
G37*
G36*
X67095Y43888D02*
X66820Y43852D01*
X66563Y43746D01*
X66343Y43577D01*
X66174Y43357D01*
X66068Y43100D01*
X66032Y42825D01*
X66068Y42550D01*
X66174Y42293D01*
X66343Y42073D01*
X66563Y41904D01*
X66820Y41798D01*
X67095Y41762D01*
X67370Y41798D01*
X67627Y41904D01*
X67847Y42073D01*
X68016Y42293D01*
X68122Y42550D01*
X68158Y42825D01*
X68122Y43100D01*
X68016Y43357D01*
X67847Y43577D01*
X67627Y43746D01*
X67370Y43852D01*
X67095Y43888D01*
D02*
G37*
G36*
X59475D02*
X59200Y43852D01*
X58943Y43746D01*
X58723Y43577D01*
X58554Y43357D01*
X58494Y43212D01*
X44426D01*
X44410Y43235D01*
X44211Y43369D01*
X43975Y43416D01*
X43739Y43369D01*
X43540Y43235D01*
X43406Y43036D01*
X43359Y42800D01*
X43406Y42564D01*
X43540Y42365D01*
X43739Y42231D01*
X43914Y42196D01*
X43975Y42184D01*
X44006Y42061D01*
X43984Y41950D01*
X44031Y41714D01*
X44165Y41515D01*
X44364Y41381D01*
X44600Y41334D01*
X44836Y41381D01*
X45035Y41515D01*
X45051Y41538D01*
X47321D01*
X51168Y37691D01*
X51122Y37557D01*
X50940Y37435D01*
X50806Y37236D01*
X50784Y37127D01*
X51375D01*
Y37000D01*
X51502D01*
Y36409D01*
X51611Y36431D01*
X51810Y36565D01*
X51932Y36747D01*
X52066Y36793D01*
X60032Y28827D01*
Y24676D01*
X59905Y24613D01*
X59772Y24716D01*
X59515Y24822D01*
X59240Y24858D01*
X58965Y24822D01*
X58708Y24716D01*
X58488Y24547D01*
X58319Y24327D01*
X58213Y24070D01*
X58177Y23795D01*
X58213Y23520D01*
X58319Y23263D01*
X58488Y23043D01*
X58708Y22874D01*
X58965Y22768D01*
X59240Y22732D01*
X59515Y22768D01*
X59772Y22874D01*
X59905Y22977D01*
X60032Y22914D01*
Y22136D01*
X59905Y22073D01*
X59772Y22176D01*
X59515Y22282D01*
X59240Y22318D01*
X58965Y22282D01*
X58708Y22176D01*
X58488Y22007D01*
X58319Y21787D01*
X58213Y21530D01*
X58177Y21255D01*
X58213Y20980D01*
X58319Y20723D01*
X58488Y20503D01*
X58585Y20429D01*
X58584Y20376D01*
X58563Y20286D01*
X58450Y20210D01*
X57745Y19505D01*
X57655Y19371D01*
X57624Y19214D01*
Y18216D01*
X57655Y18059D01*
X57745Y17925D01*
X58450Y17220D01*
X58563Y17144D01*
X58584Y17054D01*
X58585Y17001D01*
X58488Y16927D01*
X58319Y16707D01*
X58213Y16450D01*
X58177Y16175D01*
X58213Y15900D01*
X58319Y15643D01*
X58488Y15423D01*
X58708Y15254D01*
X58965Y15148D01*
X59240Y15112D01*
X59515Y15148D01*
X59772Y15254D01*
X59992Y15423D01*
X60161Y15643D01*
X60267Y15900D01*
X60303Y16175D01*
X60267Y16450D01*
X60161Y16707D01*
X59992Y16927D01*
X59772Y17096D01*
X59652Y17145D01*
Y17511D01*
X59621Y17669D01*
X59642Y17741D01*
X59772Y17794D01*
X59992Y17963D01*
X60161Y18183D01*
X60267Y18440D01*
X60303Y18715D01*
X60267Y18990D01*
X60161Y19247D01*
X59992Y19467D01*
X59930Y19514D01*
X59938Y19668D01*
X60735Y20465D01*
X60825Y20599D01*
X60856Y20756D01*
Y28997D01*
X60825Y29155D01*
X60735Y29289D01*
X47783Y42241D01*
X47753Y42261D01*
X47791Y42388D01*
X58515D01*
X58554Y42293D01*
X58723Y42073D01*
X58943Y41904D01*
X59200Y41798D01*
X59475Y41762D01*
X59750Y41798D01*
X60007Y41904D01*
X60227Y42073D01*
X60396Y42293D01*
X60502Y42550D01*
X60538Y42825D01*
X60502Y43100D01*
X60396Y43357D01*
X60227Y43577D01*
X60007Y43746D01*
X59750Y43852D01*
X59475Y43888D01*
D02*
G37*
G36*
X39002Y43266D02*
Y42802D01*
X39466D01*
X39444Y42911D01*
X39310Y43110D01*
X39111Y43244D01*
X39002Y43266D01*
D02*
G37*
G36*
X39466Y42548D02*
X39002D01*
Y42084D01*
X39111Y42106D01*
X39310Y42240D01*
X39444Y42439D01*
X39466Y42548D01*
D02*
G37*
G36*
X54302Y49941D02*
Y49477D01*
X54766D01*
X54744Y49586D01*
X54610Y49785D01*
X54411Y49919D01*
X54302Y49941D01*
D02*
G37*
G36*
X54048D02*
X53939Y49919D01*
X53740Y49785D01*
X53606Y49586D01*
X53584Y49477D01*
X54048D01*
Y49941D01*
D02*
G37*
G36*
X67095Y51508D02*
X66820Y51472D01*
X66563Y51366D01*
X66343Y51197D01*
X66174Y50977D01*
X66068Y50720D01*
X66032Y50445D01*
X66068Y50170D01*
X66174Y49913D01*
X66343Y49693D01*
X66563Y49524D01*
X66820Y49418D01*
X67095Y49382D01*
X67370Y49418D01*
X67627Y49524D01*
X67847Y49693D01*
X68016Y49913D01*
X68122Y50170D01*
X68158Y50445D01*
X68122Y50720D01*
X68016Y50977D01*
X67847Y51197D01*
X67627Y51366D01*
X67370Y51472D01*
X67095Y51508D01*
D02*
G37*
G36*
X78050Y52861D02*
X77755Y52832D01*
X77472Y52746D01*
X77210Y52607D01*
X76981Y52419D01*
X76793Y52190D01*
X76654Y51928D01*
X76568Y51645D01*
X76539Y51350D01*
X76568Y51055D01*
X76654Y50772D01*
X76793Y50510D01*
X76981Y50281D01*
X77210Y50093D01*
X77472Y49954D01*
X77755Y49868D01*
X78050Y49839D01*
X78345Y49868D01*
X78628Y49954D01*
X78890Y50093D01*
X79119Y50281D01*
X79307Y50510D01*
X79446Y50772D01*
X79532Y51055D01*
X79561Y51350D01*
X79532Y51645D01*
X79446Y51928D01*
X79307Y52190D01*
X79119Y52419D01*
X78890Y52607D01*
X78628Y52746D01*
X78345Y52832D01*
X78050Y52861D01*
D02*
G37*
G36*
X107500Y53768D02*
X107483Y53764D01*
X107466Y53765D01*
X107205Y53731D01*
X107173Y53720D01*
X107140Y53714D01*
X106897Y53613D01*
X106868Y53594D01*
X106838Y53579D01*
X106629Y53419D01*
X106607Y53393D01*
X106581Y53371D01*
X106421Y53162D01*
X106406Y53132D01*
X106387Y53103D01*
X106286Y52860D01*
X106280Y52827D01*
X106269Y52795D01*
X106235Y52534D01*
X106237Y52500D01*
X106235Y52466D01*
X106269Y52205D01*
X106280Y52173D01*
X106286Y52140D01*
X106387Y51897D01*
X106406Y51868D01*
X106421Y51838D01*
X106581Y51629D01*
X106607Y51607D01*
X106629Y51581D01*
X106838Y51421D01*
X106868Y51406D01*
X106897Y51387D01*
X107140Y51286D01*
X107173Y51280D01*
X107205Y51269D01*
X107466Y51235D01*
X107483Y51236D01*
X107500Y51232D01*
X107517Y51236D01*
X107534Y51235D01*
X107795Y51269D01*
X107827Y51280D01*
X107860Y51286D01*
X108103Y51387D01*
X108132Y51406D01*
X108162Y51421D01*
X108371Y51581D01*
X108393Y51607D01*
X108419Y51629D01*
X108579Y51838D01*
X108594Y51868D01*
X108613Y51897D01*
X108714Y52140D01*
X108720Y52173D01*
X108731Y52205D01*
X108765Y52466D01*
X108763Y52500D01*
X108765Y52534D01*
X108731Y52795D01*
X108720Y52827D01*
X108714Y52860D01*
X108613Y53103D01*
X108594Y53132D01*
X108579Y53162D01*
X108419Y53371D01*
X108393Y53393D01*
X108371Y53419D01*
X108162Y53579D01*
X108132Y53594D01*
X108103Y53613D01*
X107860Y53714D01*
X107827Y53720D01*
X107795Y53731D01*
X107534Y53765D01*
X107517Y53764D01*
X107500Y53768D01*
D02*
G37*
G36*
X2500D02*
X2483Y53764D01*
X2466Y53765D01*
X2205Y53731D01*
X2173Y53720D01*
X2140Y53714D01*
X1897Y53613D01*
X1868Y53594D01*
X1838Y53579D01*
X1629Y53419D01*
X1607Y53393D01*
X1581Y53371D01*
X1421Y53162D01*
X1406Y53132D01*
X1387Y53103D01*
X1286Y52860D01*
X1280Y52827D01*
X1269Y52795D01*
X1235Y52534D01*
X1237Y52500D01*
X1235Y52466D01*
X1269Y52205D01*
X1280Y52173D01*
X1286Y52140D01*
X1387Y51897D01*
X1406Y51868D01*
X1421Y51838D01*
X1581Y51629D01*
X1607Y51607D01*
X1629Y51581D01*
X1838Y51421D01*
X1868Y51406D01*
X1897Y51387D01*
X2140Y51286D01*
X2173Y51280D01*
X2205Y51269D01*
X2466Y51235D01*
X2483Y51236D01*
X2500Y51232D01*
X2517Y51236D01*
X2534Y51235D01*
X2795Y51269D01*
X2827Y51280D01*
X2860Y51286D01*
X3103Y51387D01*
X3132Y51406D01*
X3162Y51421D01*
X3371Y51581D01*
X3393Y51607D01*
X3419Y51629D01*
X3579Y51838D01*
X3594Y51868D01*
X3613Y51897D01*
X3714Y52140D01*
X3720Y52173D01*
X3731Y52205D01*
X3765Y52466D01*
X3763Y52500D01*
X3765Y52534D01*
X3731Y52795D01*
X3720Y52827D01*
X3714Y52860D01*
X3613Y53103D01*
X3594Y53132D01*
X3579Y53162D01*
X3419Y53371D01*
X3393Y53393D01*
X3371Y53419D01*
X3162Y53579D01*
X3132Y53594D01*
X3103Y53613D01*
X2860Y53714D01*
X2827Y53720D01*
X2795Y53731D01*
X2534Y53765D01*
X2517Y53764D01*
X2500Y53768D01*
D02*
G37*
G36*
X96675Y52859D02*
X95425D01*
X95326Y52839D01*
X95242Y52783D01*
X94617Y52158D01*
X94561Y52074D01*
X94541Y51975D01*
Y50725D01*
X94561Y50626D01*
X94617Y50542D01*
X95242Y49917D01*
X95326Y49861D01*
X95425Y49841D01*
X96675D01*
X96774Y49861D01*
X96858Y49917D01*
X97483Y50542D01*
X97539Y50626D01*
X97559Y50725D01*
Y51975D01*
X97539Y52074D01*
X97483Y52158D01*
X96858Y52783D01*
X96774Y52839D01*
X96675Y52859D01*
D02*
G37*
G36*
X11500Y48765D02*
X10127D01*
Y47627D01*
X12748D01*
X12722Y47827D01*
X12595Y48132D01*
X12394Y48394D01*
X12132Y48595D01*
X11827Y48722D01*
X11500Y48765D01*
D02*
G37*
G36*
X9873D02*
X8500D01*
X8173Y48722D01*
X7868Y48595D01*
X7606Y48394D01*
X7405Y48132D01*
X7278Y47827D01*
X7252Y47627D01*
X9873D01*
Y48765D01*
D02*
G37*
G36*
X67095Y48968D02*
X66820Y48932D01*
X66563Y48826D01*
X66343Y48657D01*
X66174Y48437D01*
X66068Y48180D01*
X66032Y47905D01*
X66068Y47630D01*
X66174Y47373D01*
X66343Y47153D01*
X66563Y46984D01*
X66820Y46878D01*
X67095Y46842D01*
X67370Y46878D01*
X67627Y46984D01*
X67847Y47153D01*
X68016Y47373D01*
X68122Y47630D01*
X68158Y47905D01*
X68122Y48180D01*
X68016Y48437D01*
X67847Y48657D01*
X67627Y48826D01*
X67370Y48932D01*
X67095Y48968D01*
D02*
G37*
G36*
X54125Y48541D02*
X53889Y48494D01*
X53883Y48490D01*
X41797D01*
X41797Y48490D01*
X41580Y48447D01*
X41397Y48324D01*
X41397Y48324D01*
X19376Y26303D01*
X19253Y26120D01*
X19210Y25903D01*
X19210Y25903D01*
Y25265D01*
X16354D01*
X16354Y25265D01*
X16161Y25227D01*
X16089Y25274D01*
X14860D01*
X14881Y25171D01*
X14883Y25148D01*
X14816Y25044D01*
X14526D01*
X14526Y25044D01*
X14309Y25001D01*
X14126Y24878D01*
X14126Y24878D01*
X4976Y15728D01*
X4853Y15545D01*
X4810Y15328D01*
X4810Y15328D01*
Y4475D01*
X4853Y4259D01*
X4976Y4076D01*
X5159Y3953D01*
X5375Y3910D01*
X42550D01*
X42550Y3910D01*
X42766Y3953D01*
X42949Y4076D01*
X54424Y15551D01*
X54424Y15551D01*
X54547Y15734D01*
X54590Y15950D01*
X54590Y15950D01*
Y21058D01*
X54594Y21064D01*
X54641Y21300D01*
X54594Y21536D01*
X54460Y21735D01*
X54261Y21869D01*
X54025Y21916D01*
X53789Y21869D01*
X53590Y21735D01*
X53456Y21536D01*
X53409Y21300D01*
X53456Y21064D01*
X53460Y21058D01*
Y16184D01*
X51531Y14255D01*
X51404Y14307D01*
Y17220D01*
X51384Y17319D01*
X51328Y17403D01*
X49828Y18903D01*
X49744Y18959D01*
X49645Y18979D01*
X46645D01*
X46546Y18959D01*
X46462Y18903D01*
X44962Y17403D01*
X44906Y17319D01*
X44886Y17220D01*
Y14220D01*
X44906Y14121D01*
X44962Y14037D01*
X46462Y12537D01*
X46546Y12481D01*
X46645Y12461D01*
X49558D01*
X49610Y12334D01*
X42316Y5040D01*
X5940D01*
Y15094D01*
X6707Y15862D01*
X6844Y15819D01*
X6965Y15640D01*
X7164Y15506D01*
X7400Y15459D01*
X7636Y15506D01*
X7835Y15640D01*
X7969Y15839D01*
X7988Y15937D01*
X15213Y23161D01*
X29009D01*
X29205Y23200D01*
X29372Y23312D01*
X31865Y25805D01*
X32023Y25783D01*
X32087Y25687D01*
X32253Y25575D01*
X32306Y25565D01*
Y25435D01*
X32253Y25425D01*
X32087Y25313D01*
X31975Y25147D01*
X31936Y24950D01*
X31975Y24753D01*
X32087Y24587D01*
X32253Y24475D01*
X32450Y24436D01*
X32647Y24475D01*
X32813Y24587D01*
X32925Y24753D01*
X32935Y24806D01*
X33065D01*
X33075Y24753D01*
X33187Y24587D01*
X33333Y24489D01*
X33325Y24397D01*
X33312Y24362D01*
X33300D01*
X33142Y24331D01*
X33009Y24241D01*
X27259Y18491D01*
X27169Y18358D01*
X27138Y18200D01*
Y14746D01*
X26514Y14121D01*
X26397Y14184D01*
X26404Y14220D01*
Y17220D01*
X26384Y17319D01*
X26328Y17403D01*
X24828Y18903D01*
X24744Y18959D01*
X24645Y18979D01*
X21645D01*
X21546Y18959D01*
X21462Y18903D01*
X19962Y17403D01*
X19906Y17319D01*
X19886Y17220D01*
Y14220D01*
X19906Y14121D01*
X19962Y14037D01*
X21462Y12537D01*
X21546Y12481D01*
X21645Y12461D01*
X24645D01*
X24681Y12468D01*
X24744Y12351D01*
X24279Y11887D01*
X9000D01*
X8842Y11856D01*
X8709Y11766D01*
X7209Y10266D01*
X7119Y10133D01*
X7088Y9975D01*
Y9887D01*
X6868Y9795D01*
X6606Y9594D01*
X6405Y9332D01*
X6278Y9027D01*
X6235Y8700D01*
X6278Y8373D01*
X6405Y8068D01*
X6606Y7806D01*
X6868Y7605D01*
X7173Y7478D01*
X7500Y7435D01*
X7827Y7478D01*
X8132Y7605D01*
X8394Y7806D01*
X8595Y8068D01*
X8681Y8275D01*
X8819D01*
X8905Y8068D01*
X9106Y7806D01*
X9368Y7605D01*
X9673Y7478D01*
X10000Y7435D01*
X10327Y7478D01*
X10548Y7570D01*
X11609Y6509D01*
X11742Y6419D01*
X11900Y6388D01*
X35175D01*
X35333Y6419D01*
X35466Y6509D01*
X42930Y13973D01*
X43020Y14106D01*
X43051Y14264D01*
Y18594D01*
X43020Y18752D01*
X42930Y18885D01*
X41312Y20504D01*
Y25125D01*
X41439Y25216D01*
X41600Y25184D01*
X41836Y25231D01*
X41918Y25286D01*
X41958D01*
X42154Y25325D01*
X42321Y25437D01*
X45186Y28301D01*
X45211Y28306D01*
X45410Y28440D01*
X45544Y28639D01*
X45563Y28737D01*
X49213Y32387D01*
X49325Y32553D01*
X49364Y32750D01*
Y37982D01*
X49419Y38064D01*
X49466Y38300D01*
X49419Y38536D01*
X49285Y38735D01*
X49086Y38869D01*
X48850Y38916D01*
X48614Y38869D01*
X48415Y38735D01*
X48281Y38536D01*
X48234Y38300D01*
X48281Y38064D01*
X48336Y37982D01*
Y32963D01*
X45606Y30233D01*
X45489Y30282D01*
Y33850D01*
X45450Y34047D01*
X45338Y34213D01*
X38264Y41288D01*
Y42157D01*
X38311Y42203D01*
X38440Y42240D01*
X38639Y42106D01*
X38748Y42084D01*
Y42675D01*
Y43266D01*
X38639Y43244D01*
X38440Y43110D01*
X38364Y42997D01*
X38211D01*
X38185Y43035D01*
X38006Y43156D01*
X37963Y43293D01*
X42031Y47360D01*
X53883D01*
X53889Y47356D01*
X54125Y47309D01*
X54361Y47356D01*
X54560Y47490D01*
X54694Y47689D01*
X54741Y47925D01*
X54694Y48161D01*
X54560Y48360D01*
X54361Y48494D01*
X54125Y48541D01*
D02*
G37*
G36*
X59475Y51508D02*
X59200Y51472D01*
X58943Y51366D01*
X58723Y51197D01*
X58554Y50977D01*
X58448Y50720D01*
X58412Y50445D01*
X58448Y50170D01*
X58554Y49913D01*
X58723Y49693D01*
X58943Y49524D01*
X59200Y49418D01*
X59475Y49382D01*
X59750Y49418D01*
X60007Y49524D01*
X60227Y49693D01*
X60396Y49913D01*
X60502Y50170D01*
X60538Y50445D01*
X60502Y50720D01*
X60396Y50977D01*
X60227Y51197D01*
X60007Y51366D01*
X59750Y51472D01*
X59475Y51508D01*
D02*
G37*
G36*
X54766Y49223D02*
X54302D01*
Y48759D01*
X54411Y48781D01*
X54610Y48915D01*
X54744Y49114D01*
X54766Y49223D01*
D02*
G37*
G36*
X54048D02*
X53584D01*
X53606Y49114D01*
X53740Y48915D01*
X53939Y48781D01*
X54048Y48759D01*
Y49223D01*
D02*
G37*
G36*
X11500Y42765D02*
X8500D01*
X8173Y42722D01*
X7868Y42595D01*
X7606Y42394D01*
X7405Y42132D01*
X7278Y41827D01*
X7235Y41500D01*
X7278Y41173D01*
X7405Y40868D01*
X7606Y40606D01*
X7868Y40405D01*
X8173Y40278D01*
X8500Y40235D01*
X11500D01*
X11827Y40278D01*
X12132Y40405D01*
X12394Y40606D01*
X12595Y40868D01*
X12722Y41173D01*
X12765Y41500D01*
X12722Y41827D01*
X12595Y42132D01*
X12394Y42394D01*
X12132Y42595D01*
X11827Y42722D01*
X11500Y42765D01*
D02*
G37*
G36*
X59348Y37618D02*
X58429D01*
X58448Y37470D01*
X58554Y37213D01*
X58723Y36993D01*
X58943Y36824D01*
X59200Y36718D01*
X59348Y36699D01*
Y37618D01*
D02*
G37*
G36*
X51248Y36873D02*
X50784D01*
X50806Y36764D01*
X50940Y36565D01*
X51139Y36431D01*
X51248Y36409D01*
Y36873D01*
D02*
G37*
G36*
X90927Y36591D02*
Y36127D01*
X91391D01*
X91369Y36236D01*
X91235Y36435D01*
X91036Y36569D01*
X90927Y36591D01*
D02*
G37*
G36*
X68141Y37618D02*
X67222D01*
Y36699D01*
X67370Y36718D01*
X67627Y36824D01*
X67847Y36993D01*
X68016Y37213D01*
X68122Y37470D01*
X68141Y37618D01*
D02*
G37*
G36*
X60521D02*
X59602D01*
Y36699D01*
X59750Y36718D01*
X60007Y36824D01*
X60227Y36993D01*
X60396Y37213D01*
X60502Y37470D01*
X60521Y37618D01*
D02*
G37*
G36*
X66968D02*
X66049D01*
X66068Y37470D01*
X66174Y37213D01*
X66343Y36993D01*
X66563Y36824D01*
X66820Y36718D01*
X66968Y36699D01*
Y37618D01*
D02*
G37*
G36*
X67895Y36264D02*
X66295D01*
X66196Y36244D01*
X66112Y36188D01*
X66056Y36104D01*
X66036Y36005D01*
Y34405D01*
X66056Y34306D01*
X66112Y34222D01*
X66196Y34166D01*
X66295Y34146D01*
X67895D01*
X67994Y34166D01*
X68078Y34222D01*
X68134Y34306D01*
X68154Y34405D01*
Y36005D01*
X68134Y36104D01*
X68078Y36188D01*
X67994Y36244D01*
X67895Y36264D01*
D02*
G37*
G36*
X59475Y36268D02*
X59200Y36232D01*
X58943Y36126D01*
X58723Y35957D01*
X58554Y35737D01*
X58448Y35480D01*
X58412Y35205D01*
X58448Y34930D01*
X58554Y34673D01*
X58723Y34453D01*
X58943Y34284D01*
X59200Y34178D01*
X59475Y34142D01*
X59750Y34178D01*
X60007Y34284D01*
X60227Y34453D01*
X60396Y34673D01*
X60502Y34930D01*
X60538Y35205D01*
X60502Y35480D01*
X60396Y35737D01*
X60227Y35957D01*
X60007Y36126D01*
X59750Y36232D01*
X59475Y36268D01*
D02*
G37*
G36*
X9152Y34016D02*
Y33552D01*
X9616D01*
X9594Y33661D01*
X9460Y33860D01*
X9261Y33994D01*
X9152Y34016D01*
D02*
G37*
G36*
X90673Y36591D02*
X90564Y36569D01*
X90365Y36435D01*
X90231Y36236D01*
X90209Y36127D01*
X90673D01*
Y36591D01*
D02*
G37*
G36*
X91391Y35873D02*
X90927D01*
Y35409D01*
X91036Y35431D01*
X91235Y35565D01*
X91369Y35764D01*
X91391Y35873D01*
D02*
G37*
G36*
X90673D02*
X90209D01*
X90231Y35764D01*
X90365Y35565D01*
X90564Y35431D01*
X90673Y35409D01*
Y35873D01*
D02*
G37*
G36*
X59348Y38791D02*
X59200Y38772D01*
X58943Y38666D01*
X58723Y38497D01*
X58554Y38277D01*
X58448Y38020D01*
X58429Y37872D01*
X59348D01*
Y38791D01*
D02*
G37*
G36*
X67222Y38791D02*
Y37872D01*
X68141D01*
X68122Y38020D01*
X68016Y38277D01*
X67847Y38497D01*
X67627Y38666D01*
X67370Y38772D01*
X67222Y38791D01*
D02*
G37*
G36*
X59475Y41348D02*
X59200Y41312D01*
X58943Y41206D01*
X58723Y41037D01*
X58554Y40817D01*
X58448Y40560D01*
X58412Y40285D01*
X58448Y40010D01*
X58554Y39753D01*
X58723Y39533D01*
X58943Y39364D01*
X59200Y39258D01*
X59475Y39222D01*
X59750Y39258D01*
X60007Y39364D01*
X60227Y39533D01*
X60396Y39753D01*
X60502Y40010D01*
X60538Y40285D01*
X60502Y40560D01*
X60396Y40817D01*
X60227Y41037D01*
X60007Y41206D01*
X59750Y41312D01*
X59475Y41348D01*
D02*
G37*
G36*
X59602Y38791D02*
Y37872D01*
X60521D01*
X60502Y38020D01*
X60396Y38277D01*
X60227Y38497D01*
X60007Y38666D01*
X59750Y38772D01*
X59602Y38791D01*
D02*
G37*
G36*
X67095Y41348D02*
X66820Y41312D01*
X66563Y41206D01*
X66343Y41037D01*
X66174Y40817D01*
X66068Y40560D01*
X66032Y40285D01*
X66068Y40010D01*
X66174Y39753D01*
X66343Y39533D01*
X66563Y39364D01*
X66820Y39258D01*
X67095Y39222D01*
X67370Y39258D01*
X67627Y39364D01*
X67847Y39533D01*
X68016Y39753D01*
X68122Y40010D01*
X68158Y40285D01*
X68122Y40560D01*
X68016Y40817D01*
X67847Y41037D01*
X67627Y41206D01*
X67370Y41312D01*
X67095Y41348D01*
D02*
G37*
G36*
X71200Y42584D02*
X69950D01*
X69851Y42564D01*
X69767Y42508D01*
X69142Y41883D01*
X69086Y41799D01*
X69066Y41700D01*
Y40450D01*
X69086Y40351D01*
X69142Y40267D01*
X69767Y39642D01*
X69851Y39586D01*
X69950Y39566D01*
X71200D01*
X71299Y39586D01*
X71383Y39642D01*
X72008Y40267D01*
X72064Y40351D01*
X72084Y40450D01*
Y41700D01*
X72064Y41799D01*
X72008Y41883D01*
X71383Y42508D01*
X71299Y42564D01*
X71200Y42584D01*
D02*
G37*
G36*
X88575Y42586D02*
X88280Y42557D01*
X87997Y42471D01*
X87735Y42332D01*
X87506Y42144D01*
X87318Y41915D01*
X87179Y41653D01*
X87093Y41370D01*
X87064Y41075D01*
X87093Y40780D01*
X87179Y40497D01*
X87318Y40235D01*
X87506Y40006D01*
X87735Y39818D01*
X87997Y39679D01*
X88280Y39593D01*
X88575Y39564D01*
X88870Y39593D01*
X89153Y39679D01*
X89415Y39818D01*
X89644Y40006D01*
X89832Y40235D01*
X89971Y40497D01*
X90057Y40780D01*
X90086Y41075D01*
X90057Y41370D01*
X89971Y41653D01*
X89832Y41915D01*
X89644Y42144D01*
X89415Y42332D01*
X89153Y42471D01*
X88870Y42557D01*
X88575Y42586D01*
D02*
G37*
G36*
X66968Y38791D02*
X66820Y38772D01*
X66563Y38666D01*
X66343Y38497D01*
X66174Y38277D01*
X66068Y38020D01*
X66049Y37872D01*
X66968D01*
Y38791D01*
D02*
G37*
%LPD*%
G36*
X37194Y42344D02*
X37236Y42282D01*
Y41075D01*
X37275Y40878D01*
X37387Y40712D01*
X44461Y33637D01*
Y29287D01*
X44345Y29212D01*
X44324Y29216D01*
X44260Y29310D01*
X44061Y29444D01*
X43952Y29466D01*
Y28875D01*
X43825D01*
Y28748D01*
X43234D01*
X43256Y28639D01*
X43390Y28440D01*
X43570Y28319D01*
X43613Y28182D01*
X41806Y26375D01*
X41600Y26416D01*
X41385Y26373D01*
X41258Y26435D01*
Y27750D01*
X42847Y29340D01*
X42875Y29334D01*
X43111Y29381D01*
X43310Y29515D01*
X43444Y29714D01*
X43491Y29950D01*
X43444Y30186D01*
X43310Y30385D01*
X43111Y30519D01*
X42875Y30566D01*
X42639Y30519D01*
X42440Y30385D01*
X42306Y30186D01*
X42259Y29950D01*
X42265Y29922D01*
X40629Y28287D01*
X40466Y28303D01*
X40410Y28385D01*
X40211Y28519D01*
X40102Y28541D01*
Y27950D01*
Y27359D01*
X40211Y27381D01*
X40307Y27445D01*
X40434Y27378D01*
Y25488D01*
X40465Y25330D01*
X40488Y25296D01*
Y20333D01*
X40519Y20175D01*
X40609Y20042D01*
X42227Y18423D01*
Y18039D01*
X42107Y17999D01*
X42079Y18034D01*
X41817Y18235D01*
X41512Y18362D01*
X41185Y18405D01*
X40858Y18362D01*
X40553Y18235D01*
X40291Y18034D01*
X40090Y17772D01*
X39963Y17467D01*
X39920Y17140D01*
X39963Y16813D01*
X40090Y16508D01*
X40291Y16246D01*
X40553Y16045D01*
X40858Y15918D01*
X41185Y15875D01*
X41512Y15918D01*
X41817Y16045D01*
X42079Y16246D01*
X42107Y16281D01*
X42227Y16241D01*
Y14435D01*
X35004Y7212D01*
X12071D01*
X11740Y7542D01*
X11824Y7638D01*
X11868Y7605D01*
X12173Y7478D01*
X12500Y7435D01*
X12827Y7478D01*
X13132Y7605D01*
X13394Y7806D01*
X13595Y8068D01*
X13624Y8137D01*
X13756Y8124D01*
X13761Y8101D01*
X13817Y8017D01*
X14317Y7517D01*
X14401Y7461D01*
X14500Y7441D01*
X15500D01*
X15599Y7461D01*
X15683Y7517D01*
X16183Y8017D01*
X16183Y8017D01*
X16239Y8101D01*
X16259Y8200D01*
Y8288D01*
X23875D01*
X24033Y8319D01*
X24166Y8409D01*
X28991Y13234D01*
X29081Y13367D01*
X29112Y13525D01*
Y16182D01*
X29239Y16224D01*
X29473Y16045D01*
X29778Y15918D01*
X29978Y15892D01*
Y17140D01*
X30105D01*
Y17267D01*
X31353D01*
X31327Y17467D01*
X31200Y17772D01*
X30999Y18034D01*
X30743Y18231D01*
X30720Y18256D01*
X30698Y18366D01*
X34734Y22402D01*
X34828Y22373D01*
X34864Y22352D01*
X34990Y22165D01*
X35189Y22031D01*
X35425Y21984D01*
X35483Y21996D01*
X36644Y20835D01*
Y18089D01*
X36517Y18052D01*
X36277Y18235D01*
X35972Y18362D01*
X35645Y18405D01*
X35318Y18362D01*
X35013Y18235D01*
X34751Y18034D01*
X34550Y17772D01*
X34423Y17467D01*
X34380Y17140D01*
X34423Y16813D01*
X34550Y16508D01*
X34751Y16246D01*
X35013Y16045D01*
X35318Y15918D01*
X35645Y15875D01*
X35972Y15918D01*
X36277Y16045D01*
X36517Y16228D01*
X36644Y16191D01*
Y15497D01*
X36398Y15395D01*
X36136Y15194D01*
X35935Y14932D01*
X35808Y14627D01*
X35765Y14300D01*
X35808Y13973D01*
X35935Y13668D01*
X36136Y13406D01*
X36398Y13205D01*
X36703Y13078D01*
X37030Y13035D01*
X37357Y13078D01*
X37662Y13205D01*
X37924Y13406D01*
X38125Y13668D01*
X38252Y13973D01*
X38295Y14300D01*
X38252Y14627D01*
X38125Y14932D01*
X37924Y15194D01*
X37662Y15395D01*
X37416Y15497D01*
Y16191D01*
X37543Y16228D01*
X37783Y16045D01*
X38088Y15918D01*
X38415Y15875D01*
X38742Y15918D01*
X39047Y16045D01*
X39309Y16246D01*
X39510Y16508D01*
X39637Y16813D01*
X39680Y17140D01*
X39637Y17467D01*
X39510Y17772D01*
X39309Y18034D01*
X39047Y18235D01*
X38742Y18362D01*
X38415Y18405D01*
X38088Y18362D01*
X37783Y18235D01*
X37543Y18052D01*
X37416Y18089D01*
Y20995D01*
X37387Y21143D01*
X37303Y21268D01*
X37303Y21268D01*
X36029Y22542D01*
X36041Y22600D01*
X35994Y22836D01*
X35860Y23035D01*
X35673Y23161D01*
X35652Y23197D01*
X35623Y23291D01*
X37791Y25459D01*
X37881Y25592D01*
X37912Y25750D01*
Y29599D01*
X37935Y29615D01*
X38069Y29814D01*
X38116Y30050D01*
X38069Y30286D01*
X37935Y30485D01*
X37736Y30619D01*
X37500Y30666D01*
X37264Y30619D01*
X37065Y30485D01*
X37039Y30446D01*
X36911D01*
X36885Y30485D01*
X36686Y30619D01*
X36450Y30666D01*
X36214Y30619D01*
X36114Y30552D01*
X35987Y30620D01*
Y32004D01*
X37191Y33209D01*
X37281Y33342D01*
X37312Y33500D01*
Y38200D01*
X37281Y38358D01*
X37191Y38491D01*
X36310Y39372D01*
X36316Y39400D01*
X36269Y39636D01*
X36135Y39835D01*
X35936Y39969D01*
X35700Y40016D01*
X35464Y39969D01*
X35265Y39835D01*
X35131Y39636D01*
X35084Y39400D01*
X35131Y39164D01*
X35265Y38965D01*
X35464Y38831D01*
X35700Y38784D01*
X35728Y38790D01*
X36488Y38029D01*
Y33671D01*
X35284Y32466D01*
X35194Y32333D01*
X35163Y32175D01*
Y29002D01*
X35051Y28942D01*
X35011Y28969D01*
X34775Y29016D01*
X34539Y28969D01*
X34340Y28835D01*
X34206Y28636D01*
X34187Y28538D01*
X32966Y27318D01*
X32138D01*
X31941Y27279D01*
X31774Y27167D01*
X28796Y24189D01*
X28126D01*
X28088Y24316D01*
X28160Y24365D01*
X28294Y24564D01*
X28316Y24673D01*
X27134D01*
X27156Y24564D01*
X27290Y24365D01*
X27362Y24316D01*
X27324Y24189D01*
X20308D01*
X20245Y24316D01*
X20344Y24464D01*
X20391Y24700D01*
X20344Y24936D01*
X20340Y24942D01*
Y25669D01*
X37057Y42387D01*
X37194Y42344D01*
D02*
G37*
%LPC*%
G36*
X34900Y36716D02*
X34664Y36669D01*
X34465Y36535D01*
X34331Y36336D01*
X34284Y36100D01*
X34296Y36042D01*
X31727Y33473D01*
X31643Y33348D01*
X31614Y33200D01*
Y30325D01*
X31643Y30177D01*
X31727Y30052D01*
X32646Y29133D01*
X32634Y29075D01*
X32681Y28839D01*
X32815Y28640D01*
X33014Y28506D01*
X33250Y28459D01*
X33486Y28506D01*
X33685Y28640D01*
X33819Y28839D01*
X33866Y29075D01*
X33819Y29311D01*
X33685Y29510D01*
X33486Y29644D01*
X33250Y29691D01*
X33192Y29679D01*
X32621Y30250D01*
X32684Y30367D01*
X32850Y30334D01*
X33086Y30381D01*
X33285Y30515D01*
X33419Y30714D01*
X33466Y30950D01*
X33454Y31008D01*
X35948Y33502D01*
X35948Y33502D01*
X36032Y33627D01*
X36061Y33775D01*
Y33807D01*
X36110Y33840D01*
X36244Y34039D01*
X36291Y34275D01*
X36244Y34511D01*
X36110Y34710D01*
X35911Y34844D01*
X35675Y34891D01*
X35439Y34844D01*
X35240Y34710D01*
X35195Y34644D01*
X35025Y34618D01*
X34911Y34694D01*
X34802Y34716D01*
Y34125D01*
X34675D01*
Y33998D01*
X34084D01*
X34106Y33889D01*
X34240Y33690D01*
X34439Y33556D01*
X34675Y33509D01*
X34695Y33513D01*
X34755Y33401D01*
X32908Y31554D01*
X32850Y31566D01*
X32614Y31519D01*
X32513Y31452D01*
X32386Y31519D01*
Y33040D01*
X34842Y35496D01*
X34900Y35484D01*
X35136Y35531D01*
X35335Y35665D01*
X35469Y35864D01*
X35516Y36100D01*
X35469Y36336D01*
X35335Y36535D01*
X35136Y36669D01*
X34900Y36716D01*
D02*
G37*
G36*
X34548Y34716D02*
X34439Y34694D01*
X34240Y34560D01*
X34106Y34361D01*
X34084Y34252D01*
X34548D01*
Y34716D01*
D02*
G37*
G36*
X31353Y17013D02*
X30232D01*
Y15892D01*
X30432Y15918D01*
X30737Y16045D01*
X30999Y16246D01*
X31200Y16508D01*
X31327Y16813D01*
X31353Y17013D01*
D02*
G37*
G36*
X32875Y18405D02*
X32548Y18362D01*
X32243Y18235D01*
X31981Y18034D01*
X31780Y17772D01*
X31653Y17467D01*
X31610Y17140D01*
X31653Y16813D01*
X31780Y16508D01*
X31981Y16246D01*
X32243Y16045D01*
X32548Y15918D01*
X32875Y15875D01*
X33202Y15918D01*
X33507Y16045D01*
X33769Y16246D01*
X33970Y16508D01*
X34097Y16813D01*
X34140Y17140D01*
X34097Y17467D01*
X33970Y17772D01*
X33769Y18034D01*
X33507Y18235D01*
X33202Y18362D01*
X32875Y18405D01*
D02*
G37*
G36*
X31490Y15565D02*
X31163Y15522D01*
X30858Y15395D01*
X30596Y15194D01*
X30395Y14932D01*
X30268Y14627D01*
X30225Y14300D01*
X30268Y13973D01*
X30395Y13668D01*
X30596Y13406D01*
X30858Y13205D01*
X31163Y13078D01*
X31490Y13035D01*
X31817Y13078D01*
X32122Y13205D01*
X32384Y13406D01*
X32585Y13668D01*
X32712Y13973D01*
X32755Y14300D01*
X32712Y14627D01*
X32585Y14932D01*
X32384Y15194D01*
X32122Y15395D01*
X31817Y15522D01*
X31490Y15565D01*
D02*
G37*
G36*
X34260D02*
X33933Y15522D01*
X33628Y15395D01*
X33366Y15194D01*
X33165Y14932D01*
X33038Y14627D01*
X32995Y14300D01*
X33038Y13973D01*
X33165Y13668D01*
X33366Y13406D01*
X33628Y13205D01*
X33933Y13078D01*
X34260Y13035D01*
X34587Y13078D01*
X34892Y13205D01*
X35154Y13406D01*
X35355Y13668D01*
X35482Y13973D01*
X35525Y14300D01*
X35482Y14627D01*
X35355Y14932D01*
X35154Y15194D01*
X34892Y15395D01*
X34587Y15522D01*
X34260Y15565D01*
D02*
G37*
G36*
X27598Y25391D02*
X27489Y25369D01*
X27290Y25235D01*
X27156Y25036D01*
X27134Y24927D01*
X27598D01*
Y25391D01*
D02*
G37*
G36*
X27852D02*
Y24927D01*
X28316D01*
X28294Y25036D01*
X28160Y25235D01*
X27961Y25369D01*
X27852Y25391D01*
D02*
G37*
G36*
X39848Y28541D02*
X39739Y28519D01*
X39540Y28385D01*
X39406Y28186D01*
X39384Y28077D01*
X39848D01*
Y28541D01*
D02*
G37*
G36*
X43698Y29466D02*
X43589Y29444D01*
X43390Y29310D01*
X43256Y29111D01*
X43234Y29002D01*
X43698D01*
Y29466D01*
D02*
G37*
G36*
X39800Y15565D02*
X39473Y15522D01*
X39168Y15395D01*
X38906Y15194D01*
X38705Y14932D01*
X38578Y14627D01*
X38535Y14300D01*
X38578Y13973D01*
X38705Y13668D01*
X38906Y13406D01*
X39168Y13205D01*
X39473Y13078D01*
X39800Y13035D01*
X40127Y13078D01*
X40432Y13205D01*
X40694Y13406D01*
X40895Y13668D01*
X41022Y13973D01*
X41065Y14300D01*
X41022Y14627D01*
X40895Y14932D01*
X40694Y15194D01*
X40432Y15395D01*
X40127Y15522D01*
X39800Y15565D01*
D02*
G37*
G36*
X39848Y27823D02*
X39384D01*
X39406Y27714D01*
X39540Y27515D01*
X39739Y27381D01*
X39848Y27359D01*
Y27823D01*
D02*
G37*
%LPD*%
D30*
X73850Y53625D02*
X80550D01*
X27350D02*
X73850D01*
Y33900D02*
Y53625D01*
Y33900D02*
X91200Y16550D01*
X80550Y53625D02*
X92025Y42150D01*
X94150Y26575D02*
X101200Y19525D01*
X94150Y26575D02*
Y28775D01*
X95104Y28121D02*
X101200Y22025D01*
X95104Y28121D02*
Y29170D01*
X92975Y31299D02*
X95104Y29170D01*
X92975Y31299D02*
Y37050D01*
X6525Y32800D02*
X27350Y53625D01*
D31*
X32850Y30950D02*
X35675Y33775D01*
X32000Y30325D02*
X33250Y29075D01*
X32000Y33200D02*
X34900Y36100D01*
X35675Y33775D02*
Y34275D01*
X32000Y30325D02*
Y33200D01*
X37030Y14300D02*
Y20995D01*
X35425Y22600D02*
X37030Y20995D01*
D32*
X15000Y23675D02*
X29009D01*
X7400Y16075D02*
X15000Y23675D01*
X29009D02*
X32138Y26804D01*
X33179D02*
X34775Y28400D01*
X32138Y26804D02*
X33179D01*
X37750Y41075D02*
X44975Y33850D01*
Y28875D02*
Y33850D01*
X37750Y42600D02*
X37750Y42600D01*
X37750Y41075D02*
Y42600D01*
X48850Y32750D02*
Y38300D01*
X44975Y28875D02*
X48850Y32750D01*
X44975Y28817D02*
Y28875D01*
X41958Y25800D02*
X44975Y28817D01*
X41600Y25800D02*
X41958D01*
D33*
X54025Y15950D02*
Y21300D01*
X42550Y4475D02*
X54025Y15950D01*
X5375Y4475D02*
X42550D01*
X5375D02*
Y15328D01*
X14526Y24479D01*
X16133D01*
X16354Y24700D01*
X19775D01*
X41797Y47925D02*
X54125D01*
X19775Y25903D02*
X41797Y47925D01*
X19775Y24700D02*
Y25903D01*
D34*
X33300Y23950D02*
X34025D01*
X27550Y18200D02*
X33300Y23950D01*
X24450Y11475D02*
X27550Y14575D01*
X9000Y11475D02*
X24450D01*
X24400Y10250D02*
X28125Y13975D01*
X23875Y8700D02*
X28700Y13525D01*
X27550Y14575D02*
Y18200D01*
X34025Y23950D02*
X35575Y25500D01*
X13300Y10250D02*
X24400D01*
X28125Y13975D02*
Y17929D01*
X15000Y8700D02*
X23875D01*
X28700Y13525D02*
Y17721D01*
X35700Y39400D02*
X36900Y38200D01*
Y33500D02*
Y38200D01*
X35575Y32175D02*
X36900Y33500D01*
X35575Y25500D02*
Y32175D01*
X59240Y16175D02*
Y17511D01*
X58741D02*
X59240D01*
X58036Y18216D02*
X58741Y17511D01*
X58036Y18216D02*
Y19214D01*
X58741Y19919D01*
X59607D01*
X60444Y20756D01*
Y28997D01*
X47491Y41950D02*
X60444Y28997D01*
X44600Y41950D02*
X47491D01*
X59450Y42800D02*
X59475Y42825D01*
X43975Y42800D02*
X59450D01*
X7500Y9975D02*
X9000Y11475D01*
X40900Y20333D02*
X42639Y18594D01*
Y14264D02*
Y18594D01*
X35175Y6800D02*
X42639Y14264D01*
X11900Y6800D02*
X35175D01*
X10000Y8700D02*
X11900Y6800D01*
X29294Y19098D02*
X30065D01*
X28125Y17929D02*
X29294Y19098D01*
X28700Y17721D02*
X29523Y18544D01*
X30294D01*
X12500Y8700D02*
Y9450D01*
X13300Y10250D01*
X30065Y19098D02*
X36804Y25837D01*
Y27912D01*
X36450Y28266D02*
X36804Y27912D01*
X36450Y28266D02*
Y30050D01*
X30294Y18544D02*
X37500Y25750D01*
Y30050D01*
X40900Y20333D02*
Y25434D01*
X40846Y25488D02*
X40900Y25434D01*
X40846Y25488D02*
Y27921D01*
X42875Y29950D01*
X7500Y8700D02*
Y9975D01*
D36*
X91850Y25050D02*
D03*
X87675Y6575D02*
D03*
X69700Y13675D02*
D03*
X88600Y34200D02*
D03*
X96050Y51350D02*
D03*
X70575Y41075D02*
D03*
D37*
X73850Y25050D02*
D03*
X69675Y6575D02*
D03*
X87700Y13675D02*
D03*
X70600Y34200D02*
D03*
X78050Y51350D02*
D03*
X88575Y41075D02*
D03*
D38*
X59240Y23795D02*
D03*
Y21255D02*
D03*
Y18715D02*
D03*
Y16175D02*
D03*
Y13635D02*
D03*
Y11095D02*
D03*
Y8555D02*
D03*
X66860Y23795D02*
D03*
Y21255D02*
D03*
Y18715D02*
D03*
Y16175D02*
D03*
Y13635D02*
D03*
Y11095D02*
D03*
X59475Y50445D02*
D03*
Y47905D02*
D03*
Y45365D02*
D03*
Y42825D02*
D03*
Y40285D02*
D03*
Y37745D02*
D03*
Y35205D02*
D03*
X67095Y50445D02*
D03*
Y47905D02*
D03*
Y45365D02*
D03*
Y42825D02*
D03*
Y40285D02*
D03*
Y37745D02*
D03*
D39*
X66860Y8555D02*
D03*
X67095Y35205D02*
D03*
D40*
X101200Y22025D02*
D03*
Y24525D02*
D03*
Y19525D02*
D03*
X10000Y8700D02*
D03*
X12500D02*
D03*
X7500D02*
D03*
X41185Y17140D02*
D03*
X38415D02*
D03*
X35645D02*
D03*
X32875D02*
D03*
X30105D02*
D03*
X39800Y14300D02*
D03*
X37030D02*
D03*
X34260D02*
D03*
X31490D02*
D03*
D41*
X101200Y27025D02*
D03*
D42*
X10000Y47500D02*
D03*
Y41500D02*
D03*
D43*
X5100Y44450D02*
D03*
D44*
X15000Y8700D02*
D03*
D45*
X23145Y15720D02*
D03*
X48145D02*
D03*
D46*
X15451Y25401D02*
D03*
X33250Y29075D02*
D03*
X27725Y24800D02*
D03*
X34900Y36100D02*
D03*
X34775Y28400D02*
D03*
X92975Y37050D02*
D03*
X94150Y28775D02*
D03*
X90800Y36000D02*
D03*
X89875Y8900D02*
D03*
X91200Y16550D02*
D03*
X53600Y30500D02*
D03*
X92025Y42150D02*
D03*
X35675Y34275D02*
D03*
X6525Y32800D02*
D03*
X54175Y49350D02*
D03*
X54075Y22775D02*
D03*
X44600Y41950D02*
D03*
X43975Y42800D02*
D03*
X54025Y21300D02*
D03*
X54125Y47925D02*
D03*
X19775Y24700D02*
D03*
X39975Y27950D02*
D03*
X41600Y25800D02*
D03*
X32850Y30950D02*
D03*
X34675Y34125D02*
D03*
X48850Y38300D02*
D03*
X37750Y42600D02*
D03*
X35700Y39400D02*
D03*
X36450Y30050D02*
D03*
X42875Y29950D02*
D03*
X37500Y30050D02*
D03*
X44975Y28875D02*
D03*
X43825D02*
D03*
X38875Y42675D02*
D03*
X51375Y37000D02*
D03*
X9025Y33425D02*
D03*
X13150Y27125D02*
D03*
X7400Y16075D02*
D03*
X16050Y16050D02*
D03*
X35425Y22600D02*
D03*
D47*
X32450Y24950D02*
D03*
Y26050D02*
D03*
X33550Y24950D02*
D03*
Y26050D02*
D03*
M02*
