G04 Layer_Color=16711935*
%FSLAX43Y43*%
%MOMM*%
G71*
G01*
G75*
%ADD47C,0.500*%
%ADD48C,0.200*%
%ADD49C,0.254*%
%ADD64C,0.100*%
G36*
X80850Y22050D02*
X79850D01*
Y28050D01*
X80850D01*
Y22050D01*
D02*
G37*
G36*
X81700Y10675D02*
X80700D01*
Y16675D01*
X81700D01*
Y10675D01*
D02*
G37*
G36*
X76675Y3575D02*
X75675D01*
Y9575D01*
X76675D01*
Y3575D01*
D02*
G37*
G36*
X85050Y48350D02*
X84050D01*
Y54350D01*
X85050D01*
Y48350D01*
D02*
G37*
G36*
X82575Y38075D02*
X81575D01*
Y44075D01*
X82575D01*
Y38075D01*
D02*
G37*
G36*
X77600Y31200D02*
X76600D01*
Y37200D01*
X77600D01*
Y31200D01*
D02*
G37*
D47*
X91300Y3475D02*
D03*
X93275Y14850D02*
D03*
X92125Y30625D02*
D03*
X94075Y40575D02*
D03*
X66350Y7375D02*
D03*
X66585Y34025D02*
D03*
X50000Y33450D02*
D03*
X99000Y28875D02*
D03*
X5750Y34650D02*
D03*
X11575Y35375D02*
D03*
X20050Y35725D02*
D03*
X19675Y29100D02*
D03*
X5200Y18600D02*
D03*
X7000Y41200D02*
D03*
X16850Y10900D02*
D03*
D48*
X67050Y6650D02*
Y25700D01*
X59050D02*
X67050D01*
X59050Y6650D02*
Y25700D01*
Y6650D02*
X67050D01*
X67285Y33300D02*
Y52350D01*
X59285D02*
X67285D01*
X59285Y33300D02*
Y52350D01*
Y33300D02*
X67285D01*
X110000Y2500D02*
Y52500D01*
X2500Y55000D02*
X107500D01*
X2500Y0D02*
X107500D01*
X0Y2500D02*
Y52500D01*
D49*
X107500Y0D02*
G03*
X110000Y2500I0J2500D01*
G01*
Y52500D02*
G03*
X107500Y55000I-2500J0D01*
G01*
X0Y2500D02*
G03*
X2500Y0I2500J0D01*
G01*
Y55000D02*
G03*
X0Y52500I0J-2500D01*
G01*
D64*
X92125Y18025D02*
X93125D01*
X92125Y17525D02*
X93125D01*
X92125D02*
Y18025D01*
X93125Y17525D02*
Y18025D01*
X90125Y4850D02*
Y5850D01*
X89625Y4850D02*
Y5850D01*
X90125D01*
X89625Y4850D02*
X90125D01*
X90880Y3055D02*
Y5695D01*
X93920D01*
Y3055D02*
Y5695D01*
X90880Y3055D02*
X93920D01*
X93695Y12630D02*
Y15270D01*
X90655Y12630D02*
X93695D01*
X90655D02*
Y15270D01*
X93695D01*
X84076Y19975D02*
Y21175D01*
X86075Y19975D02*
Y21175D01*
X84076D02*
X86075D01*
X84076Y19975D02*
X86075D01*
X78850Y22050D02*
X86850D01*
X78850D02*
Y28050D01*
X86850D01*
Y22050D02*
Y28050D01*
X80850Y22050D02*
X86850D01*
Y25050D02*
X89850D01*
X75850D02*
X78850D01*
X72301Y17675D02*
Y18875D01*
X74300Y17675D02*
Y18875D01*
X72301D02*
X74300D01*
X72301Y17675D02*
X74300D01*
X68800Y19575D02*
Y20575D01*
X68300Y19575D02*
Y20575D01*
X68800D01*
X68300Y19575D02*
X68800D01*
X79676Y1500D02*
Y2700D01*
X81675Y1500D02*
Y2700D01*
X79676D02*
X81675D01*
X79676Y1500D02*
X81675D01*
X74675Y3575D02*
X82675D01*
X74675D02*
Y9575D01*
X82675D01*
Y3575D02*
Y9575D01*
X76675Y3575D02*
X82675D01*
Y6575D02*
X85675D01*
X71675D02*
X74675D01*
X74700Y16675D02*
X82700D01*
Y10675D02*
Y16675D01*
X74700Y10675D02*
X82700D01*
X74700D02*
Y16675D01*
X80700D01*
X71700Y13675D02*
X74700D01*
X82700D02*
X85700D01*
X91050Y32000D02*
Y33000D01*
X90550Y32000D02*
Y33000D01*
X91050D01*
X90550Y32000D02*
X91050D01*
X91705Y30205D02*
Y32845D01*
X94745D01*
Y30205D02*
Y32845D01*
X91705Y30205D02*
X94745D01*
X81201Y28950D02*
Y30150D01*
X83200Y28950D02*
Y30150D01*
X81201D02*
X83200D01*
X81201Y28950D02*
X83200D01*
X75600Y31200D02*
X83600D01*
X75600D02*
Y37200D01*
X83600D01*
Y31200D02*
Y37200D01*
X77600Y31200D02*
X83600D01*
Y34200D02*
X86600D01*
X72600D02*
X75600D01*
X83050Y48350D02*
X91050D01*
X83050D02*
Y54350D01*
X91050D01*
Y48350D02*
Y54350D01*
X85050Y48350D02*
X91050D01*
Y51350D02*
X94050D01*
X80050D02*
X83050D01*
X87001Y46175D02*
Y47375D01*
X89000Y46175D02*
Y47375D01*
X87001D02*
X89000D01*
X87001Y46175D02*
X89000D01*
X94495Y38355D02*
Y40995D01*
X91455Y38355D02*
X94495D01*
X91455D02*
Y40995D01*
X94495D01*
X93175Y43600D02*
X94175D01*
X93175Y43100D02*
X94175D01*
X93175D02*
Y43600D01*
X94175Y43100D02*
Y43600D01*
X73151Y45025D02*
Y46225D01*
X75150Y45025D02*
Y46225D01*
X73151D02*
X75150D01*
X73151Y45025D02*
X75150D01*
X69225Y46900D02*
Y47900D01*
X68725Y46900D02*
Y47900D01*
X69225D01*
X68725Y46900D02*
X69225D01*
X75575Y44075D02*
X83575D01*
Y38075D02*
Y44075D01*
X75575Y38075D02*
X83575D01*
X75575D02*
Y44075D01*
X81575D01*
X72575Y41075D02*
X75575D01*
X83575D02*
X86575D01*
X56975Y21325D02*
Y22325D01*
X57475Y21325D02*
Y22325D01*
X56975Y21325D02*
X57475D01*
X56975Y22325D02*
X57475D01*
X55100Y22850D02*
X55900D01*
X55100Y21250D02*
X55900D01*
Y22850D01*
X55100Y21250D02*
Y22850D01*
X56950Y47975D02*
Y48975D01*
X57450Y47975D02*
Y48975D01*
X56950Y47975D02*
X57450D01*
X56950Y48975D02*
X57450D01*
X55125Y49450D02*
X55925D01*
X55125Y47850D02*
X55925D01*
Y49450D01*
X55125Y47850D02*
Y49450D01*
X40775Y25875D02*
Y26875D01*
X40275Y25875D02*
Y26875D01*
X40775D01*
X40275Y25875D02*
X40775D01*
X39150Y25875D02*
Y26875D01*
X39650Y25875D02*
Y26875D01*
X39150Y25875D02*
X39650D01*
X39150Y26875D02*
X39650D01*
X50075Y35000D02*
Y35600D01*
X49775Y35000D02*
Y35600D01*
X50075D01*
X49775Y35000D02*
X50075D01*
X53700Y28650D02*
Y29250D01*
X53400Y28650D02*
Y29250D01*
X53700D01*
X53400Y28650D02*
X53700D01*
X49513Y33950D02*
X52687D01*
X49513Y28950D02*
Y33950D01*
Y28950D02*
X52687D01*
Y33950D01*
X48525Y36350D02*
X49525D01*
X48525Y36850D02*
X49525D01*
Y36350D02*
Y36850D01*
X48525Y36350D02*
Y36850D01*
X46950Y36300D02*
X47550D01*
X46950Y36600D02*
X47550D01*
Y36300D02*
Y36600D01*
X46950Y36300D02*
Y36600D01*
X47900Y30500D02*
Y32100D01*
X47100Y30500D02*
Y32100D01*
X47900D01*
X47100Y30500D02*
X47900D01*
X37825Y41275D02*
X38825D01*
X37825Y41775D02*
X38825D01*
Y41275D02*
Y41775D01*
X37825Y41275D02*
Y41775D01*
X43950Y30175D02*
X44950D01*
X43950Y29675D02*
X44950D01*
X43950D02*
Y30175D01*
X44950Y29675D02*
Y30175D01*
X35800Y32200D02*
Y33200D01*
X35300Y32200D02*
Y33200D01*
X35800D01*
X35300Y32200D02*
X35800D01*
X109700Y17025D02*
Y29525D01*
X98500Y17025D02*
Y29525D01*
Y17025D02*
X109700D01*
X98500Y29525D02*
X109700D01*
X2650Y39450D02*
X6250D01*
X2650Y34050D02*
Y39450D01*
Y34050D02*
X6250D01*
Y39450D01*
X7100Y39275D02*
X7700D01*
X7100Y39575D02*
X7700D01*
Y39275D02*
Y39575D01*
X7100Y39275D02*
Y39575D01*
X9355Y34955D02*
X11995D01*
X9355D02*
Y37995D01*
X11995D01*
Y34955D02*
Y37995D01*
X13000Y36700D02*
Y37700D01*
X13500Y36700D02*
Y37700D01*
X13000Y36700D02*
X13500D01*
X13000Y37700D02*
X13500D01*
X4650Y31850D02*
Y32650D01*
X3050Y31850D02*
Y32650D01*
Y31850D02*
X4650D01*
X3050Y32650D02*
X4650D01*
X5124Y28775D02*
Y29975D01*
X3125Y28775D02*
Y29975D01*
Y28775D02*
X5124D01*
X3125Y29975D02*
X5124D01*
X7125Y28875D02*
X7725D01*
X7125Y28575D02*
X7725D01*
X7125D02*
Y28875D01*
X7725Y28575D02*
Y28875D01*
X2975Y25900D02*
Y26900D01*
X2475Y25900D02*
Y26900D01*
X2975D01*
X2475Y25900D02*
X2975D01*
X6199Y24750D02*
Y25950D01*
X4200Y24750D02*
Y25950D01*
Y24750D02*
X6199D01*
X4200Y25950D02*
X6199D01*
X15650Y30600D02*
X16250D01*
X15650Y30900D02*
X16250D01*
Y30600D02*
Y30900D01*
X15650Y30600D02*
Y30900D01*
X16950Y40525D02*
X20550D01*
X16950Y35125D02*
Y40525D01*
Y35125D02*
X20550D01*
Y40525D01*
X20095Y26880D02*
Y29520D01*
X17055Y26880D02*
X20095D01*
X17055D02*
Y29520D01*
X20095D01*
X17976Y30875D02*
Y32075D01*
X19975Y30875D02*
Y32075D01*
X17976D02*
X19975D01*
X17976Y30875D02*
X19975D01*
X18525Y24650D02*
Y25450D01*
X16925Y24650D02*
Y25450D01*
Y24650D02*
X18525D01*
X16925Y25450D02*
X18525D01*
X12900Y22525D02*
Y25725D01*
X11350Y22525D02*
Y25725D01*
X12900D01*
X11350Y22525D02*
X12900D01*
X7849Y20400D02*
Y21600D01*
X5850Y20400D02*
Y21600D01*
Y20400D02*
X7849D01*
X5850Y21600D02*
X7849D01*
X6174Y22575D02*
Y23775D01*
X4175Y22575D02*
Y23775D01*
Y22575D02*
X6174D01*
X4175Y23775D02*
X6174D01*
X2600Y19000D02*
X5600D01*
X2600Y16000D02*
Y19000D01*
Y16000D02*
X5600D01*
Y19000D01*
X6500Y16900D02*
Y17500D01*
X6200Y16900D02*
Y17500D01*
X6500D01*
X6200Y16900D02*
X6500D01*
X14400Y40800D02*
Y55200D01*
X5000Y40800D02*
Y55200D01*
X14400D01*
X5000Y40800D02*
X14400D01*
X6900Y14499D02*
X8100D01*
X6900Y12500D02*
X8100D01*
Y14499D01*
X6900Y12500D02*
Y14499D01*
X5000Y200D02*
X17500D01*
X5000Y11400D02*
X17500D01*
X5000Y200D02*
Y11400D01*
X17500Y200D02*
Y11400D01*
X4650Y12775D02*
X5650D01*
X4650Y12275D02*
X5650D01*
X4650D02*
Y12775D01*
X5650Y12275D02*
Y12775D01*
X15450Y14499D02*
X16650D01*
X15450Y12500D02*
X16650D01*
Y14499D01*
X15450Y12500D02*
Y14499D01*
X20240Y418D02*
Y18718D01*
X51050D01*
Y418D02*
Y18718D01*
X20240Y418D02*
X51050D01*
X11150Y12601D02*
X12350D01*
X11150Y14600D02*
X12350D01*
X11150Y12601D02*
Y14600D01*
X12350Y12601D02*
Y14600D01*
X32175Y21050D02*
Y22050D01*
X32675Y21050D02*
Y22050D01*
X32175Y21050D02*
X32675D01*
X32175Y22050D02*
X32675D01*
X30275Y21700D02*
X31275D01*
X30275Y22200D02*
X31275D01*
Y21700D02*
Y22200D01*
X30275Y21700D02*
Y22200D01*
X29575Y26225D02*
Y27225D01*
X30075Y26225D02*
Y27225D01*
X29575Y26225D02*
X30075D01*
X29575Y27225D02*
X30075D01*
X28775Y25050D02*
X29775D01*
X28775Y24550D02*
X29775D01*
X28775D02*
Y25050D01*
X29775Y24550D02*
Y25050D01*
X26400Y24825D02*
Y25825D01*
X26900Y24825D02*
Y25825D01*
X26400Y24825D02*
X26900D01*
X26400Y25825D02*
X26900D01*
M02*
