G04 Layer_Color=16711935*
%FSLAX43Y43*%
%MOMM*%
G71*
G01*
G75*
%ADD48R,2.703X1.203*%
%ADD49O,5.203X2.203*%
%ADD50O,2.203X5.203*%
%ADD51C,2.003*%
%ADD52P,2.168X8X22.5*%
%ADD53C,0.203*%
%ADD54C,0.903*%
%ADD55C,0.703*%
D48*
X2950Y31275D02*
D03*
X2875Y19325D02*
D03*
D49*
X12700Y43500D02*
D03*
Y49500D02*
D03*
D50*
X7800Y46450D02*
D03*
D51*
X31440Y52900D02*
D03*
X5725Y2275D02*
D03*
X10805D02*
D03*
X13345D02*
D03*
X15885D02*
D03*
X8265D02*
D03*
D52*
X28900Y52900D02*
D03*
X18425Y2275D02*
D03*
D53*
X2500Y2500D02*
D03*
Y52500D02*
D03*
X52500D02*
D03*
Y2500D02*
D03*
D54*
X10100Y22275D02*
D03*
X15325Y30050D02*
D03*
X19875Y21050D02*
D03*
X4025Y8425D02*
D03*
X4000Y10500D02*
D03*
X13875Y18625D02*
D03*
X10100Y21275D02*
D03*
X8650Y14675D02*
D03*
X9587Y9363D02*
D03*
X15351Y18625D02*
D03*
X45100Y39600D02*
D03*
X6625Y13000D02*
D03*
X10675Y8150D02*
D03*
X49750Y37950D02*
D03*
X25100Y10825D02*
D03*
D55*
X13625Y24875D02*
D03*
Y23775D02*
D03*
X16925D02*
D03*
X13625Y22675D02*
D03*
X14725D02*
D03*
X13625Y21575D02*
D03*
X14725D02*
D03*
X6275Y9425D02*
D03*
Y10525D02*
D03*
X7375Y9425D02*
D03*
Y10525D02*
D03*
X15825Y23775D02*
D03*
Y22675D02*
D03*
X16925Y24875D02*
D03*
Y22675D02*
D03*
X14725Y23775D02*
D03*
X15825Y24875D02*
D03*
X14725D02*
D03*
X16925Y21575D02*
D03*
X15825D02*
D03*
M02*
