G04 Layer_Color=16777215*
%FSLAX43Y43*%
%MOMM*%
G71*
G01*
G75*
%ADD35C,0.250*%
%ADD44C,0.500*%
%ADD45C,0.200*%
%ADD46C,0.254*%
%ADD47R,0.500X3.556*%
D35*
X42400Y39275D02*
G03*
X42400Y39275I-125J0D01*
G01*
X23625Y48750D02*
G03*
X23625Y48750I-125J0D01*
G01*
X32375Y42150D02*
G03*
X32375Y42150I-125J0D01*
G01*
X21975Y43500D02*
G03*
X21975Y43500I-125J0D01*
G01*
X47700Y40950D02*
G03*
X47700Y40950I-125J0D01*
G01*
X23750Y6825D02*
G03*
X23750Y6825I-125J0D01*
G01*
X19700Y19725D02*
G03*
X19700Y19725I-125J0D01*
G01*
X8800Y12625D02*
G03*
X8800Y12625I-125J0D01*
G01*
D44*
X23425Y21100D02*
D03*
D45*
X2375Y19200D02*
X4000D01*
Y20825D01*
X4050Y29775D02*
Y31400D01*
X2425D02*
X4050D01*
X47250Y35175D02*
Y38775D01*
X49050Y35175D02*
Y38775D01*
X47250Y35175D02*
X49050D01*
X47250Y38775D02*
X49050D01*
X47225Y31075D02*
Y34675D01*
X49025Y31075D02*
Y34675D01*
X47225Y31075D02*
X49025D01*
X47225Y34675D02*
X49025D01*
X44500Y38800D02*
X46700D01*
X44500Y34200D02*
X46700D01*
Y38800D01*
X44500Y34200D02*
Y38800D01*
X42575Y35925D02*
Y38725D01*
X43975Y35925D02*
Y38725D01*
X42575Y35925D02*
X43975D01*
X42575Y38725D02*
X43975D01*
X37625Y46650D02*
X41225D01*
X37625Y48450D02*
X41225D01*
Y46650D02*
Y48450D01*
X37625Y46650D02*
Y48450D01*
X38975Y37375D02*
X39775D01*
X38975D02*
Y38375D01*
X41175Y37375D02*
X41975D01*
Y38375D01*
X43392Y42522D02*
Y42776D01*
X38058Y42522D02*
X43392D01*
X38058D02*
Y42776D01*
X43392Y45824D02*
Y46078D01*
X38058D02*
X43392D01*
X38058Y45824D02*
Y46078D01*
X15400Y42700D02*
X17200D01*
X7975Y49300D02*
Y56900D01*
X17200D01*
X8000Y42700D02*
X10100D01*
X8000D02*
Y43550D01*
X17200Y42700D02*
Y56900D01*
X32867Y45122D02*
Y45376D01*
X27533Y45122D02*
X32867D01*
X27533D02*
Y45376D01*
X32867Y48424D02*
Y48678D01*
X27533D02*
X32867D01*
X27533Y48424D02*
Y48678D01*
X25400Y45450D02*
Y46250D01*
X24400Y45450D02*
X25400D01*
Y47650D02*
Y48450D01*
X24400D02*
X25400D01*
X31450Y35450D02*
X35050D01*
X31450Y37250D02*
X35050D01*
Y35450D02*
Y37250D01*
X31450Y35450D02*
Y37250D01*
X27300Y34325D02*
Y37925D01*
X29100Y34325D02*
Y37925D01*
X27300Y34325D02*
X29100D01*
X27300Y37925D02*
X29100D01*
X33350Y37650D02*
X35550D01*
X33350Y41650D02*
X35550D01*
X22600Y35400D02*
Y38200D01*
X24000Y35400D02*
Y38200D01*
X22600Y35400D02*
X24000D01*
X22600Y38200D02*
X24000D01*
X28267Y38822D02*
Y39076D01*
X22933Y38822D02*
X28267D01*
X22933D02*
Y39076D01*
X28267Y42124D02*
Y42378D01*
X22933D02*
X28267D01*
X22933Y42124D02*
Y42378D01*
X18550Y41600D02*
X19350D01*
X18550D02*
Y42600D01*
X20750Y41600D02*
X21550D01*
Y42600D01*
X46125Y41250D02*
Y44250D01*
X46625Y41250D02*
Y44250D01*
X46125D02*
X46625D01*
X46125Y41250D02*
X46625D01*
X20400Y4075D02*
X25200D01*
X20400D02*
Y6175D01*
X25200D01*
Y4075D02*
Y6175D01*
X22300Y4075D02*
Y6175D01*
X21725Y9325D02*
Y10125D01*
X22725D01*
X21725Y7125D02*
Y7925D01*
Y7125D02*
X22725D01*
X18100Y26875D02*
X18925D01*
Y26050D02*
Y26875D01*
X11625D02*
X12450D01*
X11625Y26050D02*
Y26875D01*
Y19575D02*
Y20400D01*
Y19575D02*
X12450D01*
X18100D02*
X18925D01*
Y20400D01*
X28625Y23000D02*
Y23600D01*
X23425Y23000D02*
Y23600D01*
X25225Y25000D02*
X26825D01*
X25225Y21600D02*
X26825D01*
X4825Y11925D02*
Y11975D01*
X4875D01*
X4825Y7975D02*
Y8025D01*
Y7975D02*
X4875D01*
X8775D02*
X8825D01*
Y8025D01*
Y11925D02*
Y11975D01*
X8775D02*
X8825D01*
D46*
X32964Y51376D02*
Y54424D01*
X27376D02*
X32964D01*
X27376Y51376D02*
X32964D01*
X27376D02*
Y54424D01*
X4201Y751D02*
Y3799D01*
Y751D02*
X19949D01*
X4201Y3799D02*
X19949D01*
Y751D02*
Y3799D01*
X2500Y34024D02*
X3516Y32500D01*
Y34024D02*
X2500Y32500D01*
X5039D02*
X4024D01*
X5039Y33516D01*
Y33770D01*
X4785Y34024D01*
X4277D01*
X4024Y33770D01*
X30924Y25050D02*
Y24034D01*
X30670D01*
X29654Y25050D01*
X29400D01*
Y24034D01*
X29654Y22511D02*
X30670D01*
X30924Y22765D01*
Y23273D01*
X30670Y23526D01*
X29654D01*
X29400Y23273D01*
Y22765D01*
X29908Y23019D02*
X29400Y22511D01*
Y22765D02*
X29654Y22511D01*
X29400Y22003D02*
Y21495D01*
Y21749D01*
X30924D01*
X30670Y22003D01*
X34824Y54050D02*
X33300Y53034D01*
X34824D02*
X33300Y54050D01*
Y51765D02*
X34824D01*
X34062Y52526D01*
Y51511D01*
X22024Y3325D02*
X20500Y2309D01*
X22024D02*
X20500Y3325D01*
X21770Y1801D02*
X22024Y1548D01*
Y1040D01*
X21770Y786D01*
X21516D01*
X21262Y1040D01*
Y1294D01*
Y1040D01*
X21008Y786D01*
X20754D01*
X20500Y1040D01*
Y1548D01*
X20754Y1801D01*
X7224Y54300D02*
X5700Y53284D01*
X7224D02*
X5700Y54300D01*
Y52776D02*
Y52269D01*
Y52523D01*
X7224D01*
X6970Y52776D01*
X20175Y12224D02*
Y11208D01*
X20683Y10700D01*
X21191Y11208D01*
Y12224D01*
X21699D02*
X22714D01*
X22206D01*
Y10700D01*
X23222Y11970D02*
X23476Y12224D01*
X23984D01*
X24238Y11970D01*
Y11716D01*
X23984Y11462D01*
X23730D01*
X23984D01*
X24238Y11208D01*
Y10954D01*
X23984Y10700D01*
X23476D01*
X23222Y10954D01*
X22700Y50724D02*
Y49708D01*
X23208Y49200D01*
X23716Y49708D01*
Y50724D01*
X24224D02*
X25239D01*
X24731D01*
Y49200D01*
X26763D02*
X25747D01*
X26763Y50216D01*
Y50470D01*
X26509Y50724D01*
X26001D01*
X25747Y50470D01*
X18400Y40024D02*
Y39008D01*
X18908Y38500D01*
X19416Y39008D01*
Y40024D01*
X19924D02*
X20939D01*
X20431D01*
Y38500D01*
X21447D02*
X21955D01*
X21701D01*
Y40024D01*
X21447Y39770D01*
X35399Y48525D02*
X34383D01*
X33875Y48017D01*
X34383Y47509D01*
X35399D01*
Y47001D02*
X33875D01*
Y46240D01*
X34129Y45986D01*
X35145D01*
X35399Y46240D01*
Y47001D01*
Y45478D02*
Y44462D01*
X35145D01*
X34129Y45478D01*
X33875D01*
X22800Y3699D02*
Y2683D01*
X23308Y2175D01*
X23816Y2683D01*
Y3699D01*
X24324D02*
Y2175D01*
X25085D01*
X25339Y2429D01*
Y3445D01*
X25085Y3699D01*
X24324D01*
X26863D02*
X26355Y3445D01*
X25847Y2937D01*
Y2429D01*
X26101Y2175D01*
X26609D01*
X26863Y2429D01*
Y2683D01*
X26609Y2937D01*
X25847D01*
X38600Y35024D02*
Y34008D01*
X39108Y33500D01*
X39616Y34008D01*
Y35024D01*
X40124D02*
Y33500D01*
X40885D01*
X41139Y33754D01*
Y34770D01*
X40885Y35024D01*
X40124D01*
X42663D02*
X41647D01*
Y34262D01*
X42155Y34516D01*
X42409D01*
X42663Y34262D01*
Y33754D01*
X42409Y33500D01*
X41901D01*
X41647Y33754D01*
X41800Y48224D02*
Y47208D01*
X42308Y46700D01*
X42816Y47208D01*
Y48224D01*
X43324D02*
Y46700D01*
X44085D01*
X44339Y46954D01*
Y47970D01*
X44085Y48224D01*
X43324D01*
X45609Y46700D02*
Y48224D01*
X44847Y47462D01*
X45863D01*
X18700Y18374D02*
Y17358D01*
X19208Y16850D01*
X19716Y17358D01*
Y18374D01*
X20224D02*
Y16850D01*
X20985D01*
X21239Y17104D01*
Y18120D01*
X20985Y18374D01*
X20224D01*
X21747Y18120D02*
X22001Y18374D01*
X22509D01*
X22763Y18120D01*
Y17866D01*
X22509Y17612D01*
X22255D01*
X22509D01*
X22763Y17358D01*
Y17104D01*
X22509Y16850D01*
X22001D01*
X21747Y17104D01*
X24000Y44524D02*
Y43508D01*
X24508Y43000D01*
X25016Y43508D01*
Y44524D01*
X25524D02*
Y43000D01*
X26285D01*
X26539Y43254D01*
Y44270D01*
X26285Y44524D01*
X25524D01*
X28063Y43000D02*
X27047D01*
X28063Y44016D01*
Y44270D01*
X27809Y44524D01*
X27301D01*
X27047Y44270D01*
X19024Y47800D02*
X18008D01*
X17500Y47292D01*
X18008Y46784D01*
X19024D01*
Y46276D02*
X17500D01*
Y45515D01*
X17754Y45261D01*
X18770D01*
X19024Y45515D01*
Y46276D01*
X17500Y44753D02*
Y44245D01*
Y44499D01*
X19024D01*
X18770Y44753D01*
X19900Y51500D02*
X21424D01*
Y50738D01*
X21170Y50484D01*
X20662D01*
X20408Y50738D01*
Y51500D01*
Y50992D02*
X19900Y50484D01*
Y49976D02*
Y49469D01*
Y49723D01*
X21424D01*
X21170Y49976D01*
Y48707D02*
X21424Y48453D01*
Y47945D01*
X21170Y47691D01*
X20916D01*
X20662Y47945D01*
Y48199D01*
Y47945D01*
X20408Y47691D01*
X20154D01*
X19900Y47945D01*
Y48453D01*
X20154Y48707D01*
X24700Y8450D02*
Y9974D01*
X25462D01*
X25716Y9720D01*
Y9212D01*
X25462Y8958D01*
X24700D01*
X25208D02*
X25716Y8450D01*
X26224D02*
X26731D01*
X26477D01*
Y9974D01*
X26224Y9720D01*
X28509Y8450D02*
X27493D01*
X28509Y9466D01*
Y9720D01*
X28255Y9974D01*
X27747D01*
X27493Y9720D01*
X49450Y31125D02*
Y32649D01*
X50212D01*
X50466Y32395D01*
Y31887D01*
X50212Y31633D01*
X49450D01*
X49958D02*
X50466Y31125D01*
X50974D02*
X51481D01*
X51227D01*
Y32649D01*
X50974Y32395D01*
X52243Y31125D02*
X52751D01*
X52497D01*
Y32649D01*
X52243Y32395D01*
X49425Y35150D02*
Y36674D01*
X50187D01*
X50441Y36420D01*
Y35912D01*
X50187Y35658D01*
X49425D01*
X49933D02*
X50441Y35150D01*
X50949D02*
X51456D01*
X51202D01*
Y36674D01*
X50949Y36420D01*
X52218D02*
X52472Y36674D01*
X52980D01*
X53234Y36420D01*
Y35404D01*
X52980Y35150D01*
X52472D01*
X52218Y35404D01*
Y36420D01*
X14875Y16250D02*
Y17774D01*
X15637D01*
X15891Y17520D01*
Y17012D01*
X15637Y16758D01*
X14875D01*
X15383D02*
X15891Y16250D01*
X16399Y16504D02*
X16652Y16250D01*
X17160D01*
X17414Y16504D01*
Y17520D01*
X17160Y17774D01*
X16652D01*
X16399Y17520D01*
Y17266D01*
X16652Y17012D01*
X17414D01*
X31475Y33550D02*
Y35074D01*
X32237D01*
X32491Y34820D01*
Y34312D01*
X32237Y34058D01*
X31475D01*
X31983D02*
X32491Y33550D01*
X32999Y34820D02*
X33252Y35074D01*
X33760D01*
X34014Y34820D01*
Y34566D01*
X33760Y34312D01*
X34014Y34058D01*
Y33804D01*
X33760Y33550D01*
X33252D01*
X32999Y33804D01*
Y34058D01*
X33252Y34312D01*
X32999Y34566D01*
Y34820D01*
X33252Y34312D02*
X33760D01*
X20650Y25450D02*
Y26973D01*
X21412D01*
X21666Y26720D01*
Y26212D01*
X21412Y25958D01*
X20650D01*
X21158D02*
X21666Y25450D01*
X22174Y26973D02*
X23189D01*
Y26720D01*
X22174Y25704D01*
Y25450D01*
X27400Y33950D02*
X28924D01*
Y33188D01*
X28670Y32934D01*
X28162D01*
X27908Y33188D01*
Y33950D01*
Y33442D02*
X27400Y32934D01*
X28924Y31411D02*
X28670Y31919D01*
X28162Y32426D01*
X27654D01*
X27400Y32173D01*
Y31665D01*
X27654Y31411D01*
X27908D01*
X28162Y31665D01*
Y32426D01*
X18550Y30075D02*
X20074D01*
Y29313D01*
X19820Y29059D01*
X19312D01*
X19058Y29313D01*
Y30075D01*
Y29567D02*
X18550Y29059D01*
X20074Y27536D02*
Y28551D01*
X19312D01*
X19566Y28044D01*
Y27790D01*
X19312Y27536D01*
X18804D01*
X18550Y27790D01*
Y28298D01*
X18804Y28551D01*
X8450Y22625D02*
Y24149D01*
X9212D01*
X9466Y23895D01*
Y23387D01*
X9212Y23133D01*
X8450D01*
X8958D02*
X9466Y22625D01*
X10735D02*
Y24149D01*
X9974Y23387D01*
X10989D01*
X15875Y33025D02*
X17399D01*
Y32263D01*
X17145Y32009D01*
X16637D01*
X16383Y32263D01*
Y33025D01*
Y32517D02*
X15875Y32009D01*
X17145Y31501D02*
X17399Y31248D01*
Y30740D01*
X17145Y30486D01*
X16891D01*
X16637Y30740D01*
Y30994D01*
Y30740D01*
X16383Y30486D01*
X16129D01*
X15875Y30740D01*
Y31248D01*
X16129Y31501D01*
X8400Y26700D02*
Y28224D01*
X9162D01*
X9416Y27970D01*
Y27462D01*
X9162Y27208D01*
X8400D01*
X8908D02*
X9416Y26700D01*
X10939D02*
X9924D01*
X10939Y27716D01*
Y27970D01*
X10685Y28224D01*
X10177D01*
X9924Y27970D01*
X20500Y45600D02*
Y47124D01*
X21262D01*
X21516Y46870D01*
Y46362D01*
X21262Y46108D01*
X20500D01*
X21008D02*
X21516Y45600D01*
X22024D02*
X22531D01*
X22277D01*
Y47124D01*
X22024Y46870D01*
X38450Y50274D02*
Y48750D01*
X39466D01*
X39974D02*
X40481D01*
X40227D01*
Y50274D01*
X39974Y50020D01*
X30716Y50824D02*
X29700D01*
Y50062D01*
X30208D01*
X29700D01*
Y49300D01*
X31224Y50824D02*
Y49554D01*
X31477Y49300D01*
X31985D01*
X32239Y49554D01*
Y50824D01*
X33763Y49300D02*
X32747D01*
X33763Y50316D01*
Y50570D01*
X33509Y50824D01*
X33001D01*
X32747Y50570D01*
X19924Y8409D02*
Y9425D01*
X19162D01*
Y8917D01*
Y9425D01*
X18400D01*
X19924Y7901D02*
X18654D01*
X18400Y7648D01*
Y7140D01*
X18654Y6886D01*
X19924D01*
X18400Y6378D02*
Y5870D01*
Y6124D01*
X19924D01*
X19670Y6378D01*
X44825Y46274D02*
Y44750D01*
X45587D01*
X45841Y45004D01*
Y46020D01*
X45587Y46274D01*
X44825D01*
X46349D02*
Y44750D01*
X47110D01*
X47364Y45004D01*
Y46020D01*
X47110Y46274D01*
X46349D01*
X48634Y44750D02*
Y46274D01*
X47872Y45512D01*
X48888D01*
X9375Y12774D02*
Y11250D01*
X10137D01*
X10391Y11504D01*
Y12520D01*
X10137Y12774D01*
X9375D01*
X10899D02*
Y11250D01*
X11660D01*
X11914Y11504D01*
Y12520D01*
X11660Y12774D01*
X10899D01*
X12422Y12520D02*
X12676Y12774D01*
X13184D01*
X13438Y12520D01*
Y12266D01*
X13184Y12012D01*
X12930D01*
X13184D01*
X13438Y11758D01*
Y11504D01*
X13184Y11250D01*
X12676D01*
X12422Y11504D01*
X32650Y43674D02*
Y42150D01*
X33412D01*
X33666Y42404D01*
Y43420D01*
X33412Y43674D01*
X32650D01*
X34174D02*
Y42150D01*
X34935D01*
X35189Y42404D01*
Y43420D01*
X34935Y43674D01*
X34174D01*
X36713Y42150D02*
X35697D01*
X36713Y43166D01*
Y43420D01*
X36459Y43674D01*
X35951D01*
X35697Y43420D01*
X11325Y29374D02*
Y27850D01*
X12087D01*
X12341Y28104D01*
Y29120D01*
X12087Y29374D01*
X11325D01*
X12849D02*
Y27850D01*
X13610D01*
X13864Y28104D01*
Y29120D01*
X13610Y29374D01*
X12849D01*
X14372Y27850D02*
X14880D01*
X14626D01*
Y29374D01*
X14372Y29120D01*
X47291Y40470D02*
X47037Y40724D01*
X46529D01*
X46275Y40470D01*
Y39454D01*
X46529Y39200D01*
X47037D01*
X47291Y39454D01*
X47799Y39200D02*
X48306D01*
X48052D01*
Y40724D01*
X47799Y40470D01*
X49068Y39454D02*
X49322Y39200D01*
X49830D01*
X50084Y39454D01*
Y40470D01*
X49830Y40724D01*
X49322D01*
X49068Y40470D01*
Y40216D01*
X49322Y39962D01*
X50084D01*
X9291Y16620D02*
X9037Y16874D01*
X8529D01*
X8275Y16620D01*
Y15604D01*
X8529Y15350D01*
X9037D01*
X9291Y15604D01*
X9799Y15350D02*
X10306D01*
X10052D01*
Y16874D01*
X9799Y16620D01*
X11068Y16874D02*
X12084D01*
Y16620D01*
X11068Y15604D01*
Y15350D01*
X14441Y10970D02*
X14187Y11224D01*
X13679D01*
X13425Y10970D01*
Y9954D01*
X13679Y9700D01*
X14187D01*
X14441Y9954D01*
X14948Y9700D02*
X15456D01*
X15202D01*
Y11224D01*
X14948Y10970D01*
X17234Y11224D02*
X16726Y10970D01*
X16218Y10462D01*
Y9954D01*
X16472Y9700D01*
X16980D01*
X17234Y9954D01*
Y10208D01*
X16980Y10462D01*
X16218D01*
X46145Y32309D02*
X46399Y32563D01*
Y33071D01*
X46145Y33325D01*
X45129D01*
X44875Y33071D01*
Y32563D01*
X45129Y32309D01*
X44875Y31801D02*
Y31294D01*
Y31548D01*
X46399D01*
X46145Y31801D01*
X46399Y29516D02*
Y30532D01*
X45637D01*
X45891Y30024D01*
Y29770D01*
X45637Y29516D01*
X45129D01*
X44875Y29770D01*
Y30278D01*
X45129Y30532D01*
X43920Y32359D02*
X44174Y32613D01*
Y33121D01*
X43920Y33375D01*
X42904D01*
X42650Y33121D01*
Y32613D01*
X42904Y32359D01*
X42650Y31851D02*
Y31344D01*
Y31598D01*
X44174D01*
X43920Y31851D01*
X42650Y29820D02*
X44174D01*
X43412Y30582D01*
Y29566D01*
X11541Y14570D02*
X11287Y14824D01*
X10779D01*
X10525Y14570D01*
Y13554D01*
X10779Y13300D01*
X11287D01*
X11541Y13554D01*
X12049Y13300D02*
X12556D01*
X12302D01*
Y14824D01*
X12049Y14570D01*
X13318D02*
X13572Y14824D01*
X14080D01*
X14334Y14570D01*
Y14316D01*
X14080Y14062D01*
X13826D01*
X14080D01*
X14334Y13808D01*
Y13554D01*
X14080Y13300D01*
X13572D01*
X13318Y13554D01*
X11416Y7045D02*
X11162Y7299D01*
X10654D01*
X10400Y7045D01*
Y6029D01*
X10654Y5775D01*
X11162D01*
X11416Y6029D01*
X11924Y5775D02*
X12431D01*
X12177D01*
Y7299D01*
X11924Y7045D01*
X14209Y5775D02*
X13193D01*
X14209Y6791D01*
Y7045D01*
X13955Y7299D01*
X13447D01*
X13193Y7045D01*
X29591Y26820D02*
X29337Y27074D01*
X28829D01*
X28575Y26820D01*
Y25804D01*
X28829Y25550D01*
X29337D01*
X29591Y25804D01*
X30099Y25550D02*
X30606D01*
X30352D01*
Y27074D01*
X30099Y26820D01*
X31368Y25550D02*
X31876D01*
X31622D01*
Y27074D01*
X31368Y26820D01*
X39716Y41595D02*
X39462Y41849D01*
X38954D01*
X38700Y41595D01*
Y40579D01*
X38954Y40325D01*
X39462D01*
X39716Y40579D01*
X40224Y40325D02*
X40731D01*
X40477D01*
Y41849D01*
X40224Y41595D01*
X41493D02*
X41747Y41849D01*
X42255D01*
X42509Y41595D01*
Y40579D01*
X42255Y40325D01*
X41747D01*
X41493Y40579D01*
Y41595D01*
X25591Y20795D02*
X25337Y21049D01*
X24829D01*
X24575Y20795D01*
Y19779D01*
X24829Y19525D01*
X25337D01*
X25591Y19779D01*
X26099D02*
X26352Y19525D01*
X26860D01*
X27114Y19779D01*
Y20795D01*
X26860Y21049D01*
X26352D01*
X26099Y20795D01*
Y20541D01*
X26352Y20287D01*
X27114D01*
X15891Y14595D02*
X15637Y14849D01*
X15129D01*
X14875Y14595D01*
Y13579D01*
X15129Y13325D01*
X15637D01*
X15891Y13579D01*
X16399Y14595D02*
X16652Y14849D01*
X17160D01*
X17414Y14595D01*
Y14341D01*
X17160Y14087D01*
X17414Y13833D01*
Y13579D01*
X17160Y13325D01*
X16652D01*
X16399Y13579D01*
Y13833D01*
X16652Y14087D01*
X16399Y14341D01*
Y14595D01*
X16652Y14087D02*
X17160D01*
X19741Y14620D02*
X19487Y14874D01*
X18979D01*
X18725Y14620D01*
Y13604D01*
X18979Y13350D01*
X19487D01*
X19741Y13604D01*
X20249Y14874D02*
X21264D01*
Y14620D01*
X20249Y13604D01*
Y13350D01*
X37745Y35134D02*
X37999Y35388D01*
Y35896D01*
X37745Y36150D01*
X36729D01*
X36475Y35896D01*
Y35388D01*
X36729Y35134D01*
X37999Y33611D02*
X37745Y34119D01*
X37237Y34626D01*
X36729D01*
X36475Y34373D01*
Y33865D01*
X36729Y33611D01*
X36983D01*
X37237Y33865D01*
Y34626D01*
X30745Y36109D02*
X30999Y36363D01*
Y36871D01*
X30745Y37125D01*
X29729D01*
X29475Y36871D01*
Y36363D01*
X29729Y36109D01*
X30999Y34586D02*
Y35601D01*
X30237D01*
X30491Y35094D01*
Y34840D01*
X30237Y34586D01*
X29729D01*
X29475Y34840D01*
Y35348D01*
X29729Y35601D01*
X23845Y34034D02*
X24099Y34288D01*
Y34796D01*
X23845Y35050D01*
X22829D01*
X22575Y34796D01*
Y34288D01*
X22829Y34034D01*
X22575Y32765D02*
X24099D01*
X23337Y33526D01*
Y32511D01*
X22070Y20309D02*
X22324Y20563D01*
Y21071D01*
X22070Y21325D01*
X21054D01*
X20800Y21071D01*
Y20563D01*
X21054Y20309D01*
X22070Y19801D02*
X22324Y19548D01*
Y19040D01*
X22070Y18786D01*
X21816D01*
X21562Y19040D01*
Y19294D01*
Y19040D01*
X21308Y18786D01*
X21054D01*
X20800Y19040D01*
Y19548D01*
X21054Y19801D01*
X7645Y28734D02*
X7899Y28988D01*
Y29496D01*
X7645Y29750D01*
X6629D01*
X6375Y29496D01*
Y28988D01*
X6629Y28734D01*
X6375Y27211D02*
Y28226D01*
X7391Y27211D01*
X7645D01*
X7899Y27465D01*
Y27973D01*
X7645Y28226D01*
X7670Y22659D02*
X7924Y22913D01*
Y23421D01*
X7670Y23675D01*
X6654D01*
X6400Y23421D01*
Y22913D01*
X6654Y22659D01*
X6400Y22151D02*
Y21644D01*
Y21898D01*
X7924D01*
X7670Y22151D01*
X12316Y9070D02*
X12062Y9324D01*
X11554D01*
X11300Y9070D01*
Y8054D01*
X11554Y7800D01*
X12062D01*
X12316Y8054D01*
X12824Y7800D02*
X13331D01*
X13077D01*
Y9324D01*
X12824Y9070D01*
X14093D02*
X14347Y9324D01*
X14855D01*
X15109Y9070D01*
Y8816D01*
X14855Y8562D01*
X15109Y8308D01*
Y8054D01*
X14855Y7800D01*
X14347D01*
X14093Y8054D01*
Y8308D01*
X14347Y8562D01*
X14093Y8816D01*
Y9070D01*
X14347Y8562D02*
X14855D01*
D47*
X39975Y44300D02*
D03*
X29450Y46900D02*
D03*
X24850Y40600D02*
D03*
M02*
