G04 Layer_Color=16711935*
%FSLAX43Y43*%
%MOMM*%
G71*
G01*
G75*
%ADD44C,0.500*%
%ADD56C,0.100*%
D44*
X41575Y38975D02*
D03*
X38625Y43000D02*
D03*
X9700Y43200D02*
D03*
X28100Y45600D02*
D03*
X23800Y48050D02*
D03*
X23500Y39300D02*
D03*
X21150Y43200D02*
D03*
X47475Y41650D02*
D03*
X23325Y7525D02*
D03*
X24025Y22200D02*
D03*
D56*
X47550Y35925D02*
Y37924D01*
X48750Y35925D02*
Y37924D01*
X47550Y35925D02*
X48750D01*
X47550Y37924D02*
X48750D01*
X47525Y31825D02*
Y33824D01*
X48725Y31825D02*
Y33824D01*
X47525Y31825D02*
X48725D01*
X47525Y33824D02*
X48725D01*
X44825Y38100D02*
X46375D01*
X44825Y34900D02*
X46375D01*
Y38100D01*
X44825Y34900D02*
Y38100D01*
X42875Y36525D02*
Y38125D01*
X43675Y36525D02*
Y38125D01*
X42875Y36525D02*
X43675D01*
X42875Y38125D02*
X43675D01*
X38476Y46950D02*
X40475D01*
X38476Y48150D02*
X40475D01*
Y46950D02*
Y48150D01*
X38476Y46950D02*
Y48150D01*
X38955Y39395D02*
X41995D01*
X38955Y36755D02*
Y39395D01*
Y36755D02*
X41995D01*
Y39395D01*
X37925Y40400D02*
X38225D01*
X37925Y41000D02*
X38225D01*
X37925Y40400D02*
Y41000D01*
X38225Y40400D02*
Y41000D01*
X38025Y42500D02*
X43425D01*
X38025D02*
Y46100D01*
X43425D01*
Y42500D02*
Y46100D01*
X7700Y42800D02*
X17100D01*
X7700Y57200D02*
X17100D01*
X7700Y42800D02*
Y57200D01*
X17100Y42800D02*
Y57200D01*
X27630Y54170D02*
X32710D01*
X27630Y51630D02*
X32710D01*
Y54170D01*
X27630Y51630D02*
Y54170D01*
X27900Y49350D02*
Y49850D01*
X28900Y49350D02*
Y49850D01*
X27900D02*
X28900D01*
X27900Y49350D02*
X28900D01*
X27500Y45100D02*
X32900D01*
X27500D02*
Y48700D01*
X32900D01*
Y45100D02*
Y48700D01*
X21850Y48900D02*
X22350D01*
X21850Y47900D02*
X22350D01*
Y48900D01*
X21850Y47900D02*
Y48900D01*
X23380Y45430D02*
Y48470D01*
Y45430D02*
X26020D01*
Y48470D01*
X23380D02*
X26020D01*
X32301Y35750D02*
X34300D01*
X32301Y36950D02*
X34300D01*
Y35750D02*
Y36950D01*
X32301Y35750D02*
Y36950D01*
X35500Y36300D02*
X36000D01*
X35500Y35300D02*
X36000D01*
Y36300D01*
X35500Y35300D02*
Y36300D01*
X30700Y38400D02*
X31000D01*
X30700Y37800D02*
X31000D01*
Y38400D01*
X30700Y37800D02*
Y38400D01*
X27600Y35075D02*
Y37074D01*
X28800Y35075D02*
Y37074D01*
X27600Y35075D02*
X28800D01*
X27600Y37074D02*
X28800D01*
X22900Y36000D02*
Y37600D01*
X23700Y36000D02*
Y37600D01*
X22900Y36000D02*
X23700D01*
X22900Y37600D02*
X23700D01*
X22900Y38800D02*
X28300D01*
X22900D02*
Y42400D01*
X28300D01*
Y38800D02*
Y42400D01*
X22000Y44650D02*
Y45150D01*
X21000Y44650D02*
Y45150D01*
Y44650D02*
X22000D01*
X21000Y45150D02*
X22000D01*
X18530Y43620D02*
X21570D01*
X18530Y40980D02*
Y43620D01*
Y40980D02*
X21570D01*
Y43620D01*
X17650Y42900D02*
X17950D01*
X17650Y43500D02*
X17950D01*
X17650Y42900D02*
Y43500D01*
X17950Y42900D02*
Y43500D01*
X44875Y41250D02*
X47875D01*
X44875D02*
Y44250D01*
X47875D01*
Y41250D02*
Y44250D01*
X18675Y4875D02*
Y5375D01*
X19675Y4875D02*
Y5375D01*
X18675D02*
X19675D01*
X18675Y4875D02*
X19675D01*
X22100Y4175D02*
Y6075D01*
X24800Y4175D02*
Y6075D01*
X20800D02*
X24800D01*
X20800Y6075D02*
X20800Y6075D01*
X20800Y4175D02*
Y6075D01*
Y4175D02*
X20800Y4175D01*
X24800D01*
X23745Y7105D02*
Y10145D01*
X21105D02*
X23745D01*
X21105Y7105D02*
Y10145D01*
Y7105D02*
X23745D01*
X25050Y7425D02*
Y7925D01*
X26050Y7425D02*
Y7925D01*
X25050D02*
X26050D01*
X25050Y7425D02*
X26050D01*
X19695Y1005D02*
Y3545D01*
X4455Y1005D02*
Y3545D01*
X19695D01*
X4455Y1005D02*
X19695D01*
X10500Y24600D02*
Y25100D01*
X9500Y24600D02*
Y25100D01*
Y24600D02*
X10500D01*
X9500Y25100D02*
X10500D01*
Y25750D02*
Y26250D01*
X9500Y25750D02*
Y26250D01*
Y25750D02*
X10500D01*
X9500Y26250D02*
X10500D01*
X7475Y26000D02*
X7775D01*
X7475Y26600D02*
X7775D01*
X7475Y26000D02*
Y26600D01*
X7775Y26000D02*
Y26600D01*
X7475Y24850D02*
X7775D01*
X7475Y24250D02*
X7775D01*
Y24850D01*
X7475Y24250D02*
Y24850D01*
X16475Y28000D02*
X16975D01*
X16475Y29000D02*
X16975D01*
X16475Y28000D02*
Y29000D01*
X16975Y28000D02*
Y29000D01*
X17575Y28000D02*
X18075D01*
X17575Y29000D02*
X18075D01*
X17575Y28000D02*
Y29000D01*
X18075Y28000D02*
Y29000D01*
X17850Y15550D02*
X18350D01*
X17850Y16550D02*
X18350D01*
X17850Y15550D02*
Y16550D01*
X18350Y15550D02*
Y16550D01*
X17950Y17525D02*
X18250D01*
X17950Y18125D02*
X18250D01*
X17950Y17525D02*
Y18125D01*
X18250Y17525D02*
Y18125D01*
X16000Y15300D02*
Y15800D01*
X17000Y15300D02*
Y15800D01*
X16000D02*
X17000D01*
X16000Y15300D02*
X17000D01*
X20200D02*
Y15800D01*
X19200Y15300D02*
Y15800D01*
Y15300D02*
X20200D01*
X19200Y15800D02*
X20200D01*
X20000Y21800D02*
Y22300D01*
X21000Y21800D02*
Y22300D01*
X20000D02*
X21000D01*
X20000Y21800D02*
X21000D01*
X23875Y20575D02*
X24175D01*
X23875Y19975D02*
X24175D01*
Y20575D01*
X23875Y19975D02*
Y20575D01*
X23525Y24887D02*
X28525D01*
Y21713D02*
Y24887D01*
X23525Y21713D02*
X28525D01*
X23525D02*
Y24887D01*
X27875Y25775D02*
X28175D01*
X27875Y26375D02*
X28175D01*
X27875Y25775D02*
Y26375D01*
X28175Y25775D02*
Y26375D01*
X19700Y26525D02*
X20200D01*
X19700Y25525D02*
X20200D01*
Y26525D01*
X19700Y25525D02*
Y26525D01*
X9750Y13425D02*
Y13925D01*
X8750Y13425D02*
Y13925D01*
Y13425D02*
X9750D01*
X8750Y13925D02*
X9750D01*
X7375Y13625D02*
X7875D01*
X7375Y14625D02*
X7875D01*
X7375Y13625D02*
Y14625D01*
X7875Y13625D02*
Y14625D01*
X12675Y10225D02*
Y10725D01*
X11675Y10225D02*
Y10725D01*
Y10225D02*
X12675D01*
X11675Y10725D02*
X12675D01*
X10350Y10250D02*
X10850D01*
X10350Y9250D02*
X10850D01*
Y10250D01*
X10350Y9250D02*
Y10250D01*
X9425Y7075D02*
X9925D01*
X9425Y8075D02*
X9925D01*
X9425Y7075D02*
Y8075D01*
X9925Y7075D02*
Y8075D01*
X45075Y40350D02*
Y40650D01*
X45675Y40350D02*
Y40650D01*
X45075D02*
X45675D01*
X45075Y40350D02*
X45675D01*
M02*
