G04 Layer_Color=16711935*
%FSLAX43Y43*%
%MOMM*%
G71*
G01*
G75*
%ADD47C,0.500*%
%ADD49C,0.100*%
%ADD82C,0.100*%
D47*
X7775Y41225D02*
D03*
X29725Y29150D02*
D03*
X9550Y34575D02*
D03*
X16475Y32950D02*
D03*
X23200Y43525D02*
D03*
X13825Y34800D02*
D03*
X20500Y41100D02*
D03*
X39800Y22875D02*
D03*
X12000Y24875D02*
D03*
D49*
X44130Y19595D02*
X46670D01*
X44130Y4355D02*
X46670D01*
X44130D02*
Y19595D01*
X46670Y4355D02*
Y19595D01*
X41575Y8325D02*
X42075D01*
X41575Y9325D02*
X42075D01*
X41575Y8325D02*
Y9325D01*
X42075Y8325D02*
Y9325D01*
X5775Y40825D02*
X15175D01*
X5775Y55225D02*
X15175D01*
X5775Y40825D02*
Y55225D01*
X15175Y40825D02*
Y55225D01*
X28350Y14575D02*
X29350D01*
X28350Y15075D02*
X29350D01*
Y14575D02*
Y15075D01*
X28350Y14575D02*
Y15075D01*
X13975Y12400D02*
Y13400D01*
X14475Y12400D02*
Y13400D01*
X13975Y12400D02*
X14475D01*
X13975Y13400D02*
X14475D01*
X19150Y19675D02*
X20150D01*
X19150Y20175D02*
X20150D01*
Y19675D02*
Y20175D01*
X19150Y19675D02*
Y20175D01*
X16075Y16175D02*
Y17175D01*
X15575Y16175D02*
Y17175D01*
X16075D01*
X15575Y16175D02*
X16075D01*
X28350Y12075D02*
X29350D01*
X28350Y12575D02*
X29350D01*
Y12075D02*
Y12575D01*
X28350Y12075D02*
Y12575D01*
X12575Y12400D02*
Y13400D01*
X13075Y12400D02*
Y13400D01*
X12575Y12400D02*
X13075D01*
X12575Y13400D02*
X13075D01*
X15600Y12575D02*
X16600D01*
X15600Y12075D02*
X16600D01*
X15600D02*
Y12575D01*
X16600Y12075D02*
Y12575D01*
X14925Y16200D02*
Y17200D01*
X14425Y16200D02*
Y17200D01*
X14925D01*
X14425Y16200D02*
X14925D01*
X22675Y20425D02*
X23675D01*
X22675Y20925D02*
X23675D01*
Y20425D02*
Y20925D01*
X22675Y20425D02*
Y20925D01*
X25350Y7400D02*
Y8400D01*
X25850Y7400D02*
Y8400D01*
X25350Y7400D02*
X25850D01*
X25350Y8400D02*
X25850D01*
X19875Y7375D02*
Y8375D01*
X20375Y7375D02*
Y8375D01*
X19875Y7375D02*
X20375D01*
X19875Y8375D02*
X20375D01*
X18675Y31100D02*
Y32700D01*
X19475Y31100D02*
Y32700D01*
X18675Y31100D02*
X19475D01*
X18675Y32700D02*
X19475D01*
X13550Y24825D02*
Y25125D01*
X14150Y24825D02*
Y25125D01*
X13550D02*
X14150D01*
X13550Y24825D02*
X14150D01*
X26050Y20425D02*
Y20925D01*
X25050Y20425D02*
Y20925D01*
Y20425D02*
X26050D01*
X25050Y20925D02*
X26050D01*
X7850Y21325D02*
X8150D01*
X7850Y20725D02*
X8150D01*
Y21325D01*
X7850Y20725D02*
Y21325D01*
X24800Y32375D02*
X25100D01*
X24800Y32975D02*
X25100D01*
X24800Y32375D02*
Y32975D01*
X25100Y32375D02*
Y32975D01*
X24750Y30900D02*
X25050D01*
X24750Y30300D02*
X25050D01*
Y30900D01*
X24750Y30300D02*
Y30900D01*
X25550Y30900D02*
X25850D01*
X25550Y30300D02*
X25850D01*
Y30900D01*
X25550Y30300D02*
Y30900D01*
X29600Y25450D02*
Y25750D01*
X29000Y25450D02*
Y25750D01*
Y25450D02*
X29600D01*
X29000Y25750D02*
X29600D01*
X30125Y26550D02*
Y29550D01*
X27125Y26550D02*
X30125D01*
X27125D02*
Y29550D01*
X30125D01*
X12450Y16475D02*
Y18475D01*
X11200Y16475D02*
X12450D01*
X11200D02*
Y18475D01*
X12450D01*
X10225Y11225D02*
Y13225D01*
X11475D01*
Y11225D02*
Y13225D01*
X10225Y11225D02*
X11475D01*
X43025Y18100D02*
Y18600D01*
X42025Y18100D02*
Y18600D01*
Y18100D02*
X43025D01*
X42025Y18600D02*
X43025D01*
X24800Y43375D02*
X25300D01*
X24800Y44375D02*
X25300D01*
X24800Y43375D02*
Y44375D01*
X25300Y43375D02*
Y44375D01*
X28725Y32250D02*
Y34249D01*
X29925Y32250D02*
Y34249D01*
X28725Y32250D02*
X29925D01*
X28725Y34249D02*
X29925D01*
X13450Y37500D02*
X13950D01*
X13450Y36500D02*
X13950D01*
Y37500D01*
X13450Y36500D02*
Y37500D01*
X16400Y11225D02*
X16900D01*
X16400Y10225D02*
X16900D01*
Y11225D01*
X16400Y10225D02*
Y11225D01*
X7801Y15575D02*
X9800D01*
X7801Y16775D02*
X9800D01*
Y15575D02*
Y16775D01*
X7801Y15575D02*
Y16775D01*
X21550Y29800D02*
Y30300D01*
X20550Y29800D02*
Y30300D01*
Y29800D02*
X21550D01*
X20550Y30300D02*
X21550D01*
X28375Y15625D02*
Y16125D01*
X29375Y15625D02*
Y16125D01*
X28375D02*
X29375D01*
X28375Y15625D02*
X29375D01*
X28375Y16675D02*
Y17175D01*
X29375Y16675D02*
Y17175D01*
X28375D02*
X29375D01*
X28375Y16675D02*
X29375D01*
X39650Y24300D02*
Y24800D01*
X40650Y24300D02*
Y24800D01*
X39650D02*
X40650D01*
X39650Y24300D02*
X40650D01*
X18550Y41975D02*
X19050D01*
X18550Y40975D02*
X19050D01*
Y41975D01*
X18550Y40975D02*
Y41975D01*
X9150Y35025D02*
X10350D01*
X9150Y32725D02*
Y35025D01*
Y32725D02*
X10350D01*
Y35025D01*
X16875Y32501D02*
Y36199D01*
X15275Y32501D02*
X16875D01*
X15275D02*
Y36199D01*
X16875D01*
X25850Y34475D02*
X27750D01*
X25850Y37175D02*
X27750D01*
X25850Y33175D02*
Y37175D01*
Y33175D02*
X27750D01*
Y37175D01*
X30925Y15725D02*
Y16025D01*
X30325Y15725D02*
Y16025D01*
Y15725D02*
X30925D01*
X30325Y16025D02*
X30925D01*
Y16775D02*
Y17075D01*
X30325Y16775D02*
Y17075D01*
Y16775D02*
X30925D01*
X30325Y17075D02*
X30925D01*
X41075Y20750D02*
X42975D01*
X41075Y23450D02*
X42975D01*
X41075Y19450D02*
Y23450D01*
Y19450D02*
X42975D01*
Y23450D01*
X19951Y43925D02*
X23649D01*
Y42325D02*
Y43925D01*
X19951Y42325D02*
X23649D01*
X19951D02*
Y43925D01*
X11205Y35220D02*
X14245D01*
X11205Y32580D02*
Y35220D01*
Y32580D02*
X14245D01*
Y35220D01*
X20080Y38480D02*
Y41520D01*
Y38480D02*
X22720D01*
Y41520D01*
X20080D02*
X22720D01*
X37180Y23295D02*
X40220D01*
X37180Y20655D02*
Y23295D01*
Y20655D02*
X40220D01*
Y23295D01*
X21215Y46230D02*
X26295D01*
X21215Y48770D02*
X26295D01*
X21215Y46230D02*
Y48770D01*
X26295Y46230D02*
Y48770D01*
X7500Y22188D02*
X12500D01*
X7500D02*
Y25363D01*
X12500D01*
Y22188D02*
Y25363D01*
X32850Y9625D02*
X33350D01*
X32850Y8625D02*
X33350D01*
Y9625D01*
X32850Y8625D02*
Y9625D01*
X32900Y13425D02*
X33400D01*
X32900Y14425D02*
X33400D01*
X32900Y13425D02*
Y14425D01*
X33400Y13425D02*
Y14425D01*
D82*
X25850Y33175D02*
D03*
X27750D02*
D03*
X41075Y19450D02*
D03*
X42975D02*
D03*
M02*
