G04 Layer_Color=16711935*
%FSLAX43Y43*%
%MOMM*%
G71*
G01*
G75*
%ADD73C,0.203*%
%ADD74R,2.703X1.203*%
%ADD75C,2.003*%
%ADD76P,2.168X8X292.5*%
%ADD77O,5.203X2.203*%
%ADD78O,2.203X5.203*%
%ADD79P,2.168X8X202.5*%
%ADD80C,0.903*%
%ADD81C,0.703*%
D73*
X45000Y2500D02*
D03*
Y47500D02*
D03*
X2500D02*
D03*
Y2500D02*
D03*
D74*
X2325Y20600D02*
D03*
X2250Y8650D02*
D03*
D75*
X45400Y5625D02*
D03*
Y10705D02*
D03*
Y13245D02*
D03*
Y15785D02*
D03*
Y8165D02*
D03*
X22485Y47500D02*
D03*
D76*
X45400Y18325D02*
D03*
D77*
X10775Y41525D02*
D03*
Y47525D02*
D03*
D78*
X5875Y44475D02*
D03*
D79*
X25025Y47500D02*
D03*
D80*
X25325Y19650D02*
D03*
X37775Y24625D02*
D03*
X33150Y15525D02*
D03*
X33125Y12150D02*
D03*
X27950Y17900D02*
D03*
X33100Y10875D02*
D03*
X21450Y19825D02*
D03*
X41800Y14675D02*
D03*
X30125Y30850D02*
D03*
X29600Y24775D02*
D03*
X16650Y9125D02*
D03*
X10850Y9875D02*
D03*
X10225Y18525D02*
D03*
D81*
X20700Y15800D02*
D03*
X21800D02*
D03*
X22900D02*
D03*
X24000D02*
D03*
X20700Y14700D02*
D03*
X21800D02*
D03*
X22900D02*
D03*
X24000D02*
D03*
X20700Y13600D02*
D03*
X21800D02*
D03*
X22900D02*
D03*
X24000D02*
D03*
X20700Y12500D02*
D03*
X21800D02*
D03*
X22900D02*
D03*
X24000D02*
D03*
M02*
