G04 Layer_Physical_Order=2*
G04 Layer_Color=16711680*
%FSLAX43Y43*%
%MOMM*%
G71*
G01*
G75*
%ADD36C,0.500*%
%ADD40R,2.500X1.000*%
%ADD41C,1.800*%
%ADD42P,1.948X8X292.5*%
%ADD43O,5.000X2.000*%
%ADD44O,2.000X5.000*%
%ADD45P,1.948X8X202.5*%
%ADD46C,0.700*%
%ADD47C,0.500*%
G36*
X45417Y49603D02*
X45818Y49481D01*
X46187Y49284D01*
X46511Y49018D01*
X46777Y48694D01*
X46974Y48325D01*
X47096Y47924D01*
X47136Y47512D01*
X47132Y47508D01*
X47132D01*
X47160Y47369D01*
X47164Y47363D01*
Y2625D01*
X47139Y2499D01*
X47139D01*
X47143Y2495D01*
X47103Y2083D01*
X46981Y1682D01*
X46784Y1313D01*
X46518Y989D01*
X46194Y723D01*
X45825Y526D01*
X45424Y404D01*
X45012Y364D01*
X45008Y368D01*
Y368D01*
X44974Y361D01*
X2623D01*
X2500Y361D01*
X2499Y361D01*
X2375Y369D01*
X2083Y397D01*
X1682Y519D01*
X1313Y716D01*
X989Y982D01*
X723Y1306D01*
X526Y1675D01*
X404Y2076D01*
X364Y2488D01*
X368Y2492D01*
X368D01*
X361Y2526D01*
Y47377D01*
X361Y47500D01*
X361Y47501D01*
X369Y47625D01*
X397Y47917D01*
X519Y48318D01*
X716Y48687D01*
X982Y49011D01*
X1306Y49277D01*
X1675Y49474D01*
X2076Y49596D01*
X2488Y49636D01*
X2492Y49632D01*
Y49632D01*
X2526Y49639D01*
X45048D01*
X45417Y49603D01*
D02*
G37*
%LPC*%
G36*
X45400Y14409D02*
X45099Y14369D01*
X44818Y14253D01*
X44577Y14068D01*
X44392Y13827D01*
X44276Y13546D01*
X44236Y13245D01*
X44276Y12944D01*
X44392Y12663D01*
X44577Y12422D01*
X44818Y12237D01*
X45099Y12121D01*
X45400Y12081D01*
X45701Y12121D01*
X45982Y12237D01*
X46223Y12422D01*
X46408Y12663D01*
X46524Y12944D01*
X46564Y13245D01*
X46524Y13546D01*
X46408Y13827D01*
X46223Y14068D01*
X45982Y14253D01*
X45701Y14369D01*
X45400Y14409D01*
D02*
G37*
G36*
Y16949D02*
X45099Y16909D01*
X44818Y16793D01*
X44577Y16608D01*
X44392Y16367D01*
X44276Y16086D01*
X44236Y15785D01*
X44276Y15484D01*
X44392Y15203D01*
X44577Y14962D01*
X44818Y14777D01*
X45099Y14661D01*
X45400Y14621D01*
X45701Y14661D01*
X45982Y14777D01*
X46223Y14962D01*
X46408Y15203D01*
X46524Y15484D01*
X46564Y15785D01*
X46524Y16086D01*
X46408Y16367D01*
X46223Y16608D01*
X45982Y16793D01*
X45701Y16909D01*
X45400Y16949D01*
D02*
G37*
G36*
Y11869D02*
X45099Y11829D01*
X44818Y11713D01*
X44577Y11528D01*
X44392Y11287D01*
X44276Y11006D01*
X44236Y10705D01*
X44276Y10404D01*
X44392Y10123D01*
X44577Y9882D01*
X44818Y9697D01*
X45099Y9581D01*
X45400Y9541D01*
X45701Y9581D01*
X45982Y9697D01*
X46223Y9882D01*
X46408Y10123D01*
X46524Y10404D01*
X46564Y10705D01*
X46524Y11006D01*
X46408Y11287D01*
X46223Y11528D01*
X45982Y11713D01*
X45701Y11829D01*
X45400Y11869D01*
D02*
G37*
G36*
X21450Y20441D02*
X21214Y20394D01*
X21015Y20260D01*
X20881Y20061D01*
X20834Y19825D01*
X20881Y19589D01*
X21015Y19390D01*
X21214Y19256D01*
X21312Y19237D01*
X23137Y17412D01*
X23303Y17300D01*
X23500Y17261D01*
X26000D01*
X26197Y17300D01*
X26363Y17412D01*
X27212Y18261D01*
X27332Y18251D01*
X27387Y18144D01*
X27381Y18136D01*
X27334Y17900D01*
X27381Y17664D01*
X27436Y17582D01*
Y16025D01*
X27475Y15828D01*
X27587Y15662D01*
X32512Y10737D01*
X32531Y10639D01*
X32665Y10440D01*
X32864Y10306D01*
X33100Y10259D01*
X33336Y10306D01*
X33535Y10440D01*
X33669Y10639D01*
X33716Y10875D01*
X33669Y11111D01*
X33535Y11310D01*
X33336Y11444D01*
X33329Y11445D01*
Y11575D01*
X33361Y11581D01*
X33560Y11715D01*
X33694Y11914D01*
X33741Y12150D01*
X33694Y12386D01*
X33560Y12585D01*
X33361Y12719D01*
X33263Y12738D01*
X29318Y16684D01*
Y18321D01*
X29279Y18518D01*
X29167Y18684D01*
X28713Y19138D01*
X28547Y19250D01*
X28350Y19289D01*
X27000D01*
X26803Y19250D01*
X26637Y19138D01*
X25787Y18289D01*
X23713D01*
X22038Y19963D01*
X22019Y20061D01*
X21885Y20260D01*
X21686Y20394D01*
X21450Y20441D01*
D02*
G37*
G36*
X29600Y25391D02*
X29364Y25344D01*
X29282Y25289D01*
X16475D01*
X16278Y25250D01*
X16112Y25138D01*
X10087Y19113D01*
X9989Y19094D01*
X9790Y18960D01*
X9656Y18761D01*
X9609Y18525D01*
X9656Y18289D01*
X9711Y18207D01*
Y10500D01*
X9750Y10303D01*
X9862Y10137D01*
X10262Y9737D01*
X10281Y9639D01*
X10415Y9440D01*
X10614Y9306D01*
X10850Y9259D01*
X11086Y9306D01*
X11285Y9440D01*
X11419Y9639D01*
X11466Y9875D01*
X11419Y10111D01*
X11285Y10310D01*
X11086Y10444D01*
X10988Y10463D01*
X10739Y10713D01*
Y18207D01*
X10794Y18289D01*
X10813Y18387D01*
X16688Y24261D01*
X29077D01*
X29082Y24134D01*
X25187Y20238D01*
X25089Y20219D01*
X24890Y20085D01*
X24756Y19886D01*
X24709Y19650D01*
X24756Y19414D01*
X24890Y19215D01*
X25089Y19081D01*
X25325Y19034D01*
X25561Y19081D01*
X25760Y19215D01*
X25894Y19414D01*
X25913Y19512D01*
X29963Y23562D01*
X30075Y23728D01*
X30114Y23925D01*
Y24457D01*
X30169Y24539D01*
X30216Y24775D01*
X30169Y25011D01*
X30035Y25210D01*
X29836Y25344D01*
X29600Y25391D01*
D02*
G37*
G36*
X3575Y21359D02*
X1075D01*
X976Y21339D01*
X892Y21283D01*
X836Y21199D01*
X816Y21100D01*
Y20100D01*
X836Y20001D01*
X892Y19917D01*
X976Y19861D01*
X1075Y19841D01*
X3575D01*
X3674Y19861D01*
X3758Y19917D01*
X3814Y20001D01*
X3834Y20100D01*
Y21100D01*
X3814Y21199D01*
X3758Y21283D01*
X3674Y21339D01*
X3575Y21359D01*
D02*
G37*
G36*
X24000Y16314D02*
X23803Y16275D01*
X23637Y16163D01*
X23525Y15997D01*
X23515Y15944D01*
X23385D01*
X23375Y15997D01*
X23263Y16163D01*
X23097Y16275D01*
X22900Y16314D01*
X22703Y16275D01*
X22537Y16163D01*
X22425Y15997D01*
X22415Y15944D01*
X22285D01*
X22275Y15997D01*
X22163Y16163D01*
X21997Y16275D01*
X21800Y16314D01*
X21603Y16275D01*
X21437Y16163D01*
X21325Y15997D01*
X21315Y15944D01*
X21185D01*
X21175Y15997D01*
X21063Y16163D01*
X20897Y16275D01*
X20700Y16314D01*
X20503Y16275D01*
X20337Y16163D01*
X20225Y15997D01*
X20186Y15800D01*
X20225Y15603D01*
X20337Y15437D01*
X20503Y15325D01*
X20556Y15315D01*
Y15185D01*
X20503Y15175D01*
X20337Y15063D01*
X20225Y14897D01*
X20186Y14700D01*
X20225Y14503D01*
X20337Y14337D01*
X20503Y14225D01*
X20556Y14215D01*
Y14085D01*
X20503Y14075D01*
X20337Y13963D01*
X20225Y13797D01*
X20186Y13600D01*
X20225Y13403D01*
X20337Y13237D01*
X20503Y13125D01*
X20556Y13115D01*
Y12985D01*
X20503Y12975D01*
X20337Y12863D01*
X20225Y12697D01*
X20186Y12500D01*
X20225Y12303D01*
X20337Y12137D01*
X20503Y12025D01*
X20700Y11986D01*
X20897Y12025D01*
X21063Y12137D01*
X21175Y12303D01*
X21185Y12356D01*
X21315D01*
X21325Y12303D01*
X21437Y12137D01*
X21603Y12025D01*
X21800Y11986D01*
X21997Y12025D01*
X22163Y12137D01*
X22275Y12303D01*
X22285Y12356D01*
X22415D01*
X22425Y12303D01*
X22537Y12137D01*
X22703Y12025D01*
X22900Y11986D01*
X23097Y12025D01*
X23263Y12137D01*
X23375Y12303D01*
X23385Y12356D01*
X23515D01*
X23525Y12303D01*
X23637Y12137D01*
X23803Y12025D01*
X24000Y11986D01*
X24197Y12025D01*
X24363Y12137D01*
X24475Y12303D01*
X24514Y12500D01*
X24475Y12697D01*
X24363Y12863D01*
X24197Y12975D01*
X24144Y12985D01*
Y13115D01*
X24197Y13125D01*
X24363Y13237D01*
X24475Y13403D01*
X24514Y13600D01*
X24475Y13797D01*
X24363Y13963D01*
X24197Y14075D01*
X24144Y14085D01*
Y14215D01*
X24197Y14225D01*
X24363Y14337D01*
X24475Y14503D01*
X24514Y14700D01*
X24475Y14897D01*
X24363Y15063D01*
X24197Y15175D01*
X24144Y15185D01*
Y15315D01*
X24197Y15325D01*
X24363Y15437D01*
X24475Y15603D01*
X24514Y15800D01*
X24475Y15997D01*
X24363Y16163D01*
X24197Y16275D01*
X24000Y16314D01*
D02*
G37*
G36*
X45850Y19484D02*
X44950D01*
X44851Y19464D01*
X44767Y19408D01*
X44317Y18958D01*
X44261Y18874D01*
X44241Y18775D01*
Y17875D01*
X44261Y17776D01*
X44317Y17692D01*
X44767Y17242D01*
X44851Y17186D01*
X44950Y17166D01*
X45850D01*
X45949Y17186D01*
X46033Y17242D01*
X46483Y17692D01*
X46539Y17776D01*
X46559Y17875D01*
Y18775D01*
X46539Y18874D01*
X46483Y18958D01*
X46033Y19408D01*
X45949Y19464D01*
X45850Y19484D01*
D02*
G37*
G36*
X45273Y5498D02*
X44253D01*
X44276Y5324D01*
X44392Y5043D01*
X44577Y4802D01*
X44818Y4617D01*
X45099Y4501D01*
X45273Y4478D01*
Y5498D01*
D02*
G37*
G36*
X46547D02*
X45527D01*
Y4478D01*
X45701Y4501D01*
X45982Y4617D01*
X46223Y4802D01*
X46408Y5043D01*
X46524Y5324D01*
X46547Y5498D01*
D02*
G37*
G36*
X2500Y3768D02*
X2483Y3764D01*
X2466Y3765D01*
X2205Y3731D01*
X2173Y3720D01*
X2140Y3714D01*
X1897Y3613D01*
X1868Y3594D01*
X1838Y3579D01*
X1629Y3419D01*
X1607Y3393D01*
X1581Y3371D01*
X1421Y3162D01*
X1406Y3132D01*
X1387Y3103D01*
X1286Y2860D01*
X1280Y2827D01*
X1269Y2795D01*
X1235Y2534D01*
X1237Y2500D01*
X1235Y2466D01*
X1269Y2205D01*
X1280Y2173D01*
X1286Y2140D01*
X1387Y1897D01*
X1406Y1868D01*
X1421Y1838D01*
X1581Y1629D01*
X1607Y1607D01*
X1629Y1581D01*
X1838Y1421D01*
X1868Y1406D01*
X1897Y1387D01*
X2140Y1286D01*
X2173Y1280D01*
X2205Y1269D01*
X2466Y1235D01*
X2483Y1236D01*
X2500Y1232D01*
X2517Y1236D01*
X2534Y1235D01*
X2795Y1269D01*
X2827Y1280D01*
X2860Y1286D01*
X3103Y1387D01*
X3132Y1406D01*
X3162Y1421D01*
X3371Y1581D01*
X3393Y1607D01*
X3419Y1629D01*
X3579Y1838D01*
X3594Y1868D01*
X3613Y1897D01*
X3714Y2140D01*
X3720Y2173D01*
X3731Y2205D01*
X3765Y2466D01*
X3763Y2500D01*
X3765Y2534D01*
X3731Y2795D01*
X3720Y2827D01*
X3714Y2860D01*
X3613Y3103D01*
X3594Y3132D01*
X3579Y3162D01*
X3419Y3371D01*
X3393Y3393D01*
X3371Y3419D01*
X3162Y3579D01*
X3132Y3594D01*
X3103Y3613D01*
X2860Y3714D01*
X2827Y3720D01*
X2795Y3731D01*
X2534Y3765D01*
X2517Y3764D01*
X2500Y3768D01*
D02*
G37*
G36*
X45000D02*
X44983Y3764D01*
X44966Y3765D01*
X44705Y3731D01*
X44673Y3720D01*
X44640Y3714D01*
X44397Y3613D01*
X44368Y3594D01*
X44338Y3579D01*
X44129Y3419D01*
X44107Y3393D01*
X44081Y3371D01*
X43921Y3162D01*
X43906Y3132D01*
X43887Y3103D01*
X43786Y2860D01*
X43780Y2827D01*
X43769Y2795D01*
X43735Y2534D01*
X43737Y2500D01*
X43735Y2466D01*
X43769Y2205D01*
X43780Y2173D01*
X43786Y2140D01*
X43887Y1897D01*
X43906Y1868D01*
X43921Y1838D01*
X44081Y1629D01*
X44107Y1607D01*
X44129Y1581D01*
X44338Y1421D01*
X44368Y1406D01*
X44397Y1387D01*
X44640Y1286D01*
X44673Y1280D01*
X44705Y1269D01*
X44966Y1235D01*
X44983Y1236D01*
X45000Y1232D01*
X45017Y1236D01*
X45034Y1235D01*
X45295Y1269D01*
X45327Y1280D01*
X45360Y1286D01*
X45603Y1387D01*
X45632Y1406D01*
X45662Y1421D01*
X45871Y1581D01*
X45893Y1607D01*
X45919Y1629D01*
X46079Y1838D01*
X46094Y1868D01*
X46113Y1897D01*
X46214Y2140D01*
X46220Y2173D01*
X46231Y2205D01*
X46265Y2466D01*
X46263Y2500D01*
X46265Y2534D01*
X46231Y2795D01*
X46220Y2827D01*
X46214Y2860D01*
X46113Y3103D01*
X46094Y3132D01*
X46079Y3162D01*
X45919Y3371D01*
X45893Y3393D01*
X45871Y3419D01*
X45662Y3579D01*
X45632Y3594D01*
X45603Y3613D01*
X45360Y3714D01*
X45327Y3720D01*
X45295Y3731D01*
X45034Y3765D01*
X45017Y3764D01*
X45000Y3768D01*
D02*
G37*
G36*
X45400Y9329D02*
X45099Y9289D01*
X44818Y9173D01*
X44577Y8988D01*
X44392Y8747D01*
X44276Y8466D01*
X44236Y8165D01*
X44276Y7864D01*
X44392Y7583D01*
X44577Y7342D01*
X44818Y7157D01*
X45099Y7041D01*
X45400Y7001D01*
X45701Y7041D01*
X45982Y7157D01*
X46223Y7342D01*
X46408Y7583D01*
X46524Y7864D01*
X46564Y8165D01*
X46524Y8466D01*
X46408Y8747D01*
X46223Y8988D01*
X45982Y9173D01*
X45701Y9289D01*
X45400Y9329D01*
D02*
G37*
G36*
X3500Y9409D02*
X1000D01*
X901Y9389D01*
X817Y9333D01*
X761Y9249D01*
X741Y9150D01*
Y8150D01*
X761Y8051D01*
X817Y7967D01*
X901Y7911D01*
X1000Y7891D01*
X3500D01*
X3599Y7911D01*
X3683Y7967D01*
X3739Y8051D01*
X3759Y8150D01*
Y9150D01*
X3739Y9249D01*
X3683Y9333D01*
X3599Y9389D01*
X3500Y9409D01*
D02*
G37*
G36*
X45273Y6772D02*
X45099Y6749D01*
X44818Y6633D01*
X44577Y6448D01*
X44392Y6207D01*
X44276Y5926D01*
X44253Y5752D01*
X45273D01*
Y6772D01*
D02*
G37*
G36*
X45527D02*
Y5752D01*
X46547D01*
X46524Y5926D01*
X46408Y6207D01*
X46223Y6448D01*
X45982Y6633D01*
X45701Y6749D01*
X45527Y6772D01*
D02*
G37*
G36*
X30125Y31466D02*
X29889Y31419D01*
X29690Y31285D01*
X29556Y31086D01*
X29509Y30850D01*
X29556Y30614D01*
X29690Y30415D01*
X29889Y30281D01*
X29987Y30262D01*
X32636Y27612D01*
Y24575D01*
Y15843D01*
X32581Y15761D01*
X32534Y15525D01*
X32581Y15289D01*
X32715Y15090D01*
X32914Y14956D01*
X33150Y14909D01*
X33386Y14956D01*
X33468Y15011D01*
X40737D01*
X41073Y14675D01*
X36037Y9639D01*
X16968D01*
X16886Y9694D01*
X16650Y9741D01*
X16414Y9694D01*
X16215Y9560D01*
X16081Y9361D01*
X16034Y9125D01*
X16081Y8889D01*
X16215Y8690D01*
X16414Y8556D01*
X16650Y8509D01*
X16886Y8556D01*
X16968Y8611D01*
X36250D01*
X36447Y8650D01*
X36613Y8762D01*
X41938Y14087D01*
X42036Y14106D01*
X42235Y14240D01*
X42369Y14439D01*
X42416Y14675D01*
X42369Y14911D01*
X42235Y15110D01*
X42036Y15244D01*
X41938Y15263D01*
X41313Y15888D01*
X41147Y16000D01*
X40950Y16039D01*
X33664D01*
Y24111D01*
X37457D01*
X37539Y24056D01*
X37775Y24009D01*
X38011Y24056D01*
X38210Y24190D01*
X38344Y24389D01*
X38391Y24625D01*
X38344Y24861D01*
X38210Y25060D01*
X38011Y25194D01*
X37775Y25241D01*
X37539Y25194D01*
X37457Y25139D01*
X33664D01*
Y27825D01*
X33625Y28022D01*
X33513Y28188D01*
X30713Y30988D01*
X30694Y31086D01*
X30560Y31285D01*
X30361Y31419D01*
X30125Y31466D01*
D02*
G37*
G36*
X22358Y48647D02*
X22184Y48624D01*
X21903Y48508D01*
X21662Y48323D01*
X21477Y48082D01*
X21361Y47801D01*
X21338Y47627D01*
X22358D01*
Y48647D01*
D02*
G37*
G36*
X22612Y48647D02*
Y47627D01*
X23632D01*
X23609Y47801D01*
X23493Y48082D01*
X23308Y48323D01*
X23067Y48508D01*
X22786Y48624D01*
X22612Y48647D01*
D02*
G37*
G36*
X22358Y47373D02*
X21338D01*
X21361Y47199D01*
X21477Y46918D01*
X21662Y46677D01*
X21903Y46492D01*
X22184Y46376D01*
X22358Y46353D01*
Y47373D01*
D02*
G37*
G36*
X23632D02*
X22612D01*
Y46353D01*
X22786Y46376D01*
X23067Y46492D01*
X23308Y46677D01*
X23493Y46918D01*
X23609Y47199D01*
X23632Y47373D01*
D02*
G37*
G36*
X2500Y48768D02*
X2483Y48764D01*
X2466Y48765D01*
X2205Y48731D01*
X2173Y48720D01*
X2140Y48714D01*
X1897Y48613D01*
X1868Y48594D01*
X1838Y48579D01*
X1629Y48419D01*
X1607Y48393D01*
X1581Y48371D01*
X1421Y48162D01*
X1406Y48132D01*
X1387Y48103D01*
X1286Y47860D01*
X1280Y47827D01*
X1269Y47795D01*
X1235Y47534D01*
X1237Y47500D01*
X1235Y47466D01*
X1269Y47205D01*
X1280Y47173D01*
X1286Y47140D01*
X1387Y46897D01*
X1406Y46868D01*
X1421Y46838D01*
X1581Y46629D01*
X1607Y46607D01*
X1629Y46581D01*
X1838Y46421D01*
X1868Y46406D01*
X1897Y46387D01*
X2140Y46286D01*
X2173Y46280D01*
X2205Y46269D01*
X2466Y46235D01*
X2483Y46236D01*
X2500Y46232D01*
X2517Y46236D01*
X2534Y46235D01*
X2795Y46269D01*
X2827Y46280D01*
X2860Y46286D01*
X3103Y46387D01*
X3132Y46406D01*
X3162Y46421D01*
X3371Y46581D01*
X3393Y46607D01*
X3419Y46629D01*
X3579Y46838D01*
X3594Y46868D01*
X3613Y46897D01*
X3714Y47140D01*
X3720Y47173D01*
X3731Y47205D01*
X3765Y47466D01*
X3763Y47500D01*
X3765Y47534D01*
X3731Y47795D01*
X3720Y47827D01*
X3714Y47860D01*
X3613Y48103D01*
X3594Y48132D01*
X3579Y48162D01*
X3419Y48371D01*
X3393Y48393D01*
X3371Y48419D01*
X3162Y48579D01*
X3132Y48594D01*
X3103Y48613D01*
X2860Y48714D01*
X2827Y48720D01*
X2795Y48731D01*
X2534Y48765D01*
X2517Y48764D01*
X2500Y48768D01*
D02*
G37*
G36*
X45000D02*
X44983Y48764D01*
X44966Y48765D01*
X44705Y48731D01*
X44673Y48720D01*
X44640Y48714D01*
X44397Y48613D01*
X44368Y48594D01*
X44338Y48579D01*
X44129Y48419D01*
X44107Y48393D01*
X44081Y48371D01*
X43921Y48162D01*
X43906Y48132D01*
X43887Y48103D01*
X43786Y47860D01*
X43780Y47827D01*
X43769Y47795D01*
X43735Y47534D01*
X43737Y47500D01*
X43735Y47466D01*
X43769Y47205D01*
X43780Y47173D01*
X43786Y47140D01*
X43887Y46897D01*
X43906Y46868D01*
X43921Y46838D01*
X44081Y46629D01*
X44107Y46607D01*
X44129Y46581D01*
X44338Y46421D01*
X44368Y46406D01*
X44397Y46387D01*
X44640Y46286D01*
X44673Y46280D01*
X44705Y46269D01*
X44966Y46235D01*
X44983Y46236D01*
X45000Y46232D01*
X45017Y46236D01*
X45034Y46235D01*
X45295Y46269D01*
X45327Y46280D01*
X45360Y46286D01*
X45603Y46387D01*
X45632Y46406D01*
X45662Y46421D01*
X45871Y46581D01*
X45893Y46607D01*
X45919Y46629D01*
X46079Y46838D01*
X46094Y46868D01*
X46113Y46897D01*
X46214Y47140D01*
X46220Y47173D01*
X46231Y47205D01*
X46265Y47466D01*
X46263Y47500D01*
X46265Y47534D01*
X46231Y47795D01*
X46220Y47827D01*
X46214Y47860D01*
X46113Y48103D01*
X46094Y48132D01*
X46079Y48162D01*
X45919Y48371D01*
X45893Y48393D01*
X45871Y48419D01*
X45662Y48579D01*
X45632Y48594D01*
X45603Y48613D01*
X45360Y48714D01*
X45327Y48720D01*
X45295Y48731D01*
X45034Y48765D01*
X45017Y48764D01*
X45000Y48768D01*
D02*
G37*
G36*
X10648Y48790D02*
X9275D01*
X8948Y48747D01*
X8643Y48620D01*
X8381Y48419D01*
X8180Y48157D01*
X8053Y47852D01*
X8027Y47652D01*
X10648D01*
Y48790D01*
D02*
G37*
G36*
X12275D02*
X10902D01*
Y47652D01*
X13523D01*
X13497Y47852D01*
X13370Y48157D01*
X13169Y48419D01*
X12907Y48620D01*
X12602Y48747D01*
X12275Y48790D01*
D02*
G37*
G36*
X7140Y44348D02*
X6002D01*
Y41727D01*
X6202Y41753D01*
X6507Y41880D01*
X6769Y42081D01*
X6970Y42343D01*
X7097Y42648D01*
X7140Y42975D01*
Y44348D01*
D02*
G37*
G36*
X5748Y47223D02*
X5548Y47197D01*
X5243Y47070D01*
X4981Y46869D01*
X4780Y46607D01*
X4653Y46302D01*
X4610Y45975D01*
Y44602D01*
X5748D01*
Y47223D01*
D02*
G37*
G36*
X12275Y42790D02*
X9275D01*
X8948Y42747D01*
X8643Y42620D01*
X8381Y42419D01*
X8180Y42157D01*
X8053Y41852D01*
X8010Y41525D01*
X8053Y41198D01*
X8180Y40893D01*
X8381Y40631D01*
X8643Y40430D01*
X8948Y40303D01*
X9275Y40260D01*
X12275D01*
X12602Y40303D01*
X12907Y40430D01*
X13169Y40631D01*
X13370Y40893D01*
X13497Y41198D01*
X13540Y41525D01*
X13497Y41852D01*
X13370Y42157D01*
X13169Y42419D01*
X12907Y42620D01*
X12602Y42747D01*
X12275Y42790D01*
D02*
G37*
G36*
X5748Y44348D02*
X4610D01*
Y42975D01*
X4653Y42648D01*
X4780Y42343D01*
X4981Y42081D01*
X5243Y41880D01*
X5548Y41753D01*
X5748Y41727D01*
Y44348D01*
D02*
G37*
G36*
X13523Y47398D02*
X10902D01*
Y46260D01*
X12275D01*
X12602Y46303D01*
X12907Y46430D01*
X13169Y46631D01*
X13370Y46893D01*
X13497Y47198D01*
X13523Y47398D01*
D02*
G37*
G36*
X25475Y48659D02*
X24575D01*
X24476Y48639D01*
X24392Y48583D01*
X23942Y48133D01*
X23886Y48049D01*
X23866Y47950D01*
Y47050D01*
X23886Y46951D01*
X23942Y46867D01*
X24392Y46417D01*
X24476Y46361D01*
X24575Y46341D01*
X25475D01*
X25574Y46361D01*
X25658Y46417D01*
X26108Y46867D01*
X26164Y46951D01*
X26184Y47050D01*
Y47950D01*
X26164Y48049D01*
X26108Y48133D01*
X25658Y48583D01*
X25574Y48639D01*
X25475Y48659D01*
D02*
G37*
G36*
X6002Y47223D02*
Y44602D01*
X7140D01*
Y45975D01*
X7097Y46302D01*
X6970Y46607D01*
X6769Y46869D01*
X6507Y47070D01*
X6202Y47197D01*
X6002Y47223D01*
D02*
G37*
G36*
X10648Y47398D02*
X8027D01*
X8053Y47198D01*
X8180Y46893D01*
X8381Y46631D01*
X8643Y46430D01*
X8948Y46303D01*
X9275Y46260D01*
X10648D01*
Y47398D01*
D02*
G37*
%LPD*%
D36*
X29600Y23925D02*
Y24775D01*
X25325Y19650D02*
X29600Y23925D01*
X21450Y19825D02*
X23500Y17775D01*
X26000D01*
X27000Y18775D01*
X28350D01*
X28804Y18321D01*
X33150Y24575D02*
Y27825D01*
Y15525D02*
Y24575D01*
X33200Y24625D01*
X37775D01*
X28804Y16471D02*
Y18321D01*
Y16471D02*
X33125Y12150D01*
X10225Y10500D02*
X10850Y9875D01*
X10225Y10500D02*
Y18525D01*
X16475Y24775D01*
X29600D01*
X36250Y9125D02*
X41800Y14675D01*
X16650Y9125D02*
X36250D01*
X27950Y16025D02*
X33100Y10875D01*
X27950Y16025D02*
Y17900D01*
X33150Y15525D02*
X40950D01*
X41800Y14675D01*
X30125Y30850D02*
X33150Y27825D01*
D40*
X2325Y20600D02*
D03*
X2250Y8650D02*
D03*
D41*
X45400Y5625D02*
D03*
Y10705D02*
D03*
Y13245D02*
D03*
Y15785D02*
D03*
Y8165D02*
D03*
X22485Y47500D02*
D03*
D42*
X45400Y18325D02*
D03*
D43*
X10775Y41525D02*
D03*
Y47525D02*
D03*
D44*
X5875Y44475D02*
D03*
D45*
X25025Y47500D02*
D03*
D46*
X25325Y19650D02*
D03*
X37775Y24625D02*
D03*
X33150Y15525D02*
D03*
X33125Y12150D02*
D03*
X27950Y17900D02*
D03*
X33100Y10875D02*
D03*
X21450Y19825D02*
D03*
X41800Y14675D02*
D03*
X30125Y30850D02*
D03*
X29600Y24775D02*
D03*
X16650Y9125D02*
D03*
X10850Y9875D02*
D03*
X10225Y18525D02*
D03*
D47*
X20700Y15800D02*
D03*
X21800D02*
D03*
X22900D02*
D03*
X24000D02*
D03*
X20700Y14700D02*
D03*
X21800D02*
D03*
X22900D02*
D03*
X24000D02*
D03*
X20700Y13600D02*
D03*
X21800D02*
D03*
X22900D02*
D03*
X24000D02*
D03*
X20700Y12500D02*
D03*
X21800D02*
D03*
X22900D02*
D03*
X24000D02*
D03*
M02*
