G04 Layer_Color=8388736*
%FSLAX43Y43*%
%MOMM*%
G71*
G01*
G75*
%ADD50R,3.203X1.323*%
%ADD51R,3.703X1.323*%
%ADD52R,0.803X0.803*%
%ADD53R,1.703X0.803*%
%ADD54R,0.803X0.803*%
%ADD55R,1.053X1.053*%
%ADD56R,0.503X0.503*%
%ADD57R,0.503X0.503*%
%ADD58R,1.323X1.553*%
%ADD59R,1.203X0.403*%
%ADD60O,1.003X0.453*%
%ADD61O,0.453X1.003*%
%ADD62R,4.603X4.603*%
%ADD63R,0.803X1.203*%
%ADD64R,1.603X1.153*%
%ADD65R,1.453X1.203*%
%ADD66R,1.203X1.453*%
%ADD67R,0.703X1.053*%
%ADD68R,1.423X1.113*%
%ADD69R,1.603X1.403*%
%ADD70R,1.113X1.423*%
%ADD71R,1.203X0.803*%
%ADD72R,2.003X1.403*%
%ADD73C,0.203*%
%ADD74R,2.703X1.203*%
%ADD75C,2.003*%
%ADD76P,2.168X8X292.5*%
%ADD77O,5.203X2.203*%
%ADD78O,2.203X5.203*%
%ADD79P,2.168X8X202.5*%
%ADD80C,0.903*%
%ADD81C,0.703*%
D50*
X3625Y13725D02*
D03*
Y15725D02*
D03*
D51*
X3375Y11225D02*
D03*
Y18225D02*
D03*
D52*
X41825Y8325D02*
D03*
Y9325D02*
D03*
X14225Y12350D02*
D03*
Y13450D02*
D03*
X15825Y17225D02*
D03*
Y16125D02*
D03*
X12825Y12350D02*
D03*
Y13450D02*
D03*
X14675Y17250D02*
D03*
Y16150D02*
D03*
X25600Y7350D02*
D03*
Y8450D02*
D03*
X20125Y7325D02*
D03*
Y8425D02*
D03*
X25050Y43375D02*
D03*
Y44375D02*
D03*
X13700Y37500D02*
D03*
Y36500D02*
D03*
X16650Y11225D02*
D03*
Y10225D02*
D03*
X18800Y41975D02*
D03*
Y40975D02*
D03*
X33100Y9625D02*
D03*
Y8625D02*
D03*
X33150Y13425D02*
D03*
Y14425D02*
D03*
D53*
X34775Y14685D02*
D03*
Y13415D02*
D03*
Y12145D02*
D03*
Y10875D02*
D03*
Y9605D02*
D03*
Y8335D02*
D03*
Y7065D02*
D03*
X40175Y14685D02*
D03*
Y13415D02*
D03*
Y12145D02*
D03*
Y10875D02*
D03*
Y9605D02*
D03*
Y8335D02*
D03*
Y7065D02*
D03*
D54*
X29400Y14825D02*
D03*
X28300D02*
D03*
X20200Y19925D02*
D03*
X19100D02*
D03*
X29400Y12325D02*
D03*
X28300D02*
D03*
X15550D02*
D03*
X16650D02*
D03*
X23725Y20675D02*
D03*
X22625D02*
D03*
X26100D02*
D03*
X25000D02*
D03*
X43025Y18350D02*
D03*
X42025D02*
D03*
X21550Y30050D02*
D03*
X20550D02*
D03*
X28375Y15875D02*
D03*
X29375D02*
D03*
X28375Y16925D02*
D03*
X29375D02*
D03*
X39650Y24550D02*
D03*
X40650D02*
D03*
D55*
X19075Y31200D02*
D03*
Y32600D02*
D03*
D56*
X13550Y24975D02*
D03*
X14150D02*
D03*
X29600Y25600D02*
D03*
X29000D02*
D03*
X30925Y15875D02*
D03*
X30325D02*
D03*
X30925Y16925D02*
D03*
X30325D02*
D03*
D57*
X8000Y21325D02*
D03*
Y20725D02*
D03*
X24950Y32375D02*
D03*
Y32975D02*
D03*
X24900Y30900D02*
D03*
Y30300D02*
D03*
X25700Y30900D02*
D03*
Y30300D02*
D03*
D58*
X22375Y31975D02*
D03*
D59*
X23685Y31300D02*
D03*
Y31750D02*
D03*
Y32200D02*
D03*
Y32650D02*
D03*
X21065Y31300D02*
D03*
Y31750D02*
D03*
Y32200D02*
D03*
Y32650D02*
D03*
D60*
X17925Y17900D02*
D03*
Y17400D02*
D03*
Y16900D02*
D03*
Y16400D02*
D03*
Y15900D02*
D03*
Y15400D02*
D03*
Y14900D02*
D03*
Y14400D02*
D03*
Y13900D02*
D03*
Y13400D02*
D03*
Y12900D02*
D03*
Y12400D02*
D03*
Y11900D02*
D03*
Y11400D02*
D03*
Y10900D02*
D03*
Y10400D02*
D03*
X26775D02*
D03*
Y10900D02*
D03*
Y11400D02*
D03*
Y11900D02*
D03*
Y12400D02*
D03*
Y12900D02*
D03*
Y13400D02*
D03*
Y13900D02*
D03*
Y14400D02*
D03*
Y14900D02*
D03*
Y15400D02*
D03*
Y15900D02*
D03*
Y16400D02*
D03*
Y16900D02*
D03*
Y17400D02*
D03*
Y17900D02*
D03*
D61*
X18600Y9725D02*
D03*
X19100D02*
D03*
X19600D02*
D03*
X20100D02*
D03*
X20600D02*
D03*
X21100D02*
D03*
X21600D02*
D03*
X22100D02*
D03*
X22600D02*
D03*
X23100D02*
D03*
X23600D02*
D03*
X24100D02*
D03*
X24600D02*
D03*
X25100D02*
D03*
X25600D02*
D03*
X26100D02*
D03*
Y18575D02*
D03*
X25600D02*
D03*
X25100D02*
D03*
X24600D02*
D03*
X24100D02*
D03*
X23600D02*
D03*
X23100D02*
D03*
X22600D02*
D03*
X22100D02*
D03*
X21600D02*
D03*
X21100D02*
D03*
X20600D02*
D03*
X20100D02*
D03*
X19600D02*
D03*
X19100D02*
D03*
X18600D02*
D03*
D62*
X22350Y14150D02*
D03*
D63*
X29575Y26850D02*
D03*
X27675D02*
D03*
Y29250D02*
D03*
X28625D02*
D03*
X29575D02*
D03*
X12725Y32700D02*
D03*
X11775Y35100D02*
D03*
X13675D02*
D03*
X38700Y20775D02*
D03*
X37750Y23175D02*
D03*
X39650D02*
D03*
D64*
X11825Y18475D02*
D03*
Y16475D02*
D03*
X10850Y11225D02*
D03*
Y13225D02*
D03*
D65*
X29325Y32300D02*
D03*
Y34300D02*
D03*
D66*
X9750Y16175D02*
D03*
X7750D02*
D03*
D67*
X9750Y32575D02*
D03*
Y35175D02*
D03*
D68*
X16075Y32675D02*
D03*
Y35950D02*
D03*
D69*
X26800Y36725D02*
D03*
Y33625D02*
D03*
X42025Y23000D02*
D03*
Y19900D02*
D03*
D70*
X23475Y43125D02*
D03*
X20200D02*
D03*
D71*
X22600Y40000D02*
D03*
X20200Y39050D02*
D03*
Y40950D02*
D03*
D72*
X12000Y24975D02*
D03*
X8000D02*
D03*
Y22575D02*
D03*
X12000D02*
D03*
D73*
X45000Y2500D02*
D03*
Y47500D02*
D03*
X2500D02*
D03*
Y2500D02*
D03*
D74*
X2325Y20600D02*
D03*
X2250Y8650D02*
D03*
D75*
X45400Y5625D02*
D03*
Y10705D02*
D03*
Y13245D02*
D03*
Y15785D02*
D03*
Y8165D02*
D03*
X22485Y47500D02*
D03*
D76*
X45400Y18325D02*
D03*
D77*
X10775Y41525D02*
D03*
Y47525D02*
D03*
D78*
X5875Y44475D02*
D03*
D79*
X25025Y47500D02*
D03*
D80*
X25325Y19650D02*
D03*
X37775Y24625D02*
D03*
X33150Y15525D02*
D03*
X33125Y12150D02*
D03*
X27950Y17900D02*
D03*
X33100Y10875D02*
D03*
X21450Y19825D02*
D03*
X41800Y14675D02*
D03*
X30125Y30850D02*
D03*
X29600Y24775D02*
D03*
X16650Y9125D02*
D03*
X10850Y9875D02*
D03*
X10225Y18525D02*
D03*
D81*
X20700Y15800D02*
D03*
X21800D02*
D03*
X22900D02*
D03*
X24000D02*
D03*
X20700Y14700D02*
D03*
X21800D02*
D03*
X22900D02*
D03*
X24000D02*
D03*
X20700Y13600D02*
D03*
X21800D02*
D03*
X22900D02*
D03*
X24000D02*
D03*
X20700Y12500D02*
D03*
X21800D02*
D03*
X22900D02*
D03*
X24000D02*
D03*
M02*
