G04 Layer_Physical_Order=1*
G04 Layer_Color=255*
%FSLAX43Y43*%
%MOMM*%
G71*
G01*
G75*
%ADD10R,3.000X1.120*%
%ADD11R,3.500X1.120*%
%ADD12R,0.600X0.600*%
%ADD13R,1.500X0.600*%
%ADD14R,0.600X0.600*%
%ADD15R,0.850X0.850*%
%ADD16R,0.300X0.300*%
%ADD17R,0.300X0.300*%
%ADD18R,1.120X1.350*%
%ADD19R,1.000X0.200*%
%ADD20O,0.800X0.250*%
%ADD21O,0.250X0.800*%
%ADD22R,4.400X4.400*%
%ADD23R,0.600X1.000*%
%ADD24R,1.400X0.950*%
%ADD25R,1.250X1.000*%
%ADD26R,1.000X1.250*%
%ADD27R,0.500X0.850*%
%ADD28R,1.220X0.910*%
%ADD29R,1.400X1.200*%
%ADD30R,0.910X1.220*%
%ADD31R,1.000X0.600*%
%ADD32R,1.800X1.200*%
%ADD33C,0.250*%
%ADD34C,0.254*%
%ADD35C,0.300*%
%ADD36C,0.500*%
%ADD37C,0.400*%
%ADD38C,0.700*%
%ADD39C,0.200*%
%ADD40R,2.500X1.000*%
%ADD41C,1.800*%
%ADD42P,1.948X8X292.5*%
%ADD43O,5.000X2.000*%
%ADD44O,2.000X5.000*%
%ADD45P,1.948X8X202.5*%
%ADD46C,0.700*%
%ADD47C,0.500*%
G36*
X45417Y49603D02*
X45818Y49481D01*
X46187Y49284D01*
X46511Y49018D01*
X46777Y48694D01*
X46974Y48325D01*
X47096Y47924D01*
X47136Y47512D01*
X47132Y47508D01*
X47132D01*
X47160Y47369D01*
X47164Y47363D01*
Y2625D01*
X47139Y2499D01*
X47139D01*
X47143Y2495D01*
X47103Y2083D01*
X46981Y1682D01*
X46784Y1313D01*
X46518Y989D01*
X46194Y723D01*
X45825Y526D01*
X45424Y404D01*
X45012Y364D01*
X45008Y368D01*
Y368D01*
X44974Y361D01*
X2623D01*
X2500Y361D01*
X2499Y361D01*
X2375Y369D01*
X2083Y397D01*
X1682Y519D01*
X1313Y716D01*
X989Y982D01*
X723Y1306D01*
X526Y1675D01*
X404Y2076D01*
X364Y2488D01*
X368Y2492D01*
X368D01*
X361Y2526D01*
Y47377D01*
X361Y47500D01*
X361Y47501D01*
X369Y47625D01*
X397Y47917D01*
X519Y48318D01*
X716Y48687D01*
X982Y49011D01*
X1306Y49277D01*
X1675Y49474D01*
X2076Y49596D01*
X2488Y49636D01*
X2492Y49632D01*
Y49632D01*
X2526Y49639D01*
X45048D01*
X45417Y49603D01*
D02*
G37*
%LPC*%
G36*
X7623Y17059D02*
X7250D01*
X7151Y17039D01*
X7067Y16983D01*
X7011Y16899D01*
X6991Y16800D01*
Y16302D01*
X7623D01*
Y17059D01*
D02*
G37*
G36*
X41800Y15291D02*
X41564Y15244D01*
X41497Y15199D01*
X41062D01*
X41024Y15224D01*
X40925Y15244D01*
X39425D01*
X39326Y15224D01*
X39242Y15168D01*
X39186Y15084D01*
X39166Y14985D01*
Y14385D01*
X39186Y14286D01*
X39242Y14202D01*
X39326Y14146D01*
X39425Y14126D01*
X40925D01*
X41024Y14146D01*
X41062Y14171D01*
X41467D01*
X41564Y14106D01*
X41800Y14059D01*
X42036Y14106D01*
X42235Y14240D01*
X42369Y14439D01*
X42416Y14675D01*
X42369Y14911D01*
X42235Y15110D01*
X42036Y15244D01*
X41800Y15291D01*
D02*
G37*
G36*
X45400Y16949D02*
X45099Y16909D01*
X44818Y16793D01*
X44577Y16608D01*
X44392Y16367D01*
X44276Y16086D01*
X44236Y15785D01*
X44276Y15484D01*
X44304Y15416D01*
X41547Y12659D01*
X41062D01*
X41024Y12684D01*
X40925Y12704D01*
X39425D01*
X39326Y12684D01*
X39242Y12628D01*
X39186Y12544D01*
X39166Y12445D01*
Y11845D01*
X39186Y11746D01*
X39242Y11662D01*
X39326Y11606D01*
X39425Y11586D01*
X40925D01*
X41024Y11606D01*
X41062Y11631D01*
X41760D01*
X41957Y11670D01*
X42123Y11782D01*
X44440Y14099D01*
X44536Y14015D01*
X44392Y13827D01*
X44276Y13546D01*
X44236Y13245D01*
X44276Y12944D01*
X44304Y12876D01*
X42817Y11389D01*
X41062D01*
X41024Y11414D01*
X40925Y11434D01*
X39425D01*
X39326Y11414D01*
X39242Y11358D01*
X39186Y11274D01*
X39166Y11175D01*
Y10575D01*
X39186Y10476D01*
X39242Y10392D01*
X39326Y10336D01*
X39425Y10316D01*
X40925D01*
X41024Y10336D01*
X41062Y10361D01*
X43030D01*
X43227Y10400D01*
X43393Y10512D01*
X44440Y11559D01*
X44536Y11475D01*
X44392Y11287D01*
X44276Y11006D01*
X44236Y10705D01*
X44276Y10404D01*
X44325Y10285D01*
X43828Y9788D01*
X42322D01*
X42308Y9808D01*
X42224Y9864D01*
X42125Y9884D01*
X41921D01*
X41872Y9932D01*
X41722Y10033D01*
X41545Y10068D01*
X41545Y10068D01*
X41122D01*
X41108Y10088D01*
X41024Y10144D01*
X40925Y10164D01*
X39425D01*
X39326Y10144D01*
X39242Y10088D01*
X39186Y10004D01*
X39166Y9905D01*
Y9305D01*
X39186Y9206D01*
X39242Y9122D01*
X39326Y9066D01*
X39425Y9046D01*
X40925D01*
X41024Y9066D01*
X41108Y9122D01*
X41122Y9142D01*
X41266D01*
Y9025D01*
X41284Y8937D01*
X41211Y8827D01*
X41129Y8820D01*
X41103Y8822D01*
X41024Y8874D01*
X40925Y8894D01*
X39425D01*
X39326Y8874D01*
X39242Y8818D01*
X39186Y8734D01*
X39166Y8635D01*
Y8035D01*
X39186Y7936D01*
X39242Y7852D01*
X39326Y7796D01*
X39425Y7776D01*
X40925D01*
X41024Y7796D01*
X41108Y7852D01*
X41122Y7872D01*
X41322D01*
X41342Y7842D01*
X41426Y7786D01*
X41525Y7766D01*
X42125D01*
X42224Y7786D01*
X42308Y7842D01*
X42322Y7862D01*
X44276D01*
X44392Y7583D01*
X44577Y7342D01*
X44818Y7157D01*
X45099Y7041D01*
X45400Y7001D01*
X45701Y7041D01*
X45982Y7157D01*
X46223Y7342D01*
X46408Y7583D01*
X46524Y7864D01*
X46564Y8165D01*
X46524Y8466D01*
X46408Y8747D01*
X46223Y8988D01*
X45982Y9173D01*
X45701Y9289D01*
X45400Y9329D01*
X45099Y9289D01*
X44818Y9173D01*
X44577Y8988D01*
X44423Y8788D01*
X44248D01*
X44223Y8915D01*
X44347Y8998D01*
X44980Y9630D01*
X45099Y9581D01*
X45400Y9541D01*
X45701Y9581D01*
X45982Y9697D01*
X46223Y9882D01*
X46408Y10123D01*
X46524Y10404D01*
X46564Y10705D01*
X46524Y11006D01*
X46408Y11287D01*
X46223Y11528D01*
X45982Y11713D01*
X45701Y11829D01*
X45400Y11869D01*
X45099Y11829D01*
X44818Y11713D01*
X44630Y11569D01*
X44546Y11665D01*
X45031Y12149D01*
X45099Y12121D01*
X45400Y12081D01*
X45701Y12121D01*
X45982Y12237D01*
X46223Y12422D01*
X46408Y12663D01*
X46524Y12944D01*
X46564Y13245D01*
X46524Y13546D01*
X46408Y13827D01*
X46223Y14068D01*
X45982Y14253D01*
X45701Y14369D01*
X45400Y14409D01*
X45099Y14369D01*
X44818Y14253D01*
X44630Y14109D01*
X44546Y14205D01*
X45031Y14689D01*
X45099Y14661D01*
X45400Y14621D01*
X45701Y14661D01*
X45982Y14777D01*
X46223Y14962D01*
X46408Y15203D01*
X46524Y15484D01*
X46564Y15785D01*
X46524Y16086D01*
X46408Y16367D01*
X46223Y16608D01*
X45982Y16793D01*
X45701Y16909D01*
X45400Y16949D01*
D02*
G37*
G36*
X5125Y19044D02*
X1625D01*
X1526Y19024D01*
X1442Y18968D01*
X1386Y18884D01*
X1366Y18785D01*
Y17665D01*
X1386Y17566D01*
X1442Y17482D01*
X1526Y17426D01*
X1625Y17406D01*
X5125D01*
X5224Y17426D01*
X5308Y17482D01*
X5364Y17566D01*
X5384Y17665D01*
Y18785D01*
X5364Y18884D01*
X5308Y18968D01*
X5224Y19024D01*
X5125Y19044D01*
D02*
G37*
G36*
X39000Y21534D02*
X38400D01*
X38301Y21514D01*
X38217Y21458D01*
X38161Y21374D01*
X38141Y21275D01*
Y20275D01*
X38161Y20176D01*
X38217Y20092D01*
X38301Y20036D01*
X38400Y20016D01*
X38732D01*
X39212Y19537D01*
X39378Y19425D01*
X39575Y19386D01*
X41066D01*
Y19300D01*
X41086Y19201D01*
X41142Y19117D01*
X41226Y19061D01*
X41325Y19041D01*
X41511D01*
Y18787D01*
X41486Y18749D01*
X41466Y18650D01*
Y18050D01*
X41486Y17951D01*
X41542Y17867D01*
X41626Y17811D01*
X41725Y17791D01*
X42325D01*
X42424Y17811D01*
X42426Y17812D01*
X42525Y17859D01*
X42624Y17812D01*
X42626Y17811D01*
X42725Y17791D01*
X43325D01*
X43424Y17811D01*
X43462Y17836D01*
X44249D01*
X44261Y17776D01*
X44317Y17692D01*
X44767Y17242D01*
X44851Y17186D01*
X44950Y17166D01*
X45850D01*
X45949Y17186D01*
X46033Y17242D01*
X46483Y17692D01*
X46539Y17776D01*
X46559Y17875D01*
Y18775D01*
X46539Y18874D01*
X46483Y18958D01*
X46033Y19408D01*
X45949Y19464D01*
X45850Y19484D01*
X44950D01*
X44851Y19464D01*
X44767Y19408D01*
X44317Y18958D01*
X44261Y18874D01*
X44259Y18864D01*
X43462D01*
X43424Y18889D01*
X43325Y18909D01*
X42768D01*
X42687Y18988D01*
X42668Y19027D01*
X42672Y19041D01*
X42725D01*
X42824Y19061D01*
X42908Y19117D01*
X42964Y19201D01*
X42984Y19300D01*
Y20500D01*
X42964Y20599D01*
X42908Y20683D01*
X42824Y20739D01*
X42725Y20759D01*
X41325D01*
X41226Y20739D01*
X41142Y20683D01*
X41086Y20599D01*
X41066Y20500D01*
Y20414D01*
X39788D01*
X39259Y20943D01*
Y21275D01*
X39239Y21374D01*
X39183Y21458D01*
X39099Y21514D01*
X39000Y21534D01*
D02*
G37*
G36*
X8250Y17059D02*
X7877D01*
Y16302D01*
X8509D01*
Y16800D01*
X8489Y16899D01*
X8433Y16983D01*
X8349Y17039D01*
X8250Y17059D01*
D02*
G37*
G36*
X14098Y12223D02*
X13666D01*
Y12050D01*
X13686Y11951D01*
X13742Y11867D01*
X13826Y11811D01*
X13925Y11791D01*
X14098D01*
Y12223D01*
D02*
G37*
G36*
X13384D02*
X12952D01*
Y11791D01*
X13125D01*
X13224Y11811D01*
X13308Y11867D01*
X13364Y11951D01*
X13384Y12050D01*
Y12223D01*
D02*
G37*
G36*
X12698D02*
X12266D01*
Y12050D01*
X12286Y11951D01*
X12342Y11867D01*
X12426Y11811D01*
X12525Y11791D01*
X12698D01*
Y12223D01*
D02*
G37*
G36*
X40925Y13974D02*
X39425D01*
X39326Y13954D01*
X39242Y13898D01*
X39186Y13814D01*
X39166Y13715D01*
Y13115D01*
X39186Y13016D01*
X39242Y12932D01*
X39326Y12876D01*
X39425Y12856D01*
X40925D01*
X41024Y12876D01*
X41108Y12932D01*
X41164Y13016D01*
X41184Y13115D01*
Y13715D01*
X41164Y13814D01*
X41108Y13898D01*
X41024Y13954D01*
X40925Y13974D01*
D02*
G37*
G36*
X15423Y12884D02*
X15250D01*
X15151Y12864D01*
X15067Y12808D01*
X15011Y12724D01*
X14991Y12625D01*
Y12452D01*
X15423D01*
Y12884D01*
D02*
G37*
G36*
X14784Y12223D02*
X14352D01*
Y11791D01*
X14525D01*
X14624Y11811D01*
X14708Y11867D01*
X14764Y11951D01*
X14784Y12050D01*
Y12223D01*
D02*
G37*
G36*
X3575Y21359D02*
X1075D01*
X976Y21339D01*
X892Y21283D01*
X836Y21199D01*
X816Y21100D01*
Y20100D01*
X836Y20001D01*
X892Y19917D01*
X976Y19861D01*
X1075Y19841D01*
X3575D01*
X3674Y19861D01*
X3758Y19917D01*
X3814Y20001D01*
X3834Y20100D01*
Y21100D01*
X3814Y21199D01*
X3758Y21283D01*
X3674Y21339D01*
X3575Y21359D01*
D02*
G37*
G36*
X41898Y23859D02*
X41325D01*
X41226Y23839D01*
X41142Y23783D01*
X41086Y23699D01*
X41066Y23600D01*
Y23127D01*
X41898D01*
Y23859D01*
D02*
G37*
G36*
X37775Y25241D02*
X37539Y25194D01*
X37340Y25060D01*
X37206Y24861D01*
X37159Y24625D01*
X37206Y24389D01*
X37236Y24344D01*
Y23812D01*
X37211Y23774D01*
X37191Y23675D01*
Y22675D01*
X37211Y22576D01*
X37267Y22492D01*
X37351Y22436D01*
X37450Y22416D01*
X38050D01*
X38149Y22436D01*
X38233Y22492D01*
X38289Y22576D01*
X38309Y22675D01*
Y23675D01*
X38289Y23774D01*
X38264Y23812D01*
Y24269D01*
X38344Y24389D01*
X38391Y24625D01*
X38344Y24861D01*
X38210Y25060D01*
X38011Y25194D01*
X37775Y25241D01*
D02*
G37*
G36*
X42984Y22873D02*
X42152D01*
Y22141D01*
X42725D01*
X42824Y22161D01*
X42908Y22217D01*
X42964Y22301D01*
X42984Y22400D01*
Y22873D01*
D02*
G37*
G36*
X41209Y24423D02*
X40777D01*
Y23991D01*
X40950D01*
X41049Y24011D01*
X41133Y24067D01*
X41189Y24151D01*
X41209Y24250D01*
Y24423D01*
D02*
G37*
G36*
X12900Y25834D02*
X11100D01*
X11001Y25814D01*
X10917Y25758D01*
X10861Y25674D01*
X10841Y25575D01*
Y24375D01*
X10861Y24276D01*
X10917Y24192D01*
X11001Y24136D01*
X11100Y24116D01*
X12900D01*
X12999Y24136D01*
X13011Y24144D01*
X13138Y24076D01*
Y23474D01*
X13011Y23406D01*
X12999Y23414D01*
X12900Y23434D01*
X11100D01*
X11001Y23414D01*
X10917Y23358D01*
X10861Y23274D01*
X10841Y23175D01*
Y21975D01*
X10861Y21876D01*
X10869Y21864D01*
X10801Y21737D01*
X9199D01*
X9131Y21864D01*
X9139Y21876D01*
X9159Y21975D01*
Y23175D01*
X9139Y23274D01*
X9083Y23358D01*
X8999Y23414D01*
X8900Y23434D01*
X7100D01*
X7001Y23414D01*
X6917Y23358D01*
X6861Y23274D01*
X6841Y23175D01*
Y21975D01*
X6861Y21876D01*
X6917Y21792D01*
X7001Y21736D01*
X7100Y21716D01*
X7588D01*
Y21325D01*
X7591Y21310D01*
Y21175D01*
X7611Y21076D01*
X7645Y21025D01*
X7611Y20974D01*
X7591Y20875D01*
Y20852D01*
X8409D01*
Y20875D01*
X8440Y20913D01*
X12004D01*
X12688Y20229D01*
Y19288D01*
X12561Y19202D01*
X12525Y19209D01*
X11125D01*
X11026Y19189D01*
X10942Y19133D01*
X10886Y19049D01*
X10874Y18989D01*
X10618D01*
X10461Y19094D01*
X10225Y19141D01*
X9989Y19094D01*
X9790Y18960D01*
X9656Y18761D01*
X9609Y18525D01*
X9656Y18289D01*
X9790Y18090D01*
X9989Y17956D01*
X10225Y17909D01*
X10461Y17956D01*
X10468Y17961D01*
X10874D01*
X10886Y17901D01*
X10942Y17817D01*
X11026Y17761D01*
X11125Y17741D01*
X12525D01*
X12624Y17761D01*
X12708Y17817D01*
X12764Y17901D01*
X12784Y18000D01*
Y18204D01*
X12911Y18256D01*
X13434Y17734D01*
X13567Y17644D01*
X13725Y17613D01*
X14064D01*
X14116Y17550D01*
Y17377D01*
X14675D01*
Y17123D01*
X14116D01*
Y16950D01*
X14136Y16851D01*
X14192Y16767D01*
Y16639D01*
X14119Y16536D01*
X13435D01*
X13223Y16748D01*
X13098Y16832D01*
X12950Y16861D01*
X12784D01*
Y16950D01*
X12764Y17049D01*
X12708Y17133D01*
X12624Y17189D01*
X12525Y17209D01*
X11125D01*
X11026Y17189D01*
X10942Y17133D01*
X10886Y17049D01*
X10866Y16950D01*
Y16085D01*
X10739Y16032D01*
X10509Y16263D01*
Y16800D01*
X10489Y16899D01*
X10433Y16983D01*
X10349Y17039D01*
X10250Y17059D01*
X9250D01*
X9151Y17039D01*
X9067Y16983D01*
X9011Y16899D01*
X8991Y16800D01*
Y15550D01*
X9011Y15451D01*
X9019Y15439D01*
X8951Y15312D01*
X8549D01*
X8481Y15439D01*
X8489Y15451D01*
X8509Y15550D01*
Y16048D01*
X7750D01*
X6991D01*
Y15550D01*
X7011Y15451D01*
X7019Y15439D01*
X6951Y15312D01*
X5384D01*
Y16285D01*
X5364Y16384D01*
X5308Y16468D01*
X5224Y16524D01*
X5125Y16544D01*
X2125D01*
X2026Y16524D01*
X1942Y16468D01*
X1886Y16384D01*
X1866Y16285D01*
Y15165D01*
X1886Y15066D01*
X1942Y14982D01*
X2026Y14926D01*
X2125Y14906D01*
X3861D01*
X3967Y14801D01*
X3953Y14635D01*
X3861Y14544D01*
X2125D01*
X2026Y14524D01*
X1942Y14468D01*
X1886Y14384D01*
X1866Y14285D01*
Y13165D01*
X1886Y13066D01*
X1942Y12982D01*
X2026Y12926D01*
X2125Y12906D01*
X5125D01*
X5224Y12926D01*
X5308Y12982D01*
X5364Y13066D01*
X5384Y13165D01*
Y13988D01*
X9896D01*
X9927Y13942D01*
X9952Y13861D01*
X9911Y13799D01*
X9891Y13700D01*
Y12750D01*
X9911Y12651D01*
X9967Y12567D01*
X10051Y12511D01*
X10150Y12491D01*
X11550D01*
X11649Y12511D01*
X11733Y12567D01*
X11789Y12651D01*
X11809Y12750D01*
Y13064D01*
X12283D01*
X12286Y13051D01*
X12342Y12967D01*
Y12833D01*
X12286Y12749D01*
X12266Y12650D01*
Y12477D01*
X13384D01*
Y12650D01*
X13364Y12749D01*
X13308Y12833D01*
Y12961D01*
X13381Y13064D01*
X13683D01*
X13686Y13051D01*
X13742Y12967D01*
Y12833D01*
X13686Y12749D01*
X13666Y12650D01*
Y12477D01*
X14784D01*
Y12650D01*
X14764Y12749D01*
X14708Y12833D01*
Y12961D01*
X14781Y13064D01*
X16850D01*
X16998Y13093D01*
X17123Y13177D01*
X17136Y13189D01*
X17276Y13163D01*
X17314Y13079D01*
X17293Y13048D01*
X17264Y12900D01*
X17266Y12887D01*
X17248Y12865D01*
X17133Y12808D01*
X17049Y12864D01*
X16950Y12884D01*
X16350D01*
X16251Y12864D01*
X16167Y12808D01*
X16033D01*
X15949Y12864D01*
X15850Y12884D01*
X15677D01*
Y12325D01*
Y11766D01*
X15850D01*
X15949Y11786D01*
X16033Y11842D01*
X16167D01*
Y11708D01*
X16111Y11624D01*
X16091Y11525D01*
Y10925D01*
X16111Y10826D01*
X16112Y10824D01*
X16159Y10725D01*
X16112Y10626D01*
X16111Y10624D01*
X16091Y10525D01*
Y9925D01*
X16111Y9826D01*
X16136Y9788D01*
Y9443D01*
X16081Y9361D01*
X16034Y9125D01*
X16081Y8889D01*
X16215Y8690D01*
X16414Y8556D01*
X16650Y8509D01*
X16886Y8556D01*
X17085Y8690D01*
X17219Y8889D01*
X17266Y9125D01*
X17219Y9361D01*
X17164Y9443D01*
Y9788D01*
X17189Y9826D01*
X17209Y9925D01*
Y10149D01*
X17336Y10188D01*
X17377Y10127D01*
X17502Y10043D01*
X17650Y10014D01*
X18091D01*
X18201Y10001D01*
X18214Y9891D01*
Y9450D01*
X18243Y9302D01*
X18327Y9177D01*
X18452Y9093D01*
X18600Y9064D01*
X18748Y9093D01*
X18850Y9161D01*
X18952Y9093D01*
X19100Y9064D01*
X19248Y9093D01*
X19350Y9161D01*
X19452Y9093D01*
X19600Y9064D01*
X19639Y8942D01*
X19642Y8908D01*
X19586Y8824D01*
X19566Y8725D01*
Y8125D01*
X19586Y8026D01*
X19642Y7942D01*
Y7808D01*
X19586Y7724D01*
X19566Y7625D01*
Y7452D01*
X20684D01*
Y7625D01*
X20664Y7724D01*
X20608Y7808D01*
Y7942D01*
X20664Y8026D01*
X20684Y8125D01*
Y8725D01*
X20664Y8824D01*
X20608Y8908D01*
X20556Y8943D01*
X20596Y9053D01*
X20603Y9064D01*
X20748Y9093D01*
X20850Y9161D01*
X20952Y9093D01*
X21100Y9064D01*
X21248Y9093D01*
X21350Y9161D01*
X21452Y9093D01*
X21600Y9064D01*
X21748Y9093D01*
X21850Y9161D01*
X21952Y9093D01*
X22100Y9064D01*
X22248Y9093D01*
X22350Y9161D01*
X22452Y9093D01*
X22473Y9089D01*
Y9382D01*
X22486Y9450D01*
Y9725D01*
Y10000D01*
X22473Y10068D01*
Y10361D01*
X22452Y10357D01*
X22350Y10289D01*
X22248Y10357D01*
X22100Y10386D01*
X21952Y10357D01*
X21850Y10289D01*
X21748Y10357D01*
X21600Y10386D01*
X21452Y10357D01*
X21350Y10289D01*
X21248Y10357D01*
X21100Y10386D01*
X20952Y10357D01*
X20850Y10289D01*
X20748Y10357D01*
X20600Y10386D01*
X20452Y10357D01*
X20350Y10289D01*
X20248Y10357D01*
X20100Y10386D01*
X19952Y10357D01*
X19850Y10289D01*
X19748Y10357D01*
X19600Y10386D01*
X19452Y10357D01*
X19350Y10289D01*
X19248Y10357D01*
X19100Y10386D01*
X18952Y10357D01*
X18850Y10289D01*
X18748Y10357D01*
X18709Y10365D01*
X18597Y10397D01*
X18565Y10509D01*
X18557Y10548D01*
X18489Y10650D01*
X18557Y10752D01*
X18561Y10773D01*
X18268D01*
X18200Y10786D01*
X17925D01*
Y11011D01*
X17935Y11014D01*
X18200D01*
X18268Y11027D01*
X18561D01*
X18557Y11048D01*
X18489Y11150D01*
X18557Y11252D01*
X18586Y11400D01*
X18557Y11548D01*
X18489Y11650D01*
X18557Y11752D01*
X18561Y11773D01*
X18268D01*
X18200Y11786D01*
X17935D01*
X17925Y11789D01*
Y12012D01*
X17935Y12014D01*
X18200D01*
X18268Y12027D01*
X18561D01*
X18557Y12048D01*
X18489Y12150D01*
X18557Y12252D01*
X18586Y12400D01*
X18557Y12548D01*
X18489Y12650D01*
X18557Y12752D01*
X18561Y12773D01*
X18268D01*
X18200Y12787D01*
X17935D01*
X17925Y12789D01*
Y13027D01*
X18561D01*
X18557Y13048D01*
X18489Y13150D01*
X18557Y13252D01*
X18561Y13273D01*
X17925D01*
Y13514D01*
X18200D01*
X18268Y13527D01*
X18561D01*
X18557Y13548D01*
X18489Y13650D01*
X18557Y13752D01*
X18586Y13900D01*
X18557Y14048D01*
X18489Y14150D01*
X18557Y14252D01*
X18586Y14400D01*
X18557Y14548D01*
X18489Y14650D01*
X18557Y14752D01*
X18586Y14900D01*
X18557Y15048D01*
X18489Y15150D01*
X18557Y15252D01*
X18586Y15400D01*
X18557Y15548D01*
X18489Y15650D01*
X18557Y15752D01*
X18561Y15773D01*
X18268D01*
X18200Y15787D01*
X17925D01*
Y16014D01*
X18200D01*
X18268Y16027D01*
X18561D01*
X18557Y16048D01*
X18489Y16150D01*
X18557Y16252D01*
X18586Y16400D01*
X18557Y16548D01*
X18489Y16650D01*
X18557Y16752D01*
X18586Y16900D01*
X18557Y17048D01*
X18489Y17150D01*
X18557Y17252D01*
X18586Y17400D01*
X18557Y17548D01*
X18489Y17650D01*
X18557Y17752D01*
X18565Y17791D01*
X18597Y17903D01*
X18709Y17935D01*
X18748Y17943D01*
X18850Y18011D01*
X18952Y17943D01*
X19100Y17914D01*
X19248Y17943D01*
X19350Y18011D01*
X19452Y17943D01*
X19600Y17914D01*
X19748Y17943D01*
X19850Y18011D01*
X19952Y17943D01*
X20100Y17914D01*
X20248Y17943D01*
X20350Y18011D01*
X20452Y17943D01*
X20600Y17914D01*
X20748Y17943D01*
X20850Y18011D01*
X20952Y17943D01*
X21100Y17914D01*
X21248Y17943D01*
X21350Y18011D01*
X21452Y17943D01*
X21600Y17914D01*
X21748Y17943D01*
X21850Y18011D01*
X21952Y17943D01*
X22100Y17914D01*
X22248Y17943D01*
X22350Y18011D01*
X22452Y17943D01*
X22600Y17914D01*
X22748Y17943D01*
X22850Y18011D01*
X22952Y17943D01*
X23100Y17914D01*
X23248Y17943D01*
X23350Y18011D01*
X23452Y17943D01*
X23600Y17914D01*
X23748Y17943D01*
X23850Y18011D01*
X23952Y17943D01*
X24100Y17914D01*
X24248Y17943D01*
X24350Y18011D01*
X24452Y17943D01*
X24600Y17914D01*
X24748Y17943D01*
X24850Y18011D01*
X24952Y17943D01*
X24973Y17939D01*
Y18232D01*
X24986Y18300D01*
Y18575D01*
X25214D01*
Y18300D01*
X25227Y18232D01*
Y17939D01*
X25248Y17943D01*
X25350Y18011D01*
X25452Y17943D01*
X25600Y17914D01*
X25748Y17943D01*
X25850Y18011D01*
X25952Y17943D01*
X25991Y17935D01*
X26114Y17900D01*
X26143Y17752D01*
X26211Y17650D01*
X26143Y17548D01*
X26139Y17527D01*
X26432D01*
X26500Y17514D01*
X26775D01*
Y17286D01*
X26500D01*
X26432Y17273D01*
X26139D01*
X26143Y17252D01*
X26211Y17150D01*
X26143Y17048D01*
X26114Y16900D01*
X26143Y16752D01*
X26211Y16650D01*
X26143Y16548D01*
X26114Y16400D01*
X26143Y16252D01*
X26211Y16150D01*
X26143Y16048D01*
X26114Y15900D01*
X26143Y15752D01*
X26211Y15650D01*
X26143Y15548D01*
X26114Y15400D01*
X26143Y15252D01*
X26211Y15150D01*
X26143Y15048D01*
X26114Y14900D01*
X26143Y14752D01*
X26211Y14650D01*
X26143Y14548D01*
X26114Y14400D01*
X26143Y14252D01*
X26211Y14150D01*
X26143Y14048D01*
X26114Y13900D01*
X26143Y13752D01*
X26211Y13650D01*
X26143Y13548D01*
X26114Y13400D01*
X26143Y13252D01*
X26211Y13150D01*
X26143Y13048D01*
X26114Y12900D01*
X26143Y12752D01*
X26211Y12650D01*
X26143Y12548D01*
X26114Y12400D01*
X26143Y12252D01*
X26211Y12150D01*
X26143Y12048D01*
X26114Y11900D01*
X26143Y11752D01*
X26211Y11650D01*
X26143Y11548D01*
X26139Y11527D01*
X26432D01*
X26500Y11514D01*
X26775D01*
X27050D01*
X27118Y11527D01*
X27411D01*
X27407Y11548D01*
X27339Y11650D01*
X27407Y11752D01*
X27436Y11900D01*
X27434Y11913D01*
X27514Y12012D01*
X27744D01*
X27761Y11926D01*
X27817Y11842D01*
X27901Y11786D01*
X28000Y11766D01*
X28600D01*
X28699Y11786D01*
X28783Y11842D01*
X28917D01*
X29001Y11786D01*
X29100Y11766D01*
X29273D01*
Y12325D01*
X29527D01*
Y11766D01*
X29700D01*
X29799Y11786D01*
X29883Y11842D01*
X29939Y11926D01*
X29959Y12025D01*
Y12354D01*
X30076Y12402D01*
X32543Y9935D01*
X32541Y9925D01*
Y9325D01*
X32561Y9226D01*
X32562Y9224D01*
X32609Y9125D01*
X32562Y9026D01*
X32561Y9024D01*
X32541Y8925D01*
Y8325D01*
X32561Y8226D01*
X32617Y8142D01*
X32701Y8086D01*
X32800Y8066D01*
X33400D01*
X33499Y8086D01*
X33583Y8142D01*
X33639Y8226D01*
X33766Y8212D01*
Y8035D01*
X33786Y7936D01*
X33842Y7852D01*
X33926Y7796D01*
X34025Y7776D01*
X34648D01*
Y8335D01*
Y8894D01*
X34025D01*
X33926Y8874D01*
X33842Y8818D01*
X33786Y8734D01*
X33659Y8748D01*
Y8925D01*
X33651Y8964D01*
X33736Y9091D01*
X33888D01*
X33926Y9066D01*
X34025Y9046D01*
X35525D01*
X35624Y9066D01*
X35708Y9122D01*
X35764Y9206D01*
X35784Y9305D01*
Y9905D01*
X35764Y10004D01*
X35708Y10088D01*
X35624Y10144D01*
X35525Y10164D01*
X34025D01*
X33926Y10144D01*
X33888Y10119D01*
X33567D01*
X33499Y10164D01*
X33400Y10184D01*
X33397Y10243D01*
X33500Y10361D01*
X33888D01*
X33926Y10336D01*
X34025Y10316D01*
X35525D01*
X35624Y10336D01*
X35708Y10392D01*
X35764Y10476D01*
X35784Y10575D01*
Y11175D01*
X35764Y11274D01*
X35708Y11358D01*
X35624Y11414D01*
X35525Y11434D01*
X34025D01*
X33926Y11414D01*
X33888Y11389D01*
X33418D01*
X33336Y11444D01*
X33329Y11445D01*
Y11575D01*
X33361Y11581D01*
X33443Y11636D01*
X33880D01*
X33926Y11606D01*
X34025Y11586D01*
X35525D01*
X35624Y11606D01*
X35708Y11662D01*
X35764Y11746D01*
X35784Y11845D01*
Y12445D01*
X35764Y12544D01*
X35708Y12628D01*
X35624Y12684D01*
X35525Y12704D01*
X34025D01*
X33926Y12684D01*
X33895Y12664D01*
X33443D01*
X33361Y12719D01*
X33260Y12739D01*
X33272Y12866D01*
X33450D01*
X33549Y12886D01*
X33572Y12901D01*
X33888D01*
X33926Y12876D01*
X34025Y12856D01*
X35525D01*
X35624Y12876D01*
X35708Y12932D01*
X35764Y13016D01*
X35784Y13115D01*
Y13715D01*
X35764Y13814D01*
X35708Y13898D01*
X35624Y13954D01*
X35525Y13974D01*
X34025D01*
X33926Y13954D01*
X33888Y13929D01*
X33777D01*
X33747Y13962D01*
X33695Y14056D01*
X33725Y14170D01*
X33842Y14202D01*
X33842Y14202D01*
X33926Y14146D01*
X34025Y14126D01*
X35525D01*
X35624Y14146D01*
X35708Y14202D01*
X35764Y14286D01*
X35784Y14385D01*
Y14985D01*
X35764Y15084D01*
X35708Y15168D01*
X35624Y15224D01*
X35525Y15244D01*
X34025D01*
X33926Y15224D01*
X33842Y15168D01*
X33786Y15084D01*
X33766Y14985D01*
Y14981D01*
X33642Y14932D01*
X33600Y14963D01*
X33585Y15090D01*
X33719Y15289D01*
X33766Y15525D01*
X33719Y15761D01*
X33585Y15960D01*
X33386Y16094D01*
X33150Y16141D01*
X33122Y16135D01*
X32041Y17216D01*
X31908Y17306D01*
X31750Y17337D01*
X30925D01*
X30910Y17334D01*
X30775D01*
X30676Y17314D01*
X30625Y17280D01*
X30574Y17314D01*
X30475Y17334D01*
X30175D01*
X30076Y17314D01*
X30075Y17313D01*
X29916D01*
X29914Y17324D01*
X29858Y17408D01*
X29774Y17464D01*
X29675Y17484D01*
X29075D01*
X28976Y17464D01*
X28974Y17463D01*
X28875Y17416D01*
X28776Y17463D01*
X28774Y17464D01*
X28675Y17484D01*
X28533D01*
X28473Y17596D01*
X28519Y17664D01*
X28566Y17900D01*
X28519Y18136D01*
X28385Y18335D01*
X28186Y18469D01*
X27950Y18516D01*
X27714Y18469D01*
X27515Y18335D01*
X27441Y18226D01*
X27324Y18173D01*
X27283Y18200D01*
X27198Y18257D01*
X27050Y18286D01*
X26609D01*
X26499Y18299D01*
X26486Y18409D01*
Y18565D01*
X26488Y18575D01*
Y20134D01*
X26499Y20136D01*
X26583Y20192D01*
X26639Y20276D01*
X26659Y20375D01*
Y20975D01*
X26639Y21074D01*
X26583Y21158D01*
X26499Y21214D01*
X26400Y21234D01*
X25800D01*
X25701Y21214D01*
X25617Y21158D01*
X25483D01*
X25399Y21214D01*
X25300Y21234D01*
X25127D01*
Y20675D01*
X25000D01*
Y20548D01*
X24441D01*
Y20375D01*
X24461Y20276D01*
X24517Y20192D01*
X24601Y20136D01*
X24700Y20116D01*
X24757D01*
X24825Y19989D01*
X24756Y19886D01*
X24709Y19650D01*
X24756Y19414D01*
X24828Y19306D01*
X24762Y19224D01*
X24741Y19208D01*
X24600Y19236D01*
X24452Y19207D01*
X24350Y19139D01*
X24248Y19207D01*
X24100Y19236D01*
X23952Y19207D01*
X23850Y19139D01*
X23748Y19207D01*
X23600Y19236D01*
X23452Y19207D01*
X23350Y19139D01*
X23248Y19207D01*
X23100Y19236D01*
X23087Y19234D01*
X22988Y19314D01*
Y20129D01*
X23024Y20136D01*
X23108Y20192D01*
X23242D01*
X23326Y20136D01*
X23425Y20116D01*
X23598D01*
Y20675D01*
Y21234D01*
X23425D01*
X23326Y21214D01*
X23242Y21158D01*
X23108D01*
X23024Y21214D01*
X22925Y21234D01*
X22325D01*
X22226Y21214D01*
X22142Y21158D01*
X22086Y21074D01*
X22066Y20975D01*
Y20375D01*
X22086Y20276D01*
X22142Y20192D01*
X22212Y20145D01*
Y19314D01*
X22113Y19234D01*
X22100Y19236D01*
X21952Y19207D01*
X21920Y19186D01*
X21856Y19217D01*
X21846Y19363D01*
X21885Y19390D01*
X22019Y19589D01*
X22066Y19825D01*
X22019Y20061D01*
X21885Y20260D01*
X21686Y20394D01*
X21450Y20441D01*
X21214Y20394D01*
X21015Y20260D01*
X20886Y20068D01*
X20877Y20067D01*
X20759Y20130D01*
Y20225D01*
X20739Y20324D01*
X20683Y20408D01*
X20599Y20464D01*
X20500Y20484D01*
X20327D01*
Y19925D01*
X20073D01*
Y20484D01*
X19900D01*
X19801Y20464D01*
X19717Y20408D01*
X19583D01*
X19499Y20464D01*
X19400Y20484D01*
X18800D01*
X18701Y20464D01*
X18617Y20408D01*
X18561Y20324D01*
X18541Y20225D01*
Y19915D01*
X18325Y19700D01*
X18241Y19574D01*
X18212Y19425D01*
Y18575D01*
X18214Y18565D01*
Y18409D01*
X18201Y18299D01*
X18091Y18286D01*
X18052D01*
Y17900D01*
X17798D01*
Y18286D01*
X17650D01*
X17502Y18257D01*
X17418Y18201D01*
X17341Y18316D01*
X16916Y18741D01*
X16783Y18831D01*
X16625Y18862D01*
X14096D01*
X13962Y18996D01*
Y24535D01*
X14000Y24566D01*
X14023D01*
Y24975D01*
Y25384D01*
X14000D01*
X13901Y25364D01*
X13850Y25330D01*
X13799Y25364D01*
X13700Y25384D01*
X13565D01*
X13550Y25387D01*
X13159D01*
Y25575D01*
X13139Y25674D01*
X13083Y25758D01*
X12999Y25814D01*
X12900Y25834D01*
D02*
G37*
G36*
X42725Y23859D02*
X42152D01*
Y23127D01*
X42984D01*
Y23600D01*
X42964Y23699D01*
X42908Y23783D01*
X42824Y23839D01*
X42725Y23859D01*
D02*
G37*
G36*
X8409Y20598D02*
X8127D01*
Y20316D01*
X8150D01*
X8249Y20336D01*
X8333Y20392D01*
X8389Y20476D01*
X8409Y20575D01*
Y20598D01*
D02*
G37*
G36*
X7873D02*
X7591D01*
Y20575D01*
X7611Y20476D01*
X7667Y20392D01*
X7751Y20336D01*
X7850Y20316D01*
X7873D01*
Y20598D01*
D02*
G37*
G36*
X24284Y20548D02*
X23852D01*
Y20116D01*
X24025D01*
X24124Y20136D01*
X24208Y20192D01*
X24264Y20276D01*
X24284Y20375D01*
Y20548D01*
D02*
G37*
G36*
X41898Y22873D02*
X41066D01*
Y22400D01*
X41086Y22301D01*
X41142Y22217D01*
X41226Y22161D01*
X41325Y22141D01*
X41898D01*
Y22873D01*
D02*
G37*
G36*
X24025Y21234D02*
X23852D01*
Y20802D01*
X24284D01*
Y20975D01*
X24264Y21074D01*
X24208Y21158D01*
X24124Y21214D01*
X24025Y21234D01*
D02*
G37*
G36*
X24873D02*
X24700D01*
X24601Y21214D01*
X24517Y21158D01*
X24461Y21074D01*
X24441Y20975D01*
Y20802D01*
X24873D01*
Y21234D01*
D02*
G37*
G36*
X15423Y12198D02*
X14991D01*
Y12025D01*
X15011Y11926D01*
X15067Y11842D01*
X15151Y11786D01*
X15250Y11766D01*
X15423D01*
Y12198D01*
D02*
G37*
G36*
X40925Y7624D02*
X39425D01*
X39326Y7604D01*
X39242Y7548D01*
X39186Y7464D01*
X39166Y7365D01*
Y6765D01*
X39186Y6666D01*
X39242Y6582D01*
X39326Y6526D01*
X39425Y6506D01*
X40925D01*
X41024Y6526D01*
X41108Y6582D01*
X41164Y6666D01*
X41184Y6765D01*
Y7365D01*
X41164Y7464D01*
X41108Y7548D01*
X41024Y7604D01*
X40925Y7624D01*
D02*
G37*
G36*
X35784Y6938D02*
X34902D01*
Y6506D01*
X35525D01*
X35624Y6526D01*
X35708Y6582D01*
X35764Y6666D01*
X35784Y6765D01*
Y6938D01*
D02*
G37*
G36*
X34648D02*
X33766D01*
Y6765D01*
X33786Y6666D01*
X33842Y6582D01*
X33926Y6526D01*
X34025Y6506D01*
X34648D01*
Y6938D01*
D02*
G37*
G36*
X25473Y7223D02*
X25041D01*
Y7050D01*
X25061Y6951D01*
X25117Y6867D01*
X25201Y6811D01*
X25300Y6791D01*
X25473D01*
Y7223D01*
D02*
G37*
G36*
X20684Y7198D02*
X20252D01*
Y6766D01*
X20425D01*
X20524Y6786D01*
X20608Y6842D01*
X20664Y6926D01*
X20684Y7025D01*
Y7198D01*
D02*
G37*
G36*
X19998D02*
X19566D01*
Y7025D01*
X19586Y6926D01*
X19642Y6842D01*
X19726Y6786D01*
X19825Y6766D01*
X19998D01*
Y7198D01*
D02*
G37*
G36*
X45273Y5498D02*
X44253D01*
X44276Y5324D01*
X44392Y5043D01*
X44577Y4802D01*
X44818Y4617D01*
X45099Y4501D01*
X45273Y4478D01*
Y5498D01*
D02*
G37*
G36*
X45000Y3768D02*
X44983Y3764D01*
X44966Y3765D01*
X44705Y3731D01*
X44673Y3720D01*
X44640Y3714D01*
X44397Y3613D01*
X44368Y3594D01*
X44338Y3579D01*
X44129Y3419D01*
X44107Y3393D01*
X44081Y3371D01*
X43921Y3162D01*
X43906Y3132D01*
X43887Y3103D01*
X43786Y2860D01*
X43780Y2827D01*
X43769Y2795D01*
X43735Y2534D01*
X43737Y2500D01*
X43735Y2466D01*
X43769Y2205D01*
X43780Y2173D01*
X43786Y2140D01*
X43887Y1897D01*
X43906Y1868D01*
X43921Y1838D01*
X44081Y1629D01*
X44107Y1607D01*
X44129Y1581D01*
X44338Y1421D01*
X44368Y1406D01*
X44397Y1387D01*
X44640Y1286D01*
X44673Y1280D01*
X44705Y1269D01*
X44966Y1235D01*
X44983Y1236D01*
X45000Y1232D01*
X45017Y1236D01*
X45034Y1235D01*
X45295Y1269D01*
X45327Y1280D01*
X45360Y1286D01*
X45603Y1387D01*
X45632Y1406D01*
X45662Y1421D01*
X45871Y1581D01*
X45893Y1607D01*
X45919Y1629D01*
X46079Y1838D01*
X46094Y1868D01*
X46113Y1897D01*
X46214Y2140D01*
X46220Y2173D01*
X46231Y2205D01*
X46265Y2466D01*
X46263Y2500D01*
X46265Y2534D01*
X46231Y2795D01*
X46220Y2827D01*
X46214Y2860D01*
X46113Y3103D01*
X46094Y3132D01*
X46079Y3162D01*
X45919Y3371D01*
X45893Y3393D01*
X45871Y3419D01*
X45662Y3579D01*
X45632Y3594D01*
X45603Y3613D01*
X45360Y3714D01*
X45327Y3720D01*
X45295Y3731D01*
X45034Y3765D01*
X45017Y3764D01*
X45000Y3768D01*
D02*
G37*
G36*
X2500D02*
X2483Y3764D01*
X2466Y3765D01*
X2205Y3731D01*
X2173Y3720D01*
X2140Y3714D01*
X1897Y3613D01*
X1868Y3594D01*
X1838Y3579D01*
X1629Y3419D01*
X1607Y3393D01*
X1581Y3371D01*
X1421Y3162D01*
X1406Y3132D01*
X1387Y3103D01*
X1286Y2860D01*
X1280Y2827D01*
X1269Y2795D01*
X1235Y2534D01*
X1237Y2500D01*
X1235Y2466D01*
X1269Y2205D01*
X1280Y2173D01*
X1286Y2140D01*
X1387Y1897D01*
X1406Y1868D01*
X1421Y1838D01*
X1581Y1629D01*
X1607Y1607D01*
X1629Y1581D01*
X1838Y1421D01*
X1868Y1406D01*
X1897Y1387D01*
X2140Y1286D01*
X2173Y1280D01*
X2205Y1269D01*
X2466Y1235D01*
X2483Y1236D01*
X2500Y1232D01*
X2517Y1236D01*
X2534Y1235D01*
X2795Y1269D01*
X2827Y1280D01*
X2860Y1286D01*
X3103Y1387D01*
X3132Y1406D01*
X3162Y1421D01*
X3371Y1581D01*
X3393Y1607D01*
X3419Y1629D01*
X3579Y1838D01*
X3594Y1868D01*
X3613Y1897D01*
X3714Y2140D01*
X3720Y2173D01*
X3731Y2205D01*
X3765Y2466D01*
X3763Y2500D01*
X3765Y2534D01*
X3731Y2795D01*
X3720Y2827D01*
X3714Y2860D01*
X3613Y3103D01*
X3594Y3132D01*
X3579Y3162D01*
X3419Y3371D01*
X3393Y3393D01*
X3371Y3419D01*
X3162Y3579D01*
X3132Y3594D01*
X3103Y3613D01*
X2860Y3714D01*
X2827Y3720D01*
X2795Y3731D01*
X2534Y3765D01*
X2517Y3764D01*
X2500Y3768D01*
D02*
G37*
G36*
X45527Y6772D02*
Y5752D01*
X46547D01*
X46524Y5926D01*
X46408Y6207D01*
X46223Y6448D01*
X45982Y6633D01*
X45701Y6749D01*
X45527Y6772D01*
D02*
G37*
G36*
X45273D02*
X45099Y6749D01*
X44818Y6633D01*
X44577Y6448D01*
X44392Y6207D01*
X44276Y5926D01*
X44253Y5752D01*
X45273D01*
Y6772D01*
D02*
G37*
G36*
X46547Y5498D02*
X45527D01*
Y4478D01*
X45701Y4501D01*
X45982Y4617D01*
X46223Y4802D01*
X46408Y5043D01*
X46524Y5324D01*
X46547Y5498D01*
D02*
G37*
G36*
X26159Y7223D02*
X25727D01*
Y6791D01*
X25900D01*
X25999Y6811D01*
X26083Y6867D01*
X26139Y6951D01*
X26159Y7050D01*
Y7223D01*
D02*
G37*
G36*
X5384Y11098D02*
X3502D01*
Y10406D01*
X5125D01*
X5224Y10426D01*
X5308Y10482D01*
X5364Y10566D01*
X5384Y10665D01*
Y11098D01*
D02*
G37*
G36*
X3248D02*
X1366D01*
Y10665D01*
X1386Y10566D01*
X1442Y10482D01*
X1526Y10426D01*
X1625Y10406D01*
X3248D01*
Y11098D01*
D02*
G37*
G36*
X27050Y11286D02*
X26775D01*
X26500D01*
X26432Y11273D01*
X26139D01*
X26143Y11252D01*
X26211Y11150D01*
X26143Y11048D01*
X26114Y10900D01*
X26143Y10752D01*
X26211Y10650D01*
X26143Y10548D01*
X26135Y10509D01*
X26103Y10397D01*
X25991Y10365D01*
X25952Y10357D01*
X25850Y10289D01*
X25748Y10357D01*
X25600Y10386D01*
X25452Y10357D01*
X25350Y10289D01*
X25248Y10357D01*
X25100Y10386D01*
X24952Y10357D01*
X24850Y10289D01*
X24748Y10357D01*
X24600Y10386D01*
X24452Y10357D01*
X24350Y10289D01*
X24248Y10357D01*
X24100Y10386D01*
X23952Y10357D01*
X23850Y10289D01*
X23748Y10357D01*
X23600Y10386D01*
X23452Y10357D01*
X23350Y10289D01*
X23248Y10357D01*
X23100Y10386D01*
X22952Y10357D01*
X22850Y10289D01*
X22748Y10357D01*
X22727Y10361D01*
Y10068D01*
X22714Y10000D01*
Y9725D01*
Y9450D01*
X22727Y9382D01*
Y9089D01*
X22748Y9093D01*
X22850Y9161D01*
X22952Y9093D01*
X23100Y9064D01*
X23248Y9093D01*
X23350Y9161D01*
X23452Y9093D01*
X23600Y9064D01*
X23748Y9093D01*
X23850Y9161D01*
X23952Y9093D01*
X24100Y9064D01*
X24248Y9093D01*
X24350Y9161D01*
X24452Y9093D01*
X24600Y9064D01*
X24748Y9093D01*
X24850Y9161D01*
X24952Y9093D01*
X25087Y9066D01*
X25107Y9028D01*
X25126Y8939D01*
X25117Y8933D01*
X25061Y8849D01*
X25041Y8750D01*
Y8150D01*
X25061Y8051D01*
X25117Y7967D01*
Y7833D01*
X25061Y7749D01*
X25041Y7650D01*
Y7477D01*
X26159D01*
Y7650D01*
X26139Y7749D01*
X26083Y7833D01*
Y7967D01*
X26139Y8051D01*
X26159Y8150D01*
Y8750D01*
X26139Y8849D01*
X26083Y8933D01*
X26074Y8939D01*
X26093Y9028D01*
X26113Y9066D01*
X26248Y9093D01*
X26373Y9177D01*
X26457Y9302D01*
X26486Y9450D01*
Y9891D01*
X26499Y10001D01*
X26609Y10014D01*
X27050D01*
X27198Y10043D01*
X27323Y10127D01*
X27407Y10252D01*
X27436Y10400D01*
X27407Y10548D01*
X27339Y10650D01*
X27407Y10752D01*
X27436Y10900D01*
X27407Y11048D01*
X27339Y11150D01*
X27407Y11252D01*
X27411Y11273D01*
X27118D01*
X27050Y11286D01*
D02*
G37*
G36*
X24550Y16609D02*
X20150D01*
X20051Y16589D01*
X19967Y16533D01*
X19911Y16449D01*
X19891Y16350D01*
Y11950D01*
X19911Y11851D01*
X19967Y11767D01*
X20051Y11711D01*
X20150Y11691D01*
X24550D01*
X24649Y11711D01*
X24733Y11767D01*
X24789Y11851D01*
X24809Y11950D01*
Y16350D01*
X24789Y16449D01*
X24733Y16533D01*
X24649Y16589D01*
X24550Y16609D01*
D02*
G37*
G36*
X5125Y12044D02*
X3502D01*
Y11352D01*
X5384D01*
Y11785D01*
X5364Y11884D01*
X5308Y11968D01*
X5224Y12024D01*
X5125Y12044D01*
D02*
G37*
G36*
X3248D02*
X1625D01*
X1526Y12024D01*
X1442Y11968D01*
X1386Y11884D01*
X1366Y11785D01*
Y11352D01*
X3248D01*
Y12044D01*
D02*
G37*
G36*
X35784Y8208D02*
X34902D01*
Y7776D01*
X35525D01*
X35624Y7796D01*
X35708Y7852D01*
X35764Y7936D01*
X35784Y8035D01*
Y8208D01*
D02*
G37*
G36*
X35525Y7624D02*
X34902D01*
Y7192D01*
X35784D01*
Y7365D01*
X35764Y7464D01*
X35708Y7548D01*
X35624Y7604D01*
X35525Y7624D01*
D02*
G37*
G36*
X34648D02*
X34025D01*
X33926Y7604D01*
X33842Y7548D01*
X33786Y7464D01*
X33766Y7365D01*
Y7192D01*
X34648D01*
Y7624D01*
D02*
G37*
G36*
X11550Y11959D02*
X10150D01*
X10051Y11939D01*
X9967Y11883D01*
X9911Y11799D01*
X9891Y11700D01*
Y10750D01*
X9911Y10651D01*
X9967Y10567D01*
X10051Y10511D01*
X10150Y10491D01*
X10336D01*
Y10193D01*
X10281Y10111D01*
X10234Y9875D01*
X10281Y9639D01*
X10415Y9440D01*
X10614Y9306D01*
X10850Y9259D01*
X11086Y9306D01*
X11285Y9440D01*
X11419Y9639D01*
X11466Y9875D01*
X11419Y10111D01*
X11364Y10193D01*
Y10491D01*
X11550D01*
X11649Y10511D01*
X11733Y10567D01*
X11789Y10651D01*
X11809Y10750D01*
Y11700D01*
X11789Y11799D01*
X11733Y11883D01*
X11649Y11939D01*
X11550Y11959D01*
D02*
G37*
G36*
X35525Y8894D02*
X34902D01*
Y8462D01*
X35784D01*
Y8635D01*
X35764Y8734D01*
X35708Y8818D01*
X35624Y8874D01*
X35525Y8894D01*
D02*
G37*
G36*
X3500Y9409D02*
X1000D01*
X901Y9389D01*
X817Y9333D01*
X761Y9249D01*
X741Y9150D01*
Y8150D01*
X761Y8051D01*
X817Y7967D01*
X901Y7911D01*
X1000Y7891D01*
X3500D01*
X3599Y7911D01*
X3683Y7967D01*
X3739Y8051D01*
X3759Y8150D01*
Y9150D01*
X3739Y9249D01*
X3683Y9333D01*
X3599Y9389D01*
X3500Y9409D01*
D02*
G37*
G36*
X8900Y25834D02*
X7100D01*
X7001Y25814D01*
X6917Y25758D01*
X6861Y25674D01*
X6841Y25575D01*
Y24375D01*
X6861Y24276D01*
X6917Y24192D01*
X7001Y24136D01*
X7100Y24116D01*
X8900D01*
X8999Y24136D01*
X9083Y24192D01*
X9139Y24276D01*
X9159Y24375D01*
Y25575D01*
X9139Y25674D01*
X9083Y25758D01*
X8999Y25814D01*
X8900Y25834D01*
D02*
G37*
G36*
X20073Y42998D02*
X19486D01*
Y42515D01*
X19506Y42416D01*
X19562Y42332D01*
X19646Y42276D01*
X19745Y42256D01*
X20073D01*
Y42998D01*
D02*
G37*
G36*
X19100Y42534D02*
X18927D01*
Y42102D01*
X19359D01*
Y42275D01*
X19339Y42374D01*
X19283Y42458D01*
X19199Y42514D01*
X19100Y42534D01*
D02*
G37*
G36*
X18673D02*
X18500D01*
X18401Y42514D01*
X18317Y42458D01*
X18261Y42374D01*
X18241Y42275D01*
Y42102D01*
X18673D01*
Y42534D01*
D02*
G37*
G36*
X20655Y43994D02*
X20327D01*
Y43252D01*
X20914D01*
Y43735D01*
X20894Y43834D01*
X20838Y43918D01*
X20754Y43974D01*
X20655Y43994D01*
D02*
G37*
G36*
X20073D02*
X19745D01*
X19646Y43974D01*
X19562Y43918D01*
X19506Y43834D01*
X19486Y43735D01*
Y43252D01*
X20073D01*
Y43994D01*
D02*
G37*
G36*
X20914Y42998D02*
X20327D01*
Y42256D01*
X20655D01*
X20754Y42276D01*
X20838Y42332D01*
X20894Y42416D01*
X20914Y42515D01*
Y42998D01*
D02*
G37*
G36*
X7140Y44348D02*
X6002D01*
Y41727D01*
X6202Y41753D01*
X6507Y41880D01*
X6769Y42081D01*
X6970Y42343D01*
X7097Y42648D01*
X7140Y42975D01*
Y44348D01*
D02*
G37*
G36*
X13573Y38059D02*
X13400D01*
X13301Y38039D01*
X13217Y37983D01*
X13161Y37899D01*
X13141Y37800D01*
Y37627D01*
X13573D01*
Y38059D01*
D02*
G37*
G36*
X27500Y37584D02*
X26927D01*
Y36852D01*
X27759D01*
Y37325D01*
X27739Y37424D01*
X27683Y37508D01*
X27599Y37564D01*
X27500Y37584D01*
D02*
G37*
G36*
X26673D02*
X26100D01*
X26001Y37564D01*
X25917Y37508D01*
X25861Y37424D01*
X25841Y37325D01*
Y36852D01*
X26673D01*
Y37584D01*
D02*
G37*
G36*
X5748Y44348D02*
X4610D01*
Y42975D01*
X4653Y42648D01*
X4780Y42343D01*
X4981Y42081D01*
X5243Y41880D01*
X5548Y41753D01*
X5748Y41727D01*
Y44348D01*
D02*
G37*
G36*
X19359Y41848D02*
X18241D01*
Y41675D01*
X18261Y41576D01*
X18262Y41574D01*
X18309Y41475D01*
X18262Y41376D01*
X18261Y41374D01*
X18241Y41275D01*
Y40675D01*
X18261Y40576D01*
X18317Y40492D01*
X18401Y40436D01*
X18500Y40416D01*
X19100D01*
X19199Y40436D01*
X19237Y40461D01*
X19525D01*
X19601Y40411D01*
X19700Y40391D01*
X20700D01*
X20799Y40411D01*
X20883Y40467D01*
X20939Y40551D01*
X20959Y40650D01*
Y41250D01*
X20939Y41349D01*
X20883Y41433D01*
X20799Y41489D01*
X20700Y41509D01*
X19700D01*
X19601Y41489D01*
X19600Y41489D01*
X19434D01*
X19408Y41512D01*
X19347Y41616D01*
X19359Y41675D01*
Y41848D01*
D02*
G37*
G36*
X14000Y38059D02*
X13827D01*
Y37627D01*
X14259D01*
Y37800D01*
X14239Y37899D01*
X14183Y37983D01*
X14099Y38039D01*
X14000Y38059D01*
D02*
G37*
G36*
X10648Y48790D02*
X9275D01*
X8948Y48747D01*
X8643Y48620D01*
X8381Y48419D01*
X8180Y48157D01*
X8053Y47852D01*
X8027Y47652D01*
X10648D01*
Y48790D01*
D02*
G37*
G36*
X22612Y48647D02*
Y47627D01*
X23632D01*
X23609Y47801D01*
X23493Y48082D01*
X23308Y48323D01*
X23067Y48508D01*
X22786Y48624D01*
X22612Y48647D01*
D02*
G37*
G36*
X22358Y48647D02*
X22184Y48624D01*
X21903Y48508D01*
X21662Y48323D01*
X21477Y48082D01*
X21361Y47801D01*
X21338Y47627D01*
X22358D01*
Y48647D01*
D02*
G37*
G36*
X45000Y48768D02*
X44983Y48764D01*
X44966Y48765D01*
X44705Y48731D01*
X44673Y48720D01*
X44640Y48714D01*
X44397Y48613D01*
X44368Y48594D01*
X44338Y48579D01*
X44129Y48419D01*
X44107Y48393D01*
X44081Y48371D01*
X43921Y48162D01*
X43906Y48132D01*
X43887Y48103D01*
X43786Y47860D01*
X43780Y47827D01*
X43769Y47795D01*
X43735Y47534D01*
X43737Y47500D01*
X43735Y47466D01*
X43769Y47205D01*
X43780Y47173D01*
X43786Y47140D01*
X43887Y46897D01*
X43906Y46868D01*
X43921Y46838D01*
X44081Y46629D01*
X44107Y46607D01*
X44129Y46581D01*
X44338Y46421D01*
X44368Y46406D01*
X44397Y46387D01*
X44640Y46286D01*
X44673Y46280D01*
X44705Y46269D01*
X44966Y46235D01*
X44983Y46236D01*
X45000Y46232D01*
X45017Y46236D01*
X45034Y46235D01*
X45295Y46269D01*
X45327Y46280D01*
X45360Y46286D01*
X45603Y46387D01*
X45632Y46406D01*
X45662Y46421D01*
X45871Y46581D01*
X45893Y46607D01*
X45919Y46629D01*
X46079Y46838D01*
X46094Y46868D01*
X46113Y46897D01*
X46214Y47140D01*
X46220Y47173D01*
X46231Y47205D01*
X46265Y47466D01*
X46263Y47500D01*
X46265Y47534D01*
X46231Y47795D01*
X46220Y47827D01*
X46214Y47860D01*
X46113Y48103D01*
X46094Y48132D01*
X46079Y48162D01*
X45919Y48371D01*
X45893Y48393D01*
X45871Y48419D01*
X45662Y48579D01*
X45632Y48594D01*
X45603Y48613D01*
X45360Y48714D01*
X45327Y48720D01*
X45295Y48731D01*
X45034Y48765D01*
X45017Y48764D01*
X45000Y48768D01*
D02*
G37*
G36*
X2500D02*
X2483Y48764D01*
X2466Y48765D01*
X2205Y48731D01*
X2173Y48720D01*
X2140Y48714D01*
X1897Y48613D01*
X1868Y48594D01*
X1838Y48579D01*
X1629Y48419D01*
X1607Y48393D01*
X1581Y48371D01*
X1421Y48162D01*
X1406Y48132D01*
X1387Y48103D01*
X1286Y47860D01*
X1280Y47827D01*
X1269Y47795D01*
X1235Y47534D01*
X1237Y47500D01*
X1235Y47466D01*
X1269Y47205D01*
X1280Y47173D01*
X1286Y47140D01*
X1387Y46897D01*
X1406Y46868D01*
X1421Y46838D01*
X1581Y46629D01*
X1607Y46607D01*
X1629Y46581D01*
X1838Y46421D01*
X1868Y46406D01*
X1897Y46387D01*
X2140Y46286D01*
X2173Y46280D01*
X2205Y46269D01*
X2466Y46235D01*
X2483Y46236D01*
X2500Y46232D01*
X2517Y46236D01*
X2534Y46235D01*
X2795Y46269D01*
X2827Y46280D01*
X2860Y46286D01*
X3103Y46387D01*
X3132Y46406D01*
X3162Y46421D01*
X3371Y46581D01*
X3393Y46607D01*
X3419Y46629D01*
X3579Y46838D01*
X3594Y46868D01*
X3613Y46897D01*
X3714Y47140D01*
X3720Y47173D01*
X3731Y47205D01*
X3765Y47466D01*
X3763Y47500D01*
X3765Y47534D01*
X3731Y47795D01*
X3720Y47827D01*
X3714Y47860D01*
X3613Y48103D01*
X3594Y48132D01*
X3579Y48162D01*
X3419Y48371D01*
X3393Y48393D01*
X3371Y48419D01*
X3162Y48579D01*
X3132Y48594D01*
X3103Y48613D01*
X2860Y48714D01*
X2827Y48720D01*
X2795Y48731D01*
X2534Y48765D01*
X2517Y48764D01*
X2500Y48768D01*
D02*
G37*
G36*
X12275Y48790D02*
X10902D01*
Y47652D01*
X13523D01*
X13497Y47852D01*
X13370Y48157D01*
X13169Y48419D01*
X12907Y48620D01*
X12602Y48747D01*
X12275Y48790D01*
D02*
G37*
G36*
X23632Y47373D02*
X22612D01*
Y46353D01*
X22786Y46376D01*
X23067Y46492D01*
X23308Y46677D01*
X23493Y46918D01*
X23609Y47199D01*
X23632Y47373D01*
D02*
G37*
G36*
X6002Y47223D02*
Y44602D01*
X7140D01*
Y45975D01*
X7097Y46302D01*
X6970Y46607D01*
X6769Y46869D01*
X6507Y47070D01*
X6202Y47197D01*
X6002Y47223D01*
D02*
G37*
G36*
X5748D02*
X5548Y47197D01*
X5243Y47070D01*
X4981Y46869D01*
X4780Y46607D01*
X4653Y46302D01*
X4610Y45975D01*
Y44602D01*
X5748D01*
Y47223D01*
D02*
G37*
G36*
X25475Y48659D02*
X24575D01*
X24476Y48639D01*
X24392Y48583D01*
X23942Y48133D01*
X23886Y48049D01*
X23866Y47950D01*
Y47050D01*
X23886Y46951D01*
X23942Y46867D01*
X24392Y46417D01*
X24409Y46405D01*
Y44450D01*
X24456Y44214D01*
X24491Y44162D01*
Y44075D01*
X24511Y43976D01*
X24512Y43974D01*
X24559Y43875D01*
X24512Y43776D01*
X24511Y43774D01*
X24491Y43675D01*
Y43643D01*
X24487Y43639D01*
X24189D01*
Y43735D01*
X24169Y43834D01*
X24113Y43918D01*
X24029Y43974D01*
X23930Y43994D01*
X23020D01*
X22921Y43974D01*
X22837Y43918D01*
X22781Y43834D01*
X22761Y43735D01*
Y42515D01*
X22781Y42416D01*
X22837Y42332D01*
X22921Y42276D01*
X22961Y42268D01*
Y41088D01*
X22432Y40559D01*
X22100D01*
X22001Y40539D01*
X21917Y40483D01*
X21861Y40399D01*
X21841Y40300D01*
Y39700D01*
X21861Y39601D01*
X21917Y39517D01*
X22001Y39461D01*
X22100Y39441D01*
X23100D01*
X23199Y39461D01*
X23283Y39517D01*
X23339Y39601D01*
X23359Y39700D01*
Y40032D01*
X23838Y40512D01*
X23950Y40678D01*
X23989Y40875D01*
Y42268D01*
X24029Y42276D01*
X24113Y42332D01*
X24169Y42416D01*
X24189Y42515D01*
Y42611D01*
X24700D01*
X24897Y42650D01*
X25063Y42762D01*
X25118Y42816D01*
X25350D01*
X25449Y42836D01*
X25533Y42892D01*
X25589Y42976D01*
X25609Y43075D01*
Y43675D01*
X25589Y43774D01*
X25588Y43776D01*
X25541Y43875D01*
X25588Y43974D01*
X25589Y43976D01*
X25609Y44075D01*
Y44290D01*
X25641Y44450D01*
Y46405D01*
X25658Y46417D01*
X26108Y46867D01*
X26164Y46951D01*
X26184Y47050D01*
Y47950D01*
X26164Y48049D01*
X26108Y48133D01*
X25658Y48583D01*
X25574Y48639D01*
X25475Y48659D01*
D02*
G37*
G36*
X22358Y47373D02*
X21338D01*
X21361Y47199D01*
X21477Y46918D01*
X21662Y46677D01*
X21903Y46492D01*
X22184Y46376D01*
X22358Y46353D01*
Y47373D01*
D02*
G37*
G36*
X13523Y47398D02*
X10902D01*
Y46260D01*
X12275D01*
X12602Y46303D01*
X12907Y46430D01*
X13169Y46631D01*
X13370Y46893D01*
X13497Y47198D01*
X13523Y47398D01*
D02*
G37*
G36*
X10648D02*
X8027D01*
X8053Y47198D01*
X8180Y46893D01*
X8381Y46631D01*
X8643Y46430D01*
X8948Y46303D01*
X9275Y46260D01*
X10648D01*
Y47398D01*
D02*
G37*
G36*
X20700Y39609D02*
X19700D01*
X19601Y39589D01*
X19517Y39533D01*
X19461Y39449D01*
X19441Y39350D01*
Y39018D01*
X17087Y36663D01*
X17029Y36576D01*
X16876Y36576D01*
X16868Y36588D01*
X16784Y36644D01*
X16685Y36664D01*
X16202D01*
Y35950D01*
Y35236D01*
X16468D01*
X16517Y35119D01*
X15712Y34313D01*
X15600Y34147D01*
X15561Y33950D01*
Y33389D01*
X15465D01*
X15366Y33369D01*
X15282Y33313D01*
X15226Y33229D01*
X15223Y33214D01*
X13281D01*
X13264Y33299D01*
X13208Y33383D01*
X13124Y33439D01*
X13025Y33459D01*
X12425D01*
X12326Y33439D01*
X12242Y33383D01*
X12186Y33299D01*
X12166Y33200D01*
Y32200D01*
X12186Y32101D01*
X12242Y32017D01*
X12326Y31961D01*
X12425Y31941D01*
X13025D01*
X13124Y31961D01*
X13208Y32017D01*
X13264Y32101D01*
X13281Y32186D01*
X15213D01*
X15226Y32121D01*
X15282Y32037D01*
X15366Y31981D01*
X15465Y31961D01*
X16685D01*
X16784Y31981D01*
X16868Y32037D01*
X16924Y32121D01*
X16932Y32161D01*
X18394D01*
X18411Y32076D01*
X18467Y31992D01*
X18495Y31973D01*
Y31827D01*
X18467Y31808D01*
X18411Y31724D01*
X18391Y31625D01*
Y31327D01*
X19759D01*
Y31625D01*
X19739Y31724D01*
X19683Y31808D01*
X19655Y31827D01*
Y31973D01*
X19683Y31992D01*
X19739Y32076D01*
X19759Y32175D01*
Y32268D01*
X20306D01*
Y32100D01*
X20326Y32001D01*
X20343Y31975D01*
X20326Y31949D01*
X20306Y31850D01*
Y31650D01*
X20326Y31551D01*
X20343Y31525D01*
X20326Y31499D01*
X20306Y31400D01*
Y31200D01*
X20326Y31101D01*
X20335Y31087D01*
X20277Y31029D01*
X20193Y30904D01*
X20164Y30756D01*
Y30592D01*
X20151Y30589D01*
X20067Y30533D01*
X20011Y30449D01*
X19991Y30350D01*
Y29750D01*
X20011Y29651D01*
X20067Y29567D01*
X20151Y29511D01*
X20250Y29491D01*
X20850D01*
X20949Y29511D01*
X20951Y29512D01*
X21050Y29559D01*
X21149Y29512D01*
X21151Y29511D01*
X21250Y29491D01*
X21423D01*
Y30050D01*
Y30609D01*
X21250D01*
X21159Y30591D01*
X21145Y30591D01*
X21125Y30605D01*
X21111Y30770D01*
X21281Y30941D01*
X21565D01*
X21664Y30961D01*
X21748Y31017D01*
X21770Y31050D01*
X21815Y31041D01*
X22248D01*
Y31975D01*
Y32909D01*
X21815D01*
X21770Y32900D01*
X21748Y32933D01*
X21664Y32989D01*
X21565Y33009D01*
X21266D01*
X21263Y33011D01*
X21115Y33040D01*
X19756D01*
X19739Y33124D01*
X19683Y33208D01*
X19599Y33264D01*
X19500Y33284D01*
X18650D01*
X18551Y33264D01*
X18467Y33208D01*
X18454Y33189D01*
X16932D01*
X16924Y33229D01*
X16868Y33313D01*
X16784Y33369D01*
X16685Y33389D01*
X16589D01*
Y33737D01*
X17813Y34962D01*
X17925Y35128D01*
X17964Y35325D01*
Y36087D01*
X20368Y38491D01*
X20700D01*
X20799Y38511D01*
X20883Y38567D01*
X20939Y38651D01*
X20959Y38750D01*
Y39350D01*
X20939Y39449D01*
X20883Y39533D01*
X20799Y39589D01*
X20700Y39609D01*
D02*
G37*
G36*
X28498Y30009D02*
X28325D01*
X28226Y29989D01*
X28150Y29939D01*
X28074Y29989D01*
X27975Y30009D01*
X27375D01*
X27276Y29989D01*
X27192Y29933D01*
X27136Y29849D01*
X27116Y29750D01*
Y28750D01*
X27136Y28651D01*
X27192Y28567D01*
X27276Y28511D01*
X27375Y28491D01*
X27975D01*
X28074Y28511D01*
X28150Y28561D01*
X28226Y28511D01*
X28325Y28491D01*
X28498D01*
Y29250D01*
Y30009D01*
D02*
G37*
G36*
X24773Y30173D02*
X24491D01*
Y30150D01*
X24511Y30051D01*
X24567Y29967D01*
X24651Y29911D01*
X24750Y29891D01*
X24773D01*
Y30173D01*
D02*
G37*
G36*
X22109Y29923D02*
X21677D01*
Y29491D01*
X21850D01*
X21949Y29511D01*
X22033Y29567D01*
X22089Y29651D01*
X22109Y29750D01*
Y29923D01*
D02*
G37*
G36*
X19759Y31073D02*
X19202D01*
Y30516D01*
X19500D01*
X19599Y30536D01*
X19683Y30592D01*
X19739Y30676D01*
X19759Y30775D01*
Y31073D01*
D02*
G37*
G36*
X18948D02*
X18391D01*
Y30775D01*
X18411Y30676D01*
X18467Y30592D01*
X18551Y30536D01*
X18650Y30516D01*
X18948D01*
Y31073D01*
D02*
G37*
G36*
X21850Y30609D02*
X21677D01*
Y30177D01*
X22109D01*
Y30350D01*
X22089Y30449D01*
X22033Y30533D01*
X21949Y30589D01*
X21850Y30609D01*
D02*
G37*
G36*
X27975Y27609D02*
X27375D01*
X27276Y27589D01*
X27192Y27533D01*
X27136Y27449D01*
X27116Y27350D01*
Y26350D01*
X27136Y26251D01*
X27192Y26167D01*
X27276Y26111D01*
X27375Y26091D01*
X27975D01*
X28074Y26111D01*
X28158Y26167D01*
X28214Y26251D01*
X28234Y26350D01*
Y27350D01*
X28214Y27449D01*
X28158Y27533D01*
X28074Y27589D01*
X27975Y27609D01*
D02*
G37*
G36*
X40950Y25109D02*
X40777D01*
Y24677D01*
X41209D01*
Y24850D01*
X41189Y24949D01*
X41133Y25033D01*
X41049Y25089D01*
X40950Y25109D01*
D02*
G37*
G36*
X14559Y24848D02*
X14277D01*
Y24566D01*
X14300D01*
X14399Y24586D01*
X14483Y24642D01*
X14539Y24726D01*
X14559Y24825D01*
Y24848D01*
D02*
G37*
G36*
X29875Y27609D02*
X29275D01*
X29176Y27589D01*
X29092Y27533D01*
X29036Y27449D01*
X29016Y27350D01*
Y26350D01*
X29036Y26251D01*
X29092Y26167D01*
X29138Y26136D01*
X29127Y26099D01*
Y25600D01*
X29000D01*
Y25473D01*
X28591D01*
Y25450D01*
X28611Y25351D01*
X28667Y25267D01*
X28751Y25211D01*
X28850Y25191D01*
X28999D01*
X29067Y25064D01*
X29031Y25011D01*
X28984Y24775D01*
X29031Y24539D01*
X29165Y24340D01*
X29364Y24206D01*
X29600Y24159D01*
X29836Y24206D01*
X30035Y24340D01*
X30169Y24539D01*
X30216Y24775D01*
X30169Y25011D01*
X30035Y25210D01*
X30015Y25224D01*
X29989Y25351D01*
X30009Y25450D01*
Y25750D01*
X29989Y25849D01*
X29986Y25853D01*
Y26119D01*
X30058Y26167D01*
X30114Y26251D01*
X30134Y26350D01*
Y27350D01*
X30114Y27449D01*
X30058Y27533D01*
X29974Y27589D01*
X29875Y27609D01*
D02*
G37*
G36*
X28873Y26009D02*
X28850D01*
X28751Y25989D01*
X28667Y25933D01*
X28611Y25849D01*
X28591Y25750D01*
Y25727D01*
X28873D01*
Y26009D01*
D02*
G37*
G36*
X14300Y25384D02*
X14277D01*
Y25102D01*
X14559D01*
Y25125D01*
X14539Y25224D01*
X14483Y25308D01*
X14399Y25364D01*
X14300Y25384D01*
D02*
G37*
G36*
X40523Y25109D02*
X40350D01*
X40251Y25089D01*
X40249Y25088D01*
X40150Y25041D01*
X40051Y25088D01*
X40049Y25089D01*
X39950Y25109D01*
X39350D01*
X39251Y25089D01*
X39167Y25033D01*
X39111Y24949D01*
X39091Y24850D01*
Y24250D01*
X39111Y24151D01*
X39136Y24113D01*
Y23812D01*
X39111Y23774D01*
X39091Y23675D01*
Y22675D01*
X39111Y22576D01*
X39167Y22492D01*
X39251Y22436D01*
X39350Y22416D01*
X39950D01*
X40049Y22436D01*
X40133Y22492D01*
X40189Y22576D01*
X40209Y22675D01*
Y23675D01*
X40189Y23774D01*
X40164Y23812D01*
Y23916D01*
X40187Y23942D01*
X40291Y24003D01*
X40350Y23991D01*
X40523D01*
Y24550D01*
Y25109D01*
D02*
G37*
G36*
X15948Y35823D02*
X15206D01*
Y35495D01*
X15226Y35396D01*
X15282Y35312D01*
X15366Y35256D01*
X15465Y35236D01*
X15948D01*
Y35823D01*
D02*
G37*
G36*
X14259Y37373D02*
X13141D01*
Y37200D01*
X13161Y37101D01*
X13162Y37099D01*
X13209Y37000D01*
X13162Y36901D01*
X13161Y36899D01*
X13141Y36800D01*
Y36200D01*
X13161Y36101D01*
X13217Y36017D01*
X13288Y35969D01*
Y35842D01*
X13276Y35839D01*
X13192Y35783D01*
X13136Y35699D01*
X13116Y35600D01*
Y34600D01*
X13136Y34501D01*
X13192Y34417D01*
X13276Y34361D01*
X13375Y34341D01*
X13975D01*
X14074Y34361D01*
X14158Y34417D01*
X14214Y34501D01*
X14234Y34600D01*
Y35600D01*
X14214Y35699D01*
X14158Y35783D01*
X14112Y35814D01*
Y35969D01*
X14183Y36017D01*
X14239Y36101D01*
X14259Y36200D01*
Y36800D01*
X14239Y36899D01*
X14238Y36901D01*
X14191Y37000D01*
X14238Y37099D01*
X14239Y37101D01*
X14259Y37200D01*
Y37373D01*
D02*
G37*
G36*
X12275Y42790D02*
X9275D01*
X8948Y42747D01*
X8643Y42620D01*
X8381Y42419D01*
X8180Y42157D01*
X8053Y41852D01*
X8010Y41525D01*
X8053Y41198D01*
X8180Y40893D01*
X8381Y40631D01*
X8643Y40430D01*
X8948Y40303D01*
X9236Y40265D01*
Y35175D01*
X9241Y35150D01*
Y34750D01*
X9261Y34651D01*
X9317Y34567D01*
X9401Y34511D01*
X9500Y34491D01*
X10000D01*
X10099Y34511D01*
X10183Y34567D01*
X10239Y34651D01*
X10241Y34661D01*
X11216D01*
Y34600D01*
X11236Y34501D01*
X11292Y34417D01*
X11376Y34361D01*
X11475Y34341D01*
X12075D01*
X12174Y34361D01*
X12258Y34417D01*
X12314Y34501D01*
X12334Y34600D01*
Y35600D01*
X12314Y35699D01*
X12258Y35783D01*
X12174Y35839D01*
X12075Y35859D01*
X11475D01*
X11376Y35839D01*
X11292Y35783D01*
X11236Y35699D01*
X11234Y35689D01*
X10264D01*
Y40260D01*
X12275D01*
X12602Y40303D01*
X12907Y40430D01*
X13169Y40631D01*
X13370Y40893D01*
X13497Y41198D01*
X13540Y41525D01*
X13497Y41852D01*
X13370Y42157D01*
X13169Y42419D01*
X12907Y42620D01*
X12602Y42747D01*
X12275Y42790D01*
D02*
G37*
G36*
X15948Y36664D02*
X15465D01*
X15366Y36644D01*
X15282Y36588D01*
X15226Y36504D01*
X15206Y36405D01*
Y36077D01*
X15948D01*
Y36664D01*
D02*
G37*
G36*
X27759Y36598D02*
X26927D01*
Y35866D01*
X27500D01*
X27599Y35886D01*
X27683Y35942D01*
X27739Y36026D01*
X27759Y36125D01*
Y36598D01*
D02*
G37*
G36*
X26673D02*
X25841D01*
Y36125D01*
X25861Y36026D01*
X25917Y35942D01*
X26001Y35886D01*
X26100Y35866D01*
X26673D01*
Y36598D01*
D02*
G37*
G36*
X9623Y33259D02*
X9500D01*
X9401Y33239D01*
X9317Y33183D01*
X9261Y33099D01*
X9241Y33000D01*
Y32702D01*
X9623D01*
Y33259D01*
D02*
G37*
G36*
X10259Y32448D02*
X9877D01*
Y31891D01*
X10000D01*
X10099Y31911D01*
X10183Y31967D01*
X10239Y32051D01*
X10259Y32150D01*
Y32448D01*
D02*
G37*
G36*
X9623D02*
X9241D01*
Y32150D01*
X9261Y32051D01*
X9317Y31967D01*
X9401Y31911D01*
X9500Y31891D01*
X9623D01*
Y32448D01*
D02*
G37*
G36*
X10000Y33259D02*
X9877D01*
Y32702D01*
X10259D01*
Y33000D01*
X10239Y33099D01*
X10183Y33183D01*
X10099Y33239D01*
X10000Y33259D01*
D02*
G37*
G36*
X29950Y35059D02*
X28700D01*
X28601Y35039D01*
X28517Y34983D01*
X28461Y34899D01*
X28449Y34841D01*
X27400D01*
X27164Y34794D01*
X26965Y34660D01*
X26788Y34484D01*
X26100D01*
X26001Y34464D01*
X25917Y34408D01*
X25861Y34324D01*
X25841Y34225D01*
Y34088D01*
X25600D01*
X25423Y34053D01*
X25273Y33952D01*
X25172Y33802D01*
X25149Y33684D01*
X24849Y33384D01*
X24800D01*
X24701Y33364D01*
X24617Y33308D01*
X24561Y33224D01*
X24541Y33125D01*
Y33076D01*
X24475Y33011D01*
X23685D01*
X23675Y33009D01*
X23185D01*
X23086Y32989D01*
X23002Y32933D01*
X22980Y32900D01*
X22935Y32909D01*
X22502D01*
Y31975D01*
Y31041D01*
X22935D01*
X22980Y31050D01*
X23002Y31017D01*
X23086Y30961D01*
X23185Y30941D01*
X23675D01*
X23685Y30939D01*
X23823D01*
X23985Y30777D01*
X23992Y30742D01*
X24081Y30609D01*
X24215Y30519D01*
X24373Y30488D01*
X24460D01*
X24491Y30450D01*
Y30427D01*
X24900D01*
Y30300D01*
X25027D01*
Y29891D01*
X25050D01*
X25149Y29911D01*
X25233Y29967D01*
X25367Y29967D01*
X25451Y29911D01*
X25550Y29891D01*
X25573D01*
Y30300D01*
X25827D01*
Y29891D01*
X25850D01*
X25949Y29911D01*
X26033Y29967D01*
X26089Y30051D01*
X26109Y30150D01*
Y30386D01*
X28553D01*
X28804Y30136D01*
X28752Y30011D01*
Y29250D01*
Y28491D01*
X28925D01*
X29024Y28511D01*
X29100Y28561D01*
X29176Y28511D01*
X29275Y28491D01*
X29875D01*
X29974Y28511D01*
X30058Y28567D01*
X30114Y28651D01*
X30134Y28750D01*
Y29750D01*
X30114Y29849D01*
X30089Y29887D01*
Y30091D01*
X30071Y30180D01*
X30125Y30234D01*
X30361Y30281D01*
X30560Y30415D01*
X30694Y30614D01*
X30741Y30850D01*
X30694Y31086D01*
X30560Y31285D01*
X30361Y31419D01*
X30133Y31464D01*
X30118Y31490D01*
X30091Y31588D01*
X30133Y31617D01*
X30189Y31701D01*
X30209Y31800D01*
Y32800D01*
X30189Y32899D01*
X30133Y32983D01*
X30049Y33039D01*
X29950Y33059D01*
X28700D01*
X28601Y33039D01*
X28517Y32983D01*
X28461Y32899D01*
X28441Y32800D01*
Y32389D01*
X25550D01*
X25457Y32370D01*
X25359Y32451D01*
Y32525D01*
X25339Y32624D01*
X25305Y32675D01*
X25339Y32726D01*
X25359Y32825D01*
Y32874D01*
X25648Y33162D01*
X25841D01*
Y33025D01*
X25861Y32926D01*
X25917Y32842D01*
X26001Y32786D01*
X26100Y32766D01*
X27500D01*
X27599Y32786D01*
X27683Y32842D01*
X27739Y32926D01*
X27759Y33025D01*
Y33609D01*
X28528D01*
X28601Y33561D01*
X28700Y33541D01*
X29950D01*
X30049Y33561D01*
X30133Y33617D01*
X30189Y33701D01*
X30209Y33800D01*
Y34800D01*
X30189Y34899D01*
X30133Y34983D01*
X30049Y35039D01*
X29950Y35059D01*
D02*
G37*
%LPD*%
G36*
X30676Y15486D02*
X30746Y15472D01*
X30984Y15234D01*
X31117Y15144D01*
X31275Y15113D01*
X32699D01*
X32715Y15090D01*
X32736Y15075D01*
Y14955D01*
X32667Y14908D01*
X32611Y14824D01*
X32591Y14725D01*
Y14125D01*
X32611Y14026D01*
X32612Y14024D01*
X32659Y13925D01*
X32612Y13826D01*
X32611Y13824D01*
X32603Y13786D01*
X27514D01*
X27433Y13885D01*
X27436Y13900D01*
X27407Y14048D01*
X27339Y14150D01*
X27407Y14252D01*
X27436Y14400D01*
X27434Y14413D01*
X27514Y14512D01*
X27744D01*
X27761Y14426D01*
X27817Y14342D01*
X27901Y14286D01*
X28000Y14266D01*
X28600D01*
X28699Y14286D01*
X28783Y14342D01*
X28917D01*
X29001Y14286D01*
X29100Y14266D01*
X29273D01*
Y14825D01*
X29400D01*
Y14952D01*
X29959D01*
Y15125D01*
X29939Y15224D01*
X29907Y15272D01*
X29862Y15382D01*
X29929Y15487D01*
X30075D01*
X30076Y15486D01*
X30175Y15466D01*
X30475D01*
X30574Y15486D01*
X30625Y15520D01*
X30676Y15486D01*
D02*
G37*
%LPC*%
G36*
X29959Y14698D02*
X29527D01*
Y14266D01*
X29700D01*
X29799Y14286D01*
X29883Y14342D01*
X29939Y14426D01*
X29959Y14525D01*
Y14698D01*
D02*
G37*
%LPD*%
D10*
X3625Y13725D02*
D03*
Y15725D02*
D03*
D11*
X3375Y11225D02*
D03*
Y18225D02*
D03*
D12*
X41825Y8325D02*
D03*
Y9325D02*
D03*
X14225Y12350D02*
D03*
Y13450D02*
D03*
X15825Y17225D02*
D03*
Y16125D02*
D03*
X12825Y12350D02*
D03*
Y13450D02*
D03*
X14675Y17250D02*
D03*
Y16150D02*
D03*
X25600Y7350D02*
D03*
Y8450D02*
D03*
X20125Y7325D02*
D03*
Y8425D02*
D03*
X25050Y43375D02*
D03*
Y44375D02*
D03*
X13700Y37500D02*
D03*
Y36500D02*
D03*
X16650Y11225D02*
D03*
Y10225D02*
D03*
X18800Y41975D02*
D03*
Y40975D02*
D03*
X33100Y9625D02*
D03*
Y8625D02*
D03*
X33150Y13425D02*
D03*
Y14425D02*
D03*
D13*
X34775Y14685D02*
D03*
Y13415D02*
D03*
Y12145D02*
D03*
Y10875D02*
D03*
Y9605D02*
D03*
Y8335D02*
D03*
Y7065D02*
D03*
X40175Y14685D02*
D03*
Y13415D02*
D03*
Y12145D02*
D03*
Y10875D02*
D03*
Y9605D02*
D03*
Y8335D02*
D03*
Y7065D02*
D03*
D14*
X29400Y14825D02*
D03*
X28300D02*
D03*
X20200Y19925D02*
D03*
X19100D02*
D03*
X29400Y12325D02*
D03*
X28300D02*
D03*
X15550D02*
D03*
X16650D02*
D03*
X23725Y20675D02*
D03*
X22625D02*
D03*
X26100D02*
D03*
X25000D02*
D03*
X43025Y18350D02*
D03*
X42025D02*
D03*
X21550Y30050D02*
D03*
X20550D02*
D03*
X28375Y15875D02*
D03*
X29375D02*
D03*
X28375Y16925D02*
D03*
X29375D02*
D03*
X39650Y24550D02*
D03*
X40650D02*
D03*
D15*
X19075Y31200D02*
D03*
Y32600D02*
D03*
D16*
X13550Y24975D02*
D03*
X14150D02*
D03*
X29600Y25600D02*
D03*
X29000D02*
D03*
X30925Y15875D02*
D03*
X30325D02*
D03*
X30925Y16925D02*
D03*
X30325D02*
D03*
D17*
X8000Y21325D02*
D03*
Y20725D02*
D03*
X24950Y32375D02*
D03*
Y32975D02*
D03*
X24900Y30900D02*
D03*
Y30300D02*
D03*
X25700Y30900D02*
D03*
Y30300D02*
D03*
D18*
X22375Y31975D02*
D03*
D19*
X23685Y31300D02*
D03*
Y31750D02*
D03*
Y32200D02*
D03*
Y32650D02*
D03*
X21065Y31300D02*
D03*
Y31750D02*
D03*
Y32200D02*
D03*
Y32650D02*
D03*
D20*
X17925Y17900D02*
D03*
Y17400D02*
D03*
Y16900D02*
D03*
Y16400D02*
D03*
Y15900D02*
D03*
Y15400D02*
D03*
Y14900D02*
D03*
Y14400D02*
D03*
Y13900D02*
D03*
Y13400D02*
D03*
Y12900D02*
D03*
Y12400D02*
D03*
Y11900D02*
D03*
Y11400D02*
D03*
Y10900D02*
D03*
Y10400D02*
D03*
X26775D02*
D03*
Y10900D02*
D03*
Y11400D02*
D03*
Y11900D02*
D03*
Y12400D02*
D03*
Y12900D02*
D03*
Y13400D02*
D03*
Y13900D02*
D03*
Y14400D02*
D03*
Y14900D02*
D03*
Y15400D02*
D03*
Y15900D02*
D03*
Y16400D02*
D03*
Y16900D02*
D03*
Y17400D02*
D03*
Y17900D02*
D03*
D21*
X18600Y9725D02*
D03*
X19100D02*
D03*
X19600D02*
D03*
X20100D02*
D03*
X20600D02*
D03*
X21100D02*
D03*
X21600D02*
D03*
X22100D02*
D03*
X22600D02*
D03*
X23100D02*
D03*
X23600D02*
D03*
X24100D02*
D03*
X24600D02*
D03*
X25100D02*
D03*
X25600D02*
D03*
X26100D02*
D03*
Y18575D02*
D03*
X25600D02*
D03*
X25100D02*
D03*
X24600D02*
D03*
X24100D02*
D03*
X23600D02*
D03*
X23100D02*
D03*
X22600D02*
D03*
X22100D02*
D03*
X21600D02*
D03*
X21100D02*
D03*
X20600D02*
D03*
X20100D02*
D03*
X19600D02*
D03*
X19100D02*
D03*
X18600D02*
D03*
D22*
X22350Y14150D02*
D03*
D23*
X29575Y26850D02*
D03*
X27675D02*
D03*
Y29250D02*
D03*
X28625D02*
D03*
X29575D02*
D03*
X12725Y32700D02*
D03*
X11775Y35100D02*
D03*
X13675D02*
D03*
X38700Y20775D02*
D03*
X37750Y23175D02*
D03*
X39650D02*
D03*
D24*
X11825Y18475D02*
D03*
Y16475D02*
D03*
X10850Y11225D02*
D03*
Y13225D02*
D03*
D25*
X29325Y32300D02*
D03*
Y34300D02*
D03*
D26*
X9750Y16175D02*
D03*
X7750D02*
D03*
D27*
X9750Y32575D02*
D03*
Y35175D02*
D03*
D28*
X16075Y32675D02*
D03*
Y35950D02*
D03*
D29*
X26800Y36725D02*
D03*
Y33625D02*
D03*
X42025Y23000D02*
D03*
Y19900D02*
D03*
D30*
X23475Y43125D02*
D03*
X20200D02*
D03*
D31*
X22600Y40000D02*
D03*
X20200Y39050D02*
D03*
Y40950D02*
D03*
D32*
X12000Y24975D02*
D03*
X8000D02*
D03*
Y22575D02*
D03*
X12000D02*
D03*
D33*
X25600Y18575D02*
Y19375D01*
X14675Y16150D02*
X15825D01*
X13275D02*
X14675D01*
X10850Y13225D02*
X11075Y13450D01*
X12825D02*
X14225D01*
X11075D02*
X12825D01*
X14225D02*
X16850D01*
X29975Y13050D02*
X33100Y9925D01*
X26775Y13400D02*
X33125D01*
X27625Y17575D02*
X27950Y17900D01*
X27625Y17325D02*
Y17575D01*
X27200Y16900D02*
X27625Y17325D01*
X26775Y16900D02*
X27200D01*
X20600Y18975D02*
X21450Y19825D01*
X20600Y18575D02*
Y18975D01*
X19075Y32654D02*
X21115D01*
X29600Y25600D02*
Y26825D01*
Y24775D02*
Y25600D01*
X33125Y13400D02*
X33150Y13425D01*
X26775Y12900D02*
X27650D01*
X27800Y13050D02*
X29975D01*
X9750Y16175D02*
X10050D01*
X10825Y15400D01*
X11825Y16475D02*
X12950D01*
X13275Y16150D01*
X16675Y16125D02*
X17000Y16400D01*
X15825Y16125D02*
X16675D01*
X17000Y16400D02*
X17925D01*
X10825Y15400D02*
X17925D01*
X16850Y13450D02*
X17300Y13900D01*
X17550D01*
X29575Y26850D02*
X29600Y26825D01*
X20550Y30756D02*
X21065Y31271D01*
X20550Y30050D02*
Y30756D01*
X23685Y31750D02*
X25300Y31750D01*
X25700Y30900D02*
X25700Y30900D01*
D34*
X22600Y18575D02*
Y20675D01*
X26100Y18575D02*
Y20408D01*
X26775Y15400D02*
X27900D01*
X27650Y12900D02*
X27800Y13050D01*
X18600Y19425D02*
X19100Y19925D01*
X18600Y18575D02*
Y19425D01*
X16650Y11225D02*
X16825Y11400D01*
X17925D01*
X16650Y12325D02*
X16725Y12400D01*
X17925D01*
X20100Y8450D02*
X20125Y8425D01*
X20100Y8450D02*
Y9725D01*
X25600Y8450D02*
X25600Y8450D01*
Y9725D01*
X28225Y12400D02*
X28300Y12325D01*
X26775Y12400D02*
X28225D01*
X28225Y14900D02*
X28300Y14825D01*
X26775Y14900D02*
X28225D01*
X27900Y15400D02*
X28375Y15875D01*
X27350Y15900D02*
X28375Y16925D01*
X26775Y15900D02*
X27350D01*
X29375Y15875D02*
X30325D01*
X29375Y16925D02*
X30325D01*
D35*
X24373Y30900D02*
X26100D01*
X31275Y15525D02*
X33150D01*
X33150Y15525D02*
X33150Y15525D01*
X31750Y16925D02*
X33150Y15525D01*
X16650Y9125D02*
X16650Y9125D01*
X33150Y14425D02*
Y15525D01*
X30925Y15875D02*
X31275Y15525D01*
X30925Y16925D02*
X31750D01*
X3625Y13725D02*
X4300Y14400D01*
X17925D01*
X3625Y15725D02*
X4450Y14900D01*
X17925D01*
X13550Y24975D02*
X13550Y24975D01*
X12000Y24975D02*
X13550D01*
X13550Y18825D02*
Y24975D01*
X8000Y21325D02*
X12175D01*
X8000D02*
Y22575D01*
X12175Y21325D02*
X13100Y20400D01*
Y18650D02*
Y20400D01*
Y18650D02*
X13725Y18025D01*
X13550Y18825D02*
X13925Y18450D01*
X16600Y17250D02*
Y17825D01*
X17050Y17525D02*
Y18025D01*
X16625Y18450D02*
X17050Y18025D01*
X16400D02*
X16600Y17825D01*
X13725Y18025D02*
X16400D01*
X13925Y18450D02*
X16625D01*
X17050Y17525D02*
X17175Y17400D01*
X17925D01*
X16600Y17250D02*
X16950Y16900D01*
X17925D01*
X19075Y32600D02*
Y32654D01*
X13675Y35100D02*
X13700Y35125D01*
Y36500D01*
D36*
X37750Y24600D02*
X37775Y24625D01*
X37750Y23175D02*
Y24600D01*
X10850Y11225D02*
X10850Y11225D01*
Y9875D02*
Y11225D01*
X43030Y10875D02*
X45400Y13245D01*
X40175Y10875D02*
X43030D01*
X41760Y12145D02*
X45400Y15785D01*
X40175Y12145D02*
X41760D01*
X33125Y12150D02*
X34770D01*
X34775Y10875D02*
X34775Y10875D01*
X33100Y10875D02*
X34775D01*
X34770Y12150D02*
X34775Y12145D01*
X24700Y43125D02*
X25000Y43425D01*
X41790Y14685D02*
X41800Y14675D01*
X40175Y14685D02*
X41790D01*
X29158Y30508D02*
X29575Y30091D01*
X28766Y30900D02*
X29158Y30508D01*
X29500Y30850D01*
X30125D01*
X26100Y30900D02*
X28766D01*
X16650Y9125D02*
Y10225D01*
X10225Y18525D02*
X10275Y18475D01*
X11825D01*
X45375Y18350D02*
X45400Y18325D01*
X43025Y18350D02*
X45375D01*
X39575Y19900D02*
X42025D01*
X38700Y20775D02*
X39575Y19900D01*
X42025Y18350D02*
X42025Y18350D01*
X42025Y18350D02*
Y19900D01*
X39650Y24550D02*
X39650Y24550D01*
X39650Y23175D02*
Y24550D01*
X33150Y13425D02*
X33160Y13415D01*
X34775D01*
X33130Y9605D02*
X34775D01*
X29575Y29250D02*
Y30091D01*
X17450Y35325D02*
Y36300D01*
X16075Y33950D02*
X17450Y35325D01*
X16075Y32675D02*
Y33950D01*
X17450Y36300D02*
X20200Y39050D01*
X9750Y40500D02*
X10775Y41525D01*
X9750Y35175D02*
Y40500D01*
X19000Y32675D02*
X19075Y32600D01*
X16075Y32675D02*
X19000D01*
X16050Y32700D02*
X16075Y32675D01*
X12725Y32700D02*
X16050D01*
X25500Y31825D02*
X25550Y31875D01*
X28975D02*
X29325Y32225D01*
X25550Y31875D02*
X28975D01*
X11700Y35175D02*
X11775Y35100D01*
X9750Y35175D02*
X11700D01*
X23475Y43125D02*
X24700D01*
X23475Y40875D02*
Y43125D01*
X22600Y40000D02*
X23475Y40875D01*
X20175Y40975D02*
X20200Y40950D01*
X18800Y40975D02*
X20175D01*
D37*
X44020Y9325D02*
X45400Y10705D01*
X41825Y9325D02*
X44020D01*
X45240Y8325D02*
X45400Y8165D01*
X41825Y8325D02*
X45240D01*
X41815Y8335D02*
X41825Y8325D01*
X40175Y8335D02*
X41815D01*
X41545Y9605D02*
X41825Y9325D01*
X40175Y9605D02*
X41545D01*
X25600Y33625D02*
X26800D01*
D38*
X27400Y34225D02*
X29325D01*
X25025Y44450D02*
Y47500D01*
X26800Y33625D02*
X27400Y34225D01*
D39*
X23685Y31300D02*
X23973D01*
X23685Y32650D02*
X24625D01*
X23685Y32200D02*
X24775D01*
X24950Y32975D02*
X25600Y33625D01*
X24625Y32650D02*
X24950Y32975D01*
X24775Y32200D02*
X24950Y32375D01*
X23973Y31300D02*
X24373Y30900D01*
D40*
X2325Y20600D02*
D03*
X2250Y8650D02*
D03*
D41*
X45400Y5625D02*
D03*
Y10705D02*
D03*
Y13245D02*
D03*
Y15785D02*
D03*
Y8165D02*
D03*
X22485Y47500D02*
D03*
D42*
X45400Y18325D02*
D03*
D43*
X10775Y41525D02*
D03*
Y47525D02*
D03*
D44*
X5875Y44475D02*
D03*
D45*
X25025Y47500D02*
D03*
D46*
X25325Y19650D02*
D03*
X37775Y24625D02*
D03*
X33150Y15525D02*
D03*
X33125Y12150D02*
D03*
X27950Y17900D02*
D03*
X33100Y10875D02*
D03*
X21450Y19825D02*
D03*
X41800Y14675D02*
D03*
X30125Y30850D02*
D03*
X29600Y24775D02*
D03*
X16650Y9125D02*
D03*
X10850Y9875D02*
D03*
X10225Y18525D02*
D03*
D47*
X20700Y15800D02*
D03*
X21800D02*
D03*
X22900D02*
D03*
X24000D02*
D03*
X20700Y14700D02*
D03*
X21800D02*
D03*
X22900D02*
D03*
X24000D02*
D03*
X20700Y13600D02*
D03*
X21800D02*
D03*
X22900D02*
D03*
X24000D02*
D03*
X20700Y12500D02*
D03*
X21800D02*
D03*
X22900D02*
D03*
X24000D02*
D03*
M02*
