G04 Layer_Color=16711935*
%FSLAX43Y43*%
%MOMM*%
G71*
G01*
G75*
%ADD44C,0.500*%
%ADD46C,0.100*%
D44*
X43950Y32675D02*
D03*
X10925Y34650D02*
D03*
X31750Y26550D02*
D03*
X1400Y28450D02*
D03*
X10875Y18625D02*
D03*
X6650Y16100D02*
D03*
X11175Y15625D02*
D03*
X12000Y13800D02*
D03*
D46*
X41875Y39375D02*
Y40375D01*
X41375Y39375D02*
Y40375D01*
X41875D01*
X41375Y39375D02*
X41875D01*
X43075Y39775D02*
X44075D01*
X43075Y40275D02*
X44075D01*
Y39775D02*
Y40275D01*
X43075Y39775D02*
Y40275D01*
X39625Y39750D02*
Y40750D01*
X40125Y39750D02*
Y40750D01*
X39625Y39750D02*
X40125D01*
X39625Y40750D02*
X40125D01*
X43075Y37750D02*
Y38750D01*
X42575Y37750D02*
Y38750D01*
X43075D01*
X42575Y37750D02*
X43075D01*
X40325Y35075D02*
X41325D01*
X40325Y34575D02*
X41325D01*
X40325D02*
Y35075D01*
X41325Y34575D02*
Y35075D01*
X39350Y22125D02*
X41850D01*
Y27125D01*
X39350D02*
X41850D01*
X39350Y22125D02*
Y27125D01*
X35700Y22150D02*
X38200D01*
Y27150D01*
X35700D02*
X38200D01*
X35700Y22150D02*
Y27150D01*
X54650Y20825D02*
Y33325D01*
X43450Y20825D02*
Y33325D01*
Y20825D02*
X54650D01*
X43450Y33325D02*
X54650D01*
X12000Y40300D02*
Y41300D01*
X12500Y40300D02*
Y41300D01*
X12000Y40300D02*
X12500D01*
X12000Y41300D02*
X12500D01*
X12150Y36774D02*
X13350D01*
X12150Y34775D02*
X13350D01*
Y36774D01*
X12150Y34775D02*
Y36774D01*
X7801Y32100D02*
Y33300D01*
X9800Y32100D02*
Y33300D01*
X7801D02*
X9800D01*
X7801Y32100D02*
X9800D01*
X225Y34000D02*
Y46500D01*
X11425Y34000D02*
Y46500D01*
X225D02*
X11425D01*
X225Y34000D02*
X11425D01*
X31950Y34200D02*
Y34800D01*
X32250Y34200D02*
Y34800D01*
X31950Y34200D02*
X32250D01*
X31950Y34800D02*
X32250D01*
X31425Y34225D02*
Y35225D01*
X30925Y34225D02*
Y35225D01*
X31425D01*
X30925Y34225D02*
X31425D01*
X27525Y34050D02*
X29125D01*
X27525Y33250D02*
X29125D01*
X27525D02*
Y34050D01*
X29125Y33250D02*
Y34050D01*
X28975Y32250D02*
X29575D01*
X28975Y31950D02*
X29575D01*
X28975D02*
Y32250D01*
X29575Y31950D02*
Y32250D01*
X29063Y26050D02*
X32237D01*
Y31050D01*
X29063D02*
X32237D01*
X29063Y26050D02*
Y31050D01*
X31275Y25175D02*
X31875D01*
X31275Y24875D02*
X31875D01*
X31275D02*
Y25175D01*
X31875Y24875D02*
Y25175D01*
X15100Y31300D02*
Y32300D01*
X14600Y31300D02*
Y32300D01*
X15100D01*
X14600Y31300D02*
X15100D01*
X26575Y29850D02*
Y30850D01*
X27075Y29850D02*
Y30850D01*
X26575Y29850D02*
X27075D01*
X26575Y30850D02*
X27075D01*
X18500Y35800D02*
Y36800D01*
X18000Y35800D02*
Y36800D01*
X18500D01*
X18000Y35800D02*
X18500D01*
X18175Y31375D02*
Y32375D01*
X17675Y31375D02*
Y32375D01*
X18175D01*
X17675Y31375D02*
X18175D01*
X16875Y25400D02*
Y26400D01*
X17375Y25400D02*
Y26400D01*
X16875Y25400D02*
X17375D01*
X16875Y26400D02*
X17375D01*
X18675Y26125D02*
X19675D01*
X18675Y25625D02*
X19675D01*
X18675D02*
Y26125D01*
X19675Y25625D02*
Y26125D01*
X20225Y22675D02*
X21225D01*
X20225Y23175D02*
X21225D01*
Y22675D02*
Y23175D01*
X20225Y22675D02*
Y23175D01*
X22100Y20675D02*
Y21675D01*
X22600Y20675D02*
Y21675D01*
X22100Y20675D02*
X22600D01*
X22100Y21675D02*
X22600D01*
X19800Y27500D02*
Y28500D01*
X20300Y27500D02*
Y28500D01*
X19800Y27500D02*
X20300D01*
X19800Y28500D02*
X20300D01*
X20255Y543D02*
Y18843D01*
X51065D01*
Y543D02*
Y18843D01*
X20255Y543D02*
X51065D01*
X5000Y28175D02*
X5600D01*
X5000Y28475D02*
X5600D01*
Y28175D02*
Y28475D01*
X5000Y28175D02*
Y28475D01*
X1000Y25850D02*
Y28850D01*
Y25850D02*
X4000D01*
Y28850D01*
X1000D02*
X4000D01*
X8050Y25525D02*
X8650D01*
X8050Y25825D02*
X8650D01*
Y25525D02*
Y25825D01*
X8050Y25525D02*
Y25825D01*
Y27350D02*
X8650D01*
X8050Y27650D02*
X8650D01*
Y27350D02*
Y27650D01*
X8050Y27350D02*
Y27650D01*
X5100Y24349D02*
X6300D01*
X5100Y22350D02*
X6300D01*
Y24349D01*
X5100Y22350D02*
Y24349D01*
X2975Y24100D02*
X3575D01*
X2975Y23800D02*
X3575D01*
X2975D02*
Y24100D01*
X3575Y23800D02*
Y24100D01*
X475Y20400D02*
Y24400D01*
X475Y24400D01*
X2375D01*
X2375Y24400D01*
Y20400D02*
Y24400D01*
X475Y20400D02*
X2375D01*
X475Y23100D02*
X2375D01*
X12225Y22625D02*
X13225D01*
X12225Y22125D02*
X13225D01*
X12225D02*
Y22625D01*
X13225Y22125D02*
Y22625D01*
X12350Y20575D02*
Y21375D01*
X13950Y20575D02*
Y21375D01*
X12350D02*
X13950D01*
X12350Y20575D02*
X13950D01*
X14124Y18225D02*
Y19825D01*
X10426D02*
X14124D01*
X10426Y18225D02*
Y19825D01*
Y18225D02*
X14124D01*
X6230Y15680D02*
Y18320D01*
X9270D01*
Y15680D02*
Y18320D01*
X6230Y15680D02*
X9270D01*
X5350Y15600D02*
Y16600D01*
X4850Y15600D02*
Y16600D01*
X5350D01*
X4850Y15600D02*
X5350D01*
X10725Y16425D02*
X13025D01*
Y15225D02*
Y16425D01*
X10725Y15225D02*
X13025D01*
X10725D02*
Y16425D01*
X4600Y-200D02*
Y14200D01*
X14000Y-200D02*
Y14200D01*
X4600Y-200D02*
X14000D01*
X4600Y14200D02*
X14000D01*
X14474Y43750D02*
Y44950D01*
X12475Y43750D02*
Y44950D01*
Y43750D02*
X14474D01*
X12475Y44950D02*
X14474D01*
M02*
