G04 Layer_Color=16777215*
%FSLAX43Y43*%
%MOMM*%
G71*
G01*
G75*
%ADD36C,0.250*%
%ADD44C,0.500*%
%ADD46C,0.100*%
%ADD47C,0.200*%
%ADD48C,0.254*%
D36*
X37150Y38625D02*
G03*
X37150Y38625I-125J0D01*
G01*
X26175Y30400D02*
G03*
X26175Y30400I-125J0D01*
G01*
X21250Y23800D02*
G03*
X21250Y23800I-125J0D01*
G01*
X1425Y29150D02*
G03*
X1425Y29150I-125J0D01*
G01*
X6075Y15800D02*
G03*
X6075Y15800I-125J0D01*
G01*
D44*
X45150Y32075D02*
D03*
X9725Y35250D02*
D03*
X32850Y25950D02*
D03*
D46*
X11300Y20325D02*
G03*
X11300Y20325I-50J0D01*
G01*
D47*
X37675Y38600D02*
Y38775D01*
X37850D01*
X40500D02*
X40675D01*
Y38600D02*
Y38775D01*
Y35775D02*
Y35950D01*
X40500Y35775D02*
X40675D01*
X37675D02*
Y35950D01*
Y35775D02*
X37850D01*
X39000Y21325D02*
X42200D01*
Y27925D01*
X39000D02*
X42200D01*
X39000Y21325D02*
Y27925D01*
X35350Y21350D02*
X38550D01*
Y27950D01*
X35350D02*
X38550D01*
X35350Y21350D02*
Y27950D01*
X44650Y21625D02*
Y32525D01*
X43350Y20725D02*
Y21625D01*
X44650D01*
X43350Y32525D02*
X44650D01*
X43350D02*
Y33450D01*
Y20725D02*
X54650D01*
Y33450D01*
X43350D02*
X54650D01*
X11850Y37625D02*
X13650D01*
X11850Y34025D02*
X13650D01*
Y37625D01*
X11850Y34025D02*
Y37625D01*
X6950Y31800D02*
Y33600D01*
X10550Y31800D02*
Y33600D01*
X6950D02*
X10550D01*
X6950Y31800D02*
X10550D01*
X10225Y34800D02*
Y45700D01*
X11525D02*
Y46600D01*
X10225Y45700D02*
X11525D01*
X10225Y34800D02*
X11525D01*
Y33875D02*
Y34800D01*
X225Y46600D02*
X11525D01*
X225Y33875D02*
Y46600D01*
Y33875D02*
X11525D01*
X26925Y34350D02*
X29725D01*
X26925Y32950D02*
X29725D01*
X26925D02*
Y34350D01*
X29725Y32950D02*
Y34350D01*
X32350Y27750D02*
Y29350D01*
X28950Y27750D02*
Y29350D01*
X30350Y25950D02*
X30950D01*
X30350Y31150D02*
X30950D01*
X24975Y36250D02*
X25400D01*
Y35825D02*
Y36250D01*
X19400D02*
X19825D01*
X19400Y35825D02*
Y36250D01*
Y30250D02*
Y30675D01*
Y30250D02*
X19825D01*
X24975D02*
X25400D01*
Y30675D01*
X20975Y24450D02*
X21025D01*
X20975D02*
Y24500D01*
Y28400D02*
Y28450D01*
X21025D01*
X24925D02*
X24975D01*
Y28400D02*
Y28450D01*
X24925Y24450D02*
X24975D01*
Y24500D01*
X20039Y6265D02*
Y19170D01*
X51281D01*
Y6265D02*
Y19170D01*
X20039Y6265D02*
X51281D01*
X26700Y265D02*
Y6265D01*
X44700Y265D02*
Y6265D01*
X26700Y265D02*
X44700D01*
X21200Y2660D02*
X24200D01*
Y6265D01*
X21200Y2660D02*
Y6265D01*
X47200Y2660D02*
Y6265D01*
X50200Y2660D02*
Y6265D01*
X47200Y2660D02*
X50200D01*
X2250Y28850D02*
X2750D01*
X2250Y25850D02*
X2750D01*
X2250D02*
Y28850D01*
X2750Y25850D02*
Y28850D01*
X4800Y25200D02*
X6600D01*
X4800Y21600D02*
X6600D01*
Y25200D01*
X4800Y21600D02*
Y25200D01*
X375Y22900D02*
X2475D01*
X375Y20000D02*
X2475D01*
Y24800D01*
X375D02*
X2475D01*
X375Y20000D02*
Y24800D01*
X10210Y20325D02*
X10850D01*
X7850D02*
X8490D01*
X10210Y22625D02*
X10850D01*
X7850D02*
X8490D01*
X11750Y20275D02*
Y21675D01*
X14550Y20275D02*
Y21675D01*
X11750D02*
X14550D01*
X11750Y20275D02*
X14550D01*
X14575Y18125D02*
Y19925D01*
X9875Y18125D02*
X14575D01*
X9875D02*
Y19925D01*
X14575D01*
X11475Y18125D02*
Y19925D01*
X6250Y16700D02*
Y17700D01*
X7050D01*
X9250Y16700D02*
Y17700D01*
X8450D02*
X9250D01*
X9975Y15125D02*
Y16525D01*
Y15125D02*
X13775D01*
Y16525D01*
X9975D02*
X13775D01*
X11375Y15125D02*
Y16525D01*
X4500Y100D02*
Y14300D01*
X13700Y13450D02*
Y14300D01*
X11600D02*
X13700D01*
X4500Y100D02*
X13725D01*
Y7700D01*
X4500Y14300D02*
X6300D01*
X15325Y43450D02*
Y45250D01*
X11725Y43450D02*
Y45250D01*
Y43450D02*
X15325D01*
X11725Y45250D02*
X15325D01*
D48*
X42091Y42470D02*
X41837Y42724D01*
X41329D01*
X41075Y42470D01*
Y41454D01*
X41329Y41200D01*
X41837D01*
X42091Y41454D01*
X42599Y41200D02*
X43106D01*
X42852D01*
Y42724D01*
X42599Y42470D01*
X43868Y41454D02*
X44122Y41200D01*
X44630D01*
X44884Y41454D01*
Y42470D01*
X44630Y42724D01*
X44122D01*
X43868Y42470D01*
Y42216D01*
X44122Y41962D01*
X44884D01*
X45891Y40820D02*
X45637Y41074D01*
X45129D01*
X44875Y40820D01*
Y39804D01*
X45129Y39550D01*
X45637D01*
X45891Y39804D01*
X47414Y39550D02*
X46399D01*
X47414Y40566D01*
Y40820D01*
X47160Y41074D01*
X46652D01*
X46399Y40820D01*
X47922D02*
X48176Y41074D01*
X48684D01*
X48938Y40820D01*
Y39804D01*
X48684Y39550D01*
X48176D01*
X47922Y39804D01*
Y40820D01*
X38775Y44025D02*
X40299D01*
Y43263D01*
X40045Y43009D01*
X39537D01*
X39283Y43263D01*
Y44025D01*
Y43517D02*
X38775Y43009D01*
X40299Y41486D02*
X40045Y41994D01*
X39537Y42501D01*
X39029D01*
X38775Y42248D01*
Y41740D01*
X39029Y41486D01*
X39283D01*
X39537Y41740D01*
Y42501D01*
X37099Y37975D02*
X35575D01*
Y37213D01*
X35829Y36959D01*
X36845D01*
X37099Y37213D01*
Y37975D01*
Y36451D02*
X35575D01*
Y35690D01*
X35829Y35436D01*
X36845D01*
X37099Y35690D01*
Y36451D01*
X35575Y34166D02*
X37099D01*
X36337Y34928D01*
Y33912D01*
X43575Y37575D02*
Y39099D01*
X44337D01*
X44591Y38845D01*
Y38337D01*
X44337Y38083D01*
X43575D01*
X44083D02*
X44591Y37575D01*
X45099D02*
X45606D01*
X45352D01*
Y39099D01*
X45099Y38845D01*
X46368D02*
X46622Y39099D01*
X47130D01*
X47384Y38845D01*
Y37829D01*
X47130Y37575D01*
X46622D01*
X46368Y37829D01*
Y38845D01*
X42125Y34075D02*
Y35599D01*
X42887D01*
X43141Y35345D01*
Y34837D01*
X42887Y34583D01*
X42125D01*
X42633D02*
X43141Y34075D01*
X43649Y34329D02*
X43902Y34075D01*
X44410D01*
X44664Y34329D01*
Y35345D01*
X44410Y35599D01*
X43902D01*
X43649Y35345D01*
Y35091D01*
X43902Y34837D01*
X44664D01*
X39400Y19425D02*
Y20949D01*
X40162D01*
X40416Y20695D01*
Y20187D01*
X40162Y19933D01*
X39400D01*
X39908D02*
X40416Y19425D01*
X40924Y20695D02*
X41177Y20949D01*
X41685D01*
X41939Y20695D01*
Y20441D01*
X41685Y20187D01*
X41939Y19933D01*
Y19679D01*
X41685Y19425D01*
X41177D01*
X40924Y19679D01*
Y19933D01*
X41177Y20187D01*
X40924Y20441D01*
Y20695D01*
X41177Y20187D02*
X41685D01*
X35775Y19425D02*
Y20949D01*
X36537D01*
X36791Y20695D01*
Y20187D01*
X36537Y19933D01*
X35775D01*
X36283D02*
X36791Y19425D01*
X37299Y20949D02*
X38314D01*
Y20695D01*
X37299Y19679D01*
Y19425D01*
X54224Y20175D02*
X52700Y19159D01*
X54224D02*
X52700Y20175D01*
Y17890D02*
X54224D01*
X53462Y18651D01*
Y17636D01*
X12791Y39295D02*
X12537Y39549D01*
X12029D01*
X11775Y39295D01*
Y38279D01*
X12029Y38025D01*
X12537D01*
X12791Y38279D01*
X13299Y38025D02*
X13806D01*
X13552D01*
Y39549D01*
X13299Y39295D01*
X14568D02*
X14822Y39549D01*
X15330D01*
X15584Y39295D01*
Y38279D01*
X15330Y38025D01*
X14822D01*
X14568Y38279D01*
Y39295D01*
X13925Y37025D02*
X15449D01*
Y36263D01*
X15195Y36009D01*
X14687D01*
X14433Y36263D01*
Y37025D01*
Y36517D02*
X13925Y36009D01*
X15449Y34486D02*
Y35501D01*
X14687D01*
X14941Y34994D01*
Y34740D01*
X14687Y34486D01*
X14179D01*
X13925Y34740D01*
Y35248D01*
X14179Y35501D01*
X4075Y32000D02*
Y33524D01*
X4837D01*
X5091Y33270D01*
Y32762D01*
X4837Y32508D01*
X4075D01*
X4583D02*
X5091Y32000D01*
X6360D02*
Y33524D01*
X5599Y32762D01*
X6614D01*
X450Y33524D02*
X1466Y32000D01*
Y33524D02*
X450Y32000D01*
X1974Y33270D02*
X2227Y33524D01*
X2735D01*
X2989Y33270D01*
Y33016D01*
X2735Y32762D01*
X2481D01*
X2735D01*
X2989Y32508D01*
Y32254D01*
X2735Y32000D01*
X2227D01*
X1974Y32254D01*
X33641Y35270D02*
X33387Y35524D01*
X32879D01*
X32625Y35270D01*
Y34254D01*
X32879Y34000D01*
X33387D01*
X33641Y34254D01*
X34149Y35270D02*
X34402Y35524D01*
X34910D01*
X35164Y35270D01*
Y35016D01*
X34910Y34762D01*
X34656D01*
X34910D01*
X35164Y34508D01*
Y34254D01*
X34910Y34000D01*
X34402D01*
X34149Y34254D01*
X31716Y37245D02*
X31462Y37499D01*
X30954D01*
X30700Y37245D01*
Y36229D01*
X30954Y35975D01*
X31462D01*
X31716Y36229D01*
X32985Y35975D02*
Y37499D01*
X32224Y36737D01*
X33239D01*
X27816Y36224D02*
X26800D01*
Y35462D01*
X27308D01*
X26800D01*
Y34700D01*
X28324Y36224D02*
Y34700D01*
X29085D01*
X29339Y34954D01*
Y35208D01*
X29085Y35462D01*
X28324D01*
X29085D01*
X29339Y35716D01*
Y35970D01*
X29085Y36224D01*
X28324D01*
X29847Y34700D02*
X30355D01*
X30101D01*
Y36224D01*
X29847Y35970D01*
X31116Y33195D02*
X30862Y33449D01*
X30354D01*
X30100Y33195D01*
Y32179D01*
X30354Y31925D01*
X30862D01*
X31116Y32179D01*
X32639Y31925D02*
X31624D01*
X32639Y32941D01*
Y33195D01*
X32385Y33449D01*
X31877D01*
X31624Y33195D01*
X34163Y31925D02*
X33147D01*
X34163Y32941D01*
Y33195D01*
X33909Y33449D01*
X33401D01*
X33147Y33195D01*
X34449Y30000D02*
Y28984D01*
X34195D01*
X33179Y30000D01*
X32925D01*
Y28984D01*
X33179Y27461D02*
X34195D01*
X34449Y27715D01*
Y28223D01*
X34195Y28476D01*
X33179D01*
X32925Y28223D01*
Y27715D01*
X33433Y27969D02*
X32925Y27461D01*
Y27715D02*
X33179Y27461D01*
X32925Y26953D02*
Y26445D01*
Y26699D01*
X34449D01*
X34195Y26953D01*
X30416Y24245D02*
X30162Y24499D01*
X29654D01*
X29400Y24245D01*
Y23229D01*
X29654Y22975D01*
X30162D01*
X30416Y23229D01*
X31939Y22975D02*
X30924D01*
X31939Y23991D01*
Y24245D01*
X31685Y24499D01*
X31177D01*
X30924Y24245D01*
X32447Y22975D02*
X32955D01*
X32701D01*
Y24499D01*
X32447Y24245D01*
X13870Y30659D02*
X14124Y30913D01*
Y31421D01*
X13870Y31675D01*
X12854D01*
X12600Y31421D01*
Y30913D01*
X12854Y30659D01*
X13870Y30151D02*
X14124Y29898D01*
Y29390D01*
X13870Y29136D01*
X13616D01*
X13362Y29390D01*
X13108Y29136D01*
X12854D01*
X12600Y29390D01*
Y29898D01*
X12854Y30151D01*
X13108D01*
X13362Y29898D01*
X13616Y30151D01*
X13870D01*
X13362Y29898D02*
Y29390D01*
X27845Y28059D02*
X28099Y28313D01*
Y28821D01*
X27845Y29075D01*
X26829D01*
X26575Y28821D01*
Y28313D01*
X26829Y28059D01*
X26575Y27551D02*
Y27044D01*
Y27298D01*
X28099D01*
X27845Y27551D01*
Y26282D02*
X28099Y26028D01*
Y25520D01*
X27845Y25266D01*
X27591D01*
X27337Y25520D01*
Y25774D01*
Y25520D01*
X27083Y25266D01*
X26829D01*
X26575Y25520D01*
Y26028D01*
X26829Y26282D01*
X19225Y38249D02*
Y36725D01*
X19987D01*
X20241Y36979D01*
Y37995D01*
X19987Y38249D01*
X19225D01*
X20749D02*
Y36725D01*
X21510D01*
X21764Y36979D01*
Y37995D01*
X21510Y38249D01*
X20749D01*
X23288D02*
X22272D01*
Y37487D01*
X22780Y37741D01*
X23034D01*
X23288Y37487D01*
Y36979D01*
X23034Y36725D01*
X22526D01*
X22272Y36979D01*
X17320Y37009D02*
X17574Y37263D01*
Y37771D01*
X17320Y38025D01*
X16304D01*
X16050Y37771D01*
Y37263D01*
X16304Y37009D01*
X16050Y36501D02*
Y35994D01*
Y36248D01*
X17574D01*
X17320Y36501D01*
X16050Y34216D02*
Y35232D01*
X17066Y34216D01*
X17320D01*
X17574Y34470D01*
Y34978D01*
X17320Y35232D01*
X16995Y31984D02*
X17249Y32238D01*
Y32746D01*
X16995Y33000D01*
X15979D01*
X15725Y32746D01*
Y32238D01*
X15979Y31984D01*
X15725Y31476D02*
Y30969D01*
Y31223D01*
X17249D01*
X16995Y31476D01*
X15725Y30207D02*
Y29699D01*
Y29953D01*
X17249D01*
X16995Y30207D01*
X14841Y26495D02*
X14587Y26749D01*
X14079D01*
X13825Y26495D01*
Y25479D01*
X14079Y25225D01*
X14587D01*
X14841Y25479D01*
X15349Y26749D02*
X16364D01*
Y26495D01*
X15349Y25479D01*
Y25225D01*
X18916Y24970D02*
X18662Y25224D01*
X18154D01*
X17900Y24970D01*
Y23954D01*
X18154Y23700D01*
X18662D01*
X18916Y23954D01*
X19424D02*
X19677Y23700D01*
X20185D01*
X20439Y23954D01*
Y24970D01*
X20185Y25224D01*
X19677D01*
X19424Y24970D01*
Y24716D01*
X19677Y24462D01*
X20439D01*
X21195Y21159D02*
X21449Y21413D01*
Y21921D01*
X21195Y22175D01*
X20179D01*
X19925Y21921D01*
Y21413D01*
X20179Y21159D01*
X19925Y19636D02*
Y20651D01*
X20941Y19636D01*
X21195D01*
X21449Y19890D01*
Y20398D01*
X21195Y20651D01*
X24116Y21495D02*
X23862Y21749D01*
X23354D01*
X23100Y21495D01*
Y20479D01*
X23354Y20225D01*
X23862D01*
X24116Y20479D01*
X25639Y21749D02*
X25131Y21495D01*
X24624Y20987D01*
Y20479D01*
X24877Y20225D01*
X25385D01*
X25639Y20479D01*
Y20733D01*
X25385Y20987D01*
X24624D01*
X18366Y28395D02*
X18112Y28649D01*
X17604D01*
X17350Y28395D01*
Y27379D01*
X17604Y27125D01*
X18112D01*
X18366Y27379D01*
X18874Y27125D02*
X19381D01*
X19127D01*
Y28649D01*
X18874Y28395D01*
X22750Y23999D02*
Y22475D01*
X23512D01*
X23766Y22729D01*
Y23745D01*
X23512Y23999D01*
X22750D01*
X24274D02*
Y22475D01*
X25035D01*
X25289Y22729D01*
Y23745D01*
X25035Y23999D01*
X24274D01*
X25797Y22475D02*
X26305D01*
X26051D01*
Y23999D01*
X25797Y23745D01*
X19724Y14100D02*
X18200Y13084D01*
X19724D02*
X18200Y14100D01*
Y12576D02*
Y12069D01*
Y12323D01*
X19724D01*
X19470Y12576D01*
X6066Y30145D02*
X5812Y30399D01*
X5304D01*
X5050Y30145D01*
Y29129D01*
X5304Y28875D01*
X5812D01*
X6066Y29129D01*
X6574Y28875D02*
X7081D01*
X6827D01*
Y30399D01*
X6574Y30145D01*
X7843D02*
X8097Y30399D01*
X8605D01*
X8859Y30145D01*
Y29891D01*
X8605Y29637D01*
X8859Y29383D01*
Y29129D01*
X8605Y28875D01*
X8097D01*
X7843Y29129D01*
Y29383D01*
X8097Y29637D01*
X7843Y29891D01*
Y30145D01*
X8097Y29637D02*
X8605D01*
X525Y31149D02*
Y29625D01*
X1287D01*
X1541Y29879D01*
Y30895D01*
X1287Y31149D01*
X525D01*
X2049D02*
Y29625D01*
X2810D01*
X3064Y29879D01*
Y30895D01*
X2810Y31149D01*
X2049D01*
X3572Y30895D02*
X3826Y31149D01*
X4334D01*
X4588Y30895D01*
Y30641D01*
X4334Y30387D01*
X4080D01*
X4334D01*
X4588Y30133D01*
Y29879D01*
X4334Y29625D01*
X3826D01*
X3572Y29879D01*
X10241Y26120D02*
X9987Y26374D01*
X9479D01*
X9225Y26120D01*
Y25104D01*
X9479Y24850D01*
X9987D01*
X10241Y25104D01*
X10749Y24850D02*
X11256D01*
X11002D01*
Y26374D01*
X10749Y26120D01*
X13034Y26374D02*
X12526Y26120D01*
X12018Y25612D01*
Y25104D01*
X12272Y24850D01*
X12780D01*
X13034Y25104D01*
Y25358D01*
X12780Y25612D01*
X12018D01*
X10241Y28020D02*
X9987Y28274D01*
X9479D01*
X9225Y28020D01*
Y27004D01*
X9479Y26750D01*
X9987D01*
X10241Y27004D01*
X10749Y26750D02*
X11256D01*
X11002D01*
Y28274D01*
X10749Y28020D01*
X12018Y28274D02*
X13034D01*
Y28020D01*
X12018Y27004D01*
Y26750D01*
X4775Y27024D02*
Y25500D01*
X5791D01*
X6299D02*
X6806D01*
X6552D01*
Y27024D01*
X6299Y26770D01*
X4020Y22409D02*
X4274Y22663D01*
Y23171D01*
X4020Y23425D01*
X3004D01*
X2750Y23171D01*
Y22663D01*
X3004Y22409D01*
X2750Y21901D02*
Y21394D01*
Y21648D01*
X4274D01*
X4020Y21901D01*
X4274Y19616D02*
Y20632D01*
X3512D01*
X3766Y20124D01*
Y19870D01*
X3512Y19616D01*
X3004D01*
X2750Y19870D01*
Y20378D01*
X3004Y20632D01*
X1849Y19650D02*
X833D01*
X325Y19142D01*
X833Y18634D01*
X1849D01*
Y18126D02*
X325D01*
Y17365D01*
X579Y17111D01*
X1595D01*
X1849Y17365D01*
Y18126D01*
X1595Y16603D02*
X1849Y16349D01*
Y15841D01*
X1595Y15587D01*
X1341D01*
X1087Y15841D01*
Y16095D01*
Y15841D01*
X833Y15587D01*
X579D01*
X325Y15841D01*
Y16349D01*
X579Y16603D01*
X14075Y22025D02*
Y23549D01*
X14837D01*
X15091Y23295D01*
Y22787D01*
X14837Y22533D01*
X14075D01*
X14583D02*
X15091Y22025D01*
X16614D02*
X15599D01*
X16614Y23041D01*
Y23295D01*
X16360Y23549D01*
X15852D01*
X15599Y23295D01*
X7375Y24449D02*
Y22925D01*
X8137D01*
X8391Y23179D01*
Y24195D01*
X8137Y24449D01*
X7375D01*
X8899D02*
Y22925D01*
X9660D01*
X9914Y23179D01*
Y24195D01*
X9660Y24449D01*
X8899D01*
X11438Y22925D02*
X10422D01*
X11438Y23941D01*
Y24195D01*
X11184Y24449D01*
X10676D01*
X10422Y24195D01*
X15841Y21345D02*
X15587Y21599D01*
X15079D01*
X14825Y21345D01*
Y20329D01*
X15079Y20075D01*
X15587D01*
X15841Y20329D01*
X17364Y21599D02*
X16349D01*
Y20837D01*
X16856Y21091D01*
X17110D01*
X17364Y20837D01*
Y20329D01*
X17110Y20075D01*
X16602D01*
X16349Y20329D01*
X14850Y19524D02*
Y18508D01*
X15358Y18000D01*
X15866Y18508D01*
Y19524D01*
X16374D02*
Y18000D01*
X17135D01*
X17389Y18254D01*
Y19270D01*
X17135Y19524D01*
X16374D01*
X18913Y18000D02*
X17897D01*
X18913Y19016D01*
Y19270D01*
X18659Y19524D01*
X18151D01*
X17897Y19270D01*
X2225Y18949D02*
Y17933D01*
X2733Y17425D01*
X3241Y17933D01*
Y18949D01*
X3749D02*
X4764D01*
X4256D01*
Y17425D01*
X5272D02*
X5780D01*
X5526D01*
Y18949D01*
X5272Y18695D01*
X2300Y15475D02*
Y16999D01*
X3062D01*
X3316Y16745D01*
Y16237D01*
X3062Y15983D01*
X2300D01*
X2808D02*
X3316Y15475D01*
X3824D02*
X4331D01*
X4077D01*
Y16999D01*
X3824Y16745D01*
X14200Y16524D02*
Y15508D01*
X14708Y15000D01*
X15216Y15508D01*
Y16524D01*
X15724D02*
Y15000D01*
X16485D01*
X16739Y15254D01*
Y16270D01*
X16485Y16524D01*
X15724D01*
X17247Y15000D02*
X17755D01*
X17501D01*
Y16524D01*
X17247Y16270D01*
X1575Y14124D02*
X2591Y12600D01*
Y14124D02*
X1575Y12600D01*
X4114D02*
X3099D01*
X4114Y13616D01*
Y13870D01*
X3860Y14124D01*
X3352D01*
X3099Y13870D01*
X11886Y46114D02*
Y47638D01*
X12648D01*
X12902Y47384D01*
Y46876D01*
X12648Y46622D01*
X11886D01*
X12394D02*
X12902Y46114D01*
X13410Y47384D02*
X13664Y47638D01*
X14172D01*
X14426Y47384D01*
Y47130D01*
X14172Y46876D01*
X13918D01*
X14172D01*
X14426Y46622D01*
Y46368D01*
X14172Y46114D01*
X13664D01*
X13410Y46368D01*
M02*
