G04 Layer_Color=8421504*
%FSLAX43Y43*%
%MOMM*%
G71*
G01*
G75*
%ADD10R,0.600X0.600*%
%ADD11R,0.600X0.600*%
%ADD12O,0.500X0.300*%
%ADD13O,0.300X0.500*%
%ADD14R,1.500X1.500*%
%ADD15R,2.700X1.400*%
%ADD16R,1.250X1.000*%
%ADD17R,1.000X1.250*%
%ADD18R,0.300X0.300*%
%ADD19R,0.850X0.850*%
%ADD20R,0.300X0.300*%
%ADD21R,1.200X1.800*%
%ADD22R,3.700X3.700*%
%ADD23R,0.300X0.650*%
%ADD24R,0.650X0.300*%
%ADD25O,0.200X0.400*%
%ADD26O,0.400X0.200*%
%ADD27R,2.800X2.800*%
%ADD28R,1.000X0.600*%
%ADD29R,1.400X1.200*%
%ADD30R,1.000X0.200*%
%ADD31R,1.120X1.350*%
%ADD32R,0.910X1.220*%
%ADD33R,0.600X1.000*%
%ADD34R,0.850X0.500*%
D10*
X41625Y40425D02*
D03*
Y39325D02*
D03*
X39875Y39750D02*
D03*
Y40750D02*
D03*
X42825Y38750D02*
D03*
Y37750D02*
D03*
X12250Y40250D02*
D03*
Y41350D02*
D03*
X31175Y35275D02*
D03*
Y34175D02*
D03*
X14850Y32350D02*
D03*
Y31250D02*
D03*
X26825Y29800D02*
D03*
Y30900D02*
D03*
X18250Y36850D02*
D03*
Y35750D02*
D03*
X17925Y32425D02*
D03*
Y31325D02*
D03*
X17125Y25350D02*
D03*
Y26450D02*
D03*
X22350Y20625D02*
D03*
Y21725D02*
D03*
X20050Y27450D02*
D03*
Y28550D02*
D03*
X5100Y16600D02*
D03*
Y15600D02*
D03*
D11*
X44125Y40025D02*
D03*
X43025D02*
D03*
X40325Y34825D02*
D03*
X41325D02*
D03*
X18625Y25875D02*
D03*
X19725D02*
D03*
X21275Y22925D02*
D03*
X20175D02*
D03*
X12225Y22375D02*
D03*
X13225D02*
D03*
D12*
X37900Y38025D02*
D03*
Y37525D02*
D03*
Y37025D02*
D03*
Y36525D02*
D03*
X40450D02*
D03*
Y37025D02*
D03*
Y37525D02*
D03*
Y38025D02*
D03*
D13*
X38425Y36000D02*
D03*
X38925D02*
D03*
X39425D02*
D03*
X39925D02*
D03*
Y38550D02*
D03*
X39425D02*
D03*
X38925D02*
D03*
X38425D02*
D03*
D14*
X39175Y37275D02*
D03*
D15*
X40600Y22325D02*
D03*
Y26925D02*
D03*
X36950Y22350D02*
D03*
Y26950D02*
D03*
D16*
X12750Y36825D02*
D03*
Y34825D02*
D03*
X5700Y24400D02*
D03*
Y22400D02*
D03*
D17*
X7750Y32700D02*
D03*
X9750D02*
D03*
X14525Y44350D02*
D03*
X12525D02*
D03*
D18*
X32100Y34200D02*
D03*
Y34800D02*
D03*
D19*
X27625Y33650D02*
D03*
X29025D02*
D03*
X12450Y20975D02*
D03*
X13850D02*
D03*
D20*
X28975Y32100D02*
D03*
X29575D02*
D03*
X31275Y25025D02*
D03*
X31875D02*
D03*
X5600Y28325D02*
D03*
X5000D02*
D03*
X8650Y25675D02*
D03*
X8050D02*
D03*
X8650Y27500D02*
D03*
X8050D02*
D03*
X2975Y23950D02*
D03*
X3575D02*
D03*
D21*
X29450Y26550D02*
D03*
Y30550D02*
D03*
X31850D02*
D03*
Y26550D02*
D03*
D22*
X22400Y33250D02*
D03*
D23*
X24400Y30550D02*
D03*
X23900D02*
D03*
X23400D02*
D03*
X22900D02*
D03*
X22400D02*
D03*
X21900D02*
D03*
X21400D02*
D03*
X20900D02*
D03*
X20400D02*
D03*
Y35950D02*
D03*
X20900D02*
D03*
X21400D02*
D03*
X21900D02*
D03*
X22400D02*
D03*
X22900D02*
D03*
X23400D02*
D03*
X23900D02*
D03*
X24400D02*
D03*
D24*
X19700Y31250D02*
D03*
Y31750D02*
D03*
Y32250D02*
D03*
Y32750D02*
D03*
Y33250D02*
D03*
Y33750D02*
D03*
Y34250D02*
D03*
Y34750D02*
D03*
Y35250D02*
D03*
X25100D02*
D03*
Y34750D02*
D03*
Y34250D02*
D03*
Y33750D02*
D03*
Y33250D02*
D03*
Y32750D02*
D03*
Y32250D02*
D03*
Y31750D02*
D03*
Y31250D02*
D03*
D25*
X21575Y24650D02*
D03*
X21975D02*
D03*
X22375D02*
D03*
X22775D02*
D03*
X23175D02*
D03*
X23575D02*
D03*
X23975D02*
D03*
X24375D02*
D03*
Y28250D02*
D03*
X23975D02*
D03*
X23575D02*
D03*
X23175D02*
D03*
X22775D02*
D03*
X22375D02*
D03*
X21975D02*
D03*
X21575D02*
D03*
D26*
X24775Y25050D02*
D03*
Y25450D02*
D03*
Y25850D02*
D03*
Y26250D02*
D03*
Y26650D02*
D03*
Y27050D02*
D03*
Y27450D02*
D03*
Y27850D02*
D03*
X21175D02*
D03*
Y27450D02*
D03*
Y27050D02*
D03*
Y26650D02*
D03*
Y26250D02*
D03*
Y25850D02*
D03*
Y25450D02*
D03*
Y25050D02*
D03*
D27*
X22975Y26450D02*
D03*
D28*
X1300Y28300D02*
D03*
Y27350D02*
D03*
Y26400D02*
D03*
X3700D02*
D03*
Y28300D02*
D03*
D29*
X1425Y23950D02*
D03*
Y20850D02*
D03*
D30*
X10660Y20800D02*
D03*
Y21250D02*
D03*
Y21700D02*
D03*
Y22150D02*
D03*
X8040Y20800D02*
D03*
Y21250D02*
D03*
Y21700D02*
D03*
Y22150D02*
D03*
D31*
X9350Y21475D02*
D03*
D32*
X13875Y19025D02*
D03*
X10600D02*
D03*
D33*
X6800Y15800D02*
D03*
X8700D02*
D03*
X7750Y18200D02*
D03*
D34*
X10575Y15825D02*
D03*
X13175D02*
D03*
M02*
