G04 Layer_Color=16711935*
%FSLAX43Y43*%
%MOMM*%
G71*
G01*
G75*
%ADD44C,0.500*%
%ADD45C,0.200*%
%ADD46C,0.254*%
%ADD56C,0.100*%
D44*
X32975Y11075D02*
D03*
X27750Y27425D02*
D03*
X8550Y41075D02*
D03*
X33025Y43950D02*
D03*
X9850Y7200D02*
D03*
X19975Y20700D02*
D03*
X20925Y28450D02*
D03*
X6425Y34450D02*
D03*
X10525Y30950D02*
D03*
D45*
X0Y2500D02*
Y52500D01*
X2500Y0D02*
X47500D01*
X50000Y2500D02*
Y52500D01*
X2500Y55000D02*
X47500D01*
D46*
X50000Y52500D02*
G03*
X47500Y55000I-2500J0D01*
G01*
Y0D02*
G03*
X50000Y2500I0J2500D01*
G01*
X0D02*
G03*
X2500Y0I2500J0D01*
G01*
Y55000D02*
G03*
X0Y52500I0J-2500D01*
G01*
D56*
X44000Y24750D02*
Y25250D01*
X45000Y24750D02*
Y25250D01*
X44000D02*
X45000D01*
X44000Y24750D02*
X45000D01*
Y25900D02*
Y26400D01*
X44000Y25900D02*
Y26400D01*
Y25900D02*
X45000D01*
X44000Y26400D02*
X45000D01*
X45575Y12350D02*
X46075D01*
X45575Y13350D02*
X46075D01*
X45575Y12350D02*
Y13350D01*
X46075Y12350D02*
Y13350D01*
X45575Y14750D02*
X46075D01*
X45575Y15750D02*
X46075D01*
X45575Y14750D02*
Y15750D01*
X46075Y14750D02*
Y15750D01*
X42600Y14775D02*
X43100D01*
X42600Y15775D02*
X43100D01*
X42600Y14775D02*
Y15775D01*
X43100Y14775D02*
Y15775D01*
X41875Y10275D02*
Y10775D01*
X42875Y10275D02*
Y10775D01*
X41875D02*
X42875D01*
X41875Y10275D02*
X42875D01*
X39875Y18425D02*
X40375D01*
X39875Y17425D02*
X40375D01*
Y18425D01*
X39875Y17425D02*
Y18425D01*
X34925Y9150D02*
X39925D01*
Y6650D02*
Y9150D01*
X34925Y6650D02*
X39925D01*
X34925D02*
Y9150D01*
X22100Y17950D02*
X27100D01*
Y15450D02*
Y17950D01*
X22100Y15450D02*
X27100D01*
X22100D02*
Y17950D01*
X33625Y375D02*
Y11575D01*
X21125Y375D02*
Y11575D01*
X33625D01*
X21125Y375D02*
X33625D01*
X11775Y14775D02*
X13325D01*
X11775Y17975D02*
X13325D01*
X11775Y14775D02*
Y17975D01*
X13325Y14775D02*
Y17975D01*
X25350Y32825D02*
Y33125D01*
X24750Y32825D02*
Y33125D01*
Y32825D02*
X25350D01*
X24750Y33125D02*
X25350D01*
X27850Y25725D02*
Y26025D01*
X27250Y25725D02*
Y26025D01*
Y25725D02*
X27850D01*
X27250Y26025D02*
X27850D01*
X25063Y26925D02*
Y31925D01*
X28237D01*
Y26925D02*
Y31925D01*
X25063Y26925D02*
X28237D01*
X30025Y24300D02*
X30525D01*
X30025Y25300D02*
X30525D01*
X30025Y24300D02*
Y25300D01*
X30525Y24300D02*
Y25300D01*
X28275Y25050D02*
X28575D01*
X28275Y24450D02*
X28575D01*
Y25050D01*
X28275Y24450D02*
Y25050D01*
X29675Y31600D02*
X30475D01*
X29675Y30000D02*
X30475D01*
Y31600D01*
X29675Y30000D02*
Y31600D01*
X33025Y31875D02*
Y32375D01*
X34025Y31875D02*
Y32375D01*
X33025D02*
X34025D01*
X33025Y31875D02*
X34025D01*
X42100Y29925D02*
X42600D01*
X42100Y28925D02*
X42600D01*
Y29925D01*
X42100Y28925D02*
Y29925D01*
X40200Y20450D02*
Y20950D01*
X39200Y20450D02*
Y20950D01*
Y20450D02*
X40200D01*
X39200Y20950D02*
X40200D01*
X41375Y40075D02*
Y40575D01*
X42375Y40075D02*
Y40575D01*
X41375D02*
X42375D01*
X41375Y40075D02*
X42375D01*
X42325Y41750D02*
Y42250D01*
X41325Y41750D02*
Y42250D01*
Y41750D02*
X42325D01*
X41325Y42250D02*
X42325D01*
X34875Y42200D02*
Y42700D01*
X33875Y42200D02*
Y42700D01*
Y42200D02*
X34875D01*
X33875Y42700D02*
X34875D01*
X36375Y42200D02*
Y42700D01*
X37375Y42200D02*
Y42700D01*
X36375D02*
X37375D01*
X36375Y42200D02*
X37375D01*
X20800Y49850D02*
Y50350D01*
X19800Y49850D02*
Y50350D01*
Y49850D02*
X20800D01*
X19800Y50350D02*
X20800D01*
X23150Y49775D02*
Y50275D01*
X24150Y49775D02*
Y50275D01*
X23150D02*
X24150D01*
X23150Y49775D02*
X24150D01*
X25700Y49800D02*
Y50300D01*
X26700Y49800D02*
Y50300D01*
X25700D02*
X26700D01*
X25700Y49800D02*
X26700D01*
X27935Y51355D02*
Y53895D01*
X20315Y51355D02*
Y53895D01*
X27935D01*
X20315Y51355D02*
X27935D01*
X6550Y40675D02*
X15950D01*
X6550Y55075D02*
X15950D01*
X6550Y40675D02*
Y55075D01*
X15950Y40675D02*
Y55075D01*
X32375Y43450D02*
Y54650D01*
X44875Y43450D02*
Y54650D01*
X32375Y43450D02*
X44875D01*
X32375Y54650D02*
X44875D01*
X9725Y3200D02*
Y3500D01*
X9125Y3200D02*
Y3500D01*
Y3200D02*
X9725D01*
X9125Y3500D02*
X9725D01*
X10250Y4600D02*
Y7600D01*
X7250Y4600D02*
X10250D01*
X7250D02*
Y7600D01*
X10250D01*
X7675Y11375D02*
X9674D01*
X7675Y10175D02*
X9674D01*
X7675D02*
Y11375D01*
X9674Y10175D02*
Y11375D01*
X8275Y13226D02*
Y15225D01*
X7075Y13226D02*
Y15225D01*
X8275D01*
X7075Y13226D02*
X8275D01*
X20395Y20280D02*
Y23320D01*
X17755D02*
X20395D01*
X17755Y20280D02*
Y23320D01*
Y20280D02*
X20395D01*
X17825Y16950D02*
X19425D01*
X17825Y16150D02*
X19425D01*
X17825D02*
Y16950D01*
X19425Y16150D02*
Y16950D01*
X16125Y24150D02*
Y24450D01*
X16725Y24150D02*
Y24450D01*
X16125D02*
X16725D01*
X16125Y24150D02*
X16725D01*
X22275Y26000D02*
Y27999D01*
X23475Y26000D02*
Y27999D01*
X22275Y26000D02*
X23475D01*
X22275Y27999D02*
X23475D01*
X21425Y27850D02*
Y33250D01*
X17825Y27850D02*
X21425D01*
X17825D02*
Y33250D01*
X21425D01*
X1375Y21300D02*
X1875D01*
X1375Y22300D02*
X1875D01*
X1375Y21300D02*
Y22300D01*
X1875Y21300D02*
Y22300D01*
X3575Y21400D02*
X5574D01*
X3575Y20200D02*
X5574D01*
X3575D02*
Y21400D01*
X5574Y20200D02*
Y21400D01*
X8125Y22150D02*
Y22450D01*
X7525Y22150D02*
Y22450D01*
Y22150D02*
X8125D01*
X7525Y22450D02*
X8125D01*
X3575Y24400D02*
X5574D01*
X3575Y23200D02*
X5574D01*
X3575D02*
Y24400D01*
X5574Y23200D02*
Y24400D01*
X4325Y29200D02*
X5925D01*
X4325Y28400D02*
X5925D01*
X4325D02*
Y29200D01*
X5925Y28400D02*
Y29200D01*
X6925Y33850D02*
Y39250D01*
X3325Y33850D02*
X6925D01*
X3325D02*
Y39250D01*
X6925D01*
X12375Y34050D02*
X12875D01*
X12375Y33050D02*
X12875D01*
Y34050D01*
X12375Y33050D02*
Y34050D01*
X10945Y30530D02*
Y33570D01*
X8305D02*
X10945D01*
X8305Y30530D02*
Y33570D01*
Y30530D02*
X10945D01*
X11925Y36400D02*
Y36700D01*
X11325Y36400D02*
Y36700D01*
Y36400D02*
X11925D01*
X11325Y36700D02*
X11925D01*
M02*
