G04 Layer_Color=16777215*
%FSLAX43Y43*%
%MOMM*%
G71*
G01*
G75*
%ADD33C,0.600*%
%ADD35C,0.250*%
%ADD44C,0.500*%
%ADD45C,0.200*%
%ADD46C,0.254*%
%ADD47R,3.556X0.500*%
D33*
X34800Y28525D02*
G03*
X34800Y28525I-300J0D01*
G01*
D35*
X37825Y14400D02*
G03*
X37825Y14400I-125J0D01*
G01*
X32525Y29875D02*
G03*
X32525Y29875I-125J0D01*
G01*
X10675Y7300D02*
G03*
X10675Y7300I-125J0D01*
G01*
X20400Y20000D02*
G03*
X20400Y20000I-125J0D01*
G01*
X10050Y26050D02*
G03*
X10050Y26050I-125J0D01*
G01*
X10950Y30250D02*
G03*
X10950Y30250I-125J0D01*
G01*
D44*
X32375Y9875D02*
D03*
X28850Y26825D02*
D03*
X33625Y45150D02*
D03*
D45*
X38350Y11550D02*
X38525D01*
X38350D02*
Y11725D01*
X41175Y11550D02*
X41350D01*
Y11725D01*
Y14375D02*
Y14550D01*
X41175D02*
X41350D01*
X38350D02*
X38525D01*
X38350Y14375D02*
Y14550D01*
X34125Y9500D02*
X40725D01*
Y6300D02*
Y9500D01*
X34125Y6300D02*
X40725D01*
X34125D02*
Y9500D01*
X21300Y18300D02*
X27900D01*
Y15100D02*
Y18300D01*
X21300Y15100D02*
X27900D01*
X21300D02*
Y18300D01*
X33750Y375D02*
Y11675D01*
X21025Y375D02*
X33750D01*
X21025D02*
Y11675D01*
X32825D02*
X33750D01*
X32825Y10375D02*
Y11675D01*
X21925Y10375D02*
Y11675D01*
X21025D02*
X21925D01*
Y10375D02*
X32825D01*
X11450Y14075D02*
X13650D01*
X11450Y18675D02*
X13650D01*
X11450Y14075D02*
Y18675D01*
X13650Y14075D02*
Y18675D01*
X26350Y32025D02*
X26950D01*
X26350Y26825D02*
X26950D01*
X24950Y28625D02*
Y30225D01*
X28350Y28625D02*
Y30225D01*
X29375Y32200D02*
X30775D01*
X29375Y29400D02*
X30775D01*
Y32200D01*
X29375Y29400D02*
Y32200D01*
X33500Y23325D02*
Y29525D01*
X39700Y23325D02*
Y29525D01*
X33500D02*
X39700D01*
X33500Y23325D02*
X39700D01*
X14250Y40575D02*
X16050D01*
X6825Y47175D02*
Y54775D01*
X16050D01*
X6850Y40575D02*
X8950D01*
X6850D02*
Y41425D01*
X16050Y40575D02*
Y54775D01*
X32250Y43350D02*
Y54650D01*
X44975D01*
Y43350D02*
Y54650D01*
X32250Y43350D02*
X33175D01*
Y44650D01*
X44075Y43350D02*
Y44650D01*
Y43350D02*
X44975D01*
X33175Y44650D02*
X44075D01*
X7250Y5850D02*
X10250D01*
X7250Y6350D02*
X10250D01*
X7250Y5850D02*
Y6350D01*
X10250Y5850D02*
Y6350D01*
X6925Y11675D02*
X10525D01*
X6925Y9875D02*
X10525D01*
X6925D02*
Y11675D01*
X10525Y9875D02*
Y11675D01*
X8575Y12375D02*
Y15975D01*
X6775Y12375D02*
Y15975D01*
X8575D01*
X6775Y12375D02*
X8575D01*
X18375Y22500D02*
Y23300D01*
X19375D01*
X18375Y20300D02*
Y21100D01*
Y20300D02*
X19375D01*
X17225Y17250D02*
X20025D01*
X17225Y15850D02*
X20025D01*
X17225D02*
Y17250D01*
X20025Y15850D02*
Y17250D01*
X21975Y25250D02*
Y28850D01*
X23775Y25250D02*
Y28850D01*
X21975Y25250D02*
X23775D01*
X21975Y28850D02*
X23775D01*
X21149Y33217D02*
X21403D01*
Y27883D02*
Y33217D01*
X21149Y27883D02*
X21403D01*
X17847Y33217D02*
X18101D01*
X17847Y27883D02*
Y33217D01*
Y27883D02*
X18101D01*
X11025Y21550D02*
X13225D01*
X11025Y25550D02*
X13225D01*
X2825Y21700D02*
X6425D01*
X2825Y19900D02*
X6425D01*
X2825D02*
Y21700D01*
X6425Y19900D02*
Y21700D01*
X2825Y24700D02*
X6425D01*
X2825Y22900D02*
X6425D01*
X2825D02*
Y24700D01*
X6425Y22900D02*
Y24700D01*
X3725Y29500D02*
X6525D01*
X3725Y28100D02*
X6525D01*
X3725D02*
Y29500D01*
X6525Y28100D02*
Y29500D01*
X6649Y39217D02*
X6903D01*
Y33883D02*
Y39217D01*
X6649Y33883D02*
X6903D01*
X3347Y39217D02*
X3601D01*
X3347Y33883D02*
Y39217D01*
Y33883D02*
X3601D01*
X8925Y32750D02*
Y33550D01*
X9925D01*
X8925Y30550D02*
Y31350D01*
Y30550D02*
X9925D01*
D46*
X20061Y51101D02*
Y54149D01*
X28189Y51101D02*
Y54149D01*
X20061D02*
X28189D01*
X20061Y51101D02*
X28189D01*
X47791Y25120D02*
X47537Y25374D01*
X47029D01*
X46775Y25120D01*
Y24104D01*
X47029Y23850D01*
X47537D01*
X47791Y24104D01*
X49314Y23850D02*
X48299D01*
X49314Y24866D01*
Y25120D01*
X49060Y25374D01*
X48552D01*
X48299Y25120D01*
X47816Y27070D02*
X47562Y27324D01*
X47054D01*
X46800Y27070D01*
Y26054D01*
X47054Y25800D01*
X47562D01*
X47816Y26054D01*
X49085Y25800D02*
Y27324D01*
X48324Y26562D01*
X49339D01*
X46575Y7700D02*
X45051D01*
Y8462D01*
X45305Y8716D01*
X45813D01*
X46067Y8462D01*
Y7700D01*
Y8208D02*
X46575Y8716D01*
Y9224D02*
Y9731D01*
Y9477D01*
X45051D01*
X45305Y9224D01*
Y10493D02*
X45051Y10747D01*
Y11255D01*
X45305Y11509D01*
X46321D01*
X46575Y11255D01*
Y10747D01*
X46321Y10493D01*
X45305D01*
X46805Y16391D02*
X46551Y16137D01*
Y15629D01*
X46805Y15375D01*
X47821D01*
X48075Y15629D01*
Y16137D01*
X47821Y16391D01*
X48075Y16899D02*
Y17406D01*
Y17152D01*
X46551D01*
X46805Y16899D01*
X46551Y19184D02*
Y18168D01*
X47313D01*
X47059Y18676D01*
Y18930D01*
X47313Y19184D01*
X47821D01*
X48075Y18930D01*
Y18422D01*
X47821Y18168D01*
X43780Y14116D02*
X43526Y13862D01*
Y13354D01*
X43780Y13100D01*
X44796D01*
X45050Y13354D01*
Y13862D01*
X44796Y14116D01*
X45050Y14624D02*
Y15131D01*
Y14877D01*
X43526D01*
X43780Y14624D01*
X45050Y16655D02*
X43526D01*
X44288Y15893D01*
Y16909D01*
X42025Y8250D02*
Y9774D01*
X42787D01*
X43041Y9520D01*
Y9012D01*
X42787Y8758D01*
X42025D01*
X42533D02*
X43041Y8250D01*
X43549Y8504D02*
X43802Y8250D01*
X44310D01*
X44564Y8504D01*
Y9520D01*
X44310Y9774D01*
X43802D01*
X43549Y9520D01*
Y9266D01*
X43802Y9012D01*
X44564D01*
X40800Y17700D02*
Y19224D01*
X41562D01*
X41816Y18970D01*
Y18462D01*
X41562Y18208D01*
X40800D01*
X41308D02*
X41816Y17700D01*
X42324D02*
X42831D01*
X42577D01*
Y19224D01*
X42324Y18970D01*
X44609Y17700D02*
X43593D01*
X44609Y18716D01*
Y18970D01*
X44355Y19224D01*
X43847D01*
X43593Y18970D01*
X35700Y16649D02*
Y15125D01*
X36462D01*
X36716Y15379D01*
Y16395D01*
X36462Y16649D01*
X35700D01*
X37224D02*
Y15125D01*
X37985D01*
X38239Y15379D01*
Y16395D01*
X37985Y16649D01*
X37224D01*
X38747Y16395D02*
X39001Y16649D01*
X39509D01*
X39763Y16395D01*
Y16141D01*
X39509Y15887D01*
X39255D01*
X39509D01*
X39763Y15633D01*
Y15379D01*
X39509Y15125D01*
X39001D01*
X38747Y15379D01*
X35650Y4375D02*
Y5899D01*
X36412D01*
X36666Y5645D01*
Y5137D01*
X36412Y4883D01*
X35650D01*
X36158D02*
X36666Y4375D01*
X37174D02*
X37681D01*
X37427D01*
Y5899D01*
X37174Y5645D01*
X38443Y4375D02*
X38951D01*
X38697D01*
Y5899D01*
X38443Y5645D01*
X24250Y18775D02*
Y20299D01*
X25012D01*
X25266Y20045D01*
Y19537D01*
X25012Y19283D01*
X24250D01*
X24758D02*
X25266Y18775D01*
X25774D02*
X26281D01*
X26027D01*
Y20299D01*
X25774Y20045D01*
X27043D02*
X27297Y20299D01*
X27805D01*
X28059Y20045D01*
Y19791D01*
X27805Y19537D01*
X27551D01*
X27805D01*
X28059Y19283D01*
Y19029D01*
X27805Y18775D01*
X27297D01*
X27043Y19029D01*
X18175Y2074D02*
X19191Y550D01*
Y2074D02*
X18175Y550D01*
X20460D02*
Y2074D01*
X19699Y1312D01*
X20714D01*
X12641Y20370D02*
X12387Y20624D01*
X11879D01*
X11625Y20370D01*
Y19354D01*
X11879Y19100D01*
X12387D01*
X12641Y19354D01*
X13149Y19100D02*
X13656D01*
X13402D01*
Y20624D01*
X13149Y20370D01*
X14418D02*
X14672Y20624D01*
X15180D01*
X15434Y20370D01*
Y20116D01*
X15180Y19862D01*
X15434Y19608D01*
Y19354D01*
X15180Y19100D01*
X14672D01*
X14418Y19354D01*
Y19608D01*
X14672Y19862D01*
X14418Y20116D01*
Y20370D01*
X14672Y19862D02*
X15180D01*
X25091Y34795D02*
X24837Y35049D01*
X24329D01*
X24075Y34795D01*
Y33779D01*
X24329Y33525D01*
X24837D01*
X25091Y33779D01*
X25599Y33525D02*
X26106D01*
X25852D01*
Y35049D01*
X25599Y34795D01*
X26868D02*
X27122Y35049D01*
X27630D01*
X27884Y34795D01*
Y34541D01*
X27630Y34287D01*
X27376D01*
X27630D01*
X27884Y34033D01*
Y33779D01*
X27630Y33525D01*
X27122D01*
X26868Y33779D01*
X26305Y22991D02*
X26051Y22737D01*
Y22229D01*
X26305Y21975D01*
X27321D01*
X27575Y22229D01*
Y22737D01*
X27321Y22991D01*
X27575Y23499D02*
Y24006D01*
Y23752D01*
X26051D01*
X26305Y23499D01*
X27575Y24768D02*
Y25276D01*
Y25022D01*
X26051D01*
X26305Y24768D01*
X24151Y22525D02*
Y23541D01*
X24405D01*
X25421Y22525D01*
X25675D01*
Y23541D01*
X25421Y25064D02*
X24405D01*
X24151Y24810D01*
Y24302D01*
X24405Y24049D01*
X25421D01*
X25675Y24302D01*
Y24810D01*
X25167Y24556D02*
X25675Y25064D01*
Y24810D02*
X25421Y25064D01*
X25675Y25572D02*
Y26080D01*
Y25826D01*
X24151D01*
X24405Y25572D01*
X29980Y22066D02*
X29726Y21812D01*
Y21304D01*
X29980Y21050D01*
X30996D01*
X31250Y21304D01*
Y21812D01*
X30996Y22066D01*
X29980Y22574D02*
X29726Y22827D01*
Y23335D01*
X29980Y23589D01*
X30234D01*
X30488Y23335D01*
Y23081D01*
Y23335D01*
X30742Y23589D01*
X30996D01*
X31250Y23335D01*
Y22827D01*
X30996Y22574D01*
X28105Y22141D02*
X27851Y21887D01*
Y21379D01*
X28105Y21125D01*
X29121D01*
X29375Y21379D01*
Y21887D01*
X29121Y22141D01*
X29375Y22649D02*
Y23156D01*
Y22902D01*
X27851D01*
X28105Y22649D01*
X29241Y34274D02*
X28225D01*
Y33512D01*
X28733D01*
X28225D01*
Y32750D01*
X29749Y34274D02*
Y32750D01*
X30510D01*
X30764Y33004D01*
Y33258D01*
X30510Y33512D01*
X29749D01*
X30510D01*
X30764Y33766D01*
Y34020D01*
X30510Y34274D01*
X29749D01*
X31272Y32750D02*
X31780D01*
X31526D01*
Y34274D01*
X31272Y34020D01*
X34020Y34459D02*
X34274Y34713D01*
Y35221D01*
X34020Y35475D01*
X33004D01*
X32750Y35221D01*
Y34713D01*
X33004Y34459D01*
X34274Y32936D02*
Y33951D01*
X33512D01*
X33766Y33444D01*
Y33190D01*
X33512Y32936D01*
X33004D01*
X32750Y33190D01*
Y33698D01*
X33004Y33951D01*
X39775Y33374D02*
Y31850D01*
X40537D01*
X40791Y32104D01*
Y33120D01*
X40537Y33374D01*
X39775D01*
X41299D02*
Y31850D01*
X42060D01*
X42314Y32104D01*
Y33120D01*
X42060Y33374D01*
X41299D01*
X42822Y31850D02*
X43330D01*
X43076D01*
Y33374D01*
X42822Y33120D01*
X44295Y30109D02*
X44549Y30363D01*
Y30871D01*
X44295Y31125D01*
X43279D01*
X43025Y30871D01*
Y30363D01*
X43279Y30109D01*
X44549Y28586D02*
X44295Y29094D01*
X43787Y29601D01*
X43279D01*
X43025Y29348D01*
Y28840D01*
X43279Y28586D01*
X43533D01*
X43787Y28840D01*
Y29601D01*
X43041Y20945D02*
X42787Y21199D01*
X42279D01*
X42025Y20945D01*
Y19929D01*
X42279Y19675D01*
X42787D01*
X43041Y19929D01*
X43549Y20945D02*
X43802Y21199D01*
X44310D01*
X44564Y20945D01*
Y20691D01*
X44310Y20437D01*
X44564Y20183D01*
Y19929D01*
X44310Y19675D01*
X43802D01*
X43549Y19929D01*
Y20183D01*
X43802Y20437D01*
X43549Y20691D01*
Y20945D01*
X43802Y20437D02*
X44310D01*
X43175Y39300D02*
Y40824D01*
X43937D01*
X44191Y40570D01*
Y40062D01*
X43937Y39808D01*
X43175D01*
X43683D02*
X44191Y39300D01*
X45714Y40824D02*
X44699D01*
Y40062D01*
X45206Y40316D01*
X45460D01*
X45714Y40062D01*
Y39554D01*
X45460Y39300D01*
X44952D01*
X44699Y39554D01*
X44141Y42620D02*
X43887Y42874D01*
X43379D01*
X43125Y42620D01*
Y41604D01*
X43379Y41350D01*
X43887D01*
X44141Y41604D01*
X44649Y42874D02*
X45664D01*
Y42620D01*
X44649Y41604D01*
Y41350D01*
X33375Y40200D02*
Y41724D01*
X34137D01*
X34391Y41470D01*
Y40962D01*
X34137Y40708D01*
X33375D01*
X33883D02*
X34391Y40200D01*
X34899D02*
X35406D01*
X35152D01*
Y41724D01*
X34899Y41470D01*
X37050Y40150D02*
Y41674D01*
X37812D01*
X38066Y41420D01*
Y40912D01*
X37812Y40658D01*
X37050D01*
X37558D02*
X38066Y40150D01*
X39589D02*
X38574D01*
X39589Y41166D01*
Y41420D01*
X39335Y41674D01*
X38827D01*
X38574Y41420D01*
X18200Y47825D02*
Y49349D01*
X18962D01*
X19216Y49095D01*
Y48587D01*
X18962Y48333D01*
X18200D01*
X18708D02*
X19216Y47825D01*
X19724D02*
X20231D01*
X19977D01*
Y49349D01*
X19724Y49095D01*
X22009Y49349D02*
X21501Y49095D01*
X20993Y48587D01*
Y48079D01*
X21247Y47825D01*
X21755D01*
X22009Y48079D01*
Y48333D01*
X21755Y48587D01*
X20993D01*
X23450Y49300D02*
X24974D01*
Y48538D01*
X24720Y48284D01*
X24212D01*
X23958Y48538D01*
Y49300D01*
Y48792D02*
X23450Y48284D01*
Y47015D02*
X24974D01*
X24212Y47777D01*
Y46761D01*
X26225Y49325D02*
X27749D01*
Y48563D01*
X27495Y48309D01*
X26987D01*
X26733Y48563D01*
Y49325D01*
Y48817D02*
X26225Y48309D01*
X27495Y47801D02*
X27749Y47548D01*
Y47040D01*
X27495Y46786D01*
X27241D01*
X26987Y47040D01*
Y47294D01*
Y47040D01*
X26733Y46786D01*
X26479D01*
X26225Y47040D01*
Y47548D01*
X26479Y47801D01*
X17025Y53399D02*
X18041Y51875D01*
Y53399D02*
X17025Y51875D01*
X19564D02*
X18549D01*
X19564Y52891D01*
Y53145D01*
X19310Y53399D01*
X18802D01*
X18549Y53145D01*
X4000Y53649D02*
X5016Y52125D01*
Y53649D02*
X4000Y52125D01*
X5524D02*
X6031D01*
X5777D01*
Y53649D01*
X5524Y53395D01*
X29250Y53374D02*
X30266Y51850D01*
Y53374D02*
X29250Y51850D01*
X30774Y53120D02*
X31027Y53374D01*
X31535D01*
X31789Y53120D01*
Y52866D01*
X31535Y52612D01*
X31281D01*
X31535D01*
X31789Y52358D01*
Y52104D01*
X31535Y51850D01*
X31027D01*
X30774Y52104D01*
X8391Y2195D02*
X8137Y2449D01*
X7629D01*
X7375Y2195D01*
Y1179D01*
X7629Y925D01*
X8137D01*
X8391Y1179D01*
X8899Y925D02*
X9406D01*
X9152D01*
Y2449D01*
X8899Y2195D01*
X10168Y1179D02*
X10422Y925D01*
X10930D01*
X11184Y1179D01*
Y2195D01*
X10930Y2449D01*
X10422D01*
X10168Y2195D01*
Y1941D01*
X10422Y1687D01*
X11184D01*
X5126Y4325D02*
X6650D01*
Y5087D01*
X6396Y5341D01*
X5380D01*
X5126Y5087D01*
Y4325D01*
Y5849D02*
X6650D01*
Y6610D01*
X6396Y6864D01*
X5380D01*
X5126Y6610D01*
Y5849D01*
X6650Y8134D02*
X5126D01*
X5888Y7372D01*
Y8388D01*
X2775Y9925D02*
Y11449D01*
X3537D01*
X3791Y11195D01*
Y10687D01*
X3537Y10433D01*
X2775D01*
X3283D02*
X3791Y9925D01*
X4299D02*
X4806D01*
X4552D01*
Y11449D01*
X4299Y11195D01*
X6330Y9925D02*
Y11449D01*
X5568Y10687D01*
X6584D01*
X6400Y12575D02*
X4876D01*
Y13337D01*
X5130Y13591D01*
X5638D01*
X5892Y13337D01*
Y12575D01*
Y13083D02*
X6400Y13591D01*
Y14099D02*
Y14606D01*
Y14352D01*
X4876D01*
X5130Y14099D01*
X4876Y16384D02*
Y15368D01*
X5638D01*
X5384Y15876D01*
Y16130D01*
X5638Y16384D01*
X6146D01*
X6400Y16130D01*
Y15622D01*
X6146Y15368D01*
X21326Y19850D02*
X22342D01*
X22850Y20358D01*
X22342Y20866D01*
X21326D01*
Y21374D02*
X22850D01*
Y22135D01*
X22596Y22389D01*
X21580D01*
X21326Y22135D01*
Y21374D01*
X22850Y23659D02*
X21326D01*
X22088Y22897D01*
Y23913D01*
X17891Y19070D02*
X17637Y19323D01*
X17129D01*
X16875Y19070D01*
Y18054D01*
X17129Y17800D01*
X17637D01*
X17891Y18054D01*
X18399Y17800D02*
X18906D01*
X18652D01*
Y19323D01*
X18399Y19070D01*
X19668Y19323D02*
X20684D01*
Y19070D01*
X19668Y18054D01*
Y17800D01*
X17141Y26320D02*
X16887Y26573D01*
X16379D01*
X16125Y26320D01*
Y25304D01*
X16379Y25050D01*
X16887D01*
X17141Y25304D01*
X17649Y25050D02*
X18156D01*
X17902D01*
Y26573D01*
X17649Y26320D01*
X19934Y26573D02*
X19426Y26320D01*
X18918Y25812D01*
Y25304D01*
X19172Y25050D01*
X19680D01*
X19934Y25304D01*
Y25558D01*
X19680Y25812D01*
X18918D01*
X22176Y29275D02*
X23700D01*
Y30291D01*
Y30799D02*
Y31306D01*
Y31052D01*
X22176D01*
X22430Y30799D01*
X17625Y35824D02*
Y34808D01*
X18133Y34300D01*
X18641Y34808D01*
Y35824D01*
X19149D02*
Y34300D01*
X19910D01*
X20164Y34554D01*
Y35570D01*
X19910Y35824D01*
X19149D01*
X20672Y35570D02*
X20926Y35824D01*
X21434D01*
X21688Y35570D01*
Y35316D01*
X21434Y35062D01*
X21180D01*
X21434D01*
X21688Y34808D01*
Y34554D01*
X21434Y34300D01*
X20926D01*
X20672Y34554D01*
X10625Y27573D02*
Y26050D01*
X11387D01*
X11641Y26304D01*
Y27320D01*
X11387Y27573D01*
X10625D01*
X12149D02*
Y26050D01*
X12910D01*
X13164Y26304D01*
Y27320D01*
X12910Y27573D01*
X12149D01*
X14688Y26050D02*
X13672D01*
X14688Y27066D01*
Y27320D01*
X14434Y27573D01*
X13926D01*
X13672Y27320D01*
X1105Y17416D02*
X851Y17162D01*
Y16654D01*
X1105Y16400D01*
X2121D01*
X2375Y16654D01*
Y17162D01*
X2121Y17416D01*
X2375Y17924D02*
Y18431D01*
Y18177D01*
X851D01*
X1105Y17924D01*
X2375Y20209D02*
Y19193D01*
X1359Y20209D01*
X1105D01*
X851Y19955D01*
Y19447D01*
X1105Y19193D01*
X3450Y18050D02*
Y19573D01*
X4212D01*
X4466Y19320D01*
Y18812D01*
X4212Y18558D01*
X3450D01*
X3958D02*
X4466Y18050D01*
X4974Y19320D02*
X5227Y19573D01*
X5735D01*
X5989Y19320D01*
Y19066D01*
X5735Y18812D01*
X5989Y18558D01*
Y18304D01*
X5735Y18050D01*
X5227D01*
X4974Y18304D01*
Y18558D01*
X5227Y18812D01*
X4974Y19066D01*
Y19320D01*
X5227Y18812D02*
X5735D01*
X8395Y20534D02*
X8649Y20788D01*
Y21296D01*
X8395Y21550D01*
X7379D01*
X7125Y21296D01*
Y20788D01*
X7379Y20534D01*
X7125Y20026D02*
Y19519D01*
Y19773D01*
X8649D01*
X8395Y20026D01*
Y18757D02*
X8649Y18503D01*
Y17995D01*
X8395Y17741D01*
X7379D01*
X7125Y17995D01*
Y18503D01*
X7379Y18757D01*
X8395D01*
X2950Y25100D02*
Y26624D01*
X3712D01*
X3966Y26370D01*
Y25862D01*
X3712Y25608D01*
X2950D01*
X3458D02*
X3966Y25100D01*
X4474Y26624D02*
X5489D01*
Y26370D01*
X4474Y25354D01*
Y25100D01*
X4716Y31295D02*
X4462Y31549D01*
X3954D01*
X3700Y31295D01*
Y30279D01*
X3954Y30025D01*
X4462D01*
X4716Y30279D01*
X5224D02*
X5477Y30025D01*
X5985D01*
X6239Y30279D01*
Y31295D01*
X5985Y31549D01*
X5477D01*
X5224Y31295D01*
Y31041D01*
X5477Y30787D01*
X6239D01*
X1176Y34600D02*
X2192D01*
X2700Y35108D01*
X2192Y35616D01*
X1176D01*
Y36124D02*
X2700D01*
Y36885D01*
X2446Y37139D01*
X1430D01*
X1176Y36885D01*
Y36124D01*
X2700Y38663D02*
Y37647D01*
X1684Y38663D01*
X1430D01*
X1176Y38409D01*
Y37901D01*
X1430Y37647D01*
X13375Y32800D02*
Y34324D01*
X14137D01*
X14391Y34070D01*
Y33562D01*
X14137Y33308D01*
X13375D01*
X13883D02*
X14391Y32800D01*
X15914Y34324D02*
X15406Y34070D01*
X14899Y33562D01*
Y33054D01*
X15152Y32800D01*
X15660D01*
X15914Y33054D01*
Y33308D01*
X15660Y33562D01*
X14899D01*
X8125Y35824D02*
Y34808D01*
X8633Y34300D01*
X9141Y34808D01*
Y35824D01*
X9649D02*
X10664D01*
X10156D01*
Y34300D01*
X11172D02*
X11680D01*
X11426D01*
Y35824D01*
X11172Y35570D01*
X12625Y37074D02*
Y36058D01*
X13133Y35550D01*
X13641Y36058D01*
Y37074D01*
X14149D02*
Y35550D01*
X14910D01*
X15164Y35804D01*
Y36820D01*
X14910Y37074D01*
X14149D01*
X15672Y35550D02*
X16180D01*
X15926D01*
Y37074D01*
X15672Y36820D01*
D47*
X19625Y29800D02*
D03*
X5125Y35800D02*
D03*
M02*
