G04 Layer_Color=8421504*
%FSLAX43Y43*%
%MOMM*%
G71*
G01*
G75*
%ADD10R,0.600X0.600*%
%ADD11R,0.600X0.600*%
%ADD12R,1.500X1.500*%
%ADD13O,0.300X0.500*%
%ADD14O,0.500X0.300*%
%ADD15R,1.400X2.700*%
%ADD16R,1.600X1.000*%
%ADD17R,0.300X0.300*%
%ADD18R,1.200X1.800*%
%ADD19R,0.300X0.300*%
%ADD20R,0.850X0.850*%
%ADD21R,1.400X0.250*%
%ADD22R,0.250X1.400*%
%ADD23R,0.600X1.000*%
%ADD24R,1.000X1.250*%
%ADD25R,1.250X1.000*%
%ADD26R,1.000X0.600*%
%ADD27R,0.850X0.850*%
%ADD28R,2.300X2.000*%
%ADD29R,1.600X2.800*%
%ADD30R,1.400X0.300*%
D10*
X43950Y25000D02*
D03*
X45050D02*
D03*
X45050Y26150D02*
D03*
X43950D02*
D03*
X41875Y10525D02*
D03*
X42875D02*
D03*
X32975Y32125D02*
D03*
X34075D02*
D03*
X40250Y20700D02*
D03*
X39150D02*
D03*
X41375Y40325D02*
D03*
X42375D02*
D03*
X42375Y42000D02*
D03*
X41275D02*
D03*
X34875Y42450D02*
D03*
X33875D02*
D03*
X36375D02*
D03*
X37375D02*
D03*
X20800Y50100D02*
D03*
X19800D02*
D03*
X23150Y50025D02*
D03*
X24150D02*
D03*
X25700Y50050D02*
D03*
X26700D02*
D03*
D11*
X45825Y12350D02*
D03*
Y13350D02*
D03*
Y14700D02*
D03*
Y15800D02*
D03*
X42850Y14725D02*
D03*
Y15825D02*
D03*
X40125Y18425D02*
D03*
Y17425D02*
D03*
X30275Y24250D02*
D03*
Y25350D02*
D03*
X42350Y29975D02*
D03*
Y28875D02*
D03*
X1625Y21250D02*
D03*
Y22350D02*
D03*
X12625Y34050D02*
D03*
Y33050D02*
D03*
D12*
X39850Y13050D02*
D03*
D13*
X39100Y14325D02*
D03*
X39600D02*
D03*
X40100D02*
D03*
X40600D02*
D03*
Y11775D02*
D03*
X40100D02*
D03*
X39600D02*
D03*
X39100D02*
D03*
D14*
X41125Y13800D02*
D03*
Y13300D02*
D03*
Y12800D02*
D03*
Y12300D02*
D03*
X38575D02*
D03*
Y12800D02*
D03*
Y13300D02*
D03*
Y13800D02*
D03*
D15*
X39725Y7900D02*
D03*
X35125D02*
D03*
X26900Y16700D02*
D03*
X22300D02*
D03*
D16*
X12550Y14875D02*
D03*
Y17875D02*
D03*
D17*
X25350Y32975D02*
D03*
X24750D02*
D03*
X27850Y25875D02*
D03*
X27250D02*
D03*
X9725Y3350D02*
D03*
X9125D02*
D03*
X16125Y24300D02*
D03*
X16725D02*
D03*
X8125Y22300D02*
D03*
X7525D02*
D03*
X11925Y36550D02*
D03*
X11325D02*
D03*
D18*
X27850Y27425D02*
D03*
Y31425D02*
D03*
X25450D02*
D03*
Y27425D02*
D03*
D19*
X28425Y25050D02*
D03*
Y24450D02*
D03*
D20*
X30075Y31500D02*
D03*
Y30100D02*
D03*
D21*
X32400Y29175D02*
D03*
Y28675D02*
D03*
Y28175D02*
D03*
Y27675D02*
D03*
Y27175D02*
D03*
Y26675D02*
D03*
Y26175D02*
D03*
Y25675D02*
D03*
Y25175D02*
D03*
Y24675D02*
D03*
Y24175D02*
D03*
Y23675D02*
D03*
X40800D02*
D03*
Y24175D02*
D03*
Y24675D02*
D03*
Y25175D02*
D03*
Y25675D02*
D03*
Y26175D02*
D03*
Y26675D02*
D03*
Y27175D02*
D03*
Y27675D02*
D03*
Y28175D02*
D03*
Y28675D02*
D03*
Y29175D02*
D03*
D22*
X33850Y22225D02*
D03*
X34350D02*
D03*
X34850D02*
D03*
X35350D02*
D03*
X35850D02*
D03*
X36350D02*
D03*
X36850D02*
D03*
X37350D02*
D03*
X37850D02*
D03*
X38350D02*
D03*
X38850D02*
D03*
X39350D02*
D03*
Y30625D02*
D03*
X38850D02*
D03*
X38350D02*
D03*
X37850D02*
D03*
X37350D02*
D03*
X36850D02*
D03*
X36350D02*
D03*
X35850D02*
D03*
X35350D02*
D03*
X34850D02*
D03*
X34350D02*
D03*
X33850D02*
D03*
D23*
X9700Y4900D02*
D03*
X7800D02*
D03*
Y7300D02*
D03*
X8750D02*
D03*
X9700D02*
D03*
D24*
X7725Y10775D02*
D03*
X9725D02*
D03*
X3625Y20800D02*
D03*
X5625D02*
D03*
X3625Y23800D02*
D03*
X5625D02*
D03*
D25*
X7675Y15175D02*
D03*
Y13175D02*
D03*
X22875Y26050D02*
D03*
Y28050D02*
D03*
D26*
X17875Y21800D02*
D03*
X20275Y22750D02*
D03*
Y20850D02*
D03*
X8425Y32050D02*
D03*
X10825Y33000D02*
D03*
Y31100D02*
D03*
D27*
X17925Y16550D02*
D03*
X19325D02*
D03*
X4425Y28800D02*
D03*
X5825D02*
D03*
D28*
X19625Y28250D02*
D03*
Y32850D02*
D03*
X5125Y34250D02*
D03*
Y38850D02*
D03*
D29*
X12125Y23550D02*
D03*
D30*
X14325Y21800D02*
D03*
Y22300D02*
D03*
Y22800D02*
D03*
Y23300D02*
D03*
Y23800D02*
D03*
Y24300D02*
D03*
Y24800D02*
D03*
Y25300D02*
D03*
X9925Y21800D02*
D03*
Y22300D02*
D03*
Y22800D02*
D03*
Y23300D02*
D03*
Y23800D02*
D03*
Y24300D02*
D03*
Y24800D02*
D03*
Y25300D02*
D03*
M02*
