G04 Layer_Physical_Order=2*
G04 Layer_Color=16711680*
%FSLAX43Y43*%
%MOMM*%
G71*
G01*
G75*
%ADD31C,0.250*%
%ADD36C,1.800*%
%ADD37P,1.948X8X202.5*%
%ADD38R,2.500X1.000*%
%ADD39O,5.000X2.000*%
%ADD40O,2.000X5.000*%
%ADD41C,0.700*%
%ADD42C,0.500*%
G36*
X57500Y42132D02*
Y42132D01*
X57505Y42136D01*
X57917Y42095D01*
X58317Y41973D01*
X58687Y41776D01*
X59010Y41510D01*
X59276Y41187D01*
X59473Y40817D01*
X59595Y40417D01*
X59636Y40005D01*
X59632Y40000D01*
X59632D01*
X59639Y39962D01*
Y2538D01*
X59632Y2500D01*
X59632D01*
X59636Y2496D01*
X59595Y2083D01*
X59473Y1683D01*
X59276Y1313D01*
X59010Y990D01*
X58687Y724D01*
X58317Y527D01*
X57917Y405D01*
X57505Y364D01*
X57500Y368D01*
Y368D01*
X57462Y361D01*
X2500D01*
X2485Y358D01*
X2083Y397D01*
X1683Y519D01*
X1313Y716D01*
X990Y982D01*
X724Y1306D01*
X527Y1675D01*
X405Y2076D01*
X364Y2488D01*
X368Y2492D01*
X368D01*
X361Y2530D01*
Y39877D01*
X361Y40000D01*
X361Y40001D01*
X369Y40125D01*
X397Y40417D01*
X519Y40818D01*
X716Y41187D01*
X982Y41511D01*
X1306Y41777D01*
X1675Y41974D01*
X2076Y42096D01*
X2488Y42136D01*
X2492Y42132D01*
Y42132D01*
X2526Y42139D01*
X57462D01*
X57500Y42132D01*
D02*
G37*
%LPC*%
G36*
X12823Y14016D02*
X12714Y13994D01*
X12515Y13860D01*
X12381Y13661D01*
X12359Y13552D01*
X12823D01*
Y14016D01*
D02*
G37*
G36*
X13077D02*
Y13552D01*
X13541D01*
X13519Y13661D01*
X13385Y13860D01*
X13186Y13994D01*
X13077Y14016D01*
D02*
G37*
G36*
X15798Y17998D02*
X15334D01*
X15356Y17889D01*
X15490Y17690D01*
X15689Y17556D01*
X15798Y17534D01*
Y17998D01*
D02*
G37*
G36*
X13541Y13298D02*
X13077D01*
Y12834D01*
X13186Y12856D01*
X13385Y12990D01*
X13519Y13189D01*
X13541Y13298D01*
D02*
G37*
G36*
X54223Y13291D02*
X54114Y13269D01*
X53915Y13135D01*
X53781Y12936D01*
X53759Y12827D01*
X54223D01*
Y13291D01*
D02*
G37*
G36*
X54477D02*
Y12827D01*
X54941D01*
X54919Y12936D01*
X54785Y13135D01*
X54586Y13269D01*
X54477Y13291D01*
D02*
G37*
G36*
X12823Y13298D02*
X12359D01*
X12381Y13189D01*
X12515Y12990D01*
X12714Y12856D01*
X12823Y12834D01*
Y13298D01*
D02*
G37*
G36*
X9266Y20523D02*
X8802D01*
Y20059D01*
X8911Y20081D01*
X9110Y20215D01*
X9244Y20414D01*
X9266Y20523D01*
D02*
G37*
G36*
X8548Y21241D02*
X8439Y21219D01*
X8240Y21085D01*
X8106Y20886D01*
X8084Y20777D01*
X8548D01*
Y21241D01*
D02*
G37*
G36*
X8802D02*
Y20777D01*
X9266D01*
X9244Y20886D01*
X9110Y21085D01*
X8911Y21219D01*
X8802Y21241D01*
D02*
G37*
G36*
X8548Y20523D02*
X8084D01*
X8106Y20414D01*
X8240Y20215D01*
X8439Y20081D01*
X8548Y20059D01*
Y20523D01*
D02*
G37*
G36*
X16516Y17998D02*
X16052D01*
Y17534D01*
X16161Y17556D01*
X16360Y17690D01*
X16494Y17889D01*
X16516Y17998D01*
D02*
G37*
G36*
X15798Y18716D02*
X15689Y18694D01*
X15490Y18560D01*
X15356Y18361D01*
X15334Y18252D01*
X15798D01*
Y18716D01*
D02*
G37*
G36*
X16052D02*
Y18252D01*
X16516D01*
X16494Y18361D01*
X16360Y18560D01*
X16161Y18694D01*
X16052Y18716D01*
D02*
G37*
G36*
X24318Y3198D02*
X23298D01*
X23321Y3024D01*
X23437Y2743D01*
X23622Y2502D01*
X23863Y2317D01*
X24144Y2201D01*
X24318Y2178D01*
Y3198D01*
D02*
G37*
G36*
X25592D02*
X24572D01*
Y2178D01*
X24746Y2201D01*
X25027Y2317D01*
X25268Y2502D01*
X25453Y2743D01*
X25569Y3024D01*
X25592Y3198D01*
D02*
G37*
G36*
X24318Y4472D02*
X24144Y4449D01*
X23863Y4333D01*
X23622Y4148D01*
X23437Y3907D01*
X23321Y3626D01*
X23298Y3452D01*
X24318D01*
Y4472D01*
D02*
G37*
G36*
X35055Y4484D02*
X34155D01*
X34056Y4464D01*
X33972Y4408D01*
X33522Y3958D01*
X33466Y3874D01*
X33446Y3775D01*
Y2875D01*
X33466Y2776D01*
X33522Y2692D01*
X33972Y2242D01*
X34056Y2186D01*
X34155Y2166D01*
X35055D01*
X35154Y2186D01*
X35238Y2242D01*
X35688Y2692D01*
X35744Y2776D01*
X35764Y2875D01*
Y3775D01*
X35744Y3874D01*
X35688Y3958D01*
X35238Y4408D01*
X35154Y4464D01*
X35055Y4484D01*
D02*
G37*
G36*
X26985Y4489D02*
X26684Y4449D01*
X26403Y4333D01*
X26162Y4148D01*
X25977Y3907D01*
X25861Y3626D01*
X25821Y3325D01*
X25861Y3024D01*
X25977Y2743D01*
X26162Y2502D01*
X26403Y2317D01*
X26684Y2201D01*
X26985Y2161D01*
X27286Y2201D01*
X27567Y2317D01*
X27808Y2502D01*
X27993Y2743D01*
X28109Y3024D01*
X28149Y3325D01*
X28109Y3626D01*
X27993Y3907D01*
X27808Y4148D01*
X27567Y4333D01*
X27286Y4449D01*
X26985Y4489D01*
D02*
G37*
G36*
X29525D02*
X29224Y4449D01*
X28943Y4333D01*
X28702Y4148D01*
X28517Y3907D01*
X28401Y3626D01*
X28361Y3325D01*
X28401Y3024D01*
X28517Y2743D01*
X28702Y2502D01*
X28943Y2317D01*
X29224Y2201D01*
X29525Y2161D01*
X29826Y2201D01*
X30107Y2317D01*
X30348Y2502D01*
X30533Y2743D01*
X30649Y3024D01*
X30689Y3325D01*
X30649Y3626D01*
X30533Y3907D01*
X30348Y4148D01*
X30107Y4333D01*
X29826Y4449D01*
X29525Y4489D01*
D02*
G37*
G36*
X32065D02*
X31764Y4449D01*
X31483Y4333D01*
X31242Y4148D01*
X31057Y3907D01*
X30941Y3626D01*
X30901Y3325D01*
X30941Y3024D01*
X31057Y2743D01*
X31242Y2502D01*
X31483Y2317D01*
X31764Y2201D01*
X32065Y2161D01*
X32366Y2201D01*
X32647Y2317D01*
X32888Y2502D01*
X33073Y2743D01*
X33189Y3024D01*
X33229Y3325D01*
X33189Y3626D01*
X33073Y3907D01*
X32888Y4148D01*
X32647Y4333D01*
X32366Y4449D01*
X32065Y4489D01*
D02*
G37*
G36*
X54223Y12573D02*
X53759D01*
X53781Y12464D01*
X53915Y12265D01*
X54114Y12131D01*
X54223Y12109D01*
Y12573D01*
D02*
G37*
G36*
X54941D02*
X54477D01*
Y12109D01*
X54586Y12131D01*
X54785Y12265D01*
X54919Y12464D01*
X54941Y12573D01*
D02*
G37*
G36*
X12600Y15391D02*
X12364Y15344D01*
X12165Y15210D01*
X12031Y15011D01*
X11984Y14775D01*
X12031Y14539D01*
X12165Y14340D01*
X12364Y14206D01*
X12600Y14159D01*
X12836Y14206D01*
X13035Y14340D01*
X13052Y14364D01*
X14983D01*
X15021Y14237D01*
X14987Y14213D01*
X14875Y14047D01*
X14836Y13850D01*
X14875Y13653D01*
X14987Y13487D01*
X15153Y13375D01*
X15206Y13365D01*
Y13235D01*
X15153Y13225D01*
X14987Y13113D01*
X14875Y12947D01*
X14836Y12750D01*
X14875Y12553D01*
X14987Y12387D01*
X15153Y12275D01*
X15206Y12265D01*
Y12135D01*
X15153Y12125D01*
X14987Y12013D01*
X14875Y11847D01*
X14836Y11650D01*
X14875Y11453D01*
X14987Y11287D01*
X15153Y11175D01*
X15350Y11136D01*
X15547Y11175D01*
X15713Y11287D01*
X15825Y11453D01*
X15835Y11506D01*
X15965D01*
X15975Y11453D01*
X16087Y11287D01*
X16253Y11175D01*
X16450Y11136D01*
X16647Y11175D01*
X16813Y11287D01*
X16925Y11453D01*
X16935Y11506D01*
X17065D01*
X17075Y11453D01*
X17187Y11287D01*
X17353Y11175D01*
X17550Y11136D01*
X17747Y11175D01*
X17913Y11287D01*
X18025Y11453D01*
X18064Y11650D01*
X18025Y11847D01*
X17913Y12013D01*
X17747Y12125D01*
X17694Y12135D01*
Y12265D01*
X17747Y12275D01*
X17913Y12387D01*
X18025Y12553D01*
X18064Y12750D01*
X18025Y12947D01*
X17913Y13113D01*
X17747Y13225D01*
X17694Y13235D01*
Y13365D01*
X17747Y13375D01*
X17913Y13487D01*
X18025Y13653D01*
X18064Y13850D01*
X18025Y14047D01*
X17913Y14213D01*
X17879Y14237D01*
X17917Y14364D01*
X19283D01*
X19324Y14237D01*
X19206Y14061D01*
X19159Y13825D01*
X19170Y13772D01*
X18773Y13375D01*
X18689Y13250D01*
X18660Y13102D01*
Y12454D01*
X18689Y12306D01*
X18773Y12181D01*
X25727Y5227D01*
X25852Y5143D01*
X26000Y5114D01*
X27090D01*
X27190Y4965D01*
X27389Y4831D01*
X27625Y4784D01*
X27861Y4831D01*
X28060Y4965D01*
X28183Y5147D01*
X28315Y5195D01*
X28408Y5102D01*
X28408Y5102D01*
X28533Y5018D01*
X28681Y4989D01*
X28681Y4989D01*
X33507D01*
X33540Y4940D01*
X33739Y4806D01*
X33975Y4759D01*
X34211Y4806D01*
X34410Y4940D01*
X34544Y5139D01*
X34591Y5375D01*
X34544Y5611D01*
X34410Y5810D01*
X34211Y5944D01*
X33975Y5991D01*
X33739Y5944D01*
X33540Y5810D01*
X33507Y5761D01*
X28841D01*
X28200Y6402D01*
X28075Y6486D01*
X27927Y6515D01*
X26606D01*
X20379Y12742D01*
X20391Y12800D01*
X20344Y13036D01*
X20210Y13235D01*
X20190Y13249D01*
Y13376D01*
X20210Y13390D01*
X20344Y13589D01*
X20391Y13825D01*
X20344Y14061D01*
X20273Y14166D01*
X20332Y14307D01*
X20386Y14318D01*
X21702Y13002D01*
X21702Y13002D01*
X21827Y12918D01*
X21975Y12889D01*
X21975Y12889D01*
X36051D01*
X36100Y12771D01*
X30858Y7529D01*
X30800Y7541D01*
X30564Y7494D01*
X30365Y7360D01*
X30231Y7161D01*
X30184Y6925D01*
X30231Y6689D01*
X30365Y6490D01*
X30564Y6356D01*
X30800Y6309D01*
X31036Y6356D01*
X31235Y6490D01*
X31369Y6689D01*
X31416Y6925D01*
X31404Y6983D01*
X37310Y12889D01*
X50026D01*
X50075Y12771D01*
X48565Y11261D01*
X39868D01*
X39835Y11310D01*
X39636Y11444D01*
X39400Y11491D01*
X39164Y11444D01*
X38965Y11310D01*
X38831Y11111D01*
X38784Y10875D01*
X38831Y10639D01*
X38965Y10440D01*
X39164Y10306D01*
X39400Y10259D01*
X39636Y10306D01*
X39835Y10440D01*
X39868Y10489D01*
X48725D01*
X48873Y10518D01*
X48998Y10602D01*
X51067Y12671D01*
X51125Y12659D01*
X51361Y12706D01*
X51560Y12840D01*
X51694Y13039D01*
X51741Y13275D01*
X51694Y13511D01*
X51560Y13710D01*
X51361Y13844D01*
X51125Y13891D01*
X50889Y13844D01*
X50690Y13710D01*
X50657Y13661D01*
X37150D01*
X37150Y13661D01*
X37150Y13661D01*
X22135D01*
X20773Y15023D01*
X20648Y15107D01*
X20500Y15136D01*
X13085D01*
X13035Y15210D01*
X12836Y15344D01*
X12600Y15391D01*
D02*
G37*
G36*
X4075Y11809D02*
X1575D01*
X1476Y11789D01*
X1392Y11733D01*
X1336Y11649D01*
X1316Y11550D01*
Y10550D01*
X1336Y10451D01*
X1392Y10367D01*
X1476Y10311D01*
X1575Y10291D01*
X4075D01*
X4174Y10311D01*
X4258Y10367D01*
X4314Y10451D01*
X4334Y10550D01*
Y11550D01*
X4314Y11649D01*
X4258Y11733D01*
X4174Y11789D01*
X4075Y11809D01*
D02*
G37*
G36*
X24572Y4472D02*
Y3452D01*
X25592D01*
X25569Y3626D01*
X25453Y3907D01*
X25268Y4148D01*
X25027Y4333D01*
X24746Y4449D01*
X24572Y4472D01*
D02*
G37*
G36*
X2500Y3768D02*
X2483Y3764D01*
X2466Y3765D01*
X2205Y3731D01*
X2173Y3720D01*
X2140Y3714D01*
X1897Y3613D01*
X1868Y3594D01*
X1838Y3579D01*
X1629Y3419D01*
X1607Y3393D01*
X1581Y3371D01*
X1421Y3162D01*
X1406Y3132D01*
X1387Y3103D01*
X1286Y2860D01*
X1280Y2827D01*
X1269Y2795D01*
X1235Y2534D01*
X1237Y2500D01*
X1235Y2466D01*
X1269Y2205D01*
X1280Y2173D01*
X1286Y2140D01*
X1387Y1897D01*
X1406Y1868D01*
X1421Y1838D01*
X1581Y1629D01*
X1607Y1607D01*
X1629Y1581D01*
X1838Y1421D01*
X1868Y1406D01*
X1897Y1387D01*
X2140Y1286D01*
X2173Y1280D01*
X2205Y1269D01*
X2466Y1235D01*
X2483Y1236D01*
X2500Y1232D01*
X2517Y1236D01*
X2534Y1235D01*
X2795Y1269D01*
X2827Y1280D01*
X2860Y1286D01*
X3103Y1387D01*
X3132Y1406D01*
X3162Y1421D01*
X3371Y1581D01*
X3393Y1607D01*
X3419Y1629D01*
X3579Y1838D01*
X3594Y1868D01*
X3613Y1897D01*
X3714Y2140D01*
X3720Y2173D01*
X3731Y2205D01*
X3765Y2466D01*
X3763Y2500D01*
X3765Y2534D01*
X3731Y2795D01*
X3720Y2827D01*
X3714Y2860D01*
X3613Y3103D01*
X3594Y3132D01*
X3579Y3162D01*
X3419Y3371D01*
X3393Y3393D01*
X3371Y3419D01*
X3162Y3579D01*
X3132Y3594D01*
X3103Y3613D01*
X2860Y3714D01*
X2827Y3720D01*
X2795Y3731D01*
X2534Y3765D01*
X2517Y3764D01*
X2500Y3768D01*
D02*
G37*
G36*
X57500D02*
X57483Y3764D01*
X57466Y3765D01*
X57205Y3731D01*
X57173Y3720D01*
X57140Y3714D01*
X56897Y3613D01*
X56868Y3594D01*
X56838Y3579D01*
X56629Y3419D01*
X56607Y3393D01*
X56581Y3371D01*
X56421Y3162D01*
X56406Y3132D01*
X56387Y3103D01*
X56286Y2860D01*
X56280Y2827D01*
X56269Y2795D01*
X56235Y2534D01*
X56237Y2500D01*
X56235Y2466D01*
X56269Y2205D01*
X56280Y2173D01*
X56286Y2140D01*
X56387Y1897D01*
X56406Y1868D01*
X56421Y1838D01*
X56581Y1629D01*
X56607Y1607D01*
X56629Y1581D01*
X56838Y1421D01*
X56868Y1406D01*
X56897Y1387D01*
X57140Y1286D01*
X57173Y1280D01*
X57205Y1269D01*
X57466Y1235D01*
X57483Y1236D01*
X57500Y1232D01*
X57517Y1236D01*
X57534Y1235D01*
X57795Y1269D01*
X57827Y1280D01*
X57860Y1286D01*
X58103Y1387D01*
X58132Y1406D01*
X58162Y1421D01*
X58371Y1581D01*
X58393Y1607D01*
X58419Y1629D01*
X58579Y1838D01*
X58594Y1868D01*
X58613Y1897D01*
X58714Y2140D01*
X58720Y2173D01*
X58731Y2205D01*
X58765Y2466D01*
X58763Y2500D01*
X58765Y2534D01*
X58731Y2795D01*
X58720Y2827D01*
X58714Y2860D01*
X58613Y3103D01*
X58594Y3132D01*
X58579Y3162D01*
X58419Y3371D01*
X58393Y3393D01*
X58371Y3419D01*
X58162Y3579D01*
X58132Y3594D01*
X58103Y3613D01*
X57860Y3714D01*
X57827Y3720D01*
X57795Y3731D01*
X57534Y3765D01*
X57517Y3764D01*
X57500Y3768D01*
D02*
G37*
G36*
X24673Y21748D02*
X24209D01*
X24231Y21639D01*
X24365Y21440D01*
X24564Y21306D01*
X24673Y21284D01*
Y21748D01*
D02*
G37*
G36*
X14548Y40073D02*
X11927D01*
Y38935D01*
X13300D01*
X13627Y38978D01*
X13932Y39105D01*
X14194Y39306D01*
X14395Y39568D01*
X14522Y39873D01*
X14548Y40073D01*
D02*
G37*
G36*
X31505Y41834D02*
X30605D01*
X30506Y41814D01*
X30422Y41758D01*
X29972Y41308D01*
X29916Y41224D01*
X29896Y41125D01*
Y40225D01*
X29916Y40126D01*
X29972Y40042D01*
X30422Y39592D01*
X30506Y39536D01*
X30605Y39516D01*
X31505D01*
X31604Y39536D01*
X31688Y39592D01*
X32138Y40042D01*
X32194Y40126D01*
X32214Y40225D01*
Y41125D01*
X32194Y41224D01*
X32138Y41308D01*
X31688Y41758D01*
X31604Y41814D01*
X31505Y41834D01*
D02*
G37*
G36*
X33468Y40548D02*
X32448D01*
X32471Y40374D01*
X32587Y40093D01*
X32772Y39852D01*
X33013Y39667D01*
X33294Y39551D01*
X33468Y39528D01*
Y40548D01*
D02*
G37*
G36*
X11673Y40073D02*
X9052D01*
X9078Y39873D01*
X9205Y39568D01*
X9406Y39306D01*
X9668Y39105D01*
X9973Y38978D01*
X10300Y38935D01*
X11673D01*
Y40073D01*
D02*
G37*
G36*
X8165Y37023D02*
X7027D01*
Y34402D01*
X7227Y34428D01*
X7532Y34555D01*
X7794Y34756D01*
X7995Y35018D01*
X8122Y35323D01*
X8165Y35650D01*
Y37023D01*
D02*
G37*
G36*
X6773Y39898D02*
X6573Y39872D01*
X6268Y39745D01*
X6006Y39544D01*
X5805Y39282D01*
X5678Y38977D01*
X5635Y38650D01*
Y37277D01*
X6773D01*
Y39898D01*
D02*
G37*
G36*
X7027D02*
Y37277D01*
X8165D01*
Y38650D01*
X8122Y38977D01*
X7995Y39282D01*
X7794Y39544D01*
X7532Y39745D01*
X7227Y39872D01*
X7027Y39898D01*
D02*
G37*
G36*
X33722Y41822D02*
Y40802D01*
X34742D01*
X34719Y40976D01*
X34603Y41257D01*
X34418Y41498D01*
X34177Y41683D01*
X33896Y41799D01*
X33722Y41822D01*
D02*
G37*
G36*
X2500Y41268D02*
X2483Y41264D01*
X2466Y41265D01*
X2205Y41231D01*
X2173Y41220D01*
X2140Y41214D01*
X1897Y41113D01*
X1868Y41094D01*
X1838Y41079D01*
X1629Y40919D01*
X1607Y40893D01*
X1581Y40871D01*
X1421Y40662D01*
X1406Y40632D01*
X1387Y40603D01*
X1286Y40360D01*
X1280Y40327D01*
X1269Y40295D01*
X1235Y40034D01*
X1237Y40000D01*
X1235Y39966D01*
X1269Y39705D01*
X1280Y39673D01*
X1286Y39640D01*
X1387Y39397D01*
X1406Y39368D01*
X1421Y39338D01*
X1581Y39129D01*
X1607Y39107D01*
X1629Y39081D01*
X1838Y38921D01*
X1868Y38906D01*
X1897Y38887D01*
X2140Y38786D01*
X2173Y38780D01*
X2205Y38769D01*
X2466Y38735D01*
X2483Y38736D01*
X2500Y38732D01*
X2517Y38736D01*
X2534Y38735D01*
X2795Y38769D01*
X2827Y38780D01*
X2860Y38786D01*
X3103Y38887D01*
X3132Y38906D01*
X3162Y38921D01*
X3371Y39081D01*
X3393Y39107D01*
X3419Y39129D01*
X3579Y39338D01*
X3594Y39368D01*
X3613Y39397D01*
X3714Y39640D01*
X3720Y39673D01*
X3731Y39705D01*
X3765Y39966D01*
X3763Y40000D01*
X3765Y40034D01*
X3731Y40295D01*
X3720Y40327D01*
X3714Y40360D01*
X3613Y40603D01*
X3594Y40632D01*
X3579Y40662D01*
X3419Y40871D01*
X3393Y40893D01*
X3371Y40919D01*
X3162Y41079D01*
X3132Y41094D01*
X3103Y41113D01*
X2860Y41214D01*
X2827Y41220D01*
X2795Y41231D01*
X2534Y41265D01*
X2517Y41264D01*
X2500Y41268D01*
D02*
G37*
G36*
X57500D02*
X57483Y41264D01*
X57466Y41265D01*
X57205Y41231D01*
X57173Y41220D01*
X57140Y41214D01*
X56897Y41113D01*
X56868Y41094D01*
X56838Y41079D01*
X56629Y40919D01*
X56607Y40893D01*
X56581Y40871D01*
X56421Y40662D01*
X56406Y40632D01*
X56387Y40603D01*
X56286Y40360D01*
X56280Y40327D01*
X56269Y40295D01*
X56235Y40034D01*
X56237Y40000D01*
X56235Y39966D01*
X56269Y39705D01*
X56280Y39673D01*
X56286Y39640D01*
X56387Y39397D01*
X56406Y39368D01*
X56421Y39338D01*
X56581Y39129D01*
X56607Y39107D01*
X56629Y39081D01*
X56838Y38921D01*
X56868Y38906D01*
X56897Y38887D01*
X57140Y38786D01*
X57173Y38780D01*
X57205Y38769D01*
X57466Y38735D01*
X57483Y38736D01*
X57500Y38732D01*
X57517Y38736D01*
X57534Y38735D01*
X57795Y38769D01*
X57827Y38780D01*
X57860Y38786D01*
X58103Y38887D01*
X58132Y38906D01*
X58162Y38921D01*
X58371Y39081D01*
X58393Y39107D01*
X58419Y39129D01*
X58579Y39338D01*
X58594Y39368D01*
X58613Y39397D01*
X58714Y39640D01*
X58720Y39673D01*
X58731Y39705D01*
X58765Y39966D01*
X58763Y40000D01*
X58765Y40034D01*
X58731Y40295D01*
X58720Y40327D01*
X58714Y40360D01*
X58613Y40603D01*
X58594Y40632D01*
X58579Y40662D01*
X58419Y40871D01*
X58393Y40893D01*
X58371Y40919D01*
X58162Y41079D01*
X58132Y41094D01*
X58103Y41113D01*
X57860Y41214D01*
X57827Y41220D01*
X57795Y41231D01*
X57534Y41265D01*
X57517Y41264D01*
X57500Y41268D01*
D02*
G37*
G36*
X33468Y41822D02*
X33294Y41799D01*
X33013Y41683D01*
X32772Y41498D01*
X32587Y41257D01*
X32471Y40976D01*
X32448Y40802D01*
X33468D01*
Y41822D01*
D02*
G37*
G36*
X34742Y40548D02*
X33722D01*
Y39528D01*
X33896Y39551D01*
X34177Y39667D01*
X34418Y39852D01*
X34603Y40093D01*
X34719Y40374D01*
X34742Y40548D01*
D02*
G37*
G36*
X11673Y41465D02*
X10300D01*
X9973Y41422D01*
X9668Y41295D01*
X9406Y41094D01*
X9205Y40832D01*
X9078Y40527D01*
X9052Y40327D01*
X11673D01*
Y41465D01*
D02*
G37*
G36*
X13300D02*
X11927D01*
Y40327D01*
X14548D01*
X14522Y40527D01*
X14395Y40832D01*
X14194Y41094D01*
X13932Y41295D01*
X13627Y41422D01*
X13300Y41465D01*
D02*
G37*
G36*
X27323Y22848D02*
X26859D01*
X26881Y22739D01*
X27015Y22540D01*
X27214Y22406D01*
X27323Y22384D01*
Y22848D01*
D02*
G37*
G36*
X28041D02*
X27577D01*
Y22384D01*
X27686Y22406D01*
X27885Y22540D01*
X28019Y22739D01*
X28041Y22848D01*
D02*
G37*
G36*
X27323Y23566D02*
X27214Y23544D01*
X27015Y23410D01*
X26881Y23211D01*
X26859Y23102D01*
X27323D01*
Y23566D01*
D02*
G37*
G36*
X4150Y23759D02*
X1650D01*
X1551Y23739D01*
X1467Y23683D01*
X1411Y23599D01*
X1391Y23500D01*
Y22500D01*
X1411Y22401D01*
X1467Y22317D01*
X1551Y22261D01*
X1650Y22241D01*
X4150D01*
X4249Y22261D01*
X4333Y22317D01*
X4389Y22401D01*
X4409Y22500D01*
Y23500D01*
X4389Y23599D01*
X4333Y23683D01*
X4249Y23739D01*
X4150Y23759D01*
D02*
G37*
G36*
X25391Y21748D02*
X24927D01*
Y21284D01*
X25036Y21306D01*
X25235Y21440D01*
X25369Y21639D01*
X25391Y21748D01*
D02*
G37*
G36*
X24673Y22466D02*
X24564Y22444D01*
X24365Y22310D01*
X24231Y22111D01*
X24209Y22002D01*
X24673D01*
Y22466D01*
D02*
G37*
G36*
X24927D02*
Y22002D01*
X25391D01*
X25369Y22111D01*
X25235Y22310D01*
X25036Y22444D01*
X24927Y22466D01*
D02*
G37*
G36*
X26627Y31241D02*
Y30777D01*
X27091D01*
X27069Y30886D01*
X26935Y31085D01*
X26736Y31219D01*
X26627Y31241D01*
D02*
G37*
G36*
X13300Y35465D02*
X10300D01*
X9973Y35422D01*
X9668Y35295D01*
X9406Y35094D01*
X9205Y34832D01*
X9078Y34527D01*
X9035Y34200D01*
X9078Y33873D01*
X9205Y33568D01*
X9406Y33306D01*
X9668Y33105D01*
X9973Y32978D01*
X10300Y32935D01*
X13300D01*
X13627Y32978D01*
X13932Y33105D01*
X14194Y33306D01*
X14395Y33568D01*
X14522Y33873D01*
X14565Y34200D01*
X14522Y34527D01*
X14395Y34832D01*
X14194Y35094D01*
X13932Y35295D01*
X13627Y35422D01*
X13300Y35465D01*
D02*
G37*
G36*
X6773Y37023D02*
X5635D01*
Y35650D01*
X5678Y35323D01*
X5805Y35018D01*
X6006Y34756D01*
X6268Y34555D01*
X6573Y34428D01*
X6773Y34402D01*
Y37023D01*
D02*
G37*
G36*
X26373Y31241D02*
X26264Y31219D01*
X26065Y31085D01*
X25931Y30886D01*
X25909Y30777D01*
X26373D01*
Y31241D01*
D02*
G37*
G36*
X27577Y23566D02*
Y23102D01*
X28041D01*
X28019Y23211D01*
X27885Y23410D01*
X27686Y23544D01*
X27577Y23566D01*
D02*
G37*
G36*
X26373Y30523D02*
X25909D01*
X25931Y30414D01*
X26065Y30215D01*
X26264Y30081D01*
X26373Y30059D01*
Y30523D01*
D02*
G37*
G36*
X27091D02*
X26627D01*
Y30059D01*
X26736Y30081D01*
X26935Y30215D01*
X27069Y30414D01*
X27091Y30523D01*
D02*
G37*
%LPD*%
D31*
X12600Y14750D02*
X20500D01*
X37150Y13275D02*
X51125D01*
X21975D02*
X37150D01*
X20500Y14750D02*
X21975Y13275D01*
X19775Y12800D02*
X26446Y6129D01*
X19046Y12454D02*
Y13102D01*
Y12454D02*
X26000Y5500D01*
X19769Y13825D02*
X19775D01*
X30800Y6925D02*
X37150Y13275D01*
X48725Y10875D02*
X51125Y13275D01*
X39400Y10875D02*
X48725D01*
X27525Y5500D02*
X27625Y5400D01*
X26000Y5500D02*
X27525D01*
X19046Y13102D02*
X19769Y13825D01*
X28681Y5375D02*
X33975D01*
X27927Y6129D02*
X28681Y5375D01*
X26446Y6129D02*
X27927D01*
D36*
X26985Y3325D02*
D03*
X29525D02*
D03*
X32065D02*
D03*
X24445D02*
D03*
X33595Y40675D02*
D03*
D37*
X34605Y3325D02*
D03*
X31055Y40675D02*
D03*
D38*
X2900Y23000D02*
D03*
X2825Y11050D02*
D03*
D39*
X11800Y34200D02*
D03*
Y40200D02*
D03*
D40*
X6900Y37150D02*
D03*
D41*
X12600Y14775D02*
D03*
X12950Y13425D02*
D03*
X15925Y18125D02*
D03*
X54350Y12700D02*
D03*
X26500Y30650D02*
D03*
X27450Y22975D02*
D03*
X24800Y21875D02*
D03*
X8675Y20650D02*
D03*
X19775Y12800D02*
D03*
Y13825D02*
D03*
X33975Y5375D02*
D03*
X27625Y5400D02*
D03*
X39400Y10875D02*
D03*
X30800Y6925D02*
D03*
X51125Y13275D02*
D03*
D42*
X17550Y13850D02*
D03*
Y12750D02*
D03*
Y11650D02*
D03*
X16450Y13850D02*
D03*
Y12750D02*
D03*
Y11650D02*
D03*
X15350Y13850D02*
D03*
Y12750D02*
D03*
Y11650D02*
D03*
M02*
