G04 Layer_Physical_Order=1*
G04 Layer_Color=255*
%FSLAX43Y43*%
%MOMM*%
G71*
G01*
G75*
%ADD10R,0.600X0.600*%
%ADD11R,0.600X1.000*%
%ADD12R,1.400X1.200*%
%ADD13R,3.250X3.250*%
%ADD14R,0.600X0.300*%
%ADD15R,0.300X0.600*%
%ADD16R,0.600X0.600*%
%ADD17R,1.250X1.000*%
%ADD18R,1.000X1.250*%
%ADD19R,0.300X0.300*%
%ADD20R,2.500X3.850*%
%ADD21R,0.850X0.850*%
%ADD22R,3.850X2.500*%
%ADD23R,0.300X0.300*%
%ADD24R,0.120X2.200*%
%ADD25R,1.000X0.200*%
%ADD26R,1.000X0.600*%
%ADD27R,0.850X0.850*%
%ADD28R,2.300X2.000*%
%ADD29R,3.000X1.120*%
%ADD30R,3.500X1.120*%
%ADD31C,0.250*%
%ADD32C,0.500*%
%ADD33C,0.600*%
%ADD34C,0.700*%
%ADD35C,0.254*%
%ADD36C,1.800*%
%ADD37P,1.948X8X202.5*%
%ADD38R,2.500X1.000*%
%ADD39O,5.000X2.000*%
%ADD40O,2.000X5.000*%
%ADD41C,0.700*%
%ADD42C,0.500*%
G36*
X57500Y42132D02*
Y42132D01*
X57505Y42136D01*
X57917Y42095D01*
X58317Y41973D01*
X58687Y41776D01*
X59010Y41510D01*
X59276Y41187D01*
X59473Y40817D01*
X59595Y40417D01*
X59636Y40005D01*
X59632Y40000D01*
X59632D01*
X59639Y39962D01*
Y2538D01*
X59632Y2500D01*
X59632D01*
X59636Y2496D01*
X59595Y2083D01*
X59473Y1683D01*
X59276Y1313D01*
X59010Y990D01*
X58687Y724D01*
X58317Y527D01*
X57917Y405D01*
X57505Y364D01*
X57500Y368D01*
Y368D01*
X57462Y361D01*
X2500D01*
X2485Y358D01*
X2083Y397D01*
X1683Y519D01*
X1313Y716D01*
X990Y982D01*
X724Y1306D01*
X527Y1675D01*
X405Y2076D01*
X364Y2488D01*
X368Y2492D01*
X368D01*
X361Y2530D01*
Y39877D01*
X361Y40000D01*
X361Y40001D01*
X369Y40125D01*
X397Y40417D01*
X519Y40818D01*
X716Y41187D01*
X982Y41511D01*
X1306Y41777D01*
X1675Y41974D01*
X2076Y42096D01*
X2488Y42136D01*
X2492Y42132D01*
Y42132D01*
X2526Y42139D01*
X57462D01*
X57500Y42132D01*
D02*
G37*
%LPC*%
G36*
X22573Y17098D02*
X21816D01*
Y16725D01*
X21836Y16626D01*
X21892Y16542D01*
X21976Y16486D01*
X22075Y16466D01*
X22573D01*
Y17098D01*
D02*
G37*
G36*
X7609Y15398D02*
X7327D01*
Y15116D01*
X7350D01*
X7449Y15136D01*
X7533Y15192D01*
X7589Y15276D01*
X7609Y15375D01*
Y15398D01*
D02*
G37*
G36*
X7073D02*
X6791D01*
Y15375D01*
X6811Y15276D01*
X6867Y15192D01*
X6951Y15136D01*
X7050Y15116D01*
X7073D01*
Y15398D01*
D02*
G37*
G36*
X22573Y17984D02*
X22075D01*
X21976Y17964D01*
X21892Y17908D01*
X21836Y17824D01*
X21816Y17725D01*
Y17352D01*
X22573D01*
Y17984D01*
D02*
G37*
G36*
X5700Y18944D02*
X2700D01*
X2601Y18924D01*
X2517Y18868D01*
X2461Y18784D01*
X2441Y18685D01*
Y17565D01*
X2461Y17466D01*
X2517Y17382D01*
X2601Y17326D01*
X2700Y17306D01*
X5700D01*
X5799Y17326D01*
X5883Y17382D01*
X5939Y17466D01*
X5959Y17565D01*
Y17737D01*
X6950D01*
X6951Y17736D01*
X7050Y17716D01*
X7350D01*
X7449Y17736D01*
X7450Y17737D01*
X9159D01*
X9161Y17726D01*
X9217Y17642D01*
X9301Y17586D01*
X9400Y17566D01*
X10000D01*
X10099Y17586D01*
X10101Y17587D01*
X10200Y17634D01*
X10299Y17587D01*
X10301Y17586D01*
X10400Y17566D01*
X11000D01*
X11099Y17586D01*
X11183Y17642D01*
X11239Y17726D01*
X11242Y17739D01*
X12115D01*
X13225Y16629D01*
X13176Y16511D01*
X11242D01*
X11239Y16524D01*
X11183Y16608D01*
X11099Y16664D01*
X11000Y16684D01*
X10400D01*
X10301Y16664D01*
X10299Y16663D01*
X10200Y16616D01*
X10101Y16663D01*
X10099Y16664D01*
X10000Y16684D01*
X9400D01*
X9301Y16664D01*
X9217Y16608D01*
X9161Y16524D01*
X9159Y16513D01*
X7450D01*
X7449Y16514D01*
X7350Y16534D01*
X7050D01*
X6951Y16514D01*
X6950Y16513D01*
X5959D01*
Y16685D01*
X5939Y16784D01*
X5883Y16868D01*
X5799Y16924D01*
X5700Y16944D01*
X2700D01*
X2601Y16924D01*
X2517Y16868D01*
X2461Y16784D01*
X2441Y16685D01*
Y15565D01*
X2461Y15466D01*
X2517Y15382D01*
X2601Y15326D01*
X2700Y15306D01*
X5700D01*
X5799Y15326D01*
X5883Y15382D01*
X5939Y15466D01*
X5959Y15565D01*
Y15737D01*
X6741D01*
X6791Y15675D01*
Y15652D01*
X7609D01*
Y15675D01*
X7659Y15737D01*
X9159D01*
X9161Y15726D01*
X9217Y15642D01*
X9301Y15586D01*
X9400Y15566D01*
X10000D01*
X10099Y15586D01*
X10101Y15587D01*
X10200Y15634D01*
X10299Y15587D01*
X10301Y15586D01*
X10400Y15566D01*
X11000D01*
X11099Y15586D01*
X11183Y15642D01*
X11239Y15726D01*
X11242Y15739D01*
X13615D01*
X14541Y14812D01*
Y14659D01*
X13950D01*
X13851Y14639D01*
X13767Y14583D01*
X13711Y14499D01*
X13693Y14408D01*
X13645Y14377D01*
X13574Y14348D01*
X13204Y14717D01*
X13216Y14775D01*
X13169Y15011D01*
X13035Y15210D01*
X12836Y15344D01*
X12600Y15391D01*
X12364Y15344D01*
X12165Y15210D01*
X12031Y15011D01*
X12012Y14913D01*
X11687Y14588D01*
X11575Y14422D01*
X11536Y14225D01*
Y12855D01*
X11496Y12827D01*
X11409Y12799D01*
X11349Y12839D01*
X11250Y12859D01*
X11077D01*
Y12300D01*
X10950D01*
Y12173D01*
X10391D01*
Y12000D01*
X10411Y11901D01*
X10467Y11817D01*
Y11733D01*
X10411Y11649D01*
X10391Y11550D01*
Y11377D01*
X10950D01*
Y11250D01*
X11077D01*
Y10691D01*
X11250D01*
X11349Y10711D01*
X11433Y10767D01*
X11567D01*
X11651Y10711D01*
X11750Y10691D01*
X12350D01*
X12449Y10711D01*
X12487Y10736D01*
X12638D01*
X12676Y10711D01*
X12775Y10691D01*
X13375D01*
X13474Y10711D01*
X13558Y10767D01*
X13614Y10851D01*
X13624Y10902D01*
X13757Y10931D01*
X13767Y10917D01*
X13851Y10861D01*
X13950Y10841D01*
X14541D01*
Y10250D01*
X14561Y10151D01*
X14617Y10067D01*
X14701Y10011D01*
X14800Y9991D01*
X15100D01*
X15199Y10011D01*
X15200Y10011D01*
X15201Y10011D01*
X15300Y9991D01*
X15600D01*
X15699Y10011D01*
X15814Y9976D01*
X15845Y9860D01*
X15842Y9858D01*
X15786Y9774D01*
X15766Y9675D01*
Y9502D01*
X16325D01*
Y9248D01*
X15766D01*
Y9075D01*
X15786Y8976D01*
X15842Y8892D01*
Y8808D01*
X15786Y8724D01*
X15766Y8625D01*
Y8452D01*
X16325D01*
Y8325D01*
X16452D01*
Y7766D01*
X16625D01*
X16724Y7786D01*
X16808Y7842D01*
X16942D01*
X17026Y7786D01*
X17125Y7766D01*
X17725D01*
X17824Y7786D01*
X17908Y7842D01*
X17964Y7926D01*
X17984Y8025D01*
Y8625D01*
X17964Y8724D01*
X17908Y8808D01*
Y8892D01*
X17964Y8976D01*
X17984Y9075D01*
Y9675D01*
X17964Y9774D01*
X17908Y9858D01*
X17899Y9864D01*
X17938Y9991D01*
X18100D01*
X18199Y10011D01*
X18283Y10067D01*
X18339Y10151D01*
X18359Y10250D01*
Y10841D01*
X18950D01*
X19049Y10861D01*
X19133Y10917D01*
X19189Y11001D01*
X19209Y11100D01*
Y11400D01*
X19189Y11499D01*
X19189Y11500D01*
X19189Y11501D01*
X19209Y11600D01*
Y11900D01*
X19189Y11999D01*
X19189Y12000D01*
X19189Y12001D01*
X19209Y12100D01*
Y12331D01*
X19336Y12370D01*
X19340Y12365D01*
X19539Y12231D01*
X19775Y12184D01*
X20011Y12231D01*
X20210Y12365D01*
X20344Y12564D01*
X20391Y12800D01*
X20344Y13036D01*
X20210Y13235D01*
X20190Y13249D01*
Y13376D01*
X20210Y13390D01*
X20344Y13589D01*
X20391Y13825D01*
X20387Y13845D01*
X20499Y13905D01*
X26510Y7894D01*
Y4377D01*
X26403Y4333D01*
X26162Y4148D01*
X25977Y3907D01*
X25861Y3626D01*
X25821Y3325D01*
X25861Y3024D01*
X25977Y2743D01*
X26162Y2502D01*
X26403Y2317D01*
X26684Y2201D01*
X26985Y2161D01*
X27286Y2201D01*
X27567Y2317D01*
X27808Y2502D01*
X27993Y2743D01*
X28109Y3024D01*
X28149Y3325D01*
X28109Y3626D01*
X27993Y3907D01*
X27808Y4148D01*
X27567Y4333D01*
X27286Y4449D01*
X27282Y4450D01*
Y4767D01*
X27409Y4827D01*
X27625Y4784D01*
X27861Y4831D01*
X28060Y4965D01*
X28087Y5004D01*
X28211Y5002D01*
X28211Y5001D01*
X28267Y4917D01*
X28351Y4861D01*
X28364Y4858D01*
Y4100D01*
X28393Y3952D01*
X28477Y3827D01*
X28482Y3822D01*
X28401Y3626D01*
X28361Y3325D01*
X28401Y3024D01*
X28517Y2743D01*
X28702Y2502D01*
X28943Y2317D01*
X29224Y2201D01*
X29525Y2161D01*
X29826Y2201D01*
X30107Y2317D01*
X30348Y2502D01*
X30533Y2743D01*
X30649Y3024D01*
X30689Y3325D01*
X30649Y3626D01*
X30533Y3907D01*
X30348Y4148D01*
X30107Y4333D01*
X29826Y4449D01*
X29525Y4489D01*
X29263Y4455D01*
X29136Y4534D01*
Y4858D01*
X29149Y4861D01*
X29151Y4862D01*
X29250Y4909D01*
X29349Y4862D01*
X29351Y4861D01*
X29450Y4841D01*
X30050D01*
X30149Y4861D01*
X30233Y4917D01*
X30289Y5001D01*
X30309Y5100D01*
Y5412D01*
X30812Y5916D01*
X31316Y5412D01*
Y5100D01*
X31336Y5001D01*
X31392Y4917D01*
X31476Y4861D01*
X31575Y4841D01*
X32175D01*
X32274Y4861D01*
X32276Y4862D01*
X32375Y4909D01*
X32474Y4862D01*
X32476Y4861D01*
X32489Y4858D01*
Y4527D01*
X32388Y4449D01*
X32362Y4450D01*
X32065Y4489D01*
X31764Y4449D01*
X31483Y4333D01*
X31242Y4148D01*
X31057Y3907D01*
X30941Y3626D01*
X30901Y3325D01*
X30941Y3024D01*
X31057Y2743D01*
X31242Y2502D01*
X31483Y2317D01*
X31764Y2201D01*
X32065Y2161D01*
X32366Y2201D01*
X32647Y2317D01*
X32888Y2502D01*
X33073Y2743D01*
X33189Y3024D01*
X33229Y3325D01*
X33189Y3626D01*
X33108Y3822D01*
X33148Y3862D01*
X33232Y3987D01*
X33261Y4135D01*
X33261Y4135D01*
Y4858D01*
X33274Y4861D01*
X33358Y4917D01*
X33382Y4953D01*
X33523Y4960D01*
X33527Y4958D01*
X33540Y4940D01*
X33739Y4806D01*
X33975Y4759D01*
X34211Y4806D01*
X34410Y4940D01*
X34544Y5139D01*
X34591Y5375D01*
X34544Y5611D01*
X34410Y5810D01*
X34211Y5944D01*
X33975Y5991D01*
X33739Y5944D01*
X33540Y5810D01*
X33475Y5805D01*
X33408Y5808D01*
X33358Y5883D01*
X33274Y5939D01*
X33175Y5959D01*
X32575D01*
X32476Y5939D01*
X32474Y5938D01*
X32375Y5891D01*
X32276Y5938D01*
X32274Y5939D01*
X32175Y5959D01*
X31863D01*
X31274Y6547D01*
X31369Y6689D01*
X31416Y6925D01*
X31369Y7161D01*
X31235Y7360D01*
X31036Y7494D01*
X30800Y7541D01*
X30564Y7494D01*
X30365Y7360D01*
X30231Y7161D01*
X30184Y6925D01*
X30231Y6689D01*
X30336Y6532D01*
X29762Y5959D01*
X29450D01*
X29351Y5939D01*
X29349Y5938D01*
X29250Y5891D01*
X29151Y5938D01*
X29149Y5939D01*
X29050Y5959D01*
X28450D01*
X28351Y5939D01*
X28267Y5883D01*
X28211Y5799D01*
X28211Y5798D01*
X28087Y5796D01*
X28060Y5835D01*
X27861Y5969D01*
X27625Y6016D01*
X27409Y5973D01*
X27282Y6033D01*
Y8054D01*
X27282Y8054D01*
X27253Y8202D01*
X27169Y8327D01*
X20273Y15223D01*
X20148Y15307D01*
X20000Y15336D01*
X18342D01*
X18339Y15349D01*
X18283Y15433D01*
X18199Y15489D01*
X18100Y15509D01*
X17800D01*
X17701Y15489D01*
X17700Y15489D01*
X17699Y15489D01*
X17600Y15509D01*
X17300D01*
X17201Y15489D01*
X17200Y15489D01*
X17199Y15489D01*
X17100Y15509D01*
X16800D01*
X16701Y15489D01*
X16700Y15489D01*
X16699Y15489D01*
X16600Y15509D01*
X16300D01*
X16201Y15489D01*
X16200Y15489D01*
X16199Y15489D01*
X16100Y15509D01*
X16077D01*
Y15374D01*
X16061Y15349D01*
X16041Y15250D01*
Y14950D01*
X15859D01*
Y15250D01*
X15839Y15349D01*
X15823Y15374D01*
Y15509D01*
X15800D01*
X15701Y15489D01*
X15700Y15489D01*
X15699Y15489D01*
X15600Y15509D01*
X15438D01*
X12548Y18398D01*
X12423Y18482D01*
X12275Y18511D01*
X11242D01*
X11239Y18524D01*
X11183Y18608D01*
X11099Y18664D01*
X11000Y18684D01*
X10400D01*
X10301Y18664D01*
X10299Y18663D01*
X10200Y18616D01*
X10101Y18663D01*
X10099Y18664D01*
X10000Y18684D01*
X9400D01*
X9301Y18664D01*
X9217Y18608D01*
X9161Y18524D01*
X9159Y18513D01*
X7659D01*
X7609Y18575D01*
Y18598D01*
X7200D01*
X6791D01*
Y18575D01*
X6741Y18513D01*
X5959D01*
Y18685D01*
X5939Y18784D01*
X5883Y18868D01*
X5799Y18924D01*
X5700Y18944D01*
D02*
G37*
G36*
X23584Y17098D02*
X22827D01*
Y16466D01*
X23325D01*
X23424Y16486D01*
X23508Y16542D01*
X23564Y16626D01*
X23584Y16725D01*
Y17098D01*
D02*
G37*
G36*
X54734Y14073D02*
X54177D01*
Y13516D01*
X54475D01*
X54574Y13536D01*
X54658Y13592D01*
X54714Y13676D01*
X54734Y13775D01*
Y14073D01*
D02*
G37*
G36*
X54477Y13291D02*
Y12827D01*
X54941D01*
X54919Y12936D01*
X54785Y13135D01*
X54586Y13269D01*
X54477Y13291D01*
D02*
G37*
G36*
X54223D02*
X54114Y13269D01*
X53915Y13135D01*
X53781Y12936D01*
X53759Y12827D01*
X54223D01*
Y13291D01*
D02*
G37*
G36*
X54475Y14884D02*
X54177D01*
Y14327D01*
X54734D01*
Y14625D01*
X54714Y14724D01*
X54658Y14808D01*
X54574Y14864D01*
X54475Y14884D01*
D02*
G37*
G36*
X5700Y14444D02*
X4077D01*
Y13752D01*
X5959D01*
Y14185D01*
X5939Y14284D01*
X5883Y14368D01*
X5799Y14424D01*
X5700Y14444D01*
D02*
G37*
G36*
X3823D02*
X2200D01*
X2101Y14424D01*
X2017Y14368D01*
X1961Y14284D01*
X1941Y14185D01*
Y13752D01*
X3823D01*
Y14444D01*
D02*
G37*
G36*
X23325Y17984D02*
X22827D01*
Y17352D01*
X23584D01*
Y17725D01*
X23564Y17824D01*
X23508Y17908D01*
X23424Y17964D01*
X23325Y17984D01*
D02*
G37*
G36*
X8548Y20523D02*
X8084D01*
X8106Y20414D01*
X8240Y20215D01*
X8439Y20081D01*
X8548Y20059D01*
Y20523D01*
D02*
G37*
G36*
X5700Y21444D02*
X2200D01*
X2101Y21424D01*
X2017Y21368D01*
X1961Y21284D01*
X1941Y21185D01*
Y20065D01*
X1961Y19966D01*
X2017Y19882D01*
X2101Y19826D01*
X2200Y19806D01*
X5700D01*
X5799Y19826D01*
X5883Y19882D01*
X5939Y19966D01*
X5959Y20065D01*
Y21185D01*
X5939Y21284D01*
X5883Y21368D01*
X5799Y21424D01*
X5700Y21444D01*
D02*
G37*
G36*
X55359Y21623D02*
X53977D01*
Y19566D01*
X55100D01*
X55199Y19586D01*
X55283Y19642D01*
X55339Y19726D01*
X55359Y19825D01*
Y21623D01*
D02*
G37*
G36*
X8802Y21241D02*
Y20777D01*
X9266D01*
X9244Y20886D01*
X9110Y21085D01*
X8911Y21219D01*
X8802Y21241D01*
D02*
G37*
G36*
X8548D02*
X8439Y21219D01*
X8240Y21085D01*
X8106Y20886D01*
X8084Y20777D01*
X8548D01*
Y21241D01*
D02*
G37*
G36*
X9266Y20523D02*
X8802D01*
Y20059D01*
X8911Y20081D01*
X9110Y20215D01*
X9244Y20414D01*
X9266Y20523D01*
D02*
G37*
G36*
X15798Y18716D02*
X15689Y18694D01*
X15490Y18560D01*
X15356Y18361D01*
X15334Y18252D01*
X15798D01*
Y18716D01*
D02*
G37*
G36*
X16516Y17998D02*
X16052D01*
Y17534D01*
X16161Y17556D01*
X16360Y17690D01*
X16494Y17889D01*
X16516Y17998D01*
D02*
G37*
G36*
X15798D02*
X15334D01*
X15356Y17889D01*
X15490Y17690D01*
X15689Y17556D01*
X15798Y17534D01*
Y17998D01*
D02*
G37*
G36*
X7350Y19134D02*
X7327D01*
Y18852D01*
X7609D01*
Y18875D01*
X7589Y18974D01*
X7533Y19058D01*
X7449Y19114D01*
X7350Y19134D01*
D02*
G37*
G36*
X7073D02*
X7050D01*
X6951Y19114D01*
X6867Y19058D01*
X6811Y18974D01*
X6791Y18875D01*
Y18852D01*
X7073D01*
Y19134D01*
D02*
G37*
G36*
X16052Y18716D02*
Y18252D01*
X16516D01*
X16494Y18361D01*
X16360Y18560D01*
X16161Y18694D01*
X16052Y18716D01*
D02*
G37*
G36*
X37548Y10073D02*
X36716D01*
Y9600D01*
X36736Y9501D01*
X36792Y9417D01*
X36876Y9361D01*
X36975Y9341D01*
X37548D01*
Y10073D01*
D02*
G37*
G36*
X16198Y8198D02*
X15766D01*
Y8025D01*
X15786Y7926D01*
X15842Y7842D01*
X15926Y7786D01*
X16025Y7766D01*
X16198D01*
Y8198D01*
D02*
G37*
G36*
X38375Y7959D02*
X36975D01*
X36876Y7939D01*
X36792Y7883D01*
X36736Y7799D01*
X36716Y7700D01*
Y6500D01*
X36736Y6401D01*
X36792Y6317D01*
X36876Y6261D01*
X36862Y6134D01*
X36400D01*
X36301Y6114D01*
X36217Y6058D01*
X36161Y5974D01*
X36141Y5875D01*
Y5563D01*
X35061Y4483D01*
X35055Y4484D01*
X34155D01*
X34056Y4464D01*
X33972Y4408D01*
X33522Y3958D01*
X33466Y3874D01*
X33446Y3775D01*
Y2875D01*
X33466Y2776D01*
X33522Y2692D01*
X33972Y2242D01*
X34056Y2186D01*
X34155Y2166D01*
X35055D01*
X35154Y2186D01*
X35238Y2242D01*
X35688Y2692D01*
X35744Y2776D01*
X35764Y2875D01*
Y3775D01*
X35744Y3874D01*
X35688Y3958D01*
X35659Y3987D01*
X36688Y5016D01*
X37000D01*
X37099Y5036D01*
X37101Y5037D01*
X37200Y5084D01*
X37299Y5037D01*
X37301Y5036D01*
X37400Y5016D01*
X38000D01*
X38099Y5036D01*
X38183Y5092D01*
X38239Y5176D01*
X38259Y5275D01*
Y5875D01*
X38239Y5974D01*
X38183Y6058D01*
X38099Y6114D01*
X38113Y6241D01*
X38375D01*
X38474Y6261D01*
X38558Y6317D01*
X38614Y6401D01*
X38634Y6500D01*
Y6764D01*
X40141D01*
Y6650D01*
X40161Y6551D01*
X40217Y6467D01*
X40301Y6411D01*
X40400Y6391D01*
X41000D01*
X41099Y6411D01*
X41183Y6467D01*
X41239Y6551D01*
X41259Y6650D01*
Y7650D01*
X41239Y7749D01*
X41183Y7833D01*
X41099Y7889D01*
X41000Y7909D01*
X40400D01*
X40301Y7889D01*
X40217Y7833D01*
X40161Y7749D01*
X40141Y7650D01*
Y7536D01*
X38634D01*
Y7700D01*
X38614Y7799D01*
X38558Y7883D01*
X38474Y7939D01*
X38375Y7959D01*
D02*
G37*
G36*
X49134Y10198D02*
X48502D01*
Y9441D01*
X48875D01*
X48974Y9461D01*
X49058Y9517D01*
X49114Y9601D01*
X49134Y9700D01*
Y10198D01*
D02*
G37*
G36*
X48248D02*
X47616D01*
Y9700D01*
X47636Y9601D01*
X47692Y9517D01*
X47776Y9461D01*
X47875Y9441D01*
X48248D01*
Y10198D01*
D02*
G37*
G36*
X38634Y10073D02*
X37802D01*
Y9341D01*
X38375D01*
X38474Y9361D01*
X38558Y9417D01*
X38614Y9501D01*
X38634Y9600D01*
Y10073D01*
D02*
G37*
G36*
X24318Y4472D02*
X24144Y4449D01*
X23863Y4333D01*
X23622Y4148D01*
X23437Y3907D01*
X23321Y3626D01*
X23298Y3452D01*
X24318D01*
Y4472D01*
D02*
G37*
G36*
X25592Y3198D02*
X24572D01*
Y2178D01*
X24746Y2201D01*
X25027Y2317D01*
X25268Y2502D01*
X25453Y2743D01*
X25569Y3024D01*
X25592Y3198D01*
D02*
G37*
G36*
X24318D02*
X23298D01*
X23321Y3024D01*
X23437Y2743D01*
X23622Y2502D01*
X23863Y2317D01*
X24144Y2201D01*
X24318Y2178D01*
Y3198D01*
D02*
G37*
G36*
X57500Y3768D02*
X57483Y3764D01*
X57466Y3765D01*
X57205Y3731D01*
X57173Y3720D01*
X57140Y3714D01*
X56897Y3613D01*
X56868Y3594D01*
X56838Y3579D01*
X56629Y3419D01*
X56607Y3393D01*
X56581Y3371D01*
X56421Y3162D01*
X56406Y3132D01*
X56387Y3103D01*
X56286Y2860D01*
X56280Y2827D01*
X56269Y2795D01*
X56235Y2534D01*
X56237Y2500D01*
X56235Y2466D01*
X56269Y2205D01*
X56280Y2173D01*
X56286Y2140D01*
X56387Y1897D01*
X56406Y1868D01*
X56421Y1838D01*
X56581Y1629D01*
X56607Y1607D01*
X56629Y1581D01*
X56838Y1421D01*
X56868Y1406D01*
X56897Y1387D01*
X57140Y1286D01*
X57173Y1280D01*
X57205Y1269D01*
X57466Y1235D01*
X57483Y1236D01*
X57500Y1232D01*
X57517Y1236D01*
X57534Y1235D01*
X57795Y1269D01*
X57827Y1280D01*
X57860Y1286D01*
X58103Y1387D01*
X58132Y1406D01*
X58162Y1421D01*
X58371Y1581D01*
X58393Y1607D01*
X58419Y1629D01*
X58579Y1838D01*
X58594Y1868D01*
X58613Y1897D01*
X58714Y2140D01*
X58720Y2173D01*
X58731Y2205D01*
X58765Y2466D01*
X58763Y2500D01*
X58765Y2534D01*
X58731Y2795D01*
X58720Y2827D01*
X58714Y2860D01*
X58613Y3103D01*
X58594Y3132D01*
X58579Y3162D01*
X58419Y3371D01*
X58393Y3393D01*
X58371Y3419D01*
X58162Y3579D01*
X58132Y3594D01*
X58103Y3613D01*
X57860Y3714D01*
X57827Y3720D01*
X57795Y3731D01*
X57534Y3765D01*
X57517Y3764D01*
X57500Y3768D01*
D02*
G37*
G36*
X2500D02*
X2483Y3764D01*
X2466Y3765D01*
X2205Y3731D01*
X2173Y3720D01*
X2140Y3714D01*
X1897Y3613D01*
X1868Y3594D01*
X1838Y3579D01*
X1629Y3419D01*
X1607Y3393D01*
X1581Y3371D01*
X1421Y3162D01*
X1406Y3132D01*
X1387Y3103D01*
X1286Y2860D01*
X1280Y2827D01*
X1269Y2795D01*
X1235Y2534D01*
X1237Y2500D01*
X1235Y2466D01*
X1269Y2205D01*
X1280Y2173D01*
X1286Y2140D01*
X1387Y1897D01*
X1406Y1868D01*
X1421Y1838D01*
X1581Y1629D01*
X1607Y1607D01*
X1629Y1581D01*
X1838Y1421D01*
X1868Y1406D01*
X1897Y1387D01*
X2140Y1286D01*
X2173Y1280D01*
X2205Y1269D01*
X2466Y1235D01*
X2483Y1236D01*
X2500Y1232D01*
X2517Y1236D01*
X2534Y1235D01*
X2795Y1269D01*
X2827Y1280D01*
X2860Y1286D01*
X3103Y1387D01*
X3132Y1406D01*
X3162Y1421D01*
X3371Y1581D01*
X3393Y1607D01*
X3419Y1629D01*
X3579Y1838D01*
X3594Y1868D01*
X3613Y1897D01*
X3714Y2140D01*
X3720Y2173D01*
X3731Y2205D01*
X3765Y2466D01*
X3763Y2500D01*
X3765Y2534D01*
X3731Y2795D01*
X3720Y2827D01*
X3714Y2860D01*
X3613Y3103D01*
X3594Y3132D01*
X3579Y3162D01*
X3419Y3371D01*
X3393Y3393D01*
X3371Y3419D01*
X3162Y3579D01*
X3132Y3594D01*
X3103Y3613D01*
X2860Y3714D01*
X2827Y3720D01*
X2795Y3731D01*
X2534Y3765D01*
X2517Y3764D01*
X2500Y3768D01*
D02*
G37*
G36*
X24572Y4472D02*
Y3452D01*
X25592D01*
X25569Y3626D01*
X25453Y3907D01*
X25268Y4148D01*
X25027Y4333D01*
X24746Y4449D01*
X24572Y4472D01*
D02*
G37*
G36*
X4075Y11809D02*
X1575D01*
X1476Y11789D01*
X1392Y11733D01*
X1336Y11649D01*
X1316Y11550D01*
Y10550D01*
X1336Y10451D01*
X1392Y10367D01*
X1476Y10311D01*
X1575Y10291D01*
X4075D01*
X4174Y10311D01*
X4258Y10367D01*
X4314Y10451D01*
X4334Y10550D01*
Y11550D01*
X4314Y11649D01*
X4258Y11733D01*
X4174Y11789D01*
X4075Y11809D01*
D02*
G37*
G36*
X54941Y12573D02*
X54477D01*
Y12109D01*
X54586Y12131D01*
X54785Y12265D01*
X54919Y12464D01*
X54941Y12573D01*
D02*
G37*
G36*
X54223D02*
X53759D01*
X53781Y12464D01*
X53915Y12265D01*
X54114Y12131D01*
X54223Y12109D01*
Y12573D01*
D02*
G37*
G36*
X41975Y11434D02*
X41375D01*
X41276Y11414D01*
X41274Y11413D01*
X41175Y11366D01*
X41076Y11413D01*
X41074Y11414D01*
X40975Y11434D01*
X40802D01*
Y10875D01*
Y10316D01*
X40975D01*
X41062Y10333D01*
X41089Y10326D01*
X41167Y10233D01*
X41111Y10149D01*
X41091Y10050D01*
Y9050D01*
X41111Y8951D01*
X41167Y8867D01*
X41251Y8811D01*
X41350Y8791D01*
X41950D01*
X42049Y8811D01*
X42133Y8867D01*
X42189Y8951D01*
X42209Y9050D01*
Y10050D01*
X42189Y10149D01*
X42133Y10233D01*
X42141Y10381D01*
X42158Y10392D01*
X42214Y10476D01*
X42234Y10575D01*
Y11175D01*
X42214Y11274D01*
X42158Y11358D01*
X42074Y11414D01*
X41975Y11434D01*
D02*
G37*
G36*
X5959Y13498D02*
X4077D01*
Y12806D01*
X5700D01*
X5799Y12826D01*
X5883Y12882D01*
X5939Y12966D01*
X5959Y13065D01*
Y13498D01*
D02*
G37*
G36*
X3823D02*
X1941D01*
Y13065D01*
X1961Y12966D01*
X2017Y12882D01*
X2101Y12826D01*
X2200Y12806D01*
X3823D01*
Y13498D01*
D02*
G37*
G36*
X10823Y12859D02*
X10650D01*
X10551Y12839D01*
X10467Y12783D01*
X10411Y12699D01*
X10391Y12600D01*
Y12427D01*
X10823D01*
Y12859D01*
D02*
G37*
G36*
X38375Y11059D02*
X37802D01*
Y10327D01*
X38634D01*
Y10800D01*
X38614Y10899D01*
X38558Y10983D01*
X38474Y11039D01*
X38375Y11059D01*
D02*
G37*
G36*
X37548D02*
X36975D01*
X36876Y11039D01*
X36792Y10983D01*
X36736Y10899D01*
X36716Y10800D01*
Y10327D01*
X37548D01*
Y11059D01*
D02*
G37*
G36*
X39400Y11491D02*
X39164Y11444D01*
X38965Y11310D01*
X38831Y11111D01*
X38784Y10875D01*
X38831Y10639D01*
X38965Y10440D01*
X39164Y10306D01*
X39165Y10306D01*
X39221Y10165D01*
X39211Y10149D01*
X39191Y10050D01*
Y9050D01*
X39211Y8951D01*
X39267Y8867D01*
X39351Y8811D01*
X39450Y8791D01*
X40050D01*
X40149Y8811D01*
X40233Y8867D01*
X40289Y8951D01*
X40309Y9050D01*
Y10050D01*
X40289Y10149D01*
X40245Y10215D01*
X40278Y10289D01*
X40310Y10329D01*
X40375Y10316D01*
X40548D01*
Y10875D01*
Y11434D01*
X40375D01*
X40276Y11414D01*
X40192Y11358D01*
X40136Y11274D01*
X40116Y11175D01*
Y11022D01*
X39989Y11010D01*
X39969Y11111D01*
X39835Y11310D01*
X39636Y11444D01*
X39400Y11491D01*
D02*
G37*
G36*
X10823Y11123D02*
X10391D01*
Y10950D01*
X10411Y10851D01*
X10467Y10767D01*
X10551Y10711D01*
X10650Y10691D01*
X10823D01*
Y11123D01*
D02*
G37*
G36*
X48875Y11209D02*
X48502D01*
Y10452D01*
X49134D01*
Y10950D01*
X49114Y11049D01*
X49058Y11133D01*
X48974Y11189D01*
X48875Y11209D01*
D02*
G37*
G36*
X48248D02*
X47875D01*
X47776Y11189D01*
X47692Y11133D01*
X47636Y11049D01*
X47616Y10950D01*
Y10452D01*
X48248D01*
Y11209D01*
D02*
G37*
G36*
X25898Y21434D02*
X25875D01*
X25776Y21414D01*
X25692Y21358D01*
X25636Y21274D01*
X25616Y21175D01*
Y21152D01*
X25898D01*
Y21434D01*
D02*
G37*
G36*
X8165Y37023D02*
X7027D01*
Y34402D01*
X7227Y34428D01*
X7532Y34555D01*
X7794Y34756D01*
X7995Y35018D01*
X8122Y35323D01*
X8165Y35650D01*
Y37023D01*
D02*
G37*
G36*
X6773D02*
X5635D01*
Y35650D01*
X5678Y35323D01*
X5805Y35018D01*
X6006Y34756D01*
X6268Y34555D01*
X6573Y34428D01*
X6773Y34402D01*
Y37023D01*
D02*
G37*
G36*
X18223Y33984D02*
X18050D01*
X17951Y33964D01*
X17949Y33963D01*
X17850Y33916D01*
X17751Y33963D01*
X17749Y33964D01*
X17650Y33984D01*
X17050D01*
X16951Y33964D01*
X16867Y33908D01*
X16811Y33824D01*
X16791Y33725D01*
Y33125D01*
X16811Y33026D01*
X16867Y32942D01*
X16951Y32886D01*
X16962Y32884D01*
Y32741D01*
X16951Y32739D01*
X16867Y32683D01*
X16811Y32599D01*
X16791Y32500D01*
Y31500D01*
X16811Y31401D01*
X16867Y31317D01*
X16951Y31261D01*
X17050Y31241D01*
X17650D01*
X17749Y31261D01*
X17833Y31317D01*
X17889Y31401D01*
X17909Y31500D01*
Y32500D01*
X17889Y32599D01*
X17833Y32683D01*
X17749Y32739D01*
X17738Y32741D01*
Y32884D01*
X17749Y32886D01*
X17751Y32887D01*
X17850Y32934D01*
X17949Y32887D01*
X17951Y32886D01*
X18050Y32866D01*
X18223D01*
Y33425D01*
Y33984D01*
D02*
G37*
G36*
X6773Y39898D02*
X6573Y39872D01*
X6268Y39745D01*
X6006Y39544D01*
X5805Y39282D01*
X5678Y38977D01*
X5635Y38650D01*
Y37277D01*
X6773D01*
Y39898D01*
D02*
G37*
G36*
X21984Y37173D02*
X21552D01*
Y36741D01*
X21725D01*
X21824Y36761D01*
X21908Y36817D01*
X21964Y36901D01*
X21984Y37000D01*
Y37173D01*
D02*
G37*
G36*
X21298D02*
X20866D01*
Y37000D01*
X20886Y36901D01*
X20942Y36817D01*
X21026Y36761D01*
X21125Y36741D01*
X21298D01*
Y37173D01*
D02*
G37*
G36*
X28173Y34009D02*
X27150D01*
X27051Y33989D01*
X26967Y33933D01*
X26911Y33849D01*
X26891Y33750D01*
Y32877D01*
X28173D01*
Y34009D01*
D02*
G37*
G36*
X18909Y33298D02*
X18477D01*
Y32866D01*
X18650D01*
X18749Y32886D01*
X18833Y32942D01*
X18889Y33026D01*
X18909Y33125D01*
Y33298D01*
D02*
G37*
G36*
X29709Y32623D02*
X28427D01*
Y31491D01*
X29450D01*
X29549Y31511D01*
X29633Y31567D01*
X29689Y31651D01*
X29709Y31750D01*
Y32623D01*
D02*
G37*
G36*
X55100Y33934D02*
X52600D01*
X52501Y33914D01*
X52417Y33858D01*
X52283D01*
X52199Y33914D01*
X52100Y33934D01*
X49600D01*
X49501Y33914D01*
X49417Y33858D01*
X49361Y33774D01*
X49341Y33675D01*
Y29825D01*
X49361Y29726D01*
X49417Y29642D01*
X49501Y29586D01*
X49600Y29566D01*
X52100D01*
X52199Y29586D01*
X52283Y29642D01*
X52417D01*
X52501Y29586D01*
X52600Y29566D01*
X55100D01*
X55199Y29586D01*
X55283Y29642D01*
X55339Y29726D01*
X55359Y29825D01*
Y33675D01*
X55339Y33774D01*
X55283Y33858D01*
X55199Y33914D01*
X55100Y33934D01*
D02*
G37*
G36*
X18650Y33984D02*
X18477D01*
Y33552D01*
X18909D01*
Y33725D01*
X18889Y33824D01*
X18833Y33908D01*
X18749Y33964D01*
X18650Y33984D01*
D02*
G37*
G36*
X29450Y34009D02*
X28427D01*
Y32877D01*
X29709D01*
Y33750D01*
X29689Y33849D01*
X29633Y33933D01*
X29549Y33989D01*
X29450Y34009D01*
D02*
G37*
G36*
X7027Y39898D02*
Y37277D01*
X8165D01*
Y38650D01*
X8122Y38977D01*
X7995Y39282D01*
X7794Y39544D01*
X7532Y39745D01*
X7227Y39872D01*
X7027Y39898D01*
D02*
G37*
G36*
X33468Y41822D02*
X33294Y41799D01*
X33013Y41683D01*
X32772Y41498D01*
X32587Y41257D01*
X32471Y40976D01*
X32448Y40802D01*
X33468D01*
Y41822D01*
D02*
G37*
G36*
X13300Y41465D02*
X11927D01*
Y40327D01*
X14548D01*
X14522Y40527D01*
X14395Y40832D01*
X14194Y41094D01*
X13932Y41295D01*
X13627Y41422D01*
X13300Y41465D01*
D02*
G37*
G36*
X11673D02*
X10300D01*
X9973Y41422D01*
X9668Y41295D01*
X9406Y41094D01*
X9205Y40832D01*
X9078Y40527D01*
X9052Y40327D01*
X11673D01*
Y41465D01*
D02*
G37*
G36*
X57500Y41268D02*
X57483Y41264D01*
X57466Y41265D01*
X57205Y41231D01*
X57173Y41220D01*
X57140Y41214D01*
X56897Y41113D01*
X56868Y41094D01*
X56838Y41079D01*
X56629Y40919D01*
X56607Y40893D01*
X56581Y40871D01*
X56421Y40662D01*
X56406Y40632D01*
X56387Y40603D01*
X56286Y40360D01*
X56280Y40327D01*
X56269Y40295D01*
X56235Y40034D01*
X56237Y40000D01*
X56235Y39966D01*
X56269Y39705D01*
X56280Y39673D01*
X56286Y39640D01*
X56387Y39397D01*
X56406Y39368D01*
X56421Y39338D01*
X56581Y39129D01*
X56607Y39107D01*
X56629Y39081D01*
X56838Y38921D01*
X56868Y38906D01*
X56897Y38887D01*
X57140Y38786D01*
X57173Y38780D01*
X57205Y38769D01*
X57466Y38735D01*
X57483Y38736D01*
X57500Y38732D01*
X57517Y38736D01*
X57534Y38735D01*
X57795Y38769D01*
X57827Y38780D01*
X57860Y38786D01*
X58103Y38887D01*
X58132Y38906D01*
X58162Y38921D01*
X58371Y39081D01*
X58393Y39107D01*
X58419Y39129D01*
X58579Y39338D01*
X58594Y39368D01*
X58613Y39397D01*
X58714Y39640D01*
X58720Y39673D01*
X58731Y39705D01*
X58765Y39966D01*
X58763Y40000D01*
X58765Y40034D01*
X58731Y40295D01*
X58720Y40327D01*
X58714Y40360D01*
X58613Y40603D01*
X58594Y40632D01*
X58579Y40662D01*
X58419Y40871D01*
X58393Y40893D01*
X58371Y40919D01*
X58162Y41079D01*
X58132Y41094D01*
X58103Y41113D01*
X57860Y41214D01*
X57827Y41220D01*
X57795Y41231D01*
X57534Y41265D01*
X57517Y41264D01*
X57500Y41268D01*
D02*
G37*
G36*
X2500D02*
X2483Y41264D01*
X2466Y41265D01*
X2205Y41231D01*
X2173Y41220D01*
X2140Y41214D01*
X1897Y41113D01*
X1868Y41094D01*
X1838Y41079D01*
X1629Y40919D01*
X1607Y40893D01*
X1581Y40871D01*
X1421Y40662D01*
X1406Y40632D01*
X1387Y40603D01*
X1286Y40360D01*
X1280Y40327D01*
X1269Y40295D01*
X1235Y40034D01*
X1237Y40000D01*
X1235Y39966D01*
X1269Y39705D01*
X1280Y39673D01*
X1286Y39640D01*
X1387Y39397D01*
X1406Y39368D01*
X1421Y39338D01*
X1581Y39129D01*
X1607Y39107D01*
X1629Y39081D01*
X1838Y38921D01*
X1868Y38906D01*
X1897Y38887D01*
X2140Y38786D01*
X2173Y38780D01*
X2205Y38769D01*
X2466Y38735D01*
X2483Y38736D01*
X2500Y38732D01*
X2517Y38736D01*
X2534Y38735D01*
X2795Y38769D01*
X2827Y38780D01*
X2860Y38786D01*
X3103Y38887D01*
X3132Y38906D01*
X3162Y38921D01*
X3371Y39081D01*
X3393Y39107D01*
X3419Y39129D01*
X3579Y39338D01*
X3594Y39368D01*
X3613Y39397D01*
X3714Y39640D01*
X3720Y39673D01*
X3731Y39705D01*
X3765Y39966D01*
X3763Y40000D01*
X3765Y40034D01*
X3731Y40295D01*
X3720Y40327D01*
X3714Y40360D01*
X3613Y40603D01*
X3594Y40632D01*
X3579Y40662D01*
X3419Y40871D01*
X3393Y40893D01*
X3371Y40919D01*
X3162Y41079D01*
X3132Y41094D01*
X3103Y41113D01*
X2860Y41214D01*
X2827Y41220D01*
X2795Y41231D01*
X2534Y41265D01*
X2517Y41264D01*
X2500Y41268D01*
D02*
G37*
G36*
X33722Y41822D02*
Y40802D01*
X34742D01*
X34719Y40976D01*
X34603Y41257D01*
X34418Y41498D01*
X34177Y41683D01*
X33896Y41799D01*
X33722Y41822D01*
D02*
G37*
G36*
X11673Y40073D02*
X9052D01*
X9078Y39873D01*
X9205Y39568D01*
X9406Y39306D01*
X9668Y39105D01*
X9973Y38978D01*
X10300Y38935D01*
X11673D01*
Y40073D01*
D02*
G37*
G36*
X23325Y38859D02*
X22325D01*
X22226Y38839D01*
X22142Y38783D01*
X22089Y38704D01*
X22025Y38699D01*
X21961Y38704D01*
X21908Y38783D01*
X21824Y38839D01*
X21725Y38859D01*
X21125D01*
X21026Y38839D01*
X20942Y38783D01*
X20886Y38699D01*
X20866Y38600D01*
Y38000D01*
X20886Y37901D01*
X20887Y37899D01*
X20934Y37800D01*
X20887Y37701D01*
X20886Y37699D01*
X20866Y37600D01*
Y37427D01*
X21425D01*
X21984D01*
Y37600D01*
X21964Y37699D01*
X21963Y37701D01*
X21923Y37785D01*
X21973Y37878D01*
X22099Y37880D01*
X22142Y37817D01*
X22226Y37761D01*
X22325Y37741D01*
X23325D01*
X23424Y37761D01*
X23508Y37817D01*
X23564Y37901D01*
X23584Y38000D01*
Y38600D01*
X23564Y38699D01*
X23508Y38783D01*
X23424Y38839D01*
X23325Y38859D01*
D02*
G37*
G36*
X31505Y41834D02*
X30605D01*
X30506Y41814D01*
X30422Y41758D01*
X29972Y41308D01*
X29916Y41224D01*
X29896Y41125D01*
Y40225D01*
X29916Y40126D01*
X29972Y40042D01*
X30422Y39592D01*
X30506Y39536D01*
X30605Y39516D01*
X30687D01*
Y38891D01*
X30676Y38889D01*
X30592Y38833D01*
X30536Y38749D01*
X30516Y38650D01*
Y38050D01*
X30536Y37951D01*
X30537Y37949D01*
X30584Y37850D01*
X30537Y37751D01*
X30536Y37749D01*
X30534Y37738D01*
X29709D01*
Y38350D01*
X29689Y38449D01*
X29633Y38533D01*
X29549Y38589D01*
X29450Y38609D01*
X27150D01*
X27051Y38589D01*
X26967Y38533D01*
X26911Y38449D01*
X26891Y38350D01*
Y37738D01*
X25966D01*
X25964Y37749D01*
X25908Y37833D01*
X25824Y37889D01*
X25725Y37909D01*
X24725D01*
X24626Y37889D01*
X24542Y37833D01*
X24486Y37749D01*
X24466Y37650D01*
Y37050D01*
X24486Y36951D01*
X24542Y36867D01*
X24626Y36811D01*
X24725Y36791D01*
X25725D01*
X25824Y36811D01*
X25908Y36867D01*
X25964Y36951D01*
X25966Y36962D01*
X26891D01*
Y36350D01*
X26911Y36251D01*
X26967Y36167D01*
X27051Y36111D01*
X27150Y36091D01*
X29450D01*
X29549Y36111D01*
X29633Y36167D01*
X29689Y36251D01*
X29709Y36350D01*
Y36962D01*
X30534D01*
X30536Y36951D01*
X30592Y36867D01*
X30676Y36811D01*
X30775Y36791D01*
X31375D01*
X31474Y36811D01*
X31558Y36867D01*
X31614Y36951D01*
X31634Y37050D01*
Y37650D01*
X31614Y37749D01*
X31613Y37751D01*
X31566Y37850D01*
X31613Y37949D01*
X31614Y37951D01*
X31634Y38050D01*
Y38650D01*
X31614Y38749D01*
X31558Y38833D01*
X31474Y38889D01*
X31463Y38891D01*
Y39516D01*
X31505D01*
X31604Y39536D01*
X31688Y39592D01*
X32138Y40042D01*
X32194Y40126D01*
X32214Y40225D01*
Y41125D01*
X32194Y41224D01*
X32138Y41308D01*
X31688Y41758D01*
X31604Y41814D01*
X31505Y41834D01*
D02*
G37*
G36*
X34742Y40548D02*
X33722D01*
Y39528D01*
X33896Y39551D01*
X34177Y39667D01*
X34418Y39852D01*
X34603Y40093D01*
X34719Y40374D01*
X34742Y40548D01*
D02*
G37*
G36*
X33468D02*
X32448D01*
X32471Y40374D01*
X32587Y40093D01*
X32772Y39852D01*
X33013Y39667D01*
X33294Y39551D01*
X33468Y39528D01*
Y40548D01*
D02*
G37*
G36*
X14548Y40073D02*
X11927D01*
Y38935D01*
X13300D01*
X13627Y38978D01*
X13932Y39105D01*
X14194Y39306D01*
X14395Y39568D01*
X14522Y39873D01*
X14548Y40073D01*
D02*
G37*
G36*
X27323Y22848D02*
X26859D01*
X26881Y22739D01*
X27015Y22540D01*
X27214Y22406D01*
X27323Y22384D01*
Y22848D01*
D02*
G37*
G36*
X4150Y23759D02*
X1650D01*
X1551Y23739D01*
X1467Y23683D01*
X1411Y23599D01*
X1391Y23500D01*
Y22500D01*
X1411Y22401D01*
X1467Y22317D01*
X1551Y22261D01*
X1650Y22241D01*
X4150D01*
X4249Y22261D01*
X4333Y22317D01*
X4389Y22401D01*
X4409Y22500D01*
Y23500D01*
X4389Y23599D01*
X4333Y23683D01*
X4249Y23739D01*
X4150Y23759D01*
D02*
G37*
G36*
X24927Y22466D02*
Y22002D01*
X25391D01*
X25369Y22111D01*
X25235Y22310D01*
X25036Y22444D01*
X24927Y22466D01*
D02*
G37*
G36*
X17550Y24159D02*
X16527D01*
Y23027D01*
X17809D01*
Y23900D01*
X17789Y23999D01*
X17733Y24083D01*
X17649Y24139D01*
X17550Y24159D01*
D02*
G37*
G36*
X16273D02*
X15250D01*
X15151Y24139D01*
X15067Y24083D01*
X15011Y23999D01*
X14991Y23900D01*
Y23027D01*
X16273D01*
Y24159D01*
D02*
G37*
G36*
X28041Y22848D02*
X27577D01*
Y22384D01*
X27686Y22406D01*
X27885Y22540D01*
X28019Y22739D01*
X28041Y22848D01*
D02*
G37*
G36*
X16273Y22773D02*
X14991D01*
Y21900D01*
X15011Y21801D01*
X15067Y21717D01*
X15151Y21661D01*
X15250Y21641D01*
X16273D01*
Y22773D01*
D02*
G37*
G36*
X25391Y21748D02*
X24927D01*
Y21284D01*
X25036Y21306D01*
X25235Y21440D01*
X25369Y21639D01*
X25391Y21748D01*
D02*
G37*
G36*
X24673D02*
X24209D01*
X24231Y21639D01*
X24365Y21440D01*
X24564Y21306D01*
X24673Y21284D01*
Y21748D01*
D02*
G37*
G36*
Y22466D02*
X24564Y22444D01*
X24365Y22310D01*
X24231Y22111D01*
X24209Y22002D01*
X24673D01*
Y22466D01*
D02*
G37*
G36*
X55100Y23934D02*
X53977D01*
Y21877D01*
X55359D01*
Y23675D01*
X55339Y23774D01*
X55283Y23858D01*
X55199Y23914D01*
X55100Y23934D01*
D02*
G37*
G36*
X17809Y22773D02*
X16527D01*
Y21641D01*
X17550D01*
X17649Y21661D01*
X17733Y21717D01*
X17789Y21801D01*
X17809Y21900D01*
Y22773D01*
D02*
G37*
G36*
X27323Y23566D02*
X27214Y23544D01*
X27015Y23410D01*
X26881Y23211D01*
X26859Y23102D01*
X27323D01*
Y23566D01*
D02*
G37*
G36*
X13300Y35465D02*
X10300D01*
X9973Y35422D01*
X9668Y35295D01*
X9406Y35094D01*
X9205Y34832D01*
X9078Y34527D01*
X9035Y34200D01*
X9078Y33873D01*
X9205Y33568D01*
X9406Y33306D01*
X9668Y33105D01*
X9973Y32978D01*
X10300Y32935D01*
X12515D01*
X13325Y32125D01*
X13451Y32041D01*
X13600Y32012D01*
X13641D01*
X13691Y31950D01*
Y31927D01*
X14100D01*
X14509D01*
Y31950D01*
X14559Y32012D01*
X14889D01*
X14891Y32010D01*
Y31500D01*
X14911Y31401D01*
X14967Y31317D01*
X15051Y31261D01*
X15150Y31241D01*
X15750D01*
X15849Y31261D01*
X15933Y31317D01*
X15989Y31401D01*
X16009Y31500D01*
Y32500D01*
X15989Y32599D01*
X15933Y32683D01*
X15849Y32739D01*
X15750Y32759D01*
X15198D01*
X15050Y32788D01*
X14350D01*
X14349Y32789D01*
X14250Y32809D01*
X13950D01*
X13851Y32789D01*
X13850Y32788D01*
X13775D01*
X13689Y32886D01*
X13715Y33014D01*
X13932Y33105D01*
X14194Y33306D01*
X14395Y33568D01*
X14522Y33873D01*
X14565Y34200D01*
X14522Y34527D01*
X14395Y34832D01*
X14194Y35094D01*
X13932Y35295D01*
X13627Y35422D01*
X13300Y35465D01*
D02*
G37*
G36*
X26627Y31241D02*
Y30777D01*
X27091D01*
X27069Y30886D01*
X26935Y31085D01*
X26736Y31219D01*
X26627Y31241D01*
D02*
G37*
G36*
X26373D02*
X26264Y31219D01*
X26065Y31085D01*
X25931Y30886D01*
X25909Y30777D01*
X26373D01*
Y31241D01*
D02*
G37*
G36*
X28173Y32623D02*
X26891D01*
Y31750D01*
X26911Y31651D01*
X26967Y31567D01*
X27051Y31511D01*
X27150Y31491D01*
X28173D01*
Y32623D01*
D02*
G37*
G36*
X14509Y31673D02*
X14227D01*
Y31391D01*
X14250D01*
X14349Y31411D01*
X14433Y31467D01*
X14489Y31551D01*
X14509Y31650D01*
Y31673D01*
D02*
G37*
G36*
X13973D02*
X13691D01*
Y31650D01*
X13711Y31551D01*
X13767Y31467D01*
X13851Y31411D01*
X13950Y31391D01*
X13973D01*
Y31673D01*
D02*
G37*
G36*
X19973Y25948D02*
X19416D01*
Y25650D01*
X19436Y25551D01*
X19492Y25467D01*
X19576Y25411D01*
X19675Y25391D01*
X19973D01*
Y25948D01*
D02*
G37*
G36*
X44675Y29709D02*
X40825D01*
X40726Y29689D01*
X40642Y29633D01*
X40586Y29549D01*
X40566Y29450D01*
Y26950D01*
X40586Y26851D01*
X40642Y26767D01*
Y26633D01*
X40586Y26549D01*
X40566Y26450D01*
Y23950D01*
X40586Y23851D01*
X40642Y23767D01*
X40726Y23711D01*
X40825Y23691D01*
X44675D01*
X44774Y23711D01*
X44858Y23767D01*
X44914Y23851D01*
X44934Y23950D01*
Y26450D01*
X44914Y26549D01*
X44858Y26633D01*
Y26767D01*
X44914Y26851D01*
X44934Y26950D01*
Y29450D01*
X44914Y29549D01*
X44858Y29633D01*
X44774Y29689D01*
X44675Y29709D01*
D02*
G37*
G36*
X27577Y23566D02*
Y23102D01*
X28041D01*
X28019Y23211D01*
X27885Y23410D01*
X27686Y23544D01*
X27577Y23566D01*
D02*
G37*
G36*
X27091Y30523D02*
X26627D01*
Y30059D01*
X26736Y30081D01*
X26935Y30215D01*
X27069Y30414D01*
X27091Y30523D01*
D02*
G37*
G36*
X26373D02*
X25909D01*
X25931Y30414D01*
X26065Y30215D01*
X26264Y30081D01*
X26373Y30059D01*
Y30523D01*
D02*
G37*
G36*
X22825Y36965D02*
X22795Y36959D01*
X22325D01*
X22226Y36939D01*
X22142Y36883D01*
X22086Y36799D01*
X22066Y36700D01*
Y36100D01*
X22086Y36001D01*
X22142Y35917D01*
X22226Y35861D01*
X22260Y35854D01*
Y34159D01*
X17048Y28947D01*
X16997Y28972D01*
X16943Y29022D01*
X16959Y29100D01*
Y30100D01*
X16939Y30199D01*
X16883Y30283D01*
X16799Y30339D01*
X16700Y30359D01*
X16100D01*
X16001Y30339D01*
X15917Y30283D01*
X15861Y30199D01*
X15841Y30100D01*
Y29100D01*
X15861Y29001D01*
X15886Y28963D01*
Y28759D01*
X15250D01*
X15151Y28739D01*
X15067Y28683D01*
X15011Y28599D01*
X14991Y28500D01*
Y26500D01*
X15011Y26401D01*
X15067Y26317D01*
X15151Y26261D01*
X15250Y26241D01*
X17550D01*
X17649Y26261D01*
X17733Y26317D01*
X17789Y26401D01*
X17809Y26500D01*
Y26910D01*
X19463D01*
X19492Y26867D01*
X19520Y26848D01*
Y26702D01*
X19492Y26683D01*
X19436Y26599D01*
X19416Y26500D01*
Y26202D01*
X20100D01*
Y26075D01*
X20227D01*
Y25391D01*
X20525D01*
X20624Y25411D01*
X20708Y25467D01*
X20764Y25551D01*
X20784Y25650D01*
Y26060D01*
X20901Y26108D01*
X22110Y24899D01*
Y23984D01*
X22075D01*
X21976Y23964D01*
X21892Y23908D01*
X21836Y23824D01*
X21816Y23725D01*
Y22725D01*
X21836Y22626D01*
X21892Y22542D01*
X21976Y22486D01*
X22075Y22466D01*
X23325D01*
X23424Y22486D01*
X23508Y22542D01*
X23564Y22626D01*
X23584Y22725D01*
Y22839D01*
X25090D01*
X26189Y21740D01*
Y21445D01*
X26175Y21434D01*
X26152D01*
Y21025D01*
X26025D01*
Y20898D01*
X25616D01*
Y20875D01*
X25636Y20776D01*
X25670Y20725D01*
X25636Y20674D01*
X25616Y20575D01*
Y20275D01*
X25636Y20176D01*
X25692Y20092D01*
X25776Y20036D01*
X25867Y20018D01*
X25898Y19970D01*
X25927Y19899D01*
X25640Y19611D01*
X23584D01*
Y19725D01*
X23564Y19824D01*
X23508Y19908D01*
X23424Y19964D01*
X23325Y19984D01*
X23316D01*
Y20466D01*
X23325D01*
X23424Y20486D01*
X23508Y20542D01*
X23564Y20626D01*
X23584Y20725D01*
Y21725D01*
X23564Y21824D01*
X23508Y21908D01*
X23424Y21964D01*
X23325Y21984D01*
X22075D01*
X21976Y21964D01*
X21892Y21908D01*
X21836Y21824D01*
X21816Y21725D01*
Y20725D01*
X21836Y20626D01*
X21892Y20542D01*
X21976Y20486D01*
X22075Y20466D01*
X22084D01*
Y19984D01*
X22075D01*
X21976Y19964D01*
X21892Y19908D01*
X21836Y19824D01*
X21816Y19725D01*
Y18725D01*
X21836Y18626D01*
X21892Y18542D01*
X21976Y18486D01*
X22075Y18466D01*
X23325D01*
X23424Y18486D01*
X23508Y18542D01*
X23564Y18626D01*
X23584Y18725D01*
Y18839D01*
X25800D01*
X25948Y18868D01*
X26073Y18952D01*
X26660Y19539D01*
X27515D01*
X27653Y19566D01*
X28008D01*
X28026Y19476D01*
X28082Y19392D01*
X28166Y19336D01*
X28198Y19329D01*
Y19642D01*
X28198Y19642D01*
X28254Y19726D01*
X28274Y19825D01*
Y20025D01*
X28254Y20124D01*
X28220Y20175D01*
X28254Y20226D01*
X28274Y20325D01*
Y20525D01*
X28254Y20624D01*
X28220Y20675D01*
X28254Y20726D01*
X28274Y20825D01*
Y21025D01*
X28254Y21124D01*
X28198Y21208D01*
X28198Y21208D01*
Y22021D01*
X28166Y22014D01*
X28082Y21958D01*
X28026Y21874D01*
X28008Y21784D01*
X27642D01*
Y21425D01*
X27388D01*
Y21784D01*
X27015D01*
X26961Y21828D01*
Y21900D01*
X26961Y21900D01*
X26932Y22048D01*
X26848Y22173D01*
X25523Y23498D01*
X25398Y23582D01*
X25250Y23611D01*
X23584D01*
Y23725D01*
X23564Y23824D01*
X23508Y23908D01*
X23424Y23964D01*
X23325Y23984D01*
X23240D01*
Y25133D01*
X23240Y25133D01*
X23197Y25350D01*
X23074Y25533D01*
X23074Y25533D01*
X21099Y27508D01*
X21152Y27635D01*
X30566D01*
Y26950D01*
X30586Y26851D01*
X30642Y26767D01*
Y26633D01*
X30586Y26549D01*
X30566Y26450D01*
Y23950D01*
X30586Y23851D01*
X30642Y23767D01*
X30707Y23723D01*
X30735Y23634D01*
X30742Y23578D01*
X28947Y21784D01*
X28642D01*
X28624Y21874D01*
X28568Y21958D01*
X28484Y22014D01*
X28452Y22021D01*
Y21708D01*
X28452Y21708D01*
X28396Y21624D01*
X28376Y21525D01*
Y21325D01*
X28396Y21226D01*
X28430Y21175D01*
X28396Y21124D01*
X28376Y21025D01*
Y20825D01*
X28396Y20726D01*
X28430Y20675D01*
X28396Y20624D01*
X28376Y20525D01*
Y20325D01*
X28396Y20226D01*
X28430Y20175D01*
X28396Y20124D01*
X28376Y20025D01*
Y19825D01*
X28396Y19726D01*
X28452Y19642D01*
X28452Y19642D01*
Y19329D01*
X28484Y19336D01*
X28568Y19392D01*
X28624Y19476D01*
X28642Y19566D01*
X28947D01*
X34612Y13902D01*
X34612Y13902D01*
X34737Y13818D01*
X34885Y13789D01*
X34885Y13789D01*
X49964D01*
Y11209D01*
X49875D01*
X49776Y11189D01*
X49692Y11133D01*
X49636Y11049D01*
X49616Y10950D01*
Y9700D01*
X49636Y9601D01*
X49692Y9517D01*
X49776Y9461D01*
X49875Y9441D01*
X50875D01*
X50974Y9461D01*
X51058Y9517D01*
X51114Y9601D01*
X51134Y9700D01*
Y9709D01*
X51797D01*
X51842Y9642D01*
X51926Y9586D01*
X52025Y9566D01*
X53275D01*
X53374Y9586D01*
X53458Y9642D01*
X53514Y9726D01*
X53534Y9825D01*
Y10825D01*
X53514Y10924D01*
X53458Y11008D01*
X53374Y11064D01*
X53275Y11084D01*
X52025D01*
X51926Y11064D01*
X51842Y11008D01*
X51797Y10941D01*
X51134D01*
Y10950D01*
X51114Y11049D01*
X51058Y11133D01*
X50974Y11189D01*
X50875Y11209D01*
X50736D01*
Y12674D01*
X50848Y12733D01*
X50889Y12706D01*
X51125Y12659D01*
X51361Y12706D01*
X51560Y12840D01*
X51593Y12889D01*
X51649D01*
X51742Y12838D01*
X51766Y12767D01*
Y11825D01*
X51786Y11726D01*
X51842Y11642D01*
X51926Y11586D01*
X52025Y11566D01*
X53275D01*
X53374Y11586D01*
X53458Y11642D01*
X53514Y11726D01*
X53534Y11825D01*
Y12825D01*
X53514Y12924D01*
X53458Y13008D01*
X53374Y13064D01*
X53275Y13084D01*
X53215D01*
Y13563D01*
X53258Y13592D01*
X53277Y13620D01*
X53423D01*
X53442Y13592D01*
X53526Y13536D01*
X53625Y13516D01*
X53923D01*
Y14200D01*
Y14884D01*
X53625D01*
X53526Y14864D01*
X53442Y14808D01*
X53423Y14780D01*
X53277D01*
X53258Y14808D01*
X53174Y14864D01*
X53164Y14866D01*
Y15188D01*
X53189Y15226D01*
X53209Y15325D01*
Y16325D01*
X53189Y16424D01*
X53133Y16508D01*
X53049Y16564D01*
X52950Y16584D01*
X52350D01*
X52251Y16564D01*
X52167Y16508D01*
X52111Y16424D01*
X52091Y16325D01*
Y15325D01*
X52111Y15226D01*
X52136Y15188D01*
Y14866D01*
X52126Y14864D01*
X52042Y14808D01*
X51986Y14724D01*
X51966Y14625D01*
Y14561D01*
X51203D01*
X51199Y14564D01*
X51100Y14584D01*
X50800D01*
X50701Y14564D01*
X50650Y14530D01*
X50599Y14564D01*
X50500Y14584D01*
X50200D01*
X50101Y14564D01*
X50097Y14561D01*
X35045D01*
X29875Y19731D01*
X29894Y19825D01*
Y20025D01*
X29874Y20124D01*
X29840Y20175D01*
X29874Y20226D01*
X29894Y20325D01*
Y20525D01*
X29905Y20539D01*
X30000D01*
X30148Y20568D01*
X30273Y20652D01*
X33023Y23402D01*
X33107Y23527D01*
X33136Y23675D01*
X33259Y23691D01*
X33712D01*
X38127Y19277D01*
X38252Y19193D01*
X38400Y19164D01*
X38400Y19164D01*
X40872D01*
X40876Y19161D01*
X40975Y19141D01*
X41275D01*
X41374Y19161D01*
X41425Y19195D01*
X41476Y19161D01*
X41575Y19141D01*
X41875D01*
X41974Y19161D01*
X41978Y19164D01*
X48650D01*
X48798Y19193D01*
X48923Y19277D01*
X49300Y19653D01*
X49417Y19642D01*
X49501Y19586D01*
X49600Y19566D01*
X50236D01*
Y16462D01*
X50211Y16424D01*
X50191Y16325D01*
Y15325D01*
X50211Y15226D01*
X50267Y15142D01*
X50351Y15086D01*
X50450Y15066D01*
X51050D01*
X51149Y15086D01*
X51233Y15142D01*
X51289Y15226D01*
X51309Y15325D01*
Y16325D01*
X51289Y16424D01*
X51264Y16462D01*
Y17369D01*
X51391Y17468D01*
X51400Y17466D01*
X52000D01*
X52099Y17486D01*
X52183Y17542D01*
X52239Y17626D01*
X52259Y17725D01*
Y18725D01*
X52239Y18824D01*
X52183Y18908D01*
X52099Y18964D01*
X52000Y18984D01*
X51400D01*
X51391Y18982D01*
X51264Y19081D01*
Y19566D01*
X52100D01*
X52199Y19586D01*
X52283Y19642D01*
X52417D01*
X52501Y19586D01*
X52600Y19566D01*
X53723D01*
Y21750D01*
Y23934D01*
X52600D01*
X52501Y23914D01*
X52417Y23858D01*
X52283D01*
X52199Y23914D01*
X52100Y23934D01*
X49600D01*
X49501Y23914D01*
X49417Y23858D01*
X49361Y23774D01*
X49341Y23675D01*
Y20788D01*
X48490Y19936D01*
X41978D01*
X41974Y19939D01*
X41875Y19959D01*
X41575D01*
X41476Y19939D01*
X41425Y19905D01*
X41374Y19939D01*
X41275Y19959D01*
X40975D01*
X40876Y19939D01*
X40872Y19936D01*
X38560D01*
X34847Y23650D01*
X34858Y23767D01*
X34914Y23851D01*
X34934Y23950D01*
Y26450D01*
X34914Y26549D01*
X34858Y26633D01*
Y26767D01*
X34914Y26851D01*
X34934Y26950D01*
Y29450D01*
X34914Y29549D01*
X34858Y29633D01*
X34774Y29689D01*
X34675Y29709D01*
X30825D01*
X30726Y29689D01*
X30642Y29633D01*
X30586Y29549D01*
X30566Y29450D01*
Y28765D01*
X20825D01*
X20825Y28765D01*
X20609Y28722D01*
X20426Y28599D01*
X20426Y28599D01*
X19985Y28159D01*
X19675D01*
X19576Y28139D01*
X19492Y28083D01*
X19463Y28040D01*
X17918D01*
X17866Y28167D01*
X23224Y33526D01*
X23224Y33526D01*
X23347Y33709D01*
X23390Y33925D01*
X23390Y33925D01*
Y35854D01*
X23424Y35861D01*
X23508Y35917D01*
X23564Y36001D01*
X23584Y36100D01*
Y36700D01*
X23564Y36799D01*
X23508Y36883D01*
X23424Y36939D01*
X23325Y36959D01*
X22855D01*
X22825Y36965D01*
D02*
G37*
%LPD*%
D10*
X41675Y10875D02*
D03*
X40675D02*
D03*
X36700Y5575D02*
D03*
X37700D02*
D03*
X12050Y12300D02*
D03*
X10950D02*
D03*
X12050Y11250D02*
D03*
X10950D02*
D03*
X31875Y5400D02*
D03*
X32875D02*
D03*
X29750D02*
D03*
X28750D02*
D03*
X17425Y9375D02*
D03*
X16325D02*
D03*
X17425Y8325D02*
D03*
X16325D02*
D03*
X17350Y33425D02*
D03*
X18350D02*
D03*
X10700Y18125D02*
D03*
X9700D02*
D03*
X10700Y16125D02*
D03*
X9700D02*
D03*
D11*
X40700Y7150D02*
D03*
X39750Y9550D02*
D03*
X41650D02*
D03*
X51700Y18225D02*
D03*
X52650Y15825D02*
D03*
X50750D02*
D03*
X16400Y29600D02*
D03*
X15450Y32000D02*
D03*
X17350D02*
D03*
D12*
X37675Y10200D02*
D03*
Y7100D02*
D03*
D13*
X16450Y12750D02*
D03*
D14*
X14250Y11250D02*
D03*
Y11750D02*
D03*
Y12250D02*
D03*
Y12750D02*
D03*
Y13250D02*
D03*
Y13750D02*
D03*
Y14250D02*
D03*
X18650D02*
D03*
Y13750D02*
D03*
Y13250D02*
D03*
Y12750D02*
D03*
Y12250D02*
D03*
Y11750D02*
D03*
Y11250D02*
D03*
D15*
X14950Y14950D02*
D03*
X15450D02*
D03*
X15950D02*
D03*
X16450D02*
D03*
X16950D02*
D03*
X17450D02*
D03*
X17950D02*
D03*
Y10550D02*
D03*
X17450D02*
D03*
X16950D02*
D03*
X16450D02*
D03*
X15950D02*
D03*
X15450D02*
D03*
X14950D02*
D03*
D16*
X13075Y12250D02*
D03*
Y11250D02*
D03*
X21425Y37300D02*
D03*
Y38300D02*
D03*
X31075Y37350D02*
D03*
Y38350D02*
D03*
D17*
X52650Y10325D02*
D03*
Y12325D02*
D03*
X22700Y19225D02*
D03*
Y17225D02*
D03*
Y23225D02*
D03*
Y21225D02*
D03*
D18*
X48375Y10325D02*
D03*
X50375D02*
D03*
D19*
X50950Y14175D02*
D03*
X50350D02*
D03*
X41125Y19550D02*
D03*
X41725D02*
D03*
D20*
X50850Y21750D02*
D03*
X53850D02*
D03*
Y31750D02*
D03*
X50850D02*
D03*
D21*
X54050Y14200D02*
D03*
X52650D02*
D03*
D22*
X32750Y28200D02*
D03*
Y25200D02*
D03*
X42750D02*
D03*
Y28200D02*
D03*
D23*
X26025Y20425D02*
D03*
Y21025D02*
D03*
X14100Y31800D02*
D03*
Y32400D02*
D03*
X7200Y18125D02*
D03*
Y18725D02*
D03*
Y16125D02*
D03*
Y15525D02*
D03*
D24*
X28325Y20675D02*
D03*
D25*
X27515Y21425D02*
D03*
Y20925D02*
D03*
Y20425D02*
D03*
Y19925D02*
D03*
X29135Y21425D02*
D03*
Y20925D02*
D03*
Y20425D02*
D03*
Y19925D02*
D03*
D26*
X25225Y37350D02*
D03*
X22825Y36400D02*
D03*
Y38300D02*
D03*
D27*
X20100Y26075D02*
D03*
Y27475D02*
D03*
D28*
X28300Y37350D02*
D03*
Y32750D02*
D03*
X16400Y27500D02*
D03*
Y22900D02*
D03*
D29*
X4200Y16125D02*
D03*
Y18125D02*
D03*
D30*
X3950Y13625D02*
D03*
Y20625D02*
D03*
D31*
X12950Y13425D02*
X13125Y13250D01*
X14250D01*
X12600Y14775D02*
X13625Y13750D01*
X14250D01*
X19325Y13250D02*
X19775Y12800D01*
X18650Y13250D02*
X19325D01*
X19700Y13750D02*
X19775Y13825D01*
X20000Y14950D02*
X26896Y8054D01*
X17950Y14950D02*
X20000D01*
X33950Y5400D02*
X33975Y5375D01*
X32875Y5400D02*
X33950D01*
X28750Y5400D02*
X28750Y5400D01*
X27625Y5400D02*
X28750D01*
X26896Y3414D02*
X26985Y3325D01*
X26896Y3414D02*
Y8054D01*
X17450Y8350D02*
Y10550D01*
X18650Y13750D02*
X19700D01*
X28750Y4100D02*
Y5400D01*
Y4100D02*
X29525Y3325D01*
X32875Y4135D02*
Y5400D01*
X32065Y3325D02*
X32875Y4135D01*
X34605Y3325D02*
Y3480D01*
X36700Y5575D01*
X37675Y7100D02*
X37700Y7075D01*
Y5575D02*
Y7075D01*
X37675Y7100D02*
X37725Y7150D01*
X40700D01*
X39750Y9550D02*
Y10525D01*
X39400Y10875D02*
X39750Y10525D01*
X41650Y9550D02*
X41675Y9575D01*
Y10875D01*
X30800Y6450D02*
Y6475D01*
X31875Y5400D01*
X30800Y6475D02*
Y6925D01*
X29750Y5400D02*
X30800Y6450D01*
X52625Y14175D02*
X52650Y14200D01*
X51725Y13275D02*
X52625Y14175D01*
X51125Y13275D02*
X51725D01*
X50350Y10350D02*
Y14175D01*
Y10350D02*
X50375Y10325D01*
X50950Y14175D02*
X52625D01*
X34885D02*
X50350D01*
X10700Y18125D02*
X12275D01*
X15450Y14950D01*
X10700Y16125D02*
X13775D01*
X14950Y14950D01*
X13075Y12250D02*
X14250D01*
X29135Y19925D02*
X34885Y14175D01*
X48650Y19550D02*
X50750Y21650D01*
X41725Y19550D02*
X48650D01*
X38400D02*
X41125D01*
X32750Y25200D02*
X38400Y19550D01*
X17425Y8325D02*
X17450Y8350D01*
X32750Y23675D02*
Y25040D01*
X30000Y20925D02*
X32750Y23675D01*
X29135Y20925D02*
X30000D01*
X32750Y25040D02*
Y25200D01*
X29135Y21425D02*
X32750Y25040D01*
X26029Y20421D02*
X27515D01*
X26500Y19925D02*
X27515D01*
X25800Y19225D02*
X26500Y19925D01*
X22700Y19225D02*
X25800D01*
X26025Y20425D02*
X26029Y20421D01*
X22700Y23225D02*
X25250D01*
X26575Y21900D01*
Y21225D02*
Y21900D01*
Y21225D02*
X26875Y20925D01*
X27515D01*
D32*
X12050Y12300D02*
Y14225D01*
Y11250D02*
Y12300D01*
Y14225D02*
X12600Y14775D01*
X12050Y11250D02*
X13075D01*
X52650Y15825D02*
X52650Y15825D01*
X52650Y14200D02*
Y15825D01*
X50750Y21650D02*
X50850Y21750D01*
X50750Y15825D02*
Y21650D01*
X16400Y27500D02*
X16425Y27475D01*
X16400Y27500D02*
X16400Y27500D01*
X16400Y27500D02*
Y29600D01*
D33*
X54050Y14200D02*
Y21550D01*
X52650Y12325D02*
Y14200D01*
X53850Y21750D02*
X54050Y21550D01*
X22675Y23200D02*
Y25133D01*
X20825Y28200D02*
X32750D01*
X20100Y27475D02*
X20825Y28200D01*
X20333Y27475D02*
X22675Y25133D01*
X20100Y27475D02*
X20333D01*
X16400Y27500D02*
X22825Y33925D01*
Y36400D01*
X22675Y23200D02*
X22700Y23225D01*
X16425Y27475D02*
X20100D01*
D34*
X50375Y10325D02*
X52650D01*
X22700Y19225D02*
Y21225D01*
D35*
X21425Y38300D02*
X22825D01*
X25225Y37350D02*
X28300D01*
X31075D02*
X31075Y37350D01*
X28300Y37350D02*
X31075D01*
X31055Y40675D02*
X31075Y40655D01*
Y38350D02*
Y40655D01*
X15050Y32400D02*
X15450Y32000D01*
X14100Y32400D02*
X15050D01*
X11800Y34200D02*
X13600Y32400D01*
X14100D01*
X17350Y33425D02*
X17350Y33425D01*
X17350Y32000D02*
Y33425D01*
X7200Y18125D02*
X9700D01*
X4200Y18125D02*
X4200Y18125D01*
X7200D01*
Y16125D02*
X9700D01*
X4200D02*
X7200D01*
D36*
X26985Y3325D02*
D03*
X29525D02*
D03*
X32065D02*
D03*
X24445D02*
D03*
X33595Y40675D02*
D03*
D37*
X34605Y3325D02*
D03*
X31055Y40675D02*
D03*
D38*
X2900Y23000D02*
D03*
X2825Y11050D02*
D03*
D39*
X11800Y34200D02*
D03*
Y40200D02*
D03*
D40*
X6900Y37150D02*
D03*
D41*
X12600Y14775D02*
D03*
X12950Y13425D02*
D03*
X15925Y18125D02*
D03*
X54350Y12700D02*
D03*
X26500Y30650D02*
D03*
X27450Y22975D02*
D03*
X24800Y21875D02*
D03*
X8675Y20650D02*
D03*
X19775Y12800D02*
D03*
Y13825D02*
D03*
X33975Y5375D02*
D03*
X27625Y5400D02*
D03*
X39400Y10875D02*
D03*
X30800Y6925D02*
D03*
X51125Y13275D02*
D03*
D42*
X17550Y13850D02*
D03*
Y12750D02*
D03*
Y11650D02*
D03*
X16450Y13850D02*
D03*
Y12750D02*
D03*
Y11650D02*
D03*
X15350Y13850D02*
D03*
Y12750D02*
D03*
Y11650D02*
D03*
M02*
