G04 Layer_Color=16777215*
%FSLAX43Y43*%
%MOMM*%
G71*
G01*
G75*
%ADD31C,0.250*%
%ADD35C,0.254*%
%ADD42C,0.500*%
%ADD43C,0.200*%
%ADD44C,0.100*%
%ADD45R,3.556X0.500*%
D31*
X42625Y9550D02*
G03*
X42625Y9550I-125J0D01*
G01*
X14225Y9600D02*
G03*
X14225Y9600I-125J0D01*
G01*
X50025Y15825D02*
G03*
X50025Y15825I-125J0D01*
G01*
X22950Y39150D02*
G03*
X22950Y39150I-125J0D01*
G01*
X18325Y32000D02*
G03*
X18325Y32000I-125J0D01*
G01*
D35*
X35119Y39151D02*
Y42199D01*
X29531D02*
X35119D01*
X29531Y39151D02*
X35119D01*
X29531D02*
Y42199D01*
X40350Y11550D02*
Y13074D01*
X41112D01*
X41366Y12820D01*
Y12312D01*
X41112Y12058D01*
X40350D01*
X40858D02*
X41366Y11550D01*
X41874Y11804D02*
X42127Y11550D01*
X42635D01*
X42889Y11804D01*
Y12820D01*
X42635Y13074D01*
X42127D01*
X41874Y12820D01*
Y12566D01*
X42127Y12312D01*
X42889D01*
X42675Y9099D02*
Y8083D01*
X43183Y7575D01*
X43691Y8083D01*
Y9099D01*
X44199D02*
X45214D01*
X44706D01*
Y7575D01*
X46738D02*
X45722D01*
X46738Y8591D01*
Y8845D01*
X46484Y9099D01*
X45976D01*
X45722Y8845D01*
X32275Y10924D02*
Y9908D01*
X32783Y9400D01*
X33291Y9908D01*
Y10924D01*
X33799D02*
Y9400D01*
X34560D01*
X34814Y9654D01*
Y10670D01*
X34560Y10924D01*
X33799D01*
X36084Y9400D02*
Y10924D01*
X35322Y10162D01*
X36338D01*
X39516Y5774D02*
X38500D01*
Y5012D01*
X39008D01*
X38500D01*
Y4250D01*
X40024Y5774D02*
Y4504D01*
X40277Y4250D01*
X40785D01*
X41039Y4504D01*
Y5774D01*
X41547Y4250D02*
X42055D01*
X41801D01*
Y5774D01*
X41547Y5520D01*
X13725Y17249D02*
Y15725D01*
X14487D01*
X14741Y15979D01*
Y16995D01*
X14487Y17249D01*
X13725D01*
X15249D02*
Y15725D01*
X16010D01*
X16264Y15979D01*
Y16995D01*
X16010Y17249D01*
X15249D01*
X16772Y15725D02*
X17280D01*
X17026D01*
Y17249D01*
X16772Y16995D01*
X9991Y9970D02*
X9737Y10224D01*
X9229D01*
X8975Y9970D01*
Y8954D01*
X9229Y8700D01*
X9737D01*
X9991Y8954D01*
X10499Y9970D02*
X10752Y10224D01*
X11260D01*
X11514Y9970D01*
Y9716D01*
X11260Y9462D01*
X11006D01*
X11260D01*
X11514Y9208D01*
Y8954D01*
X11260Y8700D01*
X10752D01*
X10499Y8954D01*
X9991Y8070D02*
X9737Y8323D01*
X9229D01*
X8975Y8070D01*
Y7054D01*
X9229Y6800D01*
X9737D01*
X9991Y7054D01*
X11260Y6800D02*
Y8323D01*
X10499Y7562D01*
X11514D01*
X11900Y10175D02*
X13424D01*
Y9413D01*
X13170Y9159D01*
X12662D01*
X12408Y9413D01*
Y10175D01*
Y9667D02*
X11900Y9159D01*
Y7890D02*
X13424D01*
X12662Y8651D01*
Y7636D01*
X53850Y10350D02*
Y11874D01*
X54612D01*
X54866Y11620D01*
Y11112D01*
X54612Y10858D01*
X53850D01*
X54358D02*
X54866Y10350D01*
X55374D02*
X55881D01*
X55627D01*
Y11874D01*
X55374Y11620D01*
X56643D02*
X56897Y11874D01*
X57405D01*
X57659Y11620D01*
Y10604D01*
X57405Y10350D01*
X56897D01*
X56643Y10604D01*
Y11620D01*
X47725Y7600D02*
Y9124D01*
X48487D01*
X48741Y8870D01*
Y8362D01*
X48487Y8108D01*
X47725D01*
X48233D02*
X48741Y7600D01*
X49249D02*
X49756D01*
X49502D01*
Y9124D01*
X49249Y8870D01*
X50518Y7600D02*
X51026D01*
X50772D01*
Y9124D01*
X50518Y8870D01*
X47766Y14570D02*
X47512Y14824D01*
X47004D01*
X46750Y14570D01*
Y13554D01*
X47004Y13300D01*
X47512D01*
X47766Y13554D01*
X48274Y13300D02*
X48781D01*
X48527D01*
Y14824D01*
X48274Y14570D01*
X49543Y13300D02*
X50051D01*
X49797D01*
Y14824D01*
X49543Y14570D01*
X46600Y35074D02*
Y33550D01*
X47616D01*
X49139D02*
X48124D01*
X49139Y34566D01*
Y34820D01*
X48885Y35074D01*
X48377D01*
X48124Y34820D01*
X56066Y14720D02*
X55812Y14974D01*
X55304D01*
X55050Y14720D01*
Y13704D01*
X55304Y13450D01*
X55812D01*
X56066Y13704D01*
X56574Y13450D02*
X57081D01*
X56827D01*
Y14974D01*
X56574Y14720D01*
X57843D02*
X58097Y14974D01*
X58605D01*
X58859Y14720D01*
Y13704D01*
X58605Y13450D01*
X58097D01*
X57843Y13704D01*
Y14720D01*
X45650Y17924D02*
Y16908D01*
X46158Y16400D01*
X46666Y16908D01*
Y17924D01*
X47174D02*
Y16400D01*
X47935D01*
X48189Y16654D01*
Y17670D01*
X47935Y17924D01*
X47174D01*
X48697Y17670D02*
X48951Y17924D01*
X49459D01*
X49713Y17670D01*
Y17416D01*
X49459Y17162D01*
X49205D01*
X49459D01*
X49713Y16908D01*
Y16654D01*
X49459Y16400D01*
X48951D01*
X48697Y16654D01*
X41116Y18720D02*
X40862Y18974D01*
X40354D01*
X40100Y18720D01*
Y17704D01*
X40354Y17450D01*
X40862D01*
X41116Y17704D01*
X41624D02*
X41877Y17450D01*
X42385D01*
X42639Y17704D01*
Y18720D01*
X42385Y18974D01*
X41877D01*
X41624Y18720D01*
Y18466D01*
X41877Y18212D01*
X42639D01*
X36425Y3474D02*
X37441Y1950D01*
Y3474D02*
X36425Y1950D01*
X37949Y3220D02*
X38202Y3474D01*
X38710D01*
X38964Y3220D01*
Y2966D01*
X38710Y2712D01*
X38456D01*
X38710D01*
X38964Y2458D01*
Y2204D01*
X38710Y1950D01*
X38202D01*
X37949Y2204D01*
X31475Y6050D02*
Y7574D01*
X32237D01*
X32491Y7320D01*
Y6812D01*
X32237Y6558D01*
X31475D01*
X31983D02*
X32491Y6050D01*
X32999Y7574D02*
X34014D01*
Y7320D01*
X32999Y6304D01*
Y6050D01*
X27625Y6075D02*
Y7599D01*
X28387D01*
X28641Y7345D01*
Y6837D01*
X28387Y6583D01*
X27625D01*
X28133D02*
X28641Y6075D01*
X29149Y7345D02*
X29402Y7599D01*
X29910D01*
X30164Y7345D01*
Y7091D01*
X29910Y6837D01*
X30164Y6583D01*
Y6329D01*
X29910Y6075D01*
X29402D01*
X29149Y6329D01*
Y6583D01*
X29402Y6837D01*
X29149Y7091D01*
Y7345D01*
X29402Y6837D02*
X29910D01*
X19491Y9495D02*
X19237Y9749D01*
X18729D01*
X18475Y9495D01*
Y8479D01*
X18729Y8225D01*
X19237D01*
X19491Y8479D01*
X19999Y9749D02*
X21014D01*
Y9495D01*
X19999Y8479D01*
Y8225D01*
X19466Y7620D02*
X19212Y7874D01*
X18704D01*
X18450Y7620D01*
Y6604D01*
X18704Y6350D01*
X19212D01*
X19466Y6604D01*
X20989Y7874D02*
X20481Y7620D01*
X19974Y7112D01*
Y6604D01*
X20227Y6350D01*
X20735D01*
X20989Y6604D01*
Y6858D01*
X20735Y7112D01*
X19974D01*
X33325Y34999D02*
Y33475D01*
X34341D01*
X34849D02*
X35356D01*
X35102D01*
Y34999D01*
X34849Y34745D01*
X25220Y19859D02*
X25474Y20113D01*
Y20621D01*
X25220Y20875D01*
X24204D01*
X23950Y20621D01*
Y20113D01*
X24204Y19859D01*
X25220Y19351D02*
X25474Y19098D01*
Y18590D01*
X25220Y18336D01*
X24966D01*
X24712Y18590D01*
X24458Y18336D01*
X24204D01*
X23950Y18590D01*
Y19098D01*
X24204Y19351D01*
X24458D01*
X24712Y19098D01*
X24966Y19351D01*
X25220D01*
X24712Y19098D02*
Y18590D01*
X26300Y18724D02*
Y17200D01*
X27062D01*
X27316Y17454D01*
Y18470D01*
X27062Y18724D01*
X26300D01*
X27824D02*
Y17200D01*
X28585D01*
X28839Y17454D01*
Y18470D01*
X28585Y18724D01*
X27824D01*
X30363Y17200D02*
X29347D01*
X30363Y18216D01*
Y18470D01*
X30109Y18724D01*
X29601D01*
X29347Y18470D01*
X21875Y40899D02*
Y39883D01*
X22383Y39375D01*
X22891Y39883D01*
Y40899D01*
X23399D02*
X24414D01*
X23906D01*
Y39375D01*
X24922Y40645D02*
X25176Y40899D01*
X25684D01*
X25938Y40645D01*
Y40391D01*
X25684Y40137D01*
X25430D01*
X25684D01*
X25938Y39883D01*
Y39629D01*
X25684Y39375D01*
X25176D01*
X24922Y39629D01*
X18900Y16450D02*
Y17973D01*
X19662D01*
X19916Y17720D01*
Y17212D01*
X19662Y16958D01*
X18900D01*
X19408D02*
X19916Y16450D01*
X21439Y17973D02*
X20931Y17720D01*
X20424Y17212D01*
Y16704D01*
X20677Y16450D01*
X21185D01*
X21439Y16704D01*
Y16958D01*
X21185Y17212D01*
X20424D01*
X18950Y20575D02*
Y22099D01*
X19712D01*
X19966Y21845D01*
Y21337D01*
X19712Y21083D01*
X18950D01*
X19458D02*
X19966Y20575D01*
X21489Y22099D02*
X20474D01*
Y21337D01*
X20981Y21591D01*
X21235D01*
X21489Y21337D01*
Y20829D01*
X21235Y20575D01*
X20727D01*
X20474Y20829D01*
X19791Y24770D02*
X19537Y25024D01*
X19029D01*
X18775Y24770D01*
Y23754D01*
X19029Y23500D01*
X19537D01*
X19791Y23754D01*
X21314Y25024D02*
X20299D01*
Y24262D01*
X20806Y24516D01*
X21060D01*
X21314Y24262D01*
Y23754D01*
X21060Y23500D01*
X20552D01*
X20299Y23754D01*
X19175Y39975D02*
X20699D01*
Y39213D01*
X20445Y38959D01*
X19937D01*
X19683Y39213D01*
Y39975D01*
Y39467D02*
X19175Y38959D01*
Y38451D02*
Y37944D01*
Y38198D01*
X20699D01*
X20445Y38451D01*
X19175Y36166D02*
Y37182D01*
X20191Y36166D01*
X20445D01*
X20699Y36420D01*
Y36928D01*
X20445Y37182D01*
X25899Y35175D02*
X24883D01*
X24375Y34667D01*
X24883Y34159D01*
X25899D01*
Y33651D02*
X24375D01*
Y32890D01*
X24629Y32636D01*
X25645D01*
X25899Y32890D01*
Y33651D01*
Y31112D02*
Y32128D01*
X25137D01*
X25391Y31620D01*
Y31366D01*
X25137Y31112D01*
X24629D01*
X24375Y31366D01*
Y31874D01*
X24629Y32128D01*
X32816Y38499D02*
X31800D01*
Y37737D01*
X32308D01*
X31800D01*
Y36975D01*
X33324Y38499D02*
Y37229D01*
X33577Y36975D01*
X34085D01*
X34339Y37229D01*
Y38499D01*
X35863Y36975D02*
X34847D01*
X35863Y37991D01*
Y38245D01*
X35609Y38499D01*
X35101D01*
X34847Y38245D01*
X35525Y41549D02*
X36541Y40025D01*
Y41549D02*
X35525Y40025D01*
X37810D02*
Y41549D01*
X37049Y40787D01*
X38064D01*
X17050Y34125D02*
Y35649D01*
X17812D01*
X18066Y35395D01*
Y34887D01*
X17812Y34633D01*
X17050D01*
X17558D02*
X18066Y34125D01*
X18574D02*
X19081D01*
X18827D01*
Y35649D01*
X18574Y35395D01*
X13924Y27200D02*
X12908D01*
X12400Y26692D01*
X12908Y26184D01*
X13924D01*
Y25676D02*
X12400D01*
Y24915D01*
X12654Y24661D01*
X13670D01*
X13924Y24915D01*
Y25676D01*
X12400Y23137D02*
Y24153D01*
X13416Y23137D01*
X13670D01*
X13924Y23391D01*
Y23899D01*
X13670Y24153D01*
X10850Y30524D02*
Y29508D01*
X11358Y29000D01*
X11866Y29508D01*
Y30524D01*
X12374D02*
X13389D01*
X12881D01*
Y29000D01*
X13897D02*
X14405D01*
X14151D01*
Y30524D01*
X13897Y30270D01*
X10150Y32649D02*
Y31633D01*
X10658Y31125D01*
X11166Y31633D01*
Y32649D01*
X11674D02*
Y31125D01*
X12435D01*
X12689Y31379D01*
Y32395D01*
X12435Y32649D01*
X11674D01*
X13197Y31125D02*
X13705D01*
X13451D01*
Y32649D01*
X13197Y32395D01*
X9300Y18825D02*
Y20349D01*
X10062D01*
X10316Y20095D01*
Y19587D01*
X10062Y19333D01*
X9300D01*
X9808D02*
X10316Y18825D01*
X10824Y20095D02*
X11077Y20349D01*
X11585D01*
X11839Y20095D01*
Y19841D01*
X11585Y19587D01*
X11331D01*
X11585D01*
X11839Y19333D01*
Y19079D01*
X11585Y18825D01*
X11077D01*
X10824Y19079D01*
X7216Y20520D02*
X6962Y20774D01*
X6454D01*
X6200Y20520D01*
Y19504D01*
X6454Y19250D01*
X6962D01*
X7216Y19504D01*
X7724Y19250D02*
X8231D01*
X7977D01*
Y20774D01*
X7724Y20520D01*
X7216Y14745D02*
X6962Y14999D01*
X6454D01*
X6200Y14745D01*
Y13729D01*
X6454Y13475D01*
X6962D01*
X7216Y13729D01*
X8739Y13475D02*
X7724D01*
X8739Y14491D01*
Y14745D01*
X8485Y14999D01*
X7977D01*
X7724Y14745D01*
X9275Y13925D02*
Y15449D01*
X10037D01*
X10291Y15195D01*
Y14687D01*
X10037Y14433D01*
X9275D01*
X9783D02*
X10291Y13925D01*
X11814D02*
X10799D01*
X11814Y14941D01*
Y15195D01*
X11560Y15449D01*
X11052D01*
X10799Y15195D01*
X1000Y26049D02*
X2016Y24525D01*
Y26049D02*
X1000Y24525D01*
X3539D02*
X2524D01*
X3539Y25541D01*
Y25795D01*
X3285Y26049D01*
X2777D01*
X2524Y25795D01*
X16675Y41899D02*
X17691Y40375D01*
Y41899D02*
X16675Y40375D01*
X18199D02*
X18706D01*
X18452D01*
Y41899D01*
X18199Y41645D01*
D42*
X48850Y19750D02*
D03*
X30750Y30200D02*
D03*
D43*
X56975Y20342D02*
G03*
X58750Y22150I-650J2414D01*
G01*
Y31350D02*
G03*
X56975Y33158I-2425J-606D01*
G01*
X47725D02*
G03*
X45950Y31350I650J-2414D01*
G01*
Y22150D02*
G03*
X47725Y20342I2425J606D01*
G01*
X31342Y22075D02*
G03*
X33150Y20300I2414J650D01*
G01*
X42350D02*
G03*
X44158Y22075I-606J2425D01*
G01*
Y31325D02*
G03*
X42350Y33100I-2414J-650D01*
G01*
X33150D02*
G03*
X31342Y31325I606J-2425D01*
G01*
X39200Y7650D02*
X40000D01*
X39200D02*
Y8650D01*
X41400Y7650D02*
X42200D01*
Y8650D01*
X38725Y6250D02*
Y11050D01*
X36625Y6250D02*
X38725D01*
X36625D02*
Y11050D01*
X38725D01*
X36625Y8150D02*
X38725D01*
X18950Y10250D02*
Y10675D01*
X18525Y10250D02*
X18950D01*
Y14825D02*
Y15250D01*
X18525D02*
X18950D01*
X13950D02*
X14375D01*
X13950Y14825D02*
Y15250D01*
Y10250D02*
Y10675D01*
Y10250D02*
X14375D01*
X13400Y10500D02*
X13575Y10675D01*
X10350D02*
X10525Y10500D01*
X13400D01*
X18075Y9875D02*
X18175Y9775D01*
X18100Y7825D02*
X18175Y7900D01*
Y9775D01*
X51750Y9525D02*
Y13125D01*
X53550Y9525D02*
Y13125D01*
X51750Y9525D02*
X53550D01*
X51750Y13125D02*
X53550D01*
X47575Y11225D02*
X51175D01*
X47575Y9425D02*
X51175D01*
X47575D02*
Y11225D01*
X51175Y9425D02*
Y11225D01*
X55350Y20342D02*
X56975D01*
X58750Y22144D02*
Y31350D01*
X55350Y33158D02*
X56975D01*
X47725D02*
X49350D01*
X45950Y22144D02*
Y31350D01*
X47725Y20342D02*
X49350D01*
X51950Y13500D02*
X54750D01*
X51950Y14900D02*
X54750D01*
Y13500D02*
Y14900D01*
X51950Y13500D02*
Y14900D01*
X52400Y17725D02*
X53200D01*
Y16725D02*
Y17725D01*
X50200D02*
X51000D01*
X50200Y16725D02*
Y17725D01*
X23025Y1925D02*
X36025D01*
X23025Y4725D02*
X36025D01*
Y1925D02*
Y4725D01*
X23025Y1925D02*
Y4725D01*
X31342Y22075D02*
Y23700D01*
X33144Y20300D02*
X42350D01*
X44158Y22075D02*
Y23700D01*
Y29700D02*
Y31325D01*
X33144Y33100D02*
X42350D01*
X31342Y29700D02*
Y31325D01*
X27175Y22325D02*
X27965D01*
X28685D02*
X29475D01*
X27175Y19025D02*
X27965D01*
X28685D02*
X29475D01*
X27175Y21950D02*
Y22325D01*
Y19025D02*
Y19400D01*
X29475Y21950D02*
Y22325D01*
Y19025D02*
Y19400D01*
X24725Y35850D02*
Y36650D01*
X23725Y35850D02*
X24725D01*
Y38050D02*
Y38850D01*
X23725D02*
X24725D01*
X23600Y16425D02*
Y20025D01*
X21800Y16425D02*
Y20025D01*
X23600D01*
X21800Y16425D02*
X23600D01*
Y20425D02*
Y24025D01*
X21800Y20425D02*
Y24025D01*
X23600D01*
X21800Y20425D02*
X23600D01*
X19400Y25375D02*
Y28175D01*
X20800Y25375D02*
Y28175D01*
X19400Y25375D02*
X20800D01*
X19400Y28175D02*
X20800D01*
X26522Y32383D02*
X26776D01*
X26522D02*
Y37717D01*
X26776D01*
X29824Y32383D02*
X30078D01*
Y37717D01*
X29824D02*
X30078D01*
X14622Y22533D02*
X14876D01*
X14622D02*
Y27867D01*
X14876D01*
X17924Y22533D02*
X18178D01*
Y27867D01*
X17924D02*
X18178D01*
X14900Y30100D02*
X15700D01*
X14900D02*
Y31100D01*
X17100Y30100D02*
X17900D01*
Y31100D01*
X2325Y10925D02*
X3950D01*
Y12550D01*
X4000Y21500D02*
Y23125D01*
X2375D02*
X4000D01*
X14500Y33400D02*
X16300D01*
X7075Y40000D02*
Y47600D01*
X16300D01*
X7100Y33400D02*
X9200D01*
X7100D02*
Y34250D01*
X16300Y33400D02*
Y47600D01*
D44*
X29925Y19025D02*
G03*
X29925Y19025I-50J0D01*
G01*
D45*
X28300Y35800D02*
D03*
X16400Y25950D02*
D03*
M02*
